%TF.GenerationSoftware,KiCad,Pcbnew,(6.99.0-1917-g23fb4c7433)*%
%TF.CreationDate,2022-06-08T13:57:36+10:00*%
%TF.ProjectId,samd21_gps_tracker,73616d64-3231-45f6-9770-735f74726163,rev?*%
%TF.SameCoordinates,Original*%
%TF.FileFunction,Legend,Bot*%
%TF.FilePolarity,Positive*%
%FSLAX46Y46*%
G04 Gerber Fmt 4.6, Leading zero omitted, Abs format (unit mm)*
G04 Created by KiCad (PCBNEW (6.99.0-1917-g23fb4c7433)) date 2022-06-08 13:57:36*
%MOMM*%
%LPD*%
G01*
G04 APERTURE LIST*
%ADD10C,0.170000*%
%ADD11C,0.300000*%
%ADD12C,0.150000*%
%ADD13C,0.050000*%
%ADD14C,0.010000*%
%ADD15C,0.120000*%
%ADD16C,0.127000*%
G04 APERTURE END LIST*
D10*
X143467380Y-38361905D02*
X142467380Y-38361905D01*
X142467380Y-38361905D02*
X142467380Y-38742857D01*
X142467380Y-38742857D02*
X142515000Y-38838095D01*
X142515000Y-38838095D02*
X142562619Y-38885714D01*
X142562619Y-38885714D02*
X142657857Y-38933333D01*
X142657857Y-38933333D02*
X142800714Y-38933333D01*
X142800714Y-38933333D02*
X142895952Y-38885714D01*
X142895952Y-38885714D02*
X142943571Y-38838095D01*
X142943571Y-38838095D02*
X142991190Y-38742857D01*
X142991190Y-38742857D02*
X142991190Y-38361905D01*
X143467380Y-39361905D02*
X142467380Y-39361905D01*
X142467380Y-39361905D02*
X142467380Y-39742857D01*
X142467380Y-39742857D02*
X142515000Y-39838095D01*
X142515000Y-39838095D02*
X142562619Y-39885714D01*
X142562619Y-39885714D02*
X142657857Y-39933333D01*
X142657857Y-39933333D02*
X142800714Y-39933333D01*
X142800714Y-39933333D02*
X142895952Y-39885714D01*
X142895952Y-39885714D02*
X142943571Y-39838095D01*
X142943571Y-39838095D02*
X142991190Y-39742857D01*
X142991190Y-39742857D02*
X142991190Y-39361905D01*
X143419761Y-40314286D02*
X143467380Y-40457143D01*
X143467380Y-40457143D02*
X143467380Y-40695238D01*
X143467380Y-40695238D02*
X143419761Y-40790476D01*
X143419761Y-40790476D02*
X143372142Y-40838095D01*
X143372142Y-40838095D02*
X143276904Y-40885714D01*
X143276904Y-40885714D02*
X143181666Y-40885714D01*
X143181666Y-40885714D02*
X143086428Y-40838095D01*
X143086428Y-40838095D02*
X143038809Y-40790476D01*
X143038809Y-40790476D02*
X142991190Y-40695238D01*
X142991190Y-40695238D02*
X142943571Y-40504762D01*
X142943571Y-40504762D02*
X142895952Y-40409524D01*
X142895952Y-40409524D02*
X142848333Y-40361905D01*
X142848333Y-40361905D02*
X142753095Y-40314286D01*
X142753095Y-40314286D02*
X142657857Y-40314286D01*
X142657857Y-40314286D02*
X142562619Y-40361905D01*
X142562619Y-40361905D02*
X142515000Y-40409524D01*
X142515000Y-40409524D02*
X142467380Y-40504762D01*
X142467380Y-40504762D02*
X142467380Y-40742857D01*
X142467380Y-40742857D02*
X142515000Y-40885714D01*
X145515000Y-38885714D02*
X145467380Y-38790476D01*
X145467380Y-38790476D02*
X145467380Y-38647619D01*
X145467380Y-38647619D02*
X145515000Y-38504762D01*
X145515000Y-38504762D02*
X145610238Y-38409524D01*
X145610238Y-38409524D02*
X145705476Y-38361905D01*
X145705476Y-38361905D02*
X145895952Y-38314286D01*
X145895952Y-38314286D02*
X146038809Y-38314286D01*
X146038809Y-38314286D02*
X146229285Y-38361905D01*
X146229285Y-38361905D02*
X146324523Y-38409524D01*
X146324523Y-38409524D02*
X146419761Y-38504762D01*
X146419761Y-38504762D02*
X146467380Y-38647619D01*
X146467380Y-38647619D02*
X146467380Y-38742857D01*
X146467380Y-38742857D02*
X146419761Y-38885714D01*
X146419761Y-38885714D02*
X146372142Y-38933333D01*
X146372142Y-38933333D02*
X146038809Y-38933333D01*
X146038809Y-38933333D02*
X146038809Y-38742857D01*
X146467380Y-39361905D02*
X145467380Y-39361905D01*
X145467380Y-39361905D02*
X145467380Y-39742857D01*
X145467380Y-39742857D02*
X145515000Y-39838095D01*
X145515000Y-39838095D02*
X145562619Y-39885714D01*
X145562619Y-39885714D02*
X145657857Y-39933333D01*
X145657857Y-39933333D02*
X145800714Y-39933333D01*
X145800714Y-39933333D02*
X145895952Y-39885714D01*
X145895952Y-39885714D02*
X145943571Y-39838095D01*
X145943571Y-39838095D02*
X145991190Y-39742857D01*
X145991190Y-39742857D02*
X145991190Y-39361905D01*
X146419761Y-40314286D02*
X146467380Y-40457143D01*
X146467380Y-40457143D02*
X146467380Y-40695238D01*
X146467380Y-40695238D02*
X146419761Y-40790476D01*
X146419761Y-40790476D02*
X146372142Y-40838095D01*
X146372142Y-40838095D02*
X146276904Y-40885714D01*
X146276904Y-40885714D02*
X146181666Y-40885714D01*
X146181666Y-40885714D02*
X146086428Y-40838095D01*
X146086428Y-40838095D02*
X146038809Y-40790476D01*
X146038809Y-40790476D02*
X145991190Y-40695238D01*
X145991190Y-40695238D02*
X145943571Y-40504762D01*
X145943571Y-40504762D02*
X145895952Y-40409524D01*
X145895952Y-40409524D02*
X145848333Y-40361905D01*
X145848333Y-40361905D02*
X145753095Y-40314286D01*
X145753095Y-40314286D02*
X145657857Y-40314286D01*
X145657857Y-40314286D02*
X145562619Y-40361905D01*
X145562619Y-40361905D02*
X145515000Y-40409524D01*
X145515000Y-40409524D02*
X145467380Y-40504762D01*
X145467380Y-40504762D02*
X145467380Y-40742857D01*
X145467380Y-40742857D02*
X145515000Y-40885714D01*
X149367380Y-38342857D02*
X148367380Y-38342857D01*
X148367380Y-38342857D02*
X149367380Y-38914285D01*
X149367380Y-38914285D02*
X148367380Y-38914285D01*
X148843571Y-39723809D02*
X148891190Y-39866666D01*
X148891190Y-39866666D02*
X148938809Y-39914285D01*
X148938809Y-39914285D02*
X149034047Y-39961904D01*
X149034047Y-39961904D02*
X149176904Y-39961904D01*
X149176904Y-39961904D02*
X149272142Y-39914285D01*
X149272142Y-39914285D02*
X149319761Y-39866666D01*
X149319761Y-39866666D02*
X149367380Y-39771428D01*
X149367380Y-39771428D02*
X149367380Y-39390476D01*
X149367380Y-39390476D02*
X148367380Y-39390476D01*
X148367380Y-39390476D02*
X148367380Y-39723809D01*
X148367380Y-39723809D02*
X148415000Y-39819047D01*
X148415000Y-39819047D02*
X148462619Y-39866666D01*
X148462619Y-39866666D02*
X148557857Y-39914285D01*
X148557857Y-39914285D02*
X148653095Y-39914285D01*
X148653095Y-39914285D02*
X148748333Y-39866666D01*
X148748333Y-39866666D02*
X148795952Y-39819047D01*
X148795952Y-39819047D02*
X148843571Y-39723809D01*
X148843571Y-39723809D02*
X148843571Y-39390476D01*
X149367380Y-40390476D02*
X148367380Y-40390476D01*
X149367380Y-41009523D02*
X149319761Y-40914285D01*
X149319761Y-40914285D02*
X149272142Y-40866666D01*
X149272142Y-40866666D02*
X149176904Y-40819047D01*
X149176904Y-40819047D02*
X148891190Y-40819047D01*
X148891190Y-40819047D02*
X148795952Y-40866666D01*
X148795952Y-40866666D02*
X148748333Y-40914285D01*
X148748333Y-40914285D02*
X148700714Y-41009523D01*
X148700714Y-41009523D02*
X148700714Y-41152380D01*
X148700714Y-41152380D02*
X148748333Y-41247618D01*
X148748333Y-41247618D02*
X148795952Y-41295237D01*
X148795952Y-41295237D02*
X148891190Y-41342856D01*
X148891190Y-41342856D02*
X149176904Y-41342856D01*
X149176904Y-41342856D02*
X149272142Y-41295237D01*
X149272142Y-41295237D02*
X149319761Y-41247618D01*
X149319761Y-41247618D02*
X149367380Y-41152380D01*
X149367380Y-41152380D02*
X149367380Y-41009523D01*
X148367380Y-41628571D02*
X148367380Y-42199999D01*
X149367380Y-41914285D02*
X148367380Y-41914285D01*
X152467380Y-38885714D02*
X152467380Y-38409524D01*
X152467380Y-38409524D02*
X151467380Y-38409524D01*
X152467380Y-39219048D02*
X151467380Y-39219048D01*
X151467380Y-39219048D02*
X152467380Y-39790476D01*
X152467380Y-39790476D02*
X151467380Y-39790476D01*
X152467380Y-40266667D02*
X151467380Y-40266667D01*
X152467380Y-40838095D02*
X151895952Y-40409524D01*
X151467380Y-40838095D02*
X152038809Y-40266667D01*
D11*
X209300000Y-40351071D02*
X209300000Y-38851071D01*
X209300000Y-38851071D02*
X208800000Y-39922500D01*
X208800000Y-39922500D02*
X208300000Y-38851071D01*
X208300000Y-38851071D02*
X208300000Y-40351071D01*
X207585714Y-40351071D02*
X207585714Y-38851071D01*
X207585714Y-38851071D02*
X207228571Y-38851071D01*
X207228571Y-38851071D02*
X207014285Y-38922500D01*
X207014285Y-38922500D02*
X206871428Y-39065357D01*
X206871428Y-39065357D02*
X206799999Y-39208214D01*
X206799999Y-39208214D02*
X206728571Y-39493928D01*
X206728571Y-39493928D02*
X206728571Y-39708214D01*
X206728571Y-39708214D02*
X206799999Y-39993928D01*
X206799999Y-39993928D02*
X206871428Y-40136785D01*
X206871428Y-40136785D02*
X207014285Y-40279642D01*
X207014285Y-40279642D02*
X207228571Y-40351071D01*
X207228571Y-40351071D02*
X207585714Y-40351071D01*
X221828571Y-38951071D02*
X221542857Y-38951071D01*
X221542857Y-38951071D02*
X221400000Y-39022500D01*
X221400000Y-39022500D02*
X221257143Y-39165357D01*
X221257143Y-39165357D02*
X221185714Y-39451071D01*
X221185714Y-39451071D02*
X221185714Y-39951071D01*
X221185714Y-39951071D02*
X221257143Y-40236785D01*
X221257143Y-40236785D02*
X221400000Y-40379642D01*
X221400000Y-40379642D02*
X221542857Y-40451071D01*
X221542857Y-40451071D02*
X221828571Y-40451071D01*
X221828571Y-40451071D02*
X221971429Y-40379642D01*
X221971429Y-40379642D02*
X222114286Y-40236785D01*
X222114286Y-40236785D02*
X222185714Y-39951071D01*
X222185714Y-39951071D02*
X222185714Y-39451071D01*
X222185714Y-39451071D02*
X222114286Y-39165357D01*
X222114286Y-39165357D02*
X221971429Y-39022500D01*
X221971429Y-39022500D02*
X221828571Y-38951071D01*
X220542857Y-40451071D02*
X220542857Y-38951071D01*
X220542857Y-38951071D02*
X219685714Y-40451071D01*
X219685714Y-40451071D02*
X219685714Y-38951071D01*
D10*
X155367380Y-39004761D02*
X155367380Y-38528571D01*
X155367380Y-38528571D02*
X154367380Y-38528571D01*
X155367380Y-39480952D02*
X155319761Y-39385714D01*
X155319761Y-39385714D02*
X155272142Y-39338095D01*
X155272142Y-39338095D02*
X155176904Y-39290476D01*
X155176904Y-39290476D02*
X154891190Y-39290476D01*
X154891190Y-39290476D02*
X154795952Y-39338095D01*
X154795952Y-39338095D02*
X154748333Y-39385714D01*
X154748333Y-39385714D02*
X154700714Y-39480952D01*
X154700714Y-39480952D02*
X154700714Y-39623809D01*
X154700714Y-39623809D02*
X154748333Y-39719047D01*
X154748333Y-39719047D02*
X154795952Y-39766666D01*
X154795952Y-39766666D02*
X154891190Y-39814285D01*
X154891190Y-39814285D02*
X155176904Y-39814285D01*
X155176904Y-39814285D02*
X155272142Y-39766666D01*
X155272142Y-39766666D02*
X155319761Y-39719047D01*
X155319761Y-39719047D02*
X155367380Y-39623809D01*
X155367380Y-39623809D02*
X155367380Y-39480952D01*
X155367380Y-40814285D02*
X154891190Y-40480952D01*
X155367380Y-40242857D02*
X154367380Y-40242857D01*
X154367380Y-40242857D02*
X154367380Y-40623809D01*
X154367380Y-40623809D02*
X154415000Y-40719047D01*
X154415000Y-40719047D02*
X154462619Y-40766666D01*
X154462619Y-40766666D02*
X154557857Y-40814285D01*
X154557857Y-40814285D02*
X154700714Y-40814285D01*
X154700714Y-40814285D02*
X154795952Y-40766666D01*
X154795952Y-40766666D02*
X154843571Y-40719047D01*
X154843571Y-40719047D02*
X154891190Y-40623809D01*
X154891190Y-40623809D02*
X154891190Y-40242857D01*
X155367380Y-41671428D02*
X154843571Y-41671428D01*
X154843571Y-41671428D02*
X154748333Y-41623809D01*
X154748333Y-41623809D02*
X154700714Y-41528571D01*
X154700714Y-41528571D02*
X154700714Y-41338095D01*
X154700714Y-41338095D02*
X154748333Y-41242857D01*
X155319761Y-41671428D02*
X155367380Y-41576190D01*
X155367380Y-41576190D02*
X155367380Y-41338095D01*
X155367380Y-41338095D02*
X155319761Y-41242857D01*
X155319761Y-41242857D02*
X155224523Y-41195238D01*
X155224523Y-41195238D02*
X155129285Y-41195238D01*
X155129285Y-41195238D02*
X155034047Y-41242857D01*
X155034047Y-41242857D02*
X154986428Y-41338095D01*
X154986428Y-41338095D02*
X154986428Y-41576190D01*
X154986428Y-41576190D02*
X154938809Y-41671428D01*
D12*
X147467380Y-64352380D02*
X146991190Y-64019047D01*
X147467380Y-63780952D02*
X146467380Y-63780952D01*
X146467380Y-63780952D02*
X146467380Y-64161904D01*
X146467380Y-64161904D02*
X146515000Y-64257142D01*
X146515000Y-64257142D02*
X146562619Y-64304761D01*
X146562619Y-64304761D02*
X146657857Y-64352380D01*
X146657857Y-64352380D02*
X146800714Y-64352380D01*
X146800714Y-64352380D02*
X146895952Y-64304761D01*
X146895952Y-64304761D02*
X146943571Y-64257142D01*
X146943571Y-64257142D02*
X146991190Y-64161904D01*
X146991190Y-64161904D02*
X146991190Y-63780952D01*
X147419761Y-64733333D02*
X147467380Y-64876190D01*
X147467380Y-64876190D02*
X147467380Y-65114285D01*
X147467380Y-65114285D02*
X147419761Y-65209523D01*
X147419761Y-65209523D02*
X147372142Y-65257142D01*
X147372142Y-65257142D02*
X147276904Y-65304761D01*
X147276904Y-65304761D02*
X147181666Y-65304761D01*
X147181666Y-65304761D02*
X147086428Y-65257142D01*
X147086428Y-65257142D02*
X147038809Y-65209523D01*
X147038809Y-65209523D02*
X146991190Y-65114285D01*
X146991190Y-65114285D02*
X146943571Y-64923809D01*
X146943571Y-64923809D02*
X146895952Y-64828571D01*
X146895952Y-64828571D02*
X146848333Y-64780952D01*
X146848333Y-64780952D02*
X146753095Y-64733333D01*
X146753095Y-64733333D02*
X146657857Y-64733333D01*
X146657857Y-64733333D02*
X146562619Y-64780952D01*
X146562619Y-64780952D02*
X146515000Y-64828571D01*
X146515000Y-64828571D02*
X146467380Y-64923809D01*
X146467380Y-64923809D02*
X146467380Y-65161904D01*
X146467380Y-65161904D02*
X146515000Y-65304761D01*
X146467380Y-65590476D02*
X146467380Y-66161904D01*
X147467380Y-65876190D02*
X146467380Y-65876190D01*
X220104762Y-72657380D02*
X220104762Y-71657380D01*
X220104762Y-71657380D02*
X219866667Y-71657380D01*
X219866667Y-71657380D02*
X219723810Y-71705000D01*
X219723810Y-71705000D02*
X219628572Y-71800238D01*
X219628572Y-71800238D02*
X219580953Y-71895476D01*
X219580953Y-71895476D02*
X219533334Y-72085952D01*
X219533334Y-72085952D02*
X219533334Y-72228809D01*
X219533334Y-72228809D02*
X219580953Y-72419285D01*
X219580953Y-72419285D02*
X219628572Y-72514523D01*
X219628572Y-72514523D02*
X219723810Y-72609761D01*
X219723810Y-72609761D02*
X219866667Y-72657380D01*
X219866667Y-72657380D02*
X220104762Y-72657380D01*
X218961905Y-72657380D02*
X219057143Y-72609761D01*
X219057143Y-72609761D02*
X219104762Y-72562142D01*
X219104762Y-72562142D02*
X219152381Y-72466904D01*
X219152381Y-72466904D02*
X219152381Y-72181190D01*
X219152381Y-72181190D02*
X219104762Y-72085952D01*
X219104762Y-72085952D02*
X219057143Y-72038333D01*
X219057143Y-72038333D02*
X218961905Y-71990714D01*
X218961905Y-71990714D02*
X218819048Y-71990714D01*
X218819048Y-71990714D02*
X218723810Y-72038333D01*
X218723810Y-72038333D02*
X218676191Y-72085952D01*
X218676191Y-72085952D02*
X218628572Y-72181190D01*
X218628572Y-72181190D02*
X218628572Y-72466904D01*
X218628572Y-72466904D02*
X218676191Y-72562142D01*
X218676191Y-72562142D02*
X218723810Y-72609761D01*
X218723810Y-72609761D02*
X218819048Y-72657380D01*
X218819048Y-72657380D02*
X218961905Y-72657380D01*
X218200000Y-71990714D02*
X218200000Y-72657380D01*
X218200000Y-72085952D02*
X218152381Y-72038333D01*
X218152381Y-72038333D02*
X218057143Y-71990714D01*
X218057143Y-71990714D02*
X217914286Y-71990714D01*
X217914286Y-71990714D02*
X217819048Y-72038333D01*
X217819048Y-72038333D02*
X217771429Y-72133571D01*
X217771429Y-72133571D02*
X217771429Y-72657380D01*
X217247619Y-71657380D02*
X217247619Y-71705000D01*
X217247619Y-71705000D02*
X217295238Y-71800238D01*
X217295238Y-71800238D02*
X217342857Y-71847857D01*
X216961905Y-71990714D02*
X216580953Y-71990714D01*
X216819048Y-71657380D02*
X216819048Y-72514523D01*
X216819048Y-72514523D02*
X216771429Y-72609761D01*
X216771429Y-72609761D02*
X216676191Y-72657380D01*
X216676191Y-72657380D02*
X216580953Y-72657380D01*
X215695238Y-72609761D02*
X215600000Y-72657380D01*
X215600000Y-72657380D02*
X215409524Y-72657380D01*
X215409524Y-72657380D02*
X215314286Y-72609761D01*
X215314286Y-72609761D02*
X215266667Y-72514523D01*
X215266667Y-72514523D02*
X215266667Y-72466904D01*
X215266667Y-72466904D02*
X215314286Y-72371666D01*
X215314286Y-72371666D02*
X215409524Y-72324047D01*
X215409524Y-72324047D02*
X215552381Y-72324047D01*
X215552381Y-72324047D02*
X215647619Y-72276428D01*
X215647619Y-72276428D02*
X215695238Y-72181190D01*
X215695238Y-72181190D02*
X215695238Y-72133571D01*
X215695238Y-72133571D02*
X215647619Y-72038333D01*
X215647619Y-72038333D02*
X215552381Y-71990714D01*
X215552381Y-71990714D02*
X215409524Y-71990714D01*
X215409524Y-71990714D02*
X215314286Y-72038333D01*
X214980952Y-71990714D02*
X214600000Y-71990714D01*
X214838095Y-71657380D02*
X214838095Y-72514523D01*
X214838095Y-72514523D02*
X214790476Y-72609761D01*
X214790476Y-72609761D02*
X214695238Y-72657380D01*
X214695238Y-72657380D02*
X214600000Y-72657380D01*
X213885714Y-72609761D02*
X213980952Y-72657380D01*
X213980952Y-72657380D02*
X214171428Y-72657380D01*
X214171428Y-72657380D02*
X214266666Y-72609761D01*
X214266666Y-72609761D02*
X214314285Y-72514523D01*
X214314285Y-72514523D02*
X214314285Y-72133571D01*
X214314285Y-72133571D02*
X214266666Y-72038333D01*
X214266666Y-72038333D02*
X214171428Y-71990714D01*
X214171428Y-71990714D02*
X213980952Y-71990714D01*
X213980952Y-71990714D02*
X213885714Y-72038333D01*
X213885714Y-72038333D02*
X213838095Y-72133571D01*
X213838095Y-72133571D02*
X213838095Y-72228809D01*
X213838095Y-72228809D02*
X214314285Y-72324047D01*
X212980952Y-72657380D02*
X212980952Y-72133571D01*
X212980952Y-72133571D02*
X213028571Y-72038333D01*
X213028571Y-72038333D02*
X213123809Y-71990714D01*
X213123809Y-71990714D02*
X213314285Y-71990714D01*
X213314285Y-71990714D02*
X213409523Y-72038333D01*
X212980952Y-72609761D02*
X213076190Y-72657380D01*
X213076190Y-72657380D02*
X213314285Y-72657380D01*
X213314285Y-72657380D02*
X213409523Y-72609761D01*
X213409523Y-72609761D02*
X213457142Y-72514523D01*
X213457142Y-72514523D02*
X213457142Y-72419285D01*
X213457142Y-72419285D02*
X213409523Y-72324047D01*
X213409523Y-72324047D02*
X213314285Y-72276428D01*
X213314285Y-72276428D02*
X213076190Y-72276428D01*
X213076190Y-72276428D02*
X212980952Y-72228809D01*
X212361904Y-72657380D02*
X212457142Y-72609761D01*
X212457142Y-72609761D02*
X212504761Y-72514523D01*
X212504761Y-72514523D02*
X212504761Y-71657380D01*
X211380951Y-72657380D02*
X211380951Y-71990714D01*
X211380951Y-72085952D02*
X211333332Y-72038333D01*
X211333332Y-72038333D02*
X211238094Y-71990714D01*
X211238094Y-71990714D02*
X211095237Y-71990714D01*
X211095237Y-71990714D02*
X210999999Y-72038333D01*
X210999999Y-72038333D02*
X210952380Y-72133571D01*
X210952380Y-72133571D02*
X210952380Y-72657380D01*
X210952380Y-72133571D02*
X210904761Y-72038333D01*
X210904761Y-72038333D02*
X210809523Y-71990714D01*
X210809523Y-71990714D02*
X210666666Y-71990714D01*
X210666666Y-71990714D02*
X210571427Y-72038333D01*
X210571427Y-72038333D02*
X210523808Y-72133571D01*
X210523808Y-72133571D02*
X210523808Y-72657380D01*
X210142856Y-71990714D02*
X209904761Y-72657380D01*
X209666666Y-71990714D02*
X209904761Y-72657380D01*
X209904761Y-72657380D02*
X209999999Y-72895476D01*
X209999999Y-72895476D02*
X210047618Y-72943095D01*
X210047618Y-72943095D02*
X210142856Y-72990714D01*
X208685713Y-72657380D02*
X208685713Y-71657380D01*
X208685713Y-72038333D02*
X208590475Y-71990714D01*
X208590475Y-71990714D02*
X208399999Y-71990714D01*
X208399999Y-71990714D02*
X208304761Y-72038333D01*
X208304761Y-72038333D02*
X208257142Y-72085952D01*
X208257142Y-72085952D02*
X208209523Y-72181190D01*
X208209523Y-72181190D02*
X208209523Y-72466904D01*
X208209523Y-72466904D02*
X208257142Y-72562142D01*
X208257142Y-72562142D02*
X208304761Y-72609761D01*
X208304761Y-72609761D02*
X208399999Y-72657380D01*
X208399999Y-72657380D02*
X208590475Y-72657380D01*
X208590475Y-72657380D02*
X208685713Y-72609761D01*
X207780951Y-72657380D02*
X207780951Y-71990714D01*
X207780951Y-71657380D02*
X207828570Y-71705000D01*
X207828570Y-71705000D02*
X207780951Y-71752619D01*
X207780951Y-71752619D02*
X207733332Y-71705000D01*
X207733332Y-71705000D02*
X207780951Y-71657380D01*
X207780951Y-71657380D02*
X207780951Y-71752619D01*
X207304761Y-72657380D02*
X207304761Y-71657380D01*
X207209523Y-72276428D02*
X206923809Y-72657380D01*
X206923809Y-71990714D02*
X207304761Y-72371666D01*
X206114285Y-72609761D02*
X206209523Y-72657380D01*
X206209523Y-72657380D02*
X206399999Y-72657380D01*
X206399999Y-72657380D02*
X206495237Y-72609761D01*
X206495237Y-72609761D02*
X206542856Y-72514523D01*
X206542856Y-72514523D02*
X206542856Y-72133571D01*
X206542856Y-72133571D02*
X206495237Y-72038333D01*
X206495237Y-72038333D02*
X206399999Y-71990714D01*
X206399999Y-71990714D02*
X206209523Y-71990714D01*
X206209523Y-71990714D02*
X206114285Y-72038333D01*
X206114285Y-72038333D02*
X206066666Y-72133571D01*
X206066666Y-72133571D02*
X206066666Y-72228809D01*
X206066666Y-72228809D02*
X206542856Y-72324047D01*
X205590475Y-72609761D02*
X205590475Y-72657380D01*
X205590475Y-72657380D02*
X205638094Y-72752619D01*
X205638094Y-72752619D02*
X205685713Y-72800238D01*
X204657142Y-71990714D02*
X204419047Y-72657380D01*
X204180952Y-71990714D02*
X204419047Y-72657380D01*
X204419047Y-72657380D02*
X204514285Y-72895476D01*
X204514285Y-72895476D02*
X204561904Y-72943095D01*
X204561904Y-72943095D02*
X204657142Y-72990714D01*
X203657142Y-72657380D02*
X203752380Y-72609761D01*
X203752380Y-72609761D02*
X203799999Y-72562142D01*
X203799999Y-72562142D02*
X203847618Y-72466904D01*
X203847618Y-72466904D02*
X203847618Y-72181190D01*
X203847618Y-72181190D02*
X203799999Y-72085952D01*
X203799999Y-72085952D02*
X203752380Y-72038333D01*
X203752380Y-72038333D02*
X203657142Y-71990714D01*
X203657142Y-71990714D02*
X203514285Y-71990714D01*
X203514285Y-71990714D02*
X203419047Y-72038333D01*
X203419047Y-72038333D02*
X203371428Y-72085952D01*
X203371428Y-72085952D02*
X203323809Y-72181190D01*
X203323809Y-72181190D02*
X203323809Y-72466904D01*
X203323809Y-72466904D02*
X203371428Y-72562142D01*
X203371428Y-72562142D02*
X203419047Y-72609761D01*
X203419047Y-72609761D02*
X203514285Y-72657380D01*
X203514285Y-72657380D02*
X203657142Y-72657380D01*
X202466666Y-71990714D02*
X202466666Y-72657380D01*
X202895237Y-71990714D02*
X202895237Y-72514523D01*
X202895237Y-72514523D02*
X202847618Y-72609761D01*
X202847618Y-72609761D02*
X202752380Y-72657380D01*
X202752380Y-72657380D02*
X202609523Y-72657380D01*
X202609523Y-72657380D02*
X202514285Y-72609761D01*
X202514285Y-72609761D02*
X202466666Y-72562142D01*
X200961904Y-72609761D02*
X201057142Y-72657380D01*
X201057142Y-72657380D02*
X201247618Y-72657380D01*
X201247618Y-72657380D02*
X201342856Y-72609761D01*
X201342856Y-72609761D02*
X201390475Y-72562142D01*
X201390475Y-72562142D02*
X201438094Y-72466904D01*
X201438094Y-72466904D02*
X201438094Y-72181190D01*
X201438094Y-72181190D02*
X201390475Y-72085952D01*
X201390475Y-72085952D02*
X201342856Y-72038333D01*
X201342856Y-72038333D02*
X201247618Y-71990714D01*
X201247618Y-71990714D02*
X201057142Y-71990714D01*
X201057142Y-71990714D02*
X200961904Y-72038333D01*
X200390475Y-71657380D02*
X200390475Y-71895476D01*
X200628570Y-71800238D02*
X200390475Y-71895476D01*
X200390475Y-71895476D02*
X200152380Y-71800238D01*
X200533332Y-72085952D02*
X200390475Y-71895476D01*
X200390475Y-71895476D02*
X200247618Y-72085952D01*
X199771427Y-71990714D02*
X199771427Y-72657380D01*
X199771427Y-72085952D02*
X199723808Y-72038333D01*
X199723808Y-72038333D02*
X199628570Y-71990714D01*
X199628570Y-71990714D02*
X199485713Y-71990714D01*
X199485713Y-71990714D02*
X199390475Y-72038333D01*
X199390475Y-72038333D02*
X199342856Y-72133571D01*
X199342856Y-72133571D02*
X199342856Y-72657380D01*
X199009522Y-71990714D02*
X198628570Y-71990714D01*
X198866665Y-71657380D02*
X198866665Y-72514523D01*
X198866665Y-72514523D02*
X198819046Y-72609761D01*
X198819046Y-72609761D02*
X198723808Y-72657380D01*
X198723808Y-72657380D02*
X198628570Y-72657380D01*
X198295236Y-72562142D02*
X198247617Y-72609761D01*
X198247617Y-72609761D02*
X198295236Y-72657380D01*
X198295236Y-72657380D02*
X198342855Y-72609761D01*
X198342855Y-72609761D02*
X198295236Y-72562142D01*
X198295236Y-72562142D02*
X198295236Y-72657380D01*
X198295236Y-72276428D02*
X198342855Y-71705000D01*
X198342855Y-71705000D02*
X198295236Y-71657380D01*
X198295236Y-71657380D02*
X198247617Y-71705000D01*
X198247617Y-71705000D02*
X198295236Y-72276428D01*
X198295236Y-72276428D02*
X198295236Y-71657380D01*
X216328571Y-73991666D02*
X215852381Y-73991666D01*
X216423809Y-74277380D02*
X216090476Y-73277380D01*
X216090476Y-73277380D02*
X215757143Y-74277380D01*
X214995238Y-74229761D02*
X215090476Y-74277380D01*
X215090476Y-74277380D02*
X215280952Y-74277380D01*
X215280952Y-74277380D02*
X215376190Y-74229761D01*
X215376190Y-74229761D02*
X215423809Y-74182142D01*
X215423809Y-74182142D02*
X215471428Y-74086904D01*
X215471428Y-74086904D02*
X215471428Y-73801190D01*
X215471428Y-73801190D02*
X215423809Y-73705952D01*
X215423809Y-73705952D02*
X215376190Y-73658333D01*
X215376190Y-73658333D02*
X215280952Y-73610714D01*
X215280952Y-73610714D02*
X215090476Y-73610714D01*
X215090476Y-73610714D02*
X214995238Y-73658333D01*
X214185714Y-74229761D02*
X214280952Y-74277380D01*
X214280952Y-74277380D02*
X214471428Y-74277380D01*
X214471428Y-74277380D02*
X214566666Y-74229761D01*
X214566666Y-74229761D02*
X214614285Y-74134523D01*
X214614285Y-74134523D02*
X214614285Y-73753571D01*
X214614285Y-73753571D02*
X214566666Y-73658333D01*
X214566666Y-73658333D02*
X214471428Y-73610714D01*
X214471428Y-73610714D02*
X214280952Y-73610714D01*
X214280952Y-73610714D02*
X214185714Y-73658333D01*
X214185714Y-73658333D02*
X214138095Y-73753571D01*
X214138095Y-73753571D02*
X214138095Y-73848809D01*
X214138095Y-73848809D02*
X214614285Y-73944047D01*
X213280952Y-74277380D02*
X213280952Y-73753571D01*
X213280952Y-73753571D02*
X213328571Y-73658333D01*
X213328571Y-73658333D02*
X213423809Y-73610714D01*
X213423809Y-73610714D02*
X213614285Y-73610714D01*
X213614285Y-73610714D02*
X213709523Y-73658333D01*
X213280952Y-74229761D02*
X213376190Y-74277380D01*
X213376190Y-74277380D02*
X213614285Y-74277380D01*
X213614285Y-74277380D02*
X213709523Y-74229761D01*
X213709523Y-74229761D02*
X213757142Y-74134523D01*
X213757142Y-74134523D02*
X213757142Y-74039285D01*
X213757142Y-74039285D02*
X213709523Y-73944047D01*
X213709523Y-73944047D02*
X213614285Y-73896428D01*
X213614285Y-73896428D02*
X213376190Y-73896428D01*
X213376190Y-73896428D02*
X213280952Y-73848809D01*
X211538095Y-74372619D02*
X211633333Y-74325000D01*
X211633333Y-74325000D02*
X211728571Y-74229761D01*
X211728571Y-74229761D02*
X211871428Y-74086904D01*
X211871428Y-74086904D02*
X211966666Y-74039285D01*
X211966666Y-74039285D02*
X212061904Y-74039285D01*
X212014285Y-74277380D02*
X212109523Y-74229761D01*
X212109523Y-74229761D02*
X212204761Y-74134523D01*
X212204761Y-74134523D02*
X212252380Y-73944047D01*
X212252380Y-73944047D02*
X212252380Y-73610714D01*
X212252380Y-73610714D02*
X212204761Y-73420238D01*
X212204761Y-73420238D02*
X212109523Y-73325000D01*
X212109523Y-73325000D02*
X212014285Y-73277380D01*
X212014285Y-73277380D02*
X211823809Y-73277380D01*
X211823809Y-73277380D02*
X211728571Y-73325000D01*
X211728571Y-73325000D02*
X211633333Y-73420238D01*
X211633333Y-73420238D02*
X211585714Y-73610714D01*
X211585714Y-73610714D02*
X211585714Y-73944047D01*
X211585714Y-73944047D02*
X211633333Y-74134523D01*
X211633333Y-74134523D02*
X211728571Y-74229761D01*
X211728571Y-74229761D02*
X211823809Y-74277380D01*
X211823809Y-74277380D02*
X212014285Y-74277380D01*
X210728571Y-73610714D02*
X210728571Y-74277380D01*
X211157142Y-73610714D02*
X211157142Y-74134523D01*
X211157142Y-74134523D02*
X211109523Y-74229761D01*
X211109523Y-74229761D02*
X211014285Y-74277380D01*
X211014285Y-74277380D02*
X210871428Y-74277380D01*
X210871428Y-74277380D02*
X210776190Y-74229761D01*
X210776190Y-74229761D02*
X210728571Y-74182142D01*
X210252380Y-74277380D02*
X210252380Y-73610714D01*
X210252380Y-73277380D02*
X210299999Y-73325000D01*
X210299999Y-73325000D02*
X210252380Y-73372619D01*
X210252380Y-73372619D02*
X210204761Y-73325000D01*
X210204761Y-73325000D02*
X210252380Y-73277380D01*
X210252380Y-73277380D02*
X210252380Y-73372619D01*
X209347619Y-73610714D02*
X209347619Y-74420238D01*
X209347619Y-74420238D02*
X209395238Y-74515476D01*
X209395238Y-74515476D02*
X209442857Y-74563095D01*
X209442857Y-74563095D02*
X209538095Y-74610714D01*
X209538095Y-74610714D02*
X209680952Y-74610714D01*
X209680952Y-74610714D02*
X209776190Y-74563095D01*
X209347619Y-74229761D02*
X209442857Y-74277380D01*
X209442857Y-74277380D02*
X209633333Y-74277380D01*
X209633333Y-74277380D02*
X209728571Y-74229761D01*
X209728571Y-74229761D02*
X209776190Y-74182142D01*
X209776190Y-74182142D02*
X209823809Y-74086904D01*
X209823809Y-74086904D02*
X209823809Y-73801190D01*
X209823809Y-73801190D02*
X209776190Y-73705952D01*
X209776190Y-73705952D02*
X209728571Y-73658333D01*
X209728571Y-73658333D02*
X209633333Y-73610714D01*
X209633333Y-73610714D02*
X209442857Y-73610714D01*
X209442857Y-73610714D02*
X209347619Y-73658333D01*
X208442857Y-73610714D02*
X208442857Y-74420238D01*
X208442857Y-74420238D02*
X208490476Y-74515476D01*
X208490476Y-74515476D02*
X208538095Y-74563095D01*
X208538095Y-74563095D02*
X208633333Y-74610714D01*
X208633333Y-74610714D02*
X208776190Y-74610714D01*
X208776190Y-74610714D02*
X208871428Y-74563095D01*
X208442857Y-74229761D02*
X208538095Y-74277380D01*
X208538095Y-74277380D02*
X208728571Y-74277380D01*
X208728571Y-74277380D02*
X208823809Y-74229761D01*
X208823809Y-74229761D02*
X208871428Y-74182142D01*
X208871428Y-74182142D02*
X208919047Y-74086904D01*
X208919047Y-74086904D02*
X208919047Y-73801190D01*
X208919047Y-73801190D02*
X208871428Y-73705952D01*
X208871428Y-73705952D02*
X208823809Y-73658333D01*
X208823809Y-73658333D02*
X208728571Y-73610714D01*
X208728571Y-73610714D02*
X208538095Y-73610714D01*
X208538095Y-73610714D02*
X208442857Y-73658333D01*
X207128571Y-74610714D02*
X207128571Y-73182142D01*
X205242857Y-74277380D02*
X205576190Y-73801190D01*
X205814285Y-74277380D02*
X205814285Y-73277380D01*
X205814285Y-73277380D02*
X205433333Y-73277380D01*
X205433333Y-73277380D02*
X205338095Y-73325000D01*
X205338095Y-73325000D02*
X205290476Y-73372619D01*
X205290476Y-73372619D02*
X205242857Y-73467857D01*
X205242857Y-73467857D02*
X205242857Y-73610714D01*
X205242857Y-73610714D02*
X205290476Y-73705952D01*
X205290476Y-73705952D02*
X205338095Y-73753571D01*
X205338095Y-73753571D02*
X205433333Y-73801190D01*
X205433333Y-73801190D02*
X205814285Y-73801190D01*
X204433333Y-74229761D02*
X204528571Y-74277380D01*
X204528571Y-74277380D02*
X204719047Y-74277380D01*
X204719047Y-74277380D02*
X204814285Y-74229761D01*
X204814285Y-74229761D02*
X204861904Y-74134523D01*
X204861904Y-74134523D02*
X204861904Y-73753571D01*
X204861904Y-73753571D02*
X204814285Y-73658333D01*
X204814285Y-73658333D02*
X204719047Y-73610714D01*
X204719047Y-73610714D02*
X204528571Y-73610714D01*
X204528571Y-73610714D02*
X204433333Y-73658333D01*
X204433333Y-73658333D02*
X204385714Y-73753571D01*
X204385714Y-73753571D02*
X204385714Y-73848809D01*
X204385714Y-73848809D02*
X204861904Y-73944047D01*
X204052380Y-73610714D02*
X203814285Y-74277380D01*
X203814285Y-74277380D02*
X203576190Y-73610714D01*
X202404761Y-73277380D02*
X202309523Y-73277380D01*
X202309523Y-73277380D02*
X202214285Y-73325000D01*
X202214285Y-73325000D02*
X202166666Y-73372619D01*
X202166666Y-73372619D02*
X202119047Y-73467857D01*
X202119047Y-73467857D02*
X202071428Y-73658333D01*
X202071428Y-73658333D02*
X202071428Y-73896428D01*
X202071428Y-73896428D02*
X202119047Y-74086904D01*
X202119047Y-74086904D02*
X202166666Y-74182142D01*
X202166666Y-74182142D02*
X202214285Y-74229761D01*
X202214285Y-74229761D02*
X202309523Y-74277380D01*
X202309523Y-74277380D02*
X202404761Y-74277380D01*
X202404761Y-74277380D02*
X202499999Y-74229761D01*
X202499999Y-74229761D02*
X202547618Y-74182142D01*
X202547618Y-74182142D02*
X202595237Y-74086904D01*
X202595237Y-74086904D02*
X202642856Y-73896428D01*
X202642856Y-73896428D02*
X202642856Y-73658333D01*
X202642856Y-73658333D02*
X202595237Y-73467857D01*
X202595237Y-73467857D02*
X202547618Y-73372619D01*
X202547618Y-73372619D02*
X202499999Y-73325000D01*
X202499999Y-73325000D02*
X202404761Y-73277380D01*
D10*
X139700714Y-38814285D02*
X140367380Y-38814285D01*
X139700714Y-38385714D02*
X140224523Y-38385714D01*
X140224523Y-38385714D02*
X140319761Y-38433333D01*
X140319761Y-38433333D02*
X140367380Y-38528571D01*
X140367380Y-38528571D02*
X140367380Y-38671428D01*
X140367380Y-38671428D02*
X140319761Y-38766666D01*
X140319761Y-38766666D02*
X140272142Y-38814285D01*
X140272142Y-39861904D02*
X140319761Y-39814285D01*
X140319761Y-39814285D02*
X140367380Y-39671428D01*
X140367380Y-39671428D02*
X140367380Y-39576190D01*
X140367380Y-39576190D02*
X140319761Y-39433333D01*
X140319761Y-39433333D02*
X140224523Y-39338095D01*
X140224523Y-39338095D02*
X140129285Y-39290476D01*
X140129285Y-39290476D02*
X139938809Y-39242857D01*
X139938809Y-39242857D02*
X139795952Y-39242857D01*
X139795952Y-39242857D02*
X139605476Y-39290476D01*
X139605476Y-39290476D02*
X139510238Y-39338095D01*
X139510238Y-39338095D02*
X139415000Y-39433333D01*
X139415000Y-39433333D02*
X139367380Y-39576190D01*
X139367380Y-39576190D02*
X139367380Y-39671428D01*
X139367380Y-39671428D02*
X139415000Y-39814285D01*
X139415000Y-39814285D02*
X139462619Y-39861904D01*
D12*
%TO.C,C31*%
X171702142Y-56557142D02*
X171749761Y-56509523D01*
X171749761Y-56509523D02*
X171797380Y-56366666D01*
X171797380Y-56366666D02*
X171797380Y-56271428D01*
X171797380Y-56271428D02*
X171749761Y-56128571D01*
X171749761Y-56128571D02*
X171654523Y-56033333D01*
X171654523Y-56033333D02*
X171559285Y-55985714D01*
X171559285Y-55985714D02*
X171368809Y-55938095D01*
X171368809Y-55938095D02*
X171225952Y-55938095D01*
X171225952Y-55938095D02*
X171035476Y-55985714D01*
X171035476Y-55985714D02*
X170940238Y-56033333D01*
X170940238Y-56033333D02*
X170845000Y-56128571D01*
X170845000Y-56128571D02*
X170797380Y-56271428D01*
X170797380Y-56271428D02*
X170797380Y-56366666D01*
X170797380Y-56366666D02*
X170845000Y-56509523D01*
X170845000Y-56509523D02*
X170892619Y-56557142D01*
X170797380Y-56890476D02*
X170797380Y-57509523D01*
X170797380Y-57509523D02*
X171178333Y-57176190D01*
X171178333Y-57176190D02*
X171178333Y-57319047D01*
X171178333Y-57319047D02*
X171225952Y-57414285D01*
X171225952Y-57414285D02*
X171273571Y-57461904D01*
X171273571Y-57461904D02*
X171368809Y-57509523D01*
X171368809Y-57509523D02*
X171606904Y-57509523D01*
X171606904Y-57509523D02*
X171702142Y-57461904D01*
X171702142Y-57461904D02*
X171749761Y-57414285D01*
X171749761Y-57414285D02*
X171797380Y-57319047D01*
X171797380Y-57319047D02*
X171797380Y-57033333D01*
X171797380Y-57033333D02*
X171749761Y-56938095D01*
X171749761Y-56938095D02*
X171702142Y-56890476D01*
X171797380Y-58461904D02*
X171797380Y-57890476D01*
X171797380Y-58176190D02*
X170797380Y-58176190D01*
X170797380Y-58176190D02*
X170940238Y-58080952D01*
X170940238Y-58080952D02*
X171035476Y-57985714D01*
X171035476Y-57985714D02*
X171083095Y-57890476D01*
D13*
%TO.C,J3*%
X186569329Y-74306516D02*
X186569329Y-75021609D01*
X186569329Y-75021609D02*
X186617002Y-75164627D01*
X186617002Y-75164627D02*
X186712348Y-75259973D01*
X186712348Y-75259973D02*
X186855366Y-75307646D01*
X186855366Y-75307646D02*
X186950712Y-75307646D01*
X186187946Y-74306516D02*
X185568199Y-74306516D01*
X185568199Y-74306516D02*
X185901909Y-74687899D01*
X185901909Y-74687899D02*
X185758890Y-74687899D01*
X185758890Y-74687899D02*
X185663545Y-74735571D01*
X185663545Y-74735571D02*
X185615872Y-74783244D01*
X185615872Y-74783244D02*
X185568199Y-74878590D01*
X185568199Y-74878590D02*
X185568199Y-75116954D01*
X185568199Y-75116954D02*
X185615872Y-75212300D01*
X185615872Y-75212300D02*
X185663545Y-75259973D01*
X185663545Y-75259973D02*
X185758890Y-75307646D01*
X185758890Y-75307646D02*
X186044927Y-75307646D01*
X186044927Y-75307646D02*
X186140273Y-75259973D01*
X186140273Y-75259973D02*
X186187946Y-75212300D01*
X191008179Y-68894043D02*
X191008179Y-69705291D01*
X191008179Y-69705291D02*
X190960459Y-69800732D01*
X190960459Y-69800732D02*
X190912738Y-69848453D01*
X190912738Y-69848453D02*
X190817297Y-69896173D01*
X190817297Y-69896173D02*
X190626415Y-69896173D01*
X190626415Y-69896173D02*
X190530974Y-69848453D01*
X190530974Y-69848453D02*
X190483254Y-69800732D01*
X190483254Y-69800732D02*
X190435533Y-69705291D01*
X190435533Y-69705291D02*
X190435533Y-68894043D01*
X189958329Y-69800732D02*
X189910609Y-69848453D01*
X189910609Y-69848453D02*
X189958329Y-69896173D01*
X189958329Y-69896173D02*
X190006050Y-69848453D01*
X190006050Y-69848453D02*
X189958329Y-69800732D01*
X189958329Y-69800732D02*
X189958329Y-69896173D01*
X189147081Y-69371248D02*
X189481124Y-69371248D01*
X189481124Y-69896173D02*
X189481124Y-68894043D01*
X189481124Y-68894043D02*
X189003919Y-68894043D01*
X188144950Y-69896173D02*
X188622155Y-69896173D01*
X188622155Y-69896173D02*
X188622155Y-68894043D01*
X187810907Y-69514409D02*
X187047380Y-69514409D01*
X185997529Y-69896173D02*
X186331573Y-69418968D01*
X186570175Y-69896173D02*
X186570175Y-68894043D01*
X186570175Y-68894043D02*
X186188411Y-68894043D01*
X186188411Y-68894043D02*
X186092970Y-68941764D01*
X186092970Y-68941764D02*
X186045250Y-68989484D01*
X186045250Y-68989484D02*
X185997529Y-69084925D01*
X185997529Y-69084925D02*
X185997529Y-69228086D01*
X185997529Y-69228086D02*
X186045250Y-69323527D01*
X186045250Y-69323527D02*
X186092970Y-69371248D01*
X186092970Y-69371248D02*
X186188411Y-69418968D01*
X186188411Y-69418968D02*
X186570175Y-69418968D01*
X185568045Y-69514409D02*
X184804518Y-69514409D01*
X184375034Y-69848453D02*
X184231872Y-69896173D01*
X184231872Y-69896173D02*
X183993270Y-69896173D01*
X183993270Y-69896173D02*
X183897829Y-69848453D01*
X183897829Y-69848453D02*
X183850108Y-69800732D01*
X183850108Y-69800732D02*
X183802388Y-69705291D01*
X183802388Y-69705291D02*
X183802388Y-69609850D01*
X183802388Y-69609850D02*
X183850108Y-69514409D01*
X183850108Y-69514409D02*
X183897829Y-69466689D01*
X183897829Y-69466689D02*
X183993270Y-69418968D01*
X183993270Y-69418968D02*
X184184152Y-69371248D01*
X184184152Y-69371248D02*
X184279593Y-69323527D01*
X184279593Y-69323527D02*
X184327313Y-69275807D01*
X184327313Y-69275807D02*
X184375034Y-69180366D01*
X184375034Y-69180366D02*
X184375034Y-69084925D01*
X184375034Y-69084925D02*
X184327313Y-68989484D01*
X184327313Y-68989484D02*
X184279593Y-68941764D01*
X184279593Y-68941764D02*
X184184152Y-68894043D01*
X184184152Y-68894043D02*
X183945549Y-68894043D01*
X183945549Y-68894043D02*
X183802388Y-68941764D01*
X183372903Y-69896173D02*
X183372903Y-68894043D01*
X183372903Y-68894043D02*
X183038860Y-69609850D01*
X183038860Y-69609850D02*
X182704816Y-68894043D01*
X182704816Y-68894043D02*
X182704816Y-69896173D01*
X182370774Y-68894043D02*
X181798128Y-68894043D01*
X182084451Y-69896173D02*
X182084451Y-68894043D01*
%TO.C,J7*%
G36*
X213871500Y-47548167D02*
G01*
X212622666Y-47548167D01*
X212622666Y-46193500D01*
X213871500Y-46193500D01*
X213871500Y-47548167D01*
G37*
D14*
X213871500Y-47548167D02*
X212622666Y-47548167D01*
X212622666Y-46193500D01*
X213871500Y-46193500D01*
X213871500Y-47548167D01*
G36*
X213860916Y-51199417D02*
G01*
X213256221Y-51205026D01*
X213100272Y-51205982D01*
X212958236Y-51205913D01*
X212835583Y-51204896D01*
X212737784Y-51203010D01*
X212670310Y-51200332D01*
X212638632Y-51196941D01*
X212637096Y-51196207D01*
X212633574Y-51172261D01*
X212630364Y-51111150D01*
X212627573Y-51018039D01*
X212625309Y-50898096D01*
X212623680Y-50756488D01*
X212622796Y-50598382D01*
X212622666Y-50507972D01*
X212622666Y-49834167D01*
X213872086Y-49834167D01*
X213860916Y-51199417D01*
G37*
X213860916Y-51199417D02*
X213256221Y-51205026D01*
X213100272Y-51205982D01*
X212958236Y-51205913D01*
X212835583Y-51204896D01*
X212737784Y-51203010D01*
X212670310Y-51200332D01*
X212638632Y-51196941D01*
X212637096Y-51196207D01*
X212633574Y-51172261D01*
X212630364Y-51111150D01*
X212627573Y-51018039D01*
X212625309Y-50898096D01*
X212623680Y-50756488D01*
X212622796Y-50598382D01*
X212622666Y-50507972D01*
X212622666Y-49834167D01*
X213872086Y-49834167D01*
X213860916Y-51199417D01*
G36*
X212241666Y-47544797D02*
G01*
X212098791Y-47557134D01*
X211925992Y-47572415D01*
X211790336Y-47585393D01*
X211686740Y-47596787D01*
X211610121Y-47607317D01*
X211555397Y-47617702D01*
X211517484Y-47628662D01*
X211491301Y-47640914D01*
X211486801Y-47643730D01*
X211433344Y-47699791D01*
X211388728Y-47786783D01*
X211357833Y-47893488D01*
X211347847Y-47963051D01*
X211338320Y-48071019D01*
X211655775Y-48084759D01*
X211745858Y-48087703D01*
X211871933Y-48090431D01*
X212027659Y-48092874D01*
X212206696Y-48094963D01*
X212402702Y-48096631D01*
X212609337Y-48097807D01*
X212820260Y-48098423D01*
X212922365Y-48098500D01*
X213871500Y-48098500D01*
X213871500Y-49305000D01*
X211334161Y-49305000D01*
X211342766Y-49373792D01*
X211350872Y-49438688D01*
X211360745Y-49517838D01*
X211363884Y-49543024D01*
X211395436Y-49651582D01*
X211458400Y-49733173D01*
X211550500Y-49784969D01*
X211561618Y-49788519D01*
X211617761Y-49799964D01*
X211703353Y-49811077D01*
X211805526Y-49820396D01*
X211885664Y-49825345D01*
X211986742Y-49830839D01*
X212075991Y-49836844D01*
X212142620Y-49842566D01*
X212172875Y-49846503D01*
X212220500Y-49856140D01*
X212220500Y-51210000D01*
X212077625Y-51207823D01*
X211992083Y-51203793D01*
X211882703Y-51194823D01*
X211767475Y-51182502D01*
X211714747Y-51175780D01*
X211426245Y-51118665D01*
X211162377Y-51028125D01*
X210919660Y-50902382D01*
X210694611Y-50739659D01*
X210500406Y-50556008D01*
X210350344Y-50383452D01*
X210231435Y-50213883D01*
X210140261Y-50039060D01*
X210073399Y-49850745D01*
X210027431Y-49640698D01*
X209998935Y-49400681D01*
X209994253Y-49336750D01*
X209988435Y-49217992D01*
X209984506Y-49072871D01*
X209982364Y-48908058D01*
X209981906Y-48730226D01*
X209983030Y-48546048D01*
X209985634Y-48362197D01*
X209989614Y-48185343D01*
X209994869Y-48022162D01*
X210001297Y-47879323D01*
X210008794Y-47763501D01*
X210017259Y-47681368D01*
X210019919Y-47664583D01*
X210053569Y-47541199D01*
X210110813Y-47399278D01*
X210185633Y-47250531D01*
X210272005Y-47106669D01*
X210363910Y-46979404D01*
X210385732Y-46953086D01*
X210563580Y-46763133D01*
X210747921Y-46604194D01*
X210943919Y-46473888D01*
X211156736Y-46369830D01*
X211391536Y-46289637D01*
X211653482Y-46230923D01*
X211947737Y-46191307D01*
X212056458Y-46181733D01*
X212241666Y-46167326D01*
X212241666Y-47544797D01*
G37*
X212241666Y-47544797D02*
X212098791Y-47557134D01*
X211925992Y-47572415D01*
X211790336Y-47585393D01*
X211686740Y-47596787D01*
X211610121Y-47607317D01*
X211555397Y-47617702D01*
X211517484Y-47628662D01*
X211491301Y-47640914D01*
X211486801Y-47643730D01*
X211433344Y-47699791D01*
X211388728Y-47786783D01*
X211357833Y-47893488D01*
X211347847Y-47963051D01*
X211338320Y-48071019D01*
X211655775Y-48084759D01*
X211745858Y-48087703D01*
X211871933Y-48090431D01*
X212027659Y-48092874D01*
X212206696Y-48094963D01*
X212402702Y-48096631D01*
X212609337Y-48097807D01*
X212820260Y-48098423D01*
X212922365Y-48098500D01*
X213871500Y-48098500D01*
X213871500Y-49305000D01*
X211334161Y-49305000D01*
X211342766Y-49373792D01*
X211350872Y-49438688D01*
X211360745Y-49517838D01*
X211363884Y-49543024D01*
X211395436Y-49651582D01*
X211458400Y-49733173D01*
X211550500Y-49784969D01*
X211561618Y-49788519D01*
X211617761Y-49799964D01*
X211703353Y-49811077D01*
X211805526Y-49820396D01*
X211885664Y-49825345D01*
X211986742Y-49830839D01*
X212075991Y-49836844D01*
X212142620Y-49842566D01*
X212172875Y-49846503D01*
X212220500Y-49856140D01*
X212220500Y-51210000D01*
X212077625Y-51207823D01*
X211992083Y-51203793D01*
X211882703Y-51194823D01*
X211767475Y-51182502D01*
X211714747Y-51175780D01*
X211426245Y-51118665D01*
X211162377Y-51028125D01*
X210919660Y-50902382D01*
X210694611Y-50739659D01*
X210500406Y-50556008D01*
X210350344Y-50383452D01*
X210231435Y-50213883D01*
X210140261Y-50039060D01*
X210073399Y-49850745D01*
X210027431Y-49640698D01*
X209998935Y-49400681D01*
X209994253Y-49336750D01*
X209988435Y-49217992D01*
X209984506Y-49072871D01*
X209982364Y-48908058D01*
X209981906Y-48730226D01*
X209983030Y-48546048D01*
X209985634Y-48362197D01*
X209989614Y-48185343D01*
X209994869Y-48022162D01*
X210001297Y-47879323D01*
X210008794Y-47763501D01*
X210017259Y-47681368D01*
X210019919Y-47664583D01*
X210053569Y-47541199D01*
X210110813Y-47399278D01*
X210185633Y-47250531D01*
X210272005Y-47106669D01*
X210363910Y-46979404D01*
X210385732Y-46953086D01*
X210563580Y-46763133D01*
X210747921Y-46604194D01*
X210943919Y-46473888D01*
X211156736Y-46369830D01*
X211391536Y-46289637D01*
X211653482Y-46230923D01*
X211947737Y-46191307D01*
X212056458Y-46181733D01*
X212241666Y-46167326D01*
X212241666Y-47544797D01*
G36*
X213000863Y-43680888D02*
G01*
X213381303Y-43682934D01*
X213720397Y-43685210D01*
X214019130Y-43687733D01*
X214278490Y-43690519D01*
X214499463Y-43693583D01*
X214683035Y-43696941D01*
X214830193Y-43700611D01*
X214941923Y-43704607D01*
X215019212Y-43708946D01*
X215063045Y-43713644D01*
X215067416Y-43714519D01*
X215169383Y-43746006D01*
X215292066Y-43796495D01*
X215422179Y-43859775D01*
X215546434Y-43929631D01*
X215599673Y-43963395D01*
X215754710Y-44083974D01*
X215905827Y-44233918D01*
X216043401Y-44401775D01*
X216157808Y-44576093D01*
X216223101Y-44705289D01*
X216238315Y-44740378D01*
X216252022Y-44773154D01*
X216264315Y-44805903D01*
X216275286Y-44840912D01*
X216285028Y-44880466D01*
X216293632Y-44926854D01*
X216301192Y-44982361D01*
X216307799Y-45049274D01*
X216313545Y-45129879D01*
X216318525Y-45226464D01*
X216322828Y-45341313D01*
X216326549Y-45476715D01*
X216329778Y-45634955D01*
X216332610Y-45818320D01*
X216335135Y-46029096D01*
X216337447Y-46269571D01*
X216339637Y-46542030D01*
X216341799Y-46848760D01*
X216344024Y-47192048D01*
X216346404Y-47574180D01*
X216347749Y-47791343D01*
X216364559Y-50500437D01*
X216281732Y-50665170D01*
X216202993Y-50804699D01*
X216118253Y-50915091D01*
X216015852Y-51009165D01*
X215889309Y-51096519D01*
X215732008Y-51194560D01*
X215008129Y-51204850D01*
X214837023Y-51206805D01*
X214679424Y-51207688D01*
X214540317Y-51207543D01*
X214424691Y-51206413D01*
X214337532Y-51204340D01*
X214283828Y-51201368D01*
X214268375Y-51198459D01*
X214264464Y-51173916D01*
X214260903Y-51112282D01*
X214257815Y-51018799D01*
X214255322Y-50898706D01*
X214253548Y-50757247D01*
X214252613Y-50599662D01*
X214252500Y-50520416D01*
X214252500Y-49859054D01*
X214331875Y-49847690D01*
X214398549Y-49839156D01*
X214484001Y-49829517D01*
X214538250Y-49823961D01*
X214677154Y-49806534D01*
X214781180Y-49783648D01*
X214857665Y-49753014D01*
X214913945Y-49712344D01*
X214922026Y-49704273D01*
X214982750Y-49640894D01*
X214982750Y-48701922D01*
X214982695Y-48477971D01*
X214982417Y-48292449D01*
X214981745Y-48141454D01*
X214980508Y-48021081D01*
X214978536Y-47927427D01*
X214975658Y-47856589D01*
X214971703Y-47804662D01*
X214966500Y-47767743D01*
X214959879Y-47741929D01*
X214951669Y-47723315D01*
X214941699Y-47707999D01*
X214939128Y-47704517D01*
X214900247Y-47665142D01*
X214845115Y-47633706D01*
X214767434Y-47608219D01*
X214660909Y-47586690D01*
X214519242Y-47567129D01*
X214495916Y-47564396D01*
X214263083Y-47537583D01*
X214257494Y-46865542D01*
X214251905Y-46193500D01*
X215020863Y-46193500D01*
X215007328Y-45986965D01*
X214991538Y-45803942D01*
X214970115Y-45657854D01*
X214942031Y-45543553D01*
X214906255Y-45455892D01*
X214898232Y-45441355D01*
X214833095Y-45352133D01*
X214741535Y-45257221D01*
X214635798Y-45168149D01*
X214537940Y-45102103D01*
X214432416Y-45040249D01*
X212950750Y-45025959D01*
X212618086Y-45022675D01*
X212325051Y-45019568D01*
X212068940Y-45016532D01*
X211847049Y-45013460D01*
X211656673Y-45010246D01*
X211495108Y-45006783D01*
X211359651Y-45002964D01*
X211247596Y-44998684D01*
X211156240Y-44993835D01*
X211082879Y-44988312D01*
X211024808Y-44982007D01*
X210979322Y-44974814D01*
X210943719Y-44966627D01*
X210915293Y-44957338D01*
X210891340Y-44946843D01*
X210887011Y-44944672D01*
X210767470Y-44862125D01*
X210662621Y-44747232D01*
X210597471Y-44642334D01*
X210567715Y-44577256D01*
X210550183Y-44515348D01*
X210541720Y-44440871D01*
X210539265Y-44352000D01*
X210540459Y-44255069D01*
X210548044Y-44184198D01*
X210565105Y-44123242D01*
X210594733Y-44056058D01*
X210596588Y-44052268D01*
X210688595Y-43912411D01*
X210815446Y-43796590D01*
X210931061Y-43726707D01*
X211040143Y-43671432D01*
X213000863Y-43680888D01*
G37*
X213000863Y-43680888D02*
X213381303Y-43682934D01*
X213720397Y-43685210D01*
X214019130Y-43687733D01*
X214278490Y-43690519D01*
X214499463Y-43693583D01*
X214683035Y-43696941D01*
X214830193Y-43700611D01*
X214941923Y-43704607D01*
X215019212Y-43708946D01*
X215063045Y-43713644D01*
X215067416Y-43714519D01*
X215169383Y-43746006D01*
X215292066Y-43796495D01*
X215422179Y-43859775D01*
X215546434Y-43929631D01*
X215599673Y-43963395D01*
X215754710Y-44083974D01*
X215905827Y-44233918D01*
X216043401Y-44401775D01*
X216157808Y-44576093D01*
X216223101Y-44705289D01*
X216238315Y-44740378D01*
X216252022Y-44773154D01*
X216264315Y-44805903D01*
X216275286Y-44840912D01*
X216285028Y-44880466D01*
X216293632Y-44926854D01*
X216301192Y-44982361D01*
X216307799Y-45049274D01*
X216313545Y-45129879D01*
X216318525Y-45226464D01*
X216322828Y-45341313D01*
X216326549Y-45476715D01*
X216329778Y-45634955D01*
X216332610Y-45818320D01*
X216335135Y-46029096D01*
X216337447Y-46269571D01*
X216339637Y-46542030D01*
X216341799Y-46848760D01*
X216344024Y-47192048D01*
X216346404Y-47574180D01*
X216347749Y-47791343D01*
X216364559Y-50500437D01*
X216281732Y-50665170D01*
X216202993Y-50804699D01*
X216118253Y-50915091D01*
X216015852Y-51009165D01*
X215889309Y-51096519D01*
X215732008Y-51194560D01*
X215008129Y-51204850D01*
X214837023Y-51206805D01*
X214679424Y-51207688D01*
X214540317Y-51207543D01*
X214424691Y-51206413D01*
X214337532Y-51204340D01*
X214283828Y-51201368D01*
X214268375Y-51198459D01*
X214264464Y-51173916D01*
X214260903Y-51112282D01*
X214257815Y-51018799D01*
X214255322Y-50898706D01*
X214253548Y-50757247D01*
X214252613Y-50599662D01*
X214252500Y-50520416D01*
X214252500Y-49859054D01*
X214331875Y-49847690D01*
X214398549Y-49839156D01*
X214484001Y-49829517D01*
X214538250Y-49823961D01*
X214677154Y-49806534D01*
X214781180Y-49783648D01*
X214857665Y-49753014D01*
X214913945Y-49712344D01*
X214922026Y-49704273D01*
X214982750Y-49640894D01*
X214982750Y-48701922D01*
X214982695Y-48477971D01*
X214982417Y-48292449D01*
X214981745Y-48141454D01*
X214980508Y-48021081D01*
X214978536Y-47927427D01*
X214975658Y-47856589D01*
X214971703Y-47804662D01*
X214966500Y-47767743D01*
X214959879Y-47741929D01*
X214951669Y-47723315D01*
X214941699Y-47707999D01*
X214939128Y-47704517D01*
X214900247Y-47665142D01*
X214845115Y-47633706D01*
X214767434Y-47608219D01*
X214660909Y-47586690D01*
X214519242Y-47567129D01*
X214495916Y-47564396D01*
X214263083Y-47537583D01*
X214257494Y-46865542D01*
X214251905Y-46193500D01*
X215020863Y-46193500D01*
X215007328Y-45986965D01*
X214991538Y-45803942D01*
X214970115Y-45657854D01*
X214942031Y-45543553D01*
X214906255Y-45455892D01*
X214898232Y-45441355D01*
X214833095Y-45352133D01*
X214741535Y-45257221D01*
X214635798Y-45168149D01*
X214537940Y-45102103D01*
X214432416Y-45040249D01*
X212950750Y-45025959D01*
X212618086Y-45022675D01*
X212325051Y-45019568D01*
X212068940Y-45016532D01*
X211847049Y-45013460D01*
X211656673Y-45010246D01*
X211495108Y-45006783D01*
X211359651Y-45002964D01*
X211247596Y-44998684D01*
X211156240Y-44993835D01*
X211082879Y-44988312D01*
X211024808Y-44982007D01*
X210979322Y-44974814D01*
X210943719Y-44966627D01*
X210915293Y-44957338D01*
X210891340Y-44946843D01*
X210887011Y-44944672D01*
X210767470Y-44862125D01*
X210662621Y-44747232D01*
X210597471Y-44642334D01*
X210567715Y-44577256D01*
X210550183Y-44515348D01*
X210541720Y-44440871D01*
X210539265Y-44352000D01*
X210540459Y-44255069D01*
X210548044Y-44184198D01*
X210565105Y-44123242D01*
X210594733Y-44056058D01*
X210596588Y-44052268D01*
X210688595Y-43912411D01*
X210815446Y-43796590D01*
X210931061Y-43726707D01*
X211040143Y-43671432D01*
X213000863Y-43680888D01*
D15*
%TO.C,C1*%
X152859420Y-55490000D02*
X153140580Y-55490000D01*
X152859420Y-56510000D02*
X153140580Y-56510000D01*
%TO.C,C2*%
X153140580Y-53510000D02*
X152859420Y-53510000D01*
X153140580Y-52490000D02*
X152859420Y-52490000D01*
%TO.C,C3*%
X155640580Y-59010000D02*
X155359420Y-59010000D01*
X155640580Y-57990000D02*
X155359420Y-57990000D01*
%TO.C,C4*%
X155640580Y-60710000D02*
X155359420Y-60710000D01*
X155640580Y-59690000D02*
X155359420Y-59690000D01*
%TO.C,C5*%
X218740580Y-56310000D02*
X218459420Y-56310000D01*
X218740580Y-55290000D02*
X218459420Y-55290000D01*
%TO.C,C6*%
X228790000Y-53115563D02*
X228790000Y-51830000D01*
X228790000Y-53115563D02*
X227725563Y-54180000D01*
X228790000Y-48424437D02*
X228790000Y-49710000D01*
X228790000Y-48424437D02*
X227725563Y-47360000D01*
X227725563Y-54180000D02*
X221970000Y-54180000D01*
X227725563Y-47360000D02*
X221970000Y-47360000D01*
X221970000Y-54180000D02*
X221970000Y-51830000D01*
X221970000Y-47360000D02*
X221970000Y-49710000D01*
%TO.C,C7*%
X223054437Y-62810000D02*
X224340000Y-62810000D01*
X223054437Y-62810000D02*
X221990000Y-61745563D01*
X227745563Y-62810000D02*
X226460000Y-62810000D01*
X227745563Y-62810000D02*
X228810000Y-61745563D01*
X221990000Y-61745563D02*
X221990000Y-55990000D01*
X228810000Y-61745563D02*
X228810000Y-55990000D01*
X221990000Y-55990000D02*
X224340000Y-55990000D01*
X228810000Y-55990000D02*
X226460000Y-55990000D01*
%TO.C,C8*%
X161510000Y-66859420D02*
X161510000Y-67140580D01*
X160490000Y-66859420D02*
X160490000Y-67140580D01*
%TO.C,C9*%
X163190000Y-48140580D02*
X163190000Y-47859420D01*
X164210000Y-48140580D02*
X164210000Y-47859420D01*
%TO.C,C10*%
X210640580Y-66010000D02*
X210359420Y-66010000D01*
X210640580Y-64990000D02*
X210359420Y-64990000D01*
%TO.C,C11*%
X206010000Y-47609420D02*
X206010000Y-47890580D01*
X204990000Y-47609420D02*
X204990000Y-47890580D01*
%TO.C,C12*%
X197990000Y-47890580D02*
X197990000Y-47609420D01*
X199010000Y-47890580D02*
X199010000Y-47609420D01*
%TO.C,C13*%
X172090000Y-58711252D02*
X172090000Y-57288748D01*
X173910000Y-58711252D02*
X173910000Y-57288748D01*
%TO.C,C14*%
X195859420Y-38390000D02*
X196140580Y-38390000D01*
X195859420Y-39410000D02*
X196140580Y-39410000D01*
%TO.C,C15*%
X192640580Y-39260000D02*
X192359420Y-39260000D01*
X192640580Y-38240000D02*
X192359420Y-38240000D01*
%TO.C,C16*%
X197510000Y-68359420D02*
X197510000Y-68640580D01*
X196490000Y-68359420D02*
X196490000Y-68640580D01*
%TO.C,C17*%
X196590000Y-57711252D02*
X196590000Y-56288748D01*
X198410000Y-57711252D02*
X198410000Y-56288748D01*
%TO.C,C18*%
X195859420Y-40240000D02*
X196140580Y-40240000D01*
X195859420Y-41260000D02*
X196140580Y-41260000D01*
%TO.C,C19*%
X192640580Y-41260000D02*
X192359420Y-41260000D01*
X192640580Y-40240000D02*
X192359420Y-40240000D01*
%TO.C,C20*%
X166260000Y-42609420D02*
X166260000Y-42890580D01*
X165240000Y-42609420D02*
X165240000Y-42890580D01*
%TO.C,C21*%
X164610000Y-42609420D02*
X164610000Y-42890580D01*
X163590000Y-42609420D02*
X163590000Y-42890580D01*
%TO.C,C22*%
X172010000Y-52359420D02*
X172010000Y-52640580D01*
X170990000Y-52359420D02*
X170990000Y-52640580D01*
%TO.C,C23*%
X170010000Y-52359420D02*
X170010000Y-52640580D01*
X168990000Y-52359420D02*
X168990000Y-52640580D01*
%TO.C,C24*%
X168010000Y-52359420D02*
X168010000Y-52640580D01*
X166990000Y-52359420D02*
X166990000Y-52640580D01*
%TO.C,C25*%
X178359420Y-70990000D02*
X178640580Y-70990000D01*
X178359420Y-72010000D02*
X178640580Y-72010000D01*
%TO.C,C26*%
X160510000Y-73359420D02*
X160510000Y-73640580D01*
X159490000Y-73359420D02*
X159490000Y-73640580D01*
%TO.C,C27*%
X162510000Y-73359420D02*
X162510000Y-73640580D01*
X161490000Y-73359420D02*
X161490000Y-73640580D01*
%TO.C,C28*%
X166510000Y-70040000D02*
X166510000Y-74250000D01*
X163490000Y-70040000D02*
X166510000Y-70040000D01*
X163490000Y-74250000D02*
X163490000Y-70040000D01*
%TO.C,C29*%
X170510000Y-70040000D02*
X170510000Y-74250000D01*
X167490000Y-70040000D02*
X170510000Y-70040000D01*
X167490000Y-74250000D02*
X167490000Y-70040000D01*
%TO.C,C30*%
X174510000Y-70040000D02*
X174510000Y-74250000D01*
X171490000Y-70040000D02*
X174510000Y-70040000D01*
X171490000Y-74250000D02*
X171490000Y-70040000D01*
%TO.C,D1*%
X140765000Y-40985000D02*
X140765000Y-38700000D01*
X142235000Y-40985000D02*
X140765000Y-40985000D01*
X142235000Y-38700000D02*
X142235000Y-40985000D01*
%TO.C,D2*%
X143765000Y-40985000D02*
X143765000Y-38700000D01*
X145235000Y-40985000D02*
X143765000Y-40985000D01*
X145235000Y-38700000D02*
X145235000Y-40985000D01*
%TO.C,D3*%
X229550000Y-64600000D02*
X229550000Y-70000000D01*
X226250000Y-64600000D02*
X229550000Y-64600000D01*
X226250000Y-64600000D02*
X226250000Y-70000000D01*
%TO.C,D4*%
X146765000Y-40985000D02*
X146765000Y-38700000D01*
X148235000Y-40985000D02*
X146765000Y-40985000D01*
X148235000Y-38700000D02*
X148235000Y-40985000D01*
%TO.C,D5*%
X149765000Y-41085000D02*
X149765000Y-38800000D01*
X151235000Y-41085000D02*
X149765000Y-41085000D01*
X151235000Y-38800000D02*
X151235000Y-41085000D01*
%TO.C,D6*%
X152765000Y-41085000D02*
X152765000Y-38800000D01*
X154235000Y-41085000D02*
X152765000Y-41085000D01*
X154235000Y-38800000D02*
X154235000Y-41085000D01*
%TO.C,D7*%
X225500000Y-44700000D02*
X225500000Y-40850000D01*
X227500000Y-44700000D02*
X225500000Y-44700000D01*
X227500000Y-44700000D02*
X227500000Y-40850000D01*
%TO.C,D8*%
X222500000Y-44700000D02*
X222500000Y-40850000D01*
X224500000Y-44700000D02*
X222500000Y-44700000D01*
X224500000Y-44700000D02*
X224500000Y-40850000D01*
%TO.C,FB1*%
X162990000Y-51662779D02*
X162990000Y-51337221D01*
X164010000Y-51662779D02*
X164010000Y-51337221D01*
%TO.C,J1*%
X142295000Y-68230000D02*
X142295000Y-68865000D01*
X142930000Y-68230000D02*
X142295000Y-68230000D01*
%TO.C,J2*%
X240710000Y-48890000D02*
X240710000Y-65740000D01*
X237400000Y-48890000D02*
X237400000Y-65740000D01*
X231290000Y-48890000D02*
X240710000Y-48890000D01*
X231290000Y-48890000D02*
X231290000Y-50550000D01*
X230000000Y-51300000D02*
X230000000Y-51900000D01*
X230600000Y-51600000D02*
X230000000Y-51300000D01*
X230000000Y-51900000D02*
X230600000Y-51600000D01*
X231290000Y-52650000D02*
X231290000Y-54360000D01*
X231290000Y-56460000D02*
X231290000Y-58170000D01*
X231290000Y-60270000D02*
X231290000Y-61980000D01*
X240710000Y-65740000D02*
X231290000Y-65740000D01*
X231290000Y-65740000D02*
X231290000Y-64080000D01*
%TO.C,J5*%
X137600000Y-61200000D02*
X137600000Y-51800000D01*
X139500000Y-61200000D02*
X137600000Y-61200000D01*
X143400000Y-61200000D02*
X141400000Y-61200000D01*
X139500000Y-51800000D02*
X137600000Y-51800000D01*
X143400000Y-51800000D02*
X141400000Y-51800000D01*
%TO.C,L1*%
X217740000Y-65150000D02*
X217740000Y-65950000D01*
X217740000Y-69850000D02*
X217740000Y-70700000D01*
X218350000Y-71310000D02*
X224050000Y-71310000D01*
X224050000Y-64490000D02*
X218400000Y-64490000D01*
X224660000Y-65950000D02*
X224660000Y-65100000D01*
X224660000Y-70700000D02*
X224660000Y-69850000D01*
X218400000Y-64490000D02*
G75*
G03*
X217740000Y-65150000I2J-660002D01*
G01*
X217740000Y-70700000D02*
G75*
G03*
X218350000Y-71310000I610000J0D01*
G01*
X224660000Y-65100000D02*
G75*
G03*
X224050000Y-64490000I-610000J0D01*
G01*
X224050000Y-71310000D02*
G75*
G03*
X224660000Y-70700000I0J610000D01*
G01*
%TO.C,Q1*%
X139920000Y-46540000D02*
X139920000Y-48000000D01*
X139920000Y-46540000D02*
X140850000Y-46540000D01*
X143080000Y-46540000D02*
X143080000Y-48700000D01*
X143080000Y-46540000D02*
X142150000Y-46540000D01*
%TO.C,Q2*%
X143420000Y-46540000D02*
X143420000Y-48000000D01*
X143420000Y-46540000D02*
X144350000Y-46540000D01*
X146580000Y-46540000D02*
X146580000Y-48700000D01*
X146580000Y-46540000D02*
X145650000Y-46540000D01*
%TO.C,Q3*%
X146920000Y-46540000D02*
X146920000Y-48000000D01*
X146920000Y-46540000D02*
X147850000Y-46540000D01*
X150080000Y-46540000D02*
X150080000Y-48700000D01*
X150080000Y-46540000D02*
X149150000Y-46540000D01*
%TO.C,Q4*%
X150420000Y-46540000D02*
X150420000Y-48000000D01*
X150420000Y-46540000D02*
X151350000Y-46540000D01*
X153580000Y-46540000D02*
X153580000Y-48700000D01*
X153580000Y-46540000D02*
X152650000Y-46540000D01*
%TO.C,Q5*%
X153920000Y-46540000D02*
X153920000Y-48000000D01*
X153920000Y-46540000D02*
X154850000Y-46540000D01*
X157080000Y-46540000D02*
X157080000Y-48700000D01*
X157080000Y-46540000D02*
X156150000Y-46540000D01*
%TO.C,Q6*%
X170740000Y-43430000D02*
X170740000Y-41000000D01*
X173800000Y-43450000D02*
X173800000Y-41600000D01*
X172750000Y-43450000D02*
X173800000Y-43450000D01*
X170750000Y-43450000D02*
X171750000Y-43450000D01*
%TO.C,Q7*%
X167240000Y-43430000D02*
X167240000Y-41000000D01*
X170300000Y-43450000D02*
X170300000Y-41600000D01*
X169250000Y-43450000D02*
X170300000Y-43450000D01*
X167250000Y-43450000D02*
X168250000Y-43450000D01*
%TO.C,Q8*%
X167990000Y-67930000D02*
X167990000Y-65500000D01*
X171050000Y-67950000D02*
X171050000Y-66100000D01*
X170000000Y-67950000D02*
X171050000Y-67950000D01*
X168000000Y-67950000D02*
X169000000Y-67950000D01*
%TO.C,R1*%
X164477500Y-67237258D02*
X164477500Y-66762742D01*
X165522500Y-67237258D02*
X165522500Y-66762742D01*
%TO.C,R2*%
X162477500Y-67237258D02*
X162477500Y-66762742D01*
X163522500Y-67237258D02*
X163522500Y-66762742D01*
%TO.C,R3*%
X155737258Y-66522500D02*
X155262742Y-66522500D01*
X155737258Y-65477500D02*
X155262742Y-65477500D01*
%TO.C,R4*%
X142022500Y-42762742D02*
X142022500Y-43237258D01*
X140977500Y-42762742D02*
X140977500Y-43237258D01*
%TO.C,R5*%
X145022500Y-42762742D02*
X145022500Y-43237258D01*
X143977500Y-42762742D02*
X143977500Y-43237258D01*
%TO.C,R6*%
X155262742Y-63477500D02*
X155737258Y-63477500D01*
X155262742Y-64522500D02*
X155737258Y-64522500D01*
%TO.C,R7*%
X155262742Y-61477500D02*
X155737258Y-61477500D01*
X155262742Y-62522500D02*
X155737258Y-62522500D01*
%TO.C,R8*%
X148022500Y-42762742D02*
X148022500Y-43237258D01*
X146977500Y-42762742D02*
X146977500Y-43237258D01*
%TO.C,R9*%
X151022500Y-42762742D02*
X151022500Y-43237258D01*
X149977500Y-42762742D02*
X149977500Y-43237258D01*
%TO.C,R10*%
X154022500Y-42762742D02*
X154022500Y-43237258D01*
X152977500Y-42762742D02*
X152977500Y-43237258D01*
%TO.C,R11*%
X162022500Y-51262742D02*
X162022500Y-51737258D01*
X160977500Y-51262742D02*
X160977500Y-51737258D01*
%TO.C,R12*%
X166022500Y-51262742D02*
X166022500Y-51737258D01*
X164977500Y-51262742D02*
X164977500Y-51737258D01*
%TO.C,R13*%
X170977500Y-49237258D02*
X170977500Y-48762742D01*
X172022500Y-49237258D02*
X172022500Y-48762742D01*
%TO.C,R14*%
X168977500Y-49237258D02*
X168977500Y-48762742D01*
X170022500Y-49237258D02*
X170022500Y-48762742D01*
%TO.C,R15*%
X166977500Y-49237258D02*
X166977500Y-48762742D01*
X168022500Y-49237258D02*
X168022500Y-48762742D01*
%TO.C,R17*%
X148262742Y-52977500D02*
X148737258Y-52977500D01*
X148262742Y-54022500D02*
X148737258Y-54022500D01*
%TO.C,R18*%
X148262742Y-54977500D02*
X148737258Y-54977500D01*
X148262742Y-56022500D02*
X148737258Y-56022500D01*
%TO.C,R19*%
X148762742Y-56977500D02*
X149237258Y-56977500D01*
X148762742Y-58022500D02*
X149237258Y-58022500D01*
%TO.C,SW1*%
X148130000Y-66870000D02*
X148430000Y-66870000D01*
X150970000Y-66870000D02*
X151270000Y-66870000D01*
X151270000Y-66870000D02*
X151270000Y-62730000D01*
X148130000Y-62730000D02*
X148130000Y-66870000D01*
X148430000Y-62730000D02*
X148130000Y-62730000D01*
X151270000Y-62730000D02*
X150970000Y-62730000D01*
%TO.C,SW2*%
X211050000Y-39670000D02*
X211050000Y-38880000D01*
X211650000Y-37870000D02*
X217350000Y-37870000D01*
X212900000Y-40720000D02*
X214600000Y-40720000D01*
X213100000Y-36580000D02*
X213300000Y-36370000D01*
X213100000Y-37870000D02*
X213100000Y-36580000D01*
X213300000Y-36370000D02*
X214200000Y-36370000D01*
X214400000Y-36580000D02*
X214200000Y-36370000D01*
X214400000Y-36580000D02*
X214400000Y-37870000D01*
X215900000Y-40720000D02*
X216100000Y-40720000D01*
X217950000Y-38880000D02*
X217950000Y-39670000D01*
%TO.C,U1*%
X217000000Y-62560000D02*
X218950000Y-62560000D01*
X217000000Y-62560000D02*
X215050000Y-62560000D01*
X217000000Y-57440000D02*
X220450000Y-57440000D01*
X217000000Y-57440000D02*
X215050000Y-57440000D01*
D12*
%TO.C,U2*%
X167125000Y-55575000D02*
X166600000Y-55575000D01*
X167125000Y-55575000D02*
X167125000Y-56100000D01*
X160300000Y-55575000D02*
X160300000Y-54200000D01*
X159875000Y-55575000D02*
X160300000Y-55575000D01*
X159875000Y-55575000D02*
X159875000Y-56100000D01*
X167125000Y-62825000D02*
X167125000Y-62300000D01*
X167125000Y-62825000D02*
X166600000Y-62825000D01*
X159875000Y-62825000D02*
X159875000Y-62300000D01*
X159875000Y-62825000D02*
X160400000Y-62825000D01*
D15*
%TO.C,U3*%
X202140000Y-51615000D02*
X202140000Y-51860000D01*
X202140000Y-63140000D02*
X200325000Y-63140000D01*
X202140000Y-63385000D02*
X202140000Y-63140000D01*
X206000000Y-51615000D02*
X202140000Y-51615000D01*
X206000000Y-51615000D02*
X209860000Y-51615000D01*
X206000000Y-63385000D02*
X202140000Y-63385000D01*
X206000000Y-63385000D02*
X209860000Y-63385000D01*
X209860000Y-51615000D02*
X209860000Y-51860000D01*
X209860000Y-63385000D02*
X209860000Y-63140000D01*
%TO.C,U5*%
X194000000Y-68940000D02*
X189572000Y-68940000D01*
X194000000Y-68200000D02*
X194000000Y-68940000D01*
X194000000Y-42750000D02*
X194652000Y-42750000D01*
X194000000Y-42750000D02*
X194000000Y-42060000D01*
X194000000Y-42060000D02*
X176000000Y-42060000D01*
X180428000Y-68940000D02*
X176000000Y-68940000D01*
X176000000Y-68940000D02*
X176000000Y-68200000D01*
X176000000Y-42060000D02*
X176000000Y-42750000D01*
%TO.C,U6*%
X203000000Y-65440000D02*
X201050000Y-65440000D01*
X203000000Y-65440000D02*
X204950000Y-65440000D01*
X203000000Y-70560000D02*
X199550000Y-70560000D01*
X203000000Y-70560000D02*
X204950000Y-70560000D01*
%TO.C,U7*%
X160650000Y-40150000D02*
X160650000Y-40650000D01*
X160650000Y-40650000D02*
X160650000Y-40650000D01*
X160650000Y-42350000D02*
X160650000Y-42350000D01*
X161150000Y-40150000D02*
X160650000Y-40150000D01*
X161150000Y-42350000D02*
X160650000Y-42350000D01*
X162350000Y-40150000D02*
X162350000Y-40150000D01*
X162350000Y-42350000D02*
X162850000Y-42350000D01*
X162850000Y-40150000D02*
X162350000Y-40150000D01*
X162850000Y-40650000D02*
X162850000Y-40150000D01*
X162850000Y-41850000D02*
X162850000Y-41850000D01*
X162850000Y-42350000D02*
X162850000Y-41850000D01*
%TO.C,Y1*%
X155125000Y-55375000D02*
X155125000Y-54025000D01*
X156875000Y-55375000D02*
X156875000Y-54025000D01*
%TO.C,Y2*%
X200350000Y-49750000D02*
X200350000Y-45750000D01*
X203650000Y-49750000D02*
X200350000Y-49750000D01*
%TO.C,R16*%
X148762742Y-58977500D02*
X149237258Y-58977500D01*
X148762742Y-60022500D02*
X149237258Y-60022500D01*
%TO.C,C31*%
X169490000Y-57340580D02*
X169490000Y-57059420D01*
X170510000Y-57340580D02*
X170510000Y-57059420D01*
D16*
%TO.C,J3*%
X187800000Y-74000000D02*
X185200000Y-74000000D01*
D15*
%TO.C,R21*%
X227462742Y-45477500D02*
X227937258Y-45477500D01*
X227462742Y-46522500D02*
X227937258Y-46522500D01*
%TO.C,R22*%
X230862742Y-45477500D02*
X231337258Y-45477500D01*
X230862742Y-46522500D02*
X231337258Y-46522500D01*
%TO.C,C32*%
X158959420Y-49990000D02*
X159240580Y-49990000D01*
X158959420Y-51010000D02*
X159240580Y-51010000D01*
%TO.C,C33*%
X152659420Y-50290000D02*
X152940580Y-50290000D01*
X152659420Y-51310000D02*
X152940580Y-51310000D01*
%TO.C,U9*%
X154420000Y-50040000D02*
X154420000Y-51500000D01*
X154420000Y-50040000D02*
X155350000Y-50040000D01*
X157580000Y-50040000D02*
X157580000Y-52200000D01*
X157580000Y-50040000D02*
X156650000Y-50040000D01*
%TO.C,D9*%
X155665000Y-41085000D02*
X155665000Y-38800000D01*
X157135000Y-41085000D02*
X155665000Y-41085000D01*
X157135000Y-38800000D02*
X157135000Y-41085000D01*
%TO.C,Q9*%
X157420000Y-46540000D02*
X157420000Y-48000000D01*
X157420000Y-46540000D02*
X158350000Y-46540000D01*
X160580000Y-46540000D02*
X160580000Y-48700000D01*
X160580000Y-46540000D02*
X159650000Y-46540000D01*
%TO.C,R20*%
X156922500Y-42762742D02*
X156922500Y-43237258D01*
X155877500Y-42762742D02*
X155877500Y-43237258D01*
%TD*%
M02*
