%TF.GenerationSoftware,KiCad,Pcbnew,(6.99.0-1917-g23fb4c7433)*%
%TF.CreationDate,2022-06-08T13:57:36+10:00*%
%TF.ProjectId,samd21_gps_tracker,73616d64-3231-45f6-9770-735f74726163,rev?*%
%TF.SameCoordinates,Original*%
%TF.FileFunction,Soldermask,Top*%
%TF.FilePolarity,Negative*%
%FSLAX46Y46*%
G04 Gerber Fmt 4.6, Leading zero omitted, Abs format (unit mm)*
G04 Created by KiCad (PCBNEW (6.99.0-1917-g23fb4c7433)) date 2022-06-08 13:57:36*
%MOMM*%
%LPD*%
G01*
G04 APERTURE LIST*
G04 Aperture macros list*
%AMRoundRect*
0 Rectangle with rounded corners*
0 $1 Rounding radius*
0 $2 $3 $4 $5 $6 $7 $8 $9 X,Y pos of 4 corners*
0 Add a 4 corners polygon primitive as box body*
4,1,4,$2,$3,$4,$5,$6,$7,$8,$9,$2,$3,0*
0 Add four circle primitives for the rounded corners*
1,1,$1+$1,$2,$3*
1,1,$1+$1,$4,$5*
1,1,$1+$1,$6,$7*
1,1,$1+$1,$8,$9*
0 Add four rect primitives between the rounded corners*
20,1,$1+$1,$2,$3,$4,$5,0*
20,1,$1+$1,$4,$5,$6,$7,0*
20,1,$1+$1,$6,$7,$8,$9,0*
20,1,$1+$1,$8,$9,$2,$3,0*%
G04 Aperture macros list end*
%ADD10R,2.610000X1.560000*%
%ADD11R,1.350000X0.900000*%
%ADD12R,1.340000X0.900000*%
%ADD13R,2.150000X0.700000*%
%ADD14R,0.700000X2.150000*%
%ADD15O,1.600000X0.600000*%
%ADD16O,0.600000X1.600000*%
%ADD17R,1.100000X2.250000*%
%ADD18R,1.050000X1.100000*%
%ADD19C,2.374900*%
%ADD20C,0.990600*%
%ADD21RoundRect,0.250000X-1.550000X0.650000X-1.550000X-0.650000X1.550000X-0.650000X1.550000X0.650000X0*%
%ADD22O,3.600000X1.800000*%
%ADD23O,1.600000X1.000000*%
%ADD24O,2.100000X1.000000*%
%ADD25C,0.650000*%
%ADD26C,0.900000*%
G04 APERTURE END LIST*
D10*
%TO.C,J4*%
X182659999Y-70799999D03*
X195289999Y-70799999D03*
X182659999Y-54599999D03*
X195289999Y-54599999D03*
D11*
X180009999Y-67939999D03*
X180009999Y-65439999D03*
X180009999Y-62939999D03*
D12*
X180009999Y-69239999D03*
D11*
X180009999Y-66689999D03*
X180009999Y-64189999D03*
%TD*%
D13*
%TO.C,U4*%
X189799999Y-50699999D03*
X189799999Y-49699999D03*
X189799999Y-48699999D03*
X189799999Y-47699999D03*
X189799999Y-46699999D03*
X189799999Y-45699999D03*
X189799999Y-44699999D03*
X189799999Y-43699999D03*
X189799999Y-42699999D03*
X189799999Y-41699999D03*
X189799999Y-40699999D03*
X189799999Y-39699999D03*
X189799999Y-38549999D03*
X180199999Y-38549999D03*
X180199999Y-39699999D03*
X180199999Y-40699999D03*
X180199999Y-41699999D03*
X180199999Y-42699999D03*
X180199999Y-43699999D03*
X180199999Y-44699999D03*
X180199999Y-45699999D03*
X180199999Y-46699999D03*
X180199999Y-47699999D03*
X180199999Y-48699999D03*
X180199999Y-49699999D03*
X180199999Y-50699999D03*
D14*
X182999999Y-51499999D03*
X183999999Y-51499999D03*
X184999999Y-51499999D03*
X185999999Y-51499999D03*
X186999999Y-51499999D03*
%TD*%
D15*
%TO.C,U8*%
X172849999Y-67549999D03*
X172849999Y-66449999D03*
X172849999Y-65349999D03*
X172849999Y-64249999D03*
X172849999Y-63149999D03*
X172849999Y-62049999D03*
X172849999Y-60949999D03*
X172849999Y-59849999D03*
X172849999Y-58749999D03*
X172849999Y-57649999D03*
X172849999Y-56549999D03*
X172849999Y-55449999D03*
D16*
X169399999Y-52699999D03*
X168299999Y-52699999D03*
X167199999Y-52699999D03*
X166099999Y-52699999D03*
X164999999Y-52699999D03*
X163899999Y-52699999D03*
X162799999Y-52699999D03*
X161699999Y-52699999D03*
X160599999Y-52699999D03*
D15*
X157149999Y-55449999D03*
X157149999Y-56549999D03*
X157149999Y-57649999D03*
X157149999Y-58749999D03*
X157149999Y-59849999D03*
X157149999Y-60949999D03*
X157149999Y-62049999D03*
X157149999Y-63149999D03*
X157149999Y-64249999D03*
X157149999Y-65349999D03*
X157149999Y-66449999D03*
X157149999Y-67549999D03*
D16*
X160599999Y-70299999D03*
X161699999Y-70299999D03*
X162799999Y-70299999D03*
X163899999Y-70299999D03*
X164999999Y-70299999D03*
X166099999Y-70299999D03*
X167199999Y-70299999D03*
X168299999Y-70299999D03*
X169399999Y-70299999D03*
%TD*%
D17*
%TO.C,J6*%
X155474999Y-69999999D03*
X152524999Y-69999999D03*
D18*
X153999999Y-68449999D03*
%TD*%
D19*
%TO.C,J1*%
X141660000Y-66960000D03*
D20*
X141660000Y-69500000D03*
D19*
X141660000Y-72040000D03*
X144835000Y-66960000D03*
X144835000Y-72040000D03*
D20*
X146740000Y-68484000D03*
X146740000Y-70516000D03*
%TD*%
D21*
%TO.C,J2*%
X232600000Y-51600000D03*
D22*
X232599999Y-55409999D03*
X232599999Y-59219999D03*
X232599999Y-63029999D03*
%TD*%
D23*
%TO.C,J5*%
X140449999Y-60819999D03*
D24*
X144629999Y-60819999D03*
D25*
X144100000Y-59390000D03*
X144100000Y-53610000D03*
D23*
X140449999Y-52179999D03*
D24*
X144629999Y-52179999D03*
%TD*%
D26*
%TO.C,SW2*%
X213000000Y-39270000D03*
X216000000Y-39270000D03*
%TD*%
M02*
