%TF.GenerationSoftware,KiCad,Pcbnew,(5.1.10-1-10_14)*%
%TF.CreationDate,2021-07-19T22:49:48+10:00*%
%TF.ProjectId,samd21_gps_tracker,73616d64-3231-45f6-9770-735f74726163,rev?*%
%TF.SameCoordinates,Original*%
%TF.FileFunction,Copper,L2,Inr*%
%TF.FilePolarity,Positive*%
%FSLAX46Y46*%
G04 Gerber Fmt 4.6, Leading zero omitted, Abs format (unit mm)*
G04 Created by KiCad (PCBNEW (5.1.10-1-10_14)) date 2021-07-19 22:49:48*
%MOMM*%
%LPD*%
G01*
G04 APERTURE LIST*
%TA.AperFunction,ComponentPad*%
%ADD10O,2.100000X1.000000*%
%TD*%
%TA.AperFunction,ComponentPad*%
%ADD11O,1.600000X1.000000*%
%TD*%
%TA.AperFunction,ComponentPad*%
%ADD12O,3.600000X1.800000*%
%TD*%
%TA.AperFunction,ViaPad*%
%ADD13C,0.800000*%
%TD*%
%TA.AperFunction,ViaPad*%
%ADD14C,0.600000*%
%TD*%
%TA.AperFunction,Conductor*%
%ADD15C,0.254000*%
%TD*%
%TA.AperFunction,Conductor*%
%ADD16C,0.100000*%
%TD*%
G04 APERTURE END LIST*
D10*
%TO.N,*%
%TO.C,J5*%
X144630000Y-52180000D03*
X144630000Y-60820000D03*
D11*
X140450000Y-60820000D03*
X140450000Y-52180000D03*
%TD*%
%TO.N,GND*%
%TO.C,J2*%
%TA.AperFunction,ComponentPad*%
G36*
G01*
X231050000Y-50700000D02*
X234150000Y-50700000D01*
G75*
G02*
X234400000Y-50950000I0J-250000D01*
G01*
X234400000Y-52250000D01*
G75*
G02*
X234150000Y-52500000I-250000J0D01*
G01*
X231050000Y-52500000D01*
G75*
G02*
X230800000Y-52250000I0J250000D01*
G01*
X230800000Y-50950000D01*
G75*
G02*
X231050000Y-50700000I250000J0D01*
G01*
G37*
%TD.AperFunction*%
D12*
%TO.N,VIN*%
X232600000Y-55410000D03*
%TO.N,CH*%
X232600000Y-59220000D03*
%TO.N,CL*%
X232600000Y-63030000D03*
%TD*%
D13*
%TO.N,GND*%
X174750000Y-43500000D03*
X146750000Y-67000000D03*
X156750000Y-70000000D03*
X180250000Y-71500000D03*
X180000000Y-69500000D03*
X153750000Y-60250000D03*
X169250000Y-59000000D03*
X187000000Y-53250000D03*
X191500000Y-47750000D03*
X191500000Y-46750000D03*
X195250000Y-43500000D03*
X191750000Y-42000000D03*
X197750000Y-40750000D03*
X192500000Y-39750000D03*
X198500000Y-46000000D03*
X201250000Y-45500000D03*
X203000000Y-50000000D03*
X205500000Y-49500000D03*
X195250000Y-52500000D03*
X197500000Y-54500000D03*
X199750000Y-52500000D03*
X195250000Y-56250000D03*
X208500000Y-65500000D03*
X228000000Y-71750000D03*
X229250000Y-70000000D03*
X217000000Y-55750000D03*
X213000000Y-58000000D03*
X213000000Y-59250000D03*
X213000000Y-60500000D03*
X213000000Y-61750000D03*
X219750000Y-51250000D03*
X224000000Y-56500000D03*
X226750000Y-56500000D03*
X185000000Y-70500000D03*
X188000000Y-70500000D03*
X189250000Y-70500000D03*
X164250000Y-44500000D03*
X165750000Y-44500000D03*
X163500000Y-40250000D03*
X160750000Y-39250000D03*
X161750000Y-39250000D03*
X162750000Y-39250000D03*
X146500000Y-52250000D03*
X158181520Y-68676592D03*
X159000000Y-74250000D03*
X161000000Y-74250000D03*
X163249998Y-74000000D03*
X167250000Y-74000000D03*
X171250000Y-74000000D03*
X149250000Y-58750000D03*
X178400000Y-38600000D03*
X178400000Y-39700000D03*
X151157948Y-70092052D03*
X197750000Y-38760510D03*
X162800002Y-71700000D03*
X159900000Y-68600000D03*
X171485543Y-56483504D03*
X152200000Y-52000000D03*
X149100000Y-54400000D03*
X174400000Y-68200000D03*
X160727701Y-59033455D03*
X169200002Y-57000000D03*
X181800000Y-52600000D03*
X169500000Y-54181468D03*
X167500000Y-54181468D03*
X182500000Y-67300000D03*
X182600000Y-47500000D03*
X172504632Y-50317667D03*
X174800000Y-51500000D03*
X182600000Y-46300000D03*
X162100000Y-57100000D03*
X164000002Y-67000000D03*
X232000000Y-40000000D03*
X235000000Y-42000000D03*
X210000000Y-49000000D03*
X210000000Y-45000000D03*
X206000000Y-43000000D03*
X199970000Y-41650000D03*
X184000000Y-64000000D03*
X189000000Y-64000000D03*
X189000000Y-59000000D03*
X148000000Y-73000000D03*
X154000000Y-72000000D03*
X141000000Y-58000000D03*
X141000000Y-56000000D03*
X141000000Y-54000000D03*
X140000000Y-45000000D03*
X143000000Y-45000000D03*
X146500000Y-45000000D03*
X153250000Y-45000000D03*
X199970000Y-43550000D03*
X223790000Y-57930000D03*
X226940000Y-57930000D03*
X222840000Y-49260000D03*
X222990000Y-46340000D03*
X219710000Y-46340000D03*
X219710000Y-43490000D03*
X219740000Y-48750000D03*
X217120000Y-46340000D03*
X217120000Y-51290000D03*
X181400000Y-72800000D03*
X155800000Y-72000000D03*
X157600000Y-72000000D03*
X152400000Y-72000000D03*
X153600000Y-66800000D03*
X158400000Y-70600000D03*
X151432948Y-66832948D03*
X151200000Y-72000000D03*
X152600000Y-68000000D03*
X151000000Y-68400000D03*
X149400000Y-68600000D03*
X149400000Y-70200000D03*
X155600000Y-68000000D03*
X228400000Y-59200000D03*
X229600000Y-61000000D03*
X230800000Y-65600000D03*
X230800000Y-68000000D03*
X223000000Y-72000000D03*
X219000000Y-72000000D03*
X214750000Y-68000000D03*
X214750000Y-65000000D03*
X214500000Y-55500000D03*
X214500000Y-52000000D03*
X214500000Y-47750000D03*
X204750000Y-56250000D03*
X217000000Y-43000000D03*
X142500000Y-62000000D03*
X174750000Y-42000000D03*
X156200000Y-45000000D03*
X149800000Y-45000000D03*
X157700000Y-43100000D03*
X157700000Y-41300000D03*
X146382990Y-60750000D03*
X233700000Y-65900000D03*
X229800000Y-47700000D03*
X232200000Y-48700000D03*
X189100000Y-72800000D03*
X229400000Y-43300000D03*
X158100000Y-49300000D03*
X154500000Y-49300000D03*
X147500000Y-49300000D03*
X144000000Y-49300002D03*
X140500000Y-49300000D03*
X159700000Y-52100000D03*
X149600000Y-49500000D03*
X152700000Y-49800000D03*
X157800000Y-52100000D03*
X153788715Y-58538715D03*
X152200000Y-56900000D03*
X158500000Y-65300000D03*
X158500002Y-64300000D03*
X162500000Y-46815479D03*
X162600000Y-48700000D03*
X232700000Y-74100000D03*
X235900000Y-74100000D03*
X236000000Y-71000000D03*
X195700000Y-65900000D03*
X197683287Y-70115855D03*
X199581907Y-68905041D03*
X171300000Y-63600000D03*
X169500000Y-63600000D03*
X183900000Y-72800000D03*
X203000000Y-73500000D03*
X205500000Y-73500000D03*
X208000000Y-73500000D03*
X206500000Y-71750000D03*
X204500000Y-71750000D03*
X212000000Y-68000000D03*
X209500000Y-68000000D03*
X207750000Y-63250000D03*
X206500000Y-64250000D03*
X214500000Y-72000000D03*
X161846986Y-64767002D03*
%TO.N,+3V3*%
X154600000Y-38800000D03*
X212250000Y-65500000D03*
X195250000Y-42000000D03*
X222500000Y-63500000D03*
X222700000Y-65500000D03*
X227700000Y-63800000D03*
X225250000Y-64750000D03*
X226250000Y-67750000D03*
X228000000Y-67750000D03*
X226600000Y-61900000D03*
X224200000Y-61900000D03*
X225300000Y-59750000D03*
X140835032Y-68750000D03*
X151600000Y-38760510D03*
X157500000Y-38800000D03*
X165623474Y-68580185D03*
X153600000Y-64000000D03*
X153750000Y-61910510D03*
X173100000Y-43600000D03*
X148800000Y-38800000D03*
X145800000Y-38800000D03*
X142700000Y-38800000D03*
X196100000Y-68500000D03*
X169800000Y-43900000D03*
X170500000Y-69700000D03*
%TO.N,VIN*%
X157100000Y-50448999D03*
X225100000Y-43900000D03*
%TO.N,LoRa_VCC*%
X169211276Y-45549490D03*
X172300000Y-45549490D03*
X160532719Y-47000000D03*
%TO.N,Net-(C15-Pad1)*%
X193250000Y-42000000D03*
X169700619Y-38411968D03*
X188200000Y-43000000D03*
X169700619Y-42199379D03*
D14*
%TO.N,Net-(C22-Pad1)*%
X170400000Y-50900000D03*
%TO.N,Net-(C23-Pad1)*%
X168500000Y-50700000D03*
%TO.N,Net-(C24-Pad1)*%
X168500000Y-49000000D03*
D13*
%TO.N,SIM_VDD*%
X178900000Y-68100000D03*
X177436699Y-45264198D03*
%TO.N,Net-(C26-Pad1)*%
X161000000Y-71750000D03*
%TO.N,SWDIO*%
X152000000Y-58500000D03*
X151000000Y-60250000D03*
%TO.N,~Reset*%
X160750004Y-60000209D03*
X159699998Y-66300000D03*
%TO.N,SWCLK*%
X152750000Y-59250000D03*
X149761466Y-60568572D03*
%TO.N,STATUS_LED*%
X165500000Y-60400000D03*
X158800000Y-55700000D03*
%TO.N,PPS*%
X166678075Y-55963720D03*
X150800000Y-55000000D03*
%TO.N,GPS_ON*%
X167600000Y-42600000D03*
X166400000Y-38900000D03*
%TO.N,SDA*%
X188300000Y-48600000D03*
X167400000Y-46600000D03*
X164052188Y-56817983D03*
X165100000Y-46600000D03*
%TO.N,SCL*%
X188300000Y-45700000D03*
X166950661Y-45279779D03*
X163220624Y-57311555D03*
X164700000Y-45500000D03*
%TO.N,RN_RST*%
X163100000Y-61900000D03*
X170000000Y-62500000D03*
X158600000Y-63310032D03*
X160771562Y-61415479D03*
%TO.N,CAN_RST*%
X149750000Y-64000000D03*
X152300000Y-62000000D03*
%TO.N,INT1*%
X162000000Y-43800000D03*
X161183229Y-48767600D03*
X160843222Y-45803329D03*
X162500000Y-49900000D03*
%TO.N,INT2*%
X162800000Y-43100000D03*
X165800000Y-40300000D03*
%TO.N,SIM_DATA*%
X170500000Y-47650500D03*
X178000000Y-47600000D03*
X178249490Y-64138258D03*
%TO.N,SIM_CLK*%
X170600000Y-49000000D03*
X178249490Y-48602194D03*
X178249490Y-61900000D03*
%TO.N,SIM_RST*%
X177600000Y-46500000D03*
X169500000Y-46900000D03*
X178249490Y-65336584D03*
%TO.N,~EN*%
X219500000Y-62750000D03*
X215665989Y-62999991D03*
%TO.N,GPS_TX*%
X165015603Y-56901305D03*
%TO.N,GPS_RX*%
X165923559Y-56568549D03*
%TO.N,RN_RX*%
X165000000Y-58700000D03*
X174586357Y-62160312D03*
X170700000Y-61700000D03*
X179607798Y-61092749D03*
%TO.N,RN_TX*%
X166000000Y-58000000D03*
X174593171Y-60135510D03*
X171028281Y-60228281D03*
X179921847Y-60178153D03*
%TO.N,D11-MOSI*%
X191340869Y-71740869D03*
X166927416Y-63872584D03*
%TO.N,D13-SCK*%
X167303989Y-64927950D03*
X192962064Y-71586890D03*
%TO.N,D10-SS*%
X166300000Y-65200000D03*
X190684430Y-73789629D03*
%TO.N,D12-MISO*%
X165066936Y-65045584D03*
X192000000Y-73644968D03*
%TO.N,STATUS*%
X163027007Y-60935747D03*
X161596197Y-56098003D03*
X159000000Y-53939490D03*
%TO.N,NETLIGHT*%
X162100000Y-60300000D03*
X160778988Y-56700000D03*
X158085679Y-53591119D03*
%TO.N,SIM_PWRKEY*%
X166542067Y-68882341D03*
%TO.N,SIM_TXD*%
X174400000Y-66300000D03*
%TO.N,SIM_RXD*%
X171342012Y-65624173D03*
%TO.N,BATT_ADC*%
X166200000Y-62100000D03*
X178000000Y-73800000D03*
%TO.N,3V3*%
X150100000Y-50700000D03*
X154700000Y-50700000D03*
X152700000Y-60600000D03*
X153000000Y-65100000D03*
X164600000Y-40300000D03*
X159749999Y-41500000D03*
X165500000Y-49000000D03*
X170500000Y-52500000D03*
%TD*%
D15*
%TO.N,GND*%
X141782795Y-38309744D02*
X141704774Y-38498102D01*
X141665000Y-38698061D01*
X141665000Y-38901939D01*
X141704774Y-39101898D01*
X141782795Y-39290256D01*
X141896063Y-39459774D01*
X142040226Y-39603937D01*
X142209744Y-39717205D01*
X142398102Y-39795226D01*
X142598061Y-39835000D01*
X142801939Y-39835000D01*
X143001898Y-39795226D01*
X143190256Y-39717205D01*
X143359774Y-39603937D01*
X143503937Y-39459774D01*
X143617205Y-39290256D01*
X143695226Y-39101898D01*
X143735000Y-38901939D01*
X143735000Y-38698061D01*
X143695226Y-38498102D01*
X143617205Y-38309744D01*
X143517150Y-38160000D01*
X144982850Y-38160000D01*
X144882795Y-38309744D01*
X144804774Y-38498102D01*
X144765000Y-38698061D01*
X144765000Y-38901939D01*
X144804774Y-39101898D01*
X144882795Y-39290256D01*
X144996063Y-39459774D01*
X145140226Y-39603937D01*
X145309744Y-39717205D01*
X145498102Y-39795226D01*
X145698061Y-39835000D01*
X145901939Y-39835000D01*
X146101898Y-39795226D01*
X146290256Y-39717205D01*
X146459774Y-39603937D01*
X146603937Y-39459774D01*
X146717205Y-39290256D01*
X146795226Y-39101898D01*
X146835000Y-38901939D01*
X146835000Y-38698061D01*
X146795226Y-38498102D01*
X146717205Y-38309744D01*
X146617150Y-38160000D01*
X147982850Y-38160000D01*
X147882795Y-38309744D01*
X147804774Y-38498102D01*
X147765000Y-38698061D01*
X147765000Y-38901939D01*
X147804774Y-39101898D01*
X147882795Y-39290256D01*
X147996063Y-39459774D01*
X148140226Y-39603937D01*
X148309744Y-39717205D01*
X148498102Y-39795226D01*
X148698061Y-39835000D01*
X148901939Y-39835000D01*
X149101898Y-39795226D01*
X149290256Y-39717205D01*
X149459774Y-39603937D01*
X149603937Y-39459774D01*
X149717205Y-39290256D01*
X149795226Y-39101898D01*
X149835000Y-38901939D01*
X149835000Y-38698061D01*
X149795226Y-38498102D01*
X149717205Y-38309744D01*
X149617150Y-38160000D01*
X150756464Y-38160000D01*
X150682795Y-38270254D01*
X150604774Y-38458612D01*
X150565000Y-38658571D01*
X150565000Y-38862449D01*
X150604774Y-39062408D01*
X150682795Y-39250766D01*
X150796063Y-39420284D01*
X150940226Y-39564447D01*
X151109744Y-39677715D01*
X151298102Y-39755736D01*
X151498061Y-39795510D01*
X151701939Y-39795510D01*
X151901898Y-39755736D01*
X152090256Y-39677715D01*
X152259774Y-39564447D01*
X152403937Y-39420284D01*
X152517205Y-39250766D01*
X152595226Y-39062408D01*
X152635000Y-38862449D01*
X152635000Y-38658571D01*
X152595226Y-38458612D01*
X152517205Y-38270254D01*
X152443536Y-38160000D01*
X153782850Y-38160000D01*
X153682795Y-38309744D01*
X153604774Y-38498102D01*
X153565000Y-38698061D01*
X153565000Y-38901939D01*
X153604774Y-39101898D01*
X153682795Y-39290256D01*
X153796063Y-39459774D01*
X153940226Y-39603937D01*
X154109744Y-39717205D01*
X154298102Y-39795226D01*
X154498061Y-39835000D01*
X154701939Y-39835000D01*
X154901898Y-39795226D01*
X155090256Y-39717205D01*
X155259774Y-39603937D01*
X155403937Y-39459774D01*
X155517205Y-39290256D01*
X155595226Y-39101898D01*
X155635000Y-38901939D01*
X155635000Y-38698061D01*
X155595226Y-38498102D01*
X155517205Y-38309744D01*
X155417150Y-38160000D01*
X156682850Y-38160000D01*
X156582795Y-38309744D01*
X156504774Y-38498102D01*
X156465000Y-38698061D01*
X156465000Y-38901939D01*
X156504774Y-39101898D01*
X156582795Y-39290256D01*
X156696063Y-39459774D01*
X156840226Y-39603937D01*
X157009744Y-39717205D01*
X157198102Y-39795226D01*
X157398061Y-39835000D01*
X157601939Y-39835000D01*
X157801898Y-39795226D01*
X157990256Y-39717205D01*
X158159774Y-39603937D01*
X158303937Y-39459774D01*
X158417205Y-39290256D01*
X158495226Y-39101898D01*
X158535000Y-38901939D01*
X158535000Y-38698061D01*
X158495226Y-38498102D01*
X158417205Y-38309744D01*
X158317150Y-38160000D01*
X165676289Y-38160000D01*
X165596063Y-38240226D01*
X165482795Y-38409744D01*
X165404774Y-38598102D01*
X165365000Y-38798061D01*
X165365000Y-39001939D01*
X165404774Y-39201898D01*
X165454814Y-39322705D01*
X165309744Y-39382795D01*
X165200000Y-39456123D01*
X165090256Y-39382795D01*
X164901898Y-39304774D01*
X164701939Y-39265000D01*
X164498061Y-39265000D01*
X164298102Y-39304774D01*
X164109744Y-39382795D01*
X163940226Y-39496063D01*
X163796063Y-39640226D01*
X163682795Y-39809744D01*
X163604774Y-39998102D01*
X163565000Y-40198061D01*
X163565000Y-40401939D01*
X163604774Y-40601898D01*
X163682795Y-40790256D01*
X163796063Y-40959774D01*
X163940226Y-41103937D01*
X164109744Y-41217205D01*
X164298102Y-41295226D01*
X164498061Y-41335000D01*
X164701939Y-41335000D01*
X164901898Y-41295226D01*
X165090256Y-41217205D01*
X165200000Y-41143877D01*
X165309744Y-41217205D01*
X165498102Y-41295226D01*
X165698061Y-41335000D01*
X165901939Y-41335000D01*
X166101898Y-41295226D01*
X166290256Y-41217205D01*
X166459774Y-41103937D01*
X166603937Y-40959774D01*
X166717205Y-40790256D01*
X166795226Y-40601898D01*
X166835000Y-40401939D01*
X166835000Y-40198061D01*
X166795226Y-39998102D01*
X166745186Y-39877295D01*
X166890256Y-39817205D01*
X167059774Y-39703937D01*
X167203937Y-39559774D01*
X167317205Y-39390256D01*
X167395226Y-39201898D01*
X167435000Y-39001939D01*
X167435000Y-38798061D01*
X167395226Y-38598102D01*
X167317205Y-38409744D01*
X167203937Y-38240226D01*
X167123711Y-38160000D01*
X168695461Y-38160000D01*
X168665619Y-38310029D01*
X168665619Y-38513907D01*
X168705393Y-38713866D01*
X168783414Y-38902224D01*
X168896682Y-39071742D01*
X169040845Y-39215905D01*
X169210363Y-39329173D01*
X169398721Y-39407194D01*
X169598680Y-39446968D01*
X169802558Y-39446968D01*
X170002517Y-39407194D01*
X170190875Y-39329173D01*
X170360393Y-39215905D01*
X170504556Y-39071742D01*
X170617824Y-38902224D01*
X170695845Y-38713866D01*
X170735619Y-38513907D01*
X170735619Y-38310029D01*
X170705777Y-38160000D01*
X181173000Y-38160000D01*
X181173000Y-41600000D01*
X181175440Y-41624776D01*
X181182667Y-41648601D01*
X181194403Y-41670557D01*
X181210197Y-41689803D01*
X181229443Y-41705597D01*
X181251399Y-41717333D01*
X181275224Y-41724560D01*
X181300000Y-41727000D01*
X188800000Y-41727000D01*
X188824776Y-41724560D01*
X188848601Y-41717333D01*
X188870557Y-41705597D01*
X188889803Y-41689803D01*
X188905597Y-41670557D01*
X188917333Y-41648601D01*
X188924560Y-41624776D01*
X188927000Y-41600000D01*
X188927000Y-39563137D01*
X211915000Y-39563137D01*
X211915000Y-39776863D01*
X211956696Y-39986483D01*
X212038485Y-40183940D01*
X212157225Y-40361647D01*
X212308353Y-40512775D01*
X212486060Y-40631515D01*
X212683517Y-40713304D01*
X212893137Y-40755000D01*
X213106863Y-40755000D01*
X213316483Y-40713304D01*
X213513940Y-40631515D01*
X213691647Y-40512775D01*
X213842775Y-40361647D01*
X213961515Y-40183940D01*
X214043304Y-39986483D01*
X214085000Y-39776863D01*
X214085000Y-39563137D01*
X214915000Y-39563137D01*
X214915000Y-39776863D01*
X214956696Y-39986483D01*
X215038485Y-40183940D01*
X215157225Y-40361647D01*
X215308353Y-40512775D01*
X215486060Y-40631515D01*
X215683517Y-40713304D01*
X215893137Y-40755000D01*
X216106863Y-40755000D01*
X216316483Y-40713304D01*
X216513940Y-40631515D01*
X216691647Y-40512775D01*
X216842775Y-40361647D01*
X216961515Y-40183940D01*
X217043304Y-39986483D01*
X217085000Y-39776863D01*
X217085000Y-39563137D01*
X217043304Y-39353517D01*
X216961515Y-39156060D01*
X216842775Y-38978353D01*
X216691647Y-38827225D01*
X216513940Y-38708485D01*
X216316483Y-38626696D01*
X216106863Y-38585000D01*
X215893137Y-38585000D01*
X215683517Y-38626696D01*
X215486060Y-38708485D01*
X215308353Y-38827225D01*
X215157225Y-38978353D01*
X215038485Y-39156060D01*
X214956696Y-39353517D01*
X214915000Y-39563137D01*
X214085000Y-39563137D01*
X214043304Y-39353517D01*
X213961515Y-39156060D01*
X213842775Y-38978353D01*
X213691647Y-38827225D01*
X213513940Y-38708485D01*
X213316483Y-38626696D01*
X213106863Y-38585000D01*
X212893137Y-38585000D01*
X212683517Y-38626696D01*
X212486060Y-38708485D01*
X212308353Y-38827225D01*
X212157225Y-38978353D01*
X212038485Y-39156060D01*
X211956696Y-39353517D01*
X211915000Y-39563137D01*
X188927000Y-39563137D01*
X188927000Y-38160000D01*
X234967721Y-38160000D01*
X235356775Y-38198147D01*
X235699967Y-38301763D01*
X236016489Y-38470062D01*
X236294299Y-38696637D01*
X236522806Y-38972856D01*
X236693310Y-39288197D01*
X236799319Y-39630656D01*
X236840000Y-40017712D01*
X236840001Y-73467711D01*
X236801853Y-73856776D01*
X236698238Y-74199964D01*
X236529939Y-74516489D01*
X236303365Y-74794296D01*
X236027146Y-75022805D01*
X235711803Y-75193310D01*
X235369344Y-75299319D01*
X234982288Y-75340000D01*
X141032279Y-75340000D01*
X140643224Y-75301853D01*
X140300036Y-75198238D01*
X139983511Y-75029939D01*
X139705704Y-74803365D01*
X139477195Y-74527146D01*
X139306690Y-74211803D01*
X139200681Y-73869344D01*
X139160000Y-73482288D01*
X139160000Y-68648061D01*
X139800032Y-68648061D01*
X139800032Y-68851939D01*
X139839806Y-69051898D01*
X139917827Y-69240256D01*
X140031095Y-69409774D01*
X140175258Y-69553937D01*
X140344776Y-69667205D01*
X140533134Y-69745226D01*
X140557291Y-69750031D01*
X140573137Y-69829696D01*
X140658341Y-70035398D01*
X140782039Y-70220524D01*
X140930909Y-70369394D01*
X140796746Y-70424966D01*
X140498256Y-70624411D01*
X140244411Y-70878256D01*
X140044966Y-71176746D01*
X139907586Y-71508411D01*
X139837550Y-71860504D01*
X139837550Y-72219496D01*
X139907586Y-72571589D01*
X140044966Y-72903254D01*
X140244411Y-73201744D01*
X140498256Y-73455589D01*
X140796746Y-73655034D01*
X141128411Y-73792414D01*
X141480504Y-73862450D01*
X141839496Y-73862450D01*
X142191589Y-73792414D01*
X142523254Y-73655034D01*
X142821744Y-73455589D01*
X143075589Y-73201744D01*
X143247500Y-72944461D01*
X143419411Y-73201744D01*
X143673256Y-73455589D01*
X143971746Y-73655034D01*
X144303411Y-73792414D01*
X144655504Y-73862450D01*
X145014496Y-73862450D01*
X145366589Y-73792414D01*
X145594377Y-73698061D01*
X176965000Y-73698061D01*
X176965000Y-73901939D01*
X177004774Y-74101898D01*
X177082795Y-74290256D01*
X177196063Y-74459774D01*
X177340226Y-74603937D01*
X177509744Y-74717205D01*
X177698102Y-74795226D01*
X177898061Y-74835000D01*
X178101939Y-74835000D01*
X178301898Y-74795226D01*
X178490256Y-74717205D01*
X178659774Y-74603937D01*
X178803937Y-74459774D01*
X178917205Y-74290256D01*
X178995226Y-74101898D01*
X179035000Y-73901939D01*
X179035000Y-73698061D01*
X179032938Y-73687690D01*
X189649430Y-73687690D01*
X189649430Y-73891568D01*
X189689204Y-74091527D01*
X189767225Y-74279885D01*
X189880493Y-74449403D01*
X190024656Y-74593566D01*
X190194174Y-74706834D01*
X190382532Y-74784855D01*
X190582491Y-74824629D01*
X190786369Y-74824629D01*
X190986328Y-74784855D01*
X191174686Y-74706834D01*
X191344204Y-74593566D01*
X191429329Y-74508441D01*
X191509744Y-74562173D01*
X191698102Y-74640194D01*
X191898061Y-74679968D01*
X192101939Y-74679968D01*
X192301898Y-74640194D01*
X192490256Y-74562173D01*
X192659774Y-74448905D01*
X192803937Y-74304742D01*
X192917205Y-74135224D01*
X192995226Y-73946866D01*
X193035000Y-73746907D01*
X193035000Y-73543029D01*
X192995226Y-73343070D01*
X192917205Y-73154712D01*
X192803937Y-72985194D01*
X192659774Y-72841031D01*
X192490256Y-72727763D01*
X192301898Y-72649742D01*
X192101939Y-72609968D01*
X191903121Y-72609968D01*
X192000643Y-72544806D01*
X192144806Y-72400643D01*
X192211817Y-72300354D01*
X192302290Y-72390827D01*
X192471808Y-72504095D01*
X192660166Y-72582116D01*
X192860125Y-72621890D01*
X193064003Y-72621890D01*
X193263962Y-72582116D01*
X193452320Y-72504095D01*
X193621838Y-72390827D01*
X193766001Y-72246664D01*
X193879269Y-72077146D01*
X193957290Y-71888788D01*
X193997064Y-71688829D01*
X193997064Y-71484951D01*
X193957290Y-71284992D01*
X193879269Y-71096634D01*
X193766001Y-70927116D01*
X193621838Y-70782953D01*
X193452320Y-70669685D01*
X193263962Y-70591664D01*
X193064003Y-70551890D01*
X192860125Y-70551890D01*
X192660166Y-70591664D01*
X192471808Y-70669685D01*
X192302290Y-70782953D01*
X192158127Y-70927116D01*
X192091116Y-71027405D01*
X192000643Y-70936932D01*
X191831125Y-70823664D01*
X191642767Y-70745643D01*
X191442808Y-70705869D01*
X191238930Y-70705869D01*
X191038971Y-70745643D01*
X190850613Y-70823664D01*
X190681095Y-70936932D01*
X190536932Y-71081095D01*
X190423664Y-71250613D01*
X190345643Y-71438971D01*
X190305869Y-71638930D01*
X190305869Y-71842808D01*
X190345643Y-72042767D01*
X190423664Y-72231125D01*
X190536932Y-72400643D01*
X190681095Y-72544806D01*
X190850613Y-72658074D01*
X191038971Y-72736095D01*
X191238930Y-72775869D01*
X191437748Y-72775869D01*
X191340226Y-72841031D01*
X191255101Y-72926156D01*
X191174686Y-72872424D01*
X190986328Y-72794403D01*
X190786369Y-72754629D01*
X190582491Y-72754629D01*
X190382532Y-72794403D01*
X190194174Y-72872424D01*
X190024656Y-72985692D01*
X189880493Y-73129855D01*
X189767225Y-73299373D01*
X189689204Y-73487731D01*
X189649430Y-73687690D01*
X179032938Y-73687690D01*
X178995226Y-73498102D01*
X178917205Y-73309744D01*
X178803937Y-73140226D01*
X178659774Y-72996063D01*
X178490256Y-72882795D01*
X178301898Y-72804774D01*
X178101939Y-72765000D01*
X177898061Y-72765000D01*
X177698102Y-72804774D01*
X177509744Y-72882795D01*
X177340226Y-72996063D01*
X177196063Y-73140226D01*
X177082795Y-73309744D01*
X177004774Y-73498102D01*
X176965000Y-73698061D01*
X145594377Y-73698061D01*
X145698254Y-73655034D01*
X145996744Y-73455589D01*
X146250589Y-73201744D01*
X146450034Y-72903254D01*
X146587414Y-72571589D01*
X146657450Y-72219496D01*
X146657450Y-71860504D01*
X146615193Y-71648061D01*
X159965000Y-71648061D01*
X159965000Y-71851939D01*
X160004774Y-72051898D01*
X160082795Y-72240256D01*
X160196063Y-72409774D01*
X160340226Y-72553937D01*
X160509744Y-72667205D01*
X160698102Y-72745226D01*
X160898061Y-72785000D01*
X161101939Y-72785000D01*
X161301898Y-72745226D01*
X161490256Y-72667205D01*
X161659774Y-72553937D01*
X161803937Y-72409774D01*
X161917205Y-72240256D01*
X161995226Y-72051898D01*
X162035000Y-71851939D01*
X162035000Y-71648061D01*
X161995226Y-71448102D01*
X161917205Y-71259744D01*
X161803937Y-71090226D01*
X161659774Y-70946063D01*
X161490256Y-70832795D01*
X161301898Y-70754774D01*
X161101939Y-70715000D01*
X160898061Y-70715000D01*
X160698102Y-70754774D01*
X160509744Y-70832795D01*
X160340226Y-70946063D01*
X160196063Y-71090226D01*
X160082795Y-71259744D01*
X160004774Y-71448102D01*
X159965000Y-71648061D01*
X146615193Y-71648061D01*
X146614272Y-71643435D01*
X146628675Y-71646300D01*
X146851325Y-71646300D01*
X147069696Y-71602863D01*
X147275398Y-71517659D01*
X147460524Y-71393961D01*
X147617961Y-71236524D01*
X147741659Y-71051398D01*
X147826863Y-70845696D01*
X147870300Y-70627325D01*
X147870300Y-70404675D01*
X147826863Y-70186304D01*
X147741659Y-69980602D01*
X147617961Y-69795476D01*
X147460524Y-69638039D01*
X147275398Y-69514341D01*
X147240776Y-69500000D01*
X147275398Y-69485659D01*
X147460524Y-69361961D01*
X147617961Y-69204524D01*
X147741659Y-69019398D01*
X147826863Y-68813696D01*
X147870300Y-68595325D01*
X147870300Y-68478246D01*
X164588474Y-68478246D01*
X164588474Y-68682124D01*
X164628248Y-68882083D01*
X164706269Y-69070441D01*
X164819537Y-69239959D01*
X164963700Y-69384122D01*
X165133218Y-69497390D01*
X165321576Y-69575411D01*
X165521535Y-69615185D01*
X165725413Y-69615185D01*
X165796967Y-69600952D01*
X165882293Y-69686278D01*
X166051811Y-69799546D01*
X166240169Y-69877567D01*
X166440128Y-69917341D01*
X166644006Y-69917341D01*
X166843965Y-69877567D01*
X167032323Y-69799546D01*
X167201841Y-69686278D01*
X167290058Y-69598061D01*
X169465000Y-69598061D01*
X169465000Y-69801939D01*
X169504774Y-70001898D01*
X169582795Y-70190256D01*
X169696063Y-70359774D01*
X169840226Y-70503937D01*
X170009744Y-70617205D01*
X170198102Y-70695226D01*
X170398061Y-70735000D01*
X170601939Y-70735000D01*
X170801898Y-70695226D01*
X170990256Y-70617205D01*
X171159774Y-70503937D01*
X171303937Y-70359774D01*
X171417205Y-70190256D01*
X171495226Y-70001898D01*
X171535000Y-69801939D01*
X171535000Y-69598061D01*
X171495226Y-69398102D01*
X171417205Y-69209744D01*
X171303937Y-69040226D01*
X171159774Y-68896063D01*
X170990256Y-68782795D01*
X170801898Y-68704774D01*
X170601939Y-68665000D01*
X170398061Y-68665000D01*
X170198102Y-68704774D01*
X170009744Y-68782795D01*
X169840226Y-68896063D01*
X169696063Y-69040226D01*
X169582795Y-69209744D01*
X169504774Y-69398102D01*
X169465000Y-69598061D01*
X167290058Y-69598061D01*
X167346004Y-69542115D01*
X167459272Y-69372597D01*
X167537293Y-69184239D01*
X167577067Y-68984280D01*
X167577067Y-68780402D01*
X167537293Y-68580443D01*
X167459272Y-68392085D01*
X167346004Y-68222567D01*
X167201841Y-68078404D01*
X167081599Y-67998061D01*
X177865000Y-67998061D01*
X177865000Y-68201939D01*
X177904774Y-68401898D01*
X177982795Y-68590256D01*
X178096063Y-68759774D01*
X178240226Y-68903937D01*
X178409744Y-69017205D01*
X178598102Y-69095226D01*
X178798061Y-69135000D01*
X179001939Y-69135000D01*
X179201898Y-69095226D01*
X179390256Y-69017205D01*
X179559774Y-68903937D01*
X179703937Y-68759774D01*
X179817205Y-68590256D01*
X179895226Y-68401898D01*
X179895989Y-68398061D01*
X195065000Y-68398061D01*
X195065000Y-68601939D01*
X195104774Y-68801898D01*
X195182795Y-68990256D01*
X195296063Y-69159774D01*
X195440226Y-69303937D01*
X195609744Y-69417205D01*
X195798102Y-69495226D01*
X195998061Y-69535000D01*
X196201939Y-69535000D01*
X196401898Y-69495226D01*
X196590256Y-69417205D01*
X196759774Y-69303937D01*
X196903937Y-69159774D01*
X197017205Y-68990256D01*
X197095226Y-68801898D01*
X197135000Y-68601939D01*
X197135000Y-68398061D01*
X197095226Y-68198102D01*
X197017205Y-68009744D01*
X196903937Y-67840226D01*
X196759774Y-67696063D01*
X196687934Y-67648061D01*
X225215000Y-67648061D01*
X225215000Y-67851939D01*
X225254774Y-68051898D01*
X225332795Y-68240256D01*
X225446063Y-68409774D01*
X225590226Y-68553937D01*
X225759744Y-68667205D01*
X225948102Y-68745226D01*
X226148061Y-68785000D01*
X226351939Y-68785000D01*
X226551898Y-68745226D01*
X226740256Y-68667205D01*
X226909774Y-68553937D01*
X227053937Y-68409774D01*
X227125000Y-68303420D01*
X227196063Y-68409774D01*
X227340226Y-68553937D01*
X227509744Y-68667205D01*
X227698102Y-68745226D01*
X227898061Y-68785000D01*
X228101939Y-68785000D01*
X228301898Y-68745226D01*
X228490256Y-68667205D01*
X228659774Y-68553937D01*
X228803937Y-68409774D01*
X228917205Y-68240256D01*
X228995226Y-68051898D01*
X229035000Y-67851939D01*
X229035000Y-67648061D01*
X228995226Y-67448102D01*
X228917205Y-67259744D01*
X228803937Y-67090226D01*
X228659774Y-66946063D01*
X228490256Y-66832795D01*
X228301898Y-66754774D01*
X228101939Y-66715000D01*
X227898061Y-66715000D01*
X227698102Y-66754774D01*
X227509744Y-66832795D01*
X227340226Y-66946063D01*
X227196063Y-67090226D01*
X227125000Y-67196580D01*
X227053937Y-67090226D01*
X226909774Y-66946063D01*
X226740256Y-66832795D01*
X226551898Y-66754774D01*
X226351939Y-66715000D01*
X226148061Y-66715000D01*
X225948102Y-66754774D01*
X225759744Y-66832795D01*
X225590226Y-66946063D01*
X225446063Y-67090226D01*
X225332795Y-67259744D01*
X225254774Y-67448102D01*
X225215000Y-67648061D01*
X196687934Y-67648061D01*
X196590256Y-67582795D01*
X196401898Y-67504774D01*
X196201939Y-67465000D01*
X195998061Y-67465000D01*
X195798102Y-67504774D01*
X195609744Y-67582795D01*
X195440226Y-67696063D01*
X195296063Y-67840226D01*
X195182795Y-68009744D01*
X195104774Y-68198102D01*
X195065000Y-68398061D01*
X179895989Y-68398061D01*
X179935000Y-68201939D01*
X179935000Y-67998061D01*
X179895226Y-67798102D01*
X179817205Y-67609744D01*
X179703937Y-67440226D01*
X179559774Y-67296063D01*
X179390256Y-67182795D01*
X179201898Y-67104774D01*
X179001939Y-67065000D01*
X178798061Y-67065000D01*
X178598102Y-67104774D01*
X178409744Y-67182795D01*
X178240226Y-67296063D01*
X178096063Y-67440226D01*
X177982795Y-67609744D01*
X177904774Y-67798102D01*
X177865000Y-67998061D01*
X167081599Y-67998061D01*
X167032323Y-67965136D01*
X166843965Y-67887115D01*
X166644006Y-67847341D01*
X166440128Y-67847341D01*
X166368574Y-67861574D01*
X166283248Y-67776248D01*
X166113730Y-67662980D01*
X165925372Y-67584959D01*
X165725413Y-67545185D01*
X165521535Y-67545185D01*
X165321576Y-67584959D01*
X165133218Y-67662980D01*
X164963700Y-67776248D01*
X164819537Y-67920411D01*
X164706269Y-68089929D01*
X164628248Y-68278287D01*
X164588474Y-68478246D01*
X147870300Y-68478246D01*
X147870300Y-68372675D01*
X147826863Y-68154304D01*
X147741659Y-67948602D01*
X147617961Y-67763476D01*
X147460524Y-67606039D01*
X147275398Y-67482341D01*
X147069696Y-67397137D01*
X146851325Y-67353700D01*
X146628675Y-67353700D01*
X146614272Y-67356565D01*
X146657450Y-67139496D01*
X146657450Y-66780504D01*
X146587414Y-66428411D01*
X146492001Y-66198061D01*
X158664998Y-66198061D01*
X158664998Y-66401939D01*
X158704772Y-66601898D01*
X158782793Y-66790256D01*
X158896061Y-66959774D01*
X159040224Y-67103937D01*
X159209742Y-67217205D01*
X159398100Y-67295226D01*
X159598059Y-67335000D01*
X159801937Y-67335000D01*
X160001896Y-67295226D01*
X160190254Y-67217205D01*
X160359772Y-67103937D01*
X160503935Y-66959774D01*
X160617203Y-66790256D01*
X160695224Y-66601898D01*
X160734998Y-66401939D01*
X160734998Y-66198061D01*
X160695224Y-65998102D01*
X160617203Y-65809744D01*
X160503935Y-65640226D01*
X160359772Y-65496063D01*
X160190254Y-65382795D01*
X160001896Y-65304774D01*
X159801937Y-65265000D01*
X159598059Y-65265000D01*
X159398100Y-65304774D01*
X159209742Y-65382795D01*
X159040224Y-65496063D01*
X158896061Y-65640226D01*
X158782793Y-65809744D01*
X158704772Y-65998102D01*
X158664998Y-66198061D01*
X146492001Y-66198061D01*
X146450034Y-66096746D01*
X146250589Y-65798256D01*
X145996744Y-65544411D01*
X145698254Y-65344966D01*
X145366589Y-65207586D01*
X145014496Y-65137550D01*
X144655504Y-65137550D01*
X144303411Y-65207586D01*
X143971746Y-65344966D01*
X143673256Y-65544411D01*
X143419411Y-65798256D01*
X143247500Y-66055539D01*
X143075589Y-65798256D01*
X142821744Y-65544411D01*
X142523254Y-65344966D01*
X142191589Y-65207586D01*
X141839496Y-65137550D01*
X141480504Y-65137550D01*
X141128411Y-65207586D01*
X140796746Y-65344966D01*
X140498256Y-65544411D01*
X140244411Y-65798256D01*
X140044966Y-66096746D01*
X139907586Y-66428411D01*
X139837550Y-66780504D01*
X139837550Y-67139496D01*
X139907586Y-67491589D01*
X140044966Y-67823254D01*
X140146344Y-67974977D01*
X140031095Y-68090226D01*
X139917827Y-68259744D01*
X139839806Y-68448102D01*
X139800032Y-68648061D01*
X139160000Y-68648061D01*
X139160000Y-63898061D01*
X148715000Y-63898061D01*
X148715000Y-64101939D01*
X148754774Y-64301898D01*
X148832795Y-64490256D01*
X148946063Y-64659774D01*
X149090226Y-64803937D01*
X149259744Y-64917205D01*
X149448102Y-64995226D01*
X149648061Y-65035000D01*
X149851939Y-65035000D01*
X150037645Y-64998061D01*
X151965000Y-64998061D01*
X151965000Y-65201939D01*
X152004774Y-65401898D01*
X152082795Y-65590256D01*
X152196063Y-65759774D01*
X152340226Y-65903937D01*
X152509744Y-66017205D01*
X152698102Y-66095226D01*
X152898061Y-66135000D01*
X153101939Y-66135000D01*
X153301898Y-66095226D01*
X153490256Y-66017205D01*
X153659774Y-65903937D01*
X153803937Y-65759774D01*
X153917205Y-65590256D01*
X153995226Y-65401898D01*
X154035000Y-65201939D01*
X154035000Y-64998061D01*
X154024347Y-64944506D01*
X154090256Y-64917205D01*
X154259774Y-64803937D01*
X154403937Y-64659774D01*
X154517205Y-64490256D01*
X154595226Y-64301898D01*
X154635000Y-64101939D01*
X154635000Y-63898061D01*
X154595226Y-63698102D01*
X154517205Y-63509744D01*
X154403937Y-63340226D01*
X154271804Y-63208093D01*
X157565000Y-63208093D01*
X157565000Y-63411971D01*
X157604774Y-63611930D01*
X157682795Y-63800288D01*
X157796063Y-63969806D01*
X157940226Y-64113969D01*
X158109744Y-64227237D01*
X158298102Y-64305258D01*
X158498061Y-64345032D01*
X158701939Y-64345032D01*
X158901898Y-64305258D01*
X159090256Y-64227237D01*
X159259774Y-64113969D01*
X159403937Y-63969806D01*
X159517205Y-63800288D01*
X159595226Y-63611930D01*
X159635000Y-63411971D01*
X159635000Y-63208093D01*
X159595226Y-63008134D01*
X159517205Y-62819776D01*
X159403937Y-62650258D01*
X159259774Y-62506095D01*
X159090256Y-62392827D01*
X158901898Y-62314806D01*
X158701939Y-62275032D01*
X158498061Y-62275032D01*
X158298102Y-62314806D01*
X158109744Y-62392827D01*
X157940226Y-62506095D01*
X157796063Y-62650258D01*
X157682795Y-62819776D01*
X157604774Y-63008134D01*
X157565000Y-63208093D01*
X154271804Y-63208093D01*
X154259774Y-63196063D01*
X154090256Y-63082795D01*
X153901898Y-63004774D01*
X153701939Y-62965000D01*
X153498061Y-62965000D01*
X153298102Y-63004774D01*
X153109744Y-63082795D01*
X152940226Y-63196063D01*
X152796063Y-63340226D01*
X152682795Y-63509744D01*
X152604774Y-63698102D01*
X152565000Y-63898061D01*
X152565000Y-64101939D01*
X152575653Y-64155494D01*
X152509744Y-64182795D01*
X152340226Y-64296063D01*
X152196063Y-64440226D01*
X152082795Y-64609744D01*
X152004774Y-64798102D01*
X151965000Y-64998061D01*
X150037645Y-64998061D01*
X150051898Y-64995226D01*
X150240256Y-64917205D01*
X150409774Y-64803937D01*
X150553937Y-64659774D01*
X150667205Y-64490256D01*
X150745226Y-64301898D01*
X150785000Y-64101939D01*
X150785000Y-63898061D01*
X150745226Y-63698102D01*
X150667205Y-63509744D01*
X150553937Y-63340226D01*
X150409774Y-63196063D01*
X150240256Y-63082795D01*
X150051898Y-63004774D01*
X149851939Y-62965000D01*
X149648061Y-62965000D01*
X149448102Y-63004774D01*
X149259744Y-63082795D01*
X149090226Y-63196063D01*
X148946063Y-63340226D01*
X148832795Y-63509744D01*
X148754774Y-63698102D01*
X148715000Y-63898061D01*
X139160000Y-63898061D01*
X139160000Y-61375577D01*
X139201716Y-61453623D01*
X139343551Y-61626449D01*
X139516377Y-61768284D01*
X139713553Y-61873676D01*
X139927501Y-61938577D01*
X140094248Y-61955000D01*
X140805752Y-61955000D01*
X140972499Y-61938577D01*
X141186447Y-61873676D01*
X141383623Y-61768284D01*
X141556449Y-61626449D01*
X141698284Y-61453623D01*
X141803676Y-61256447D01*
X141868577Y-61042499D01*
X141890491Y-60820000D01*
X142939509Y-60820000D01*
X142961423Y-61042499D01*
X143026324Y-61256447D01*
X143131716Y-61453623D01*
X143273551Y-61626449D01*
X143446377Y-61768284D01*
X143643553Y-61873676D01*
X143857501Y-61938577D01*
X144024248Y-61955000D01*
X145235752Y-61955000D01*
X145402499Y-61938577D01*
X145616447Y-61873676D01*
X145813623Y-61768284D01*
X145986449Y-61626449D01*
X146128284Y-61453623D01*
X146233676Y-61256447D01*
X146298577Y-61042499D01*
X146320491Y-60820000D01*
X146298577Y-60597501D01*
X146258879Y-60466633D01*
X148726466Y-60466633D01*
X148726466Y-60670511D01*
X148766240Y-60870470D01*
X148844261Y-61058828D01*
X148957529Y-61228346D01*
X149101692Y-61372509D01*
X149271210Y-61485777D01*
X149459568Y-61563798D01*
X149659527Y-61603572D01*
X149863405Y-61603572D01*
X150063364Y-61563798D01*
X150251722Y-61485777D01*
X150421240Y-61372509D01*
X150565403Y-61228346D01*
X150585335Y-61198516D01*
X150698102Y-61245226D01*
X150898061Y-61285000D01*
X151101939Y-61285000D01*
X151301898Y-61245226D01*
X151490256Y-61167205D01*
X151659774Y-61053937D01*
X151736125Y-60977586D01*
X151782795Y-61090256D01*
X151787666Y-61097547D01*
X151640226Y-61196063D01*
X151496063Y-61340226D01*
X151382795Y-61509744D01*
X151304774Y-61698102D01*
X151265000Y-61898061D01*
X151265000Y-62101939D01*
X151304774Y-62301898D01*
X151382795Y-62490256D01*
X151496063Y-62659774D01*
X151640226Y-62803937D01*
X151809744Y-62917205D01*
X151998102Y-62995226D01*
X152198061Y-63035000D01*
X152401939Y-63035000D01*
X152601898Y-62995226D01*
X152790256Y-62917205D01*
X152959774Y-62803937D01*
X153069745Y-62693966D01*
X153090226Y-62714447D01*
X153259744Y-62827715D01*
X153448102Y-62905736D01*
X153648061Y-62945510D01*
X153851939Y-62945510D01*
X154051898Y-62905736D01*
X154240256Y-62827715D01*
X154409774Y-62714447D01*
X154553937Y-62570284D01*
X154667205Y-62400766D01*
X154745226Y-62212408D01*
X154785000Y-62012449D01*
X154785000Y-61808571D01*
X154745226Y-61608612D01*
X154667205Y-61420254D01*
X154553937Y-61250736D01*
X154409774Y-61106573D01*
X154240256Y-60993305D01*
X154051898Y-60915284D01*
X153851939Y-60875510D01*
X153700475Y-60875510D01*
X153735000Y-60701939D01*
X153735000Y-60498061D01*
X153695226Y-60298102D01*
X153617205Y-60109744D01*
X153511767Y-59951944D01*
X153553937Y-59909774D01*
X153561623Y-59898270D01*
X159715004Y-59898270D01*
X159715004Y-60102148D01*
X159754778Y-60302107D01*
X159832799Y-60490465D01*
X159946067Y-60659983D01*
X160004707Y-60718623D01*
X159967625Y-60755705D01*
X159854357Y-60925223D01*
X159776336Y-61113581D01*
X159736562Y-61313540D01*
X159736562Y-61517418D01*
X159776336Y-61717377D01*
X159854357Y-61905735D01*
X159967625Y-62075253D01*
X160111788Y-62219416D01*
X160281306Y-62332684D01*
X160469664Y-62410705D01*
X160669623Y-62450479D01*
X160873501Y-62450479D01*
X161073460Y-62410705D01*
X161261818Y-62332684D01*
X161431336Y-62219416D01*
X161575499Y-62075253D01*
X161688767Y-61905735D01*
X161766788Y-61717377D01*
X161806562Y-61517418D01*
X161806562Y-61313540D01*
X161803118Y-61296224D01*
X161998061Y-61335000D01*
X162072107Y-61335000D01*
X162109802Y-61426003D01*
X162150704Y-61487218D01*
X162104774Y-61598102D01*
X162065000Y-61798061D01*
X162065000Y-62001939D01*
X162104774Y-62201898D01*
X162182795Y-62390256D01*
X162296063Y-62559774D01*
X162440226Y-62703937D01*
X162609744Y-62817205D01*
X162798102Y-62895226D01*
X162998061Y-62935000D01*
X163201939Y-62935000D01*
X163401898Y-62895226D01*
X163590256Y-62817205D01*
X163759774Y-62703937D01*
X163903937Y-62559774D01*
X164017205Y-62390256D01*
X164095226Y-62201898D01*
X164135000Y-62001939D01*
X164135000Y-61798061D01*
X164095226Y-61598102D01*
X164017205Y-61409744D01*
X163976303Y-61348529D01*
X164022233Y-61237645D01*
X164062007Y-61037686D01*
X164062007Y-60833808D01*
X164022233Y-60633849D01*
X163944212Y-60445491D01*
X163830944Y-60275973D01*
X163686781Y-60131810D01*
X163517263Y-60018542D01*
X163328905Y-59940521D01*
X163128946Y-59900747D01*
X163054900Y-59900747D01*
X163017205Y-59809744D01*
X162903937Y-59640226D01*
X162759774Y-59496063D01*
X162590256Y-59382795D01*
X162401898Y-59304774D01*
X162201939Y-59265000D01*
X161998061Y-59265000D01*
X161798102Y-59304774D01*
X161609744Y-59382795D01*
X161590733Y-59395498D01*
X161553941Y-59340435D01*
X161409778Y-59196272D01*
X161240260Y-59083004D01*
X161051902Y-59004983D01*
X160851943Y-58965209D01*
X160648065Y-58965209D01*
X160448106Y-59004983D01*
X160259748Y-59083004D01*
X160090230Y-59196272D01*
X159946067Y-59340435D01*
X159832799Y-59509953D01*
X159754778Y-59698311D01*
X159715004Y-59898270D01*
X153561623Y-59898270D01*
X153667205Y-59740256D01*
X153745226Y-59551898D01*
X153785000Y-59351939D01*
X153785000Y-59148061D01*
X153745226Y-58948102D01*
X153667205Y-58759744D01*
X153553937Y-58590226D01*
X153409774Y-58446063D01*
X153240256Y-58332795D01*
X153051898Y-58254774D01*
X153004628Y-58245372D01*
X152995226Y-58198102D01*
X152917205Y-58009744D01*
X152803937Y-57840226D01*
X152659774Y-57696063D01*
X152490256Y-57582795D01*
X152301898Y-57504774D01*
X152101939Y-57465000D01*
X151898061Y-57465000D01*
X151698102Y-57504774D01*
X151509744Y-57582795D01*
X151340226Y-57696063D01*
X151196063Y-57840226D01*
X151082795Y-58009744D01*
X151004774Y-58198102D01*
X150965000Y-58398061D01*
X150965000Y-58601939D01*
X151004774Y-58801898D01*
X151082795Y-58990256D01*
X151196063Y-59159774D01*
X151288373Y-59252084D01*
X151101939Y-59215000D01*
X150898061Y-59215000D01*
X150698102Y-59254774D01*
X150509744Y-59332795D01*
X150340226Y-59446063D01*
X150196063Y-59590226D01*
X150176131Y-59620056D01*
X150063364Y-59573346D01*
X149863405Y-59533572D01*
X149659527Y-59533572D01*
X149459568Y-59573346D01*
X149271210Y-59651367D01*
X149101692Y-59764635D01*
X148957529Y-59908798D01*
X148844261Y-60078316D01*
X148766240Y-60266674D01*
X148726466Y-60466633D01*
X146258879Y-60466633D01*
X146233676Y-60383553D01*
X146128284Y-60186377D01*
X145986449Y-60013551D01*
X145813623Y-59871716D01*
X145616447Y-59766324D01*
X145402499Y-59701423D01*
X145235752Y-59685000D01*
X145016904Y-59685000D01*
X145023108Y-59670022D01*
X145060000Y-59484552D01*
X145060000Y-59295448D01*
X145023108Y-59109978D01*
X144950741Y-58935269D01*
X144845681Y-58778036D01*
X144711964Y-58644319D01*
X144554731Y-58539259D01*
X144380022Y-58466892D01*
X144194552Y-58430000D01*
X144005448Y-58430000D01*
X143819978Y-58466892D01*
X143645269Y-58539259D01*
X143488036Y-58644319D01*
X143354319Y-58778036D01*
X143249259Y-58935269D01*
X143176892Y-59109978D01*
X143140000Y-59295448D01*
X143140000Y-59484552D01*
X143176892Y-59670022D01*
X143249259Y-59844731D01*
X143330715Y-59966638D01*
X143273551Y-60013551D01*
X143131716Y-60186377D01*
X143026324Y-60383553D01*
X142961423Y-60597501D01*
X142939509Y-60820000D01*
X141890491Y-60820000D01*
X141868577Y-60597501D01*
X141803676Y-60383553D01*
X141698284Y-60186377D01*
X141556449Y-60013551D01*
X141383623Y-59871716D01*
X141186447Y-59766324D01*
X140972499Y-59701423D01*
X140805752Y-59685000D01*
X140094248Y-59685000D01*
X139927501Y-59701423D01*
X139713553Y-59766324D01*
X139516377Y-59871716D01*
X139343551Y-60013551D01*
X139201716Y-60186377D01*
X139160000Y-60264423D01*
X139160000Y-54898061D01*
X149765000Y-54898061D01*
X149765000Y-55101939D01*
X149804774Y-55301898D01*
X149882795Y-55490256D01*
X149996063Y-55659774D01*
X150140226Y-55803937D01*
X150309744Y-55917205D01*
X150498102Y-55995226D01*
X150698061Y-56035000D01*
X150901939Y-56035000D01*
X151101898Y-55995226D01*
X151290256Y-55917205D01*
X151459774Y-55803937D01*
X151603937Y-55659774D01*
X151717205Y-55490256D01*
X151795226Y-55301898D01*
X151835000Y-55101939D01*
X151835000Y-54898061D01*
X151795226Y-54698102D01*
X151717205Y-54509744D01*
X151603937Y-54340226D01*
X151459774Y-54196063D01*
X151290256Y-54082795D01*
X151101898Y-54004774D01*
X150901939Y-53965000D01*
X150698061Y-53965000D01*
X150498102Y-54004774D01*
X150309744Y-54082795D01*
X150140226Y-54196063D01*
X149996063Y-54340226D01*
X149882795Y-54509744D01*
X149804774Y-54698102D01*
X149765000Y-54898061D01*
X139160000Y-54898061D01*
X139160000Y-52735577D01*
X139201716Y-52813623D01*
X139343551Y-52986449D01*
X139516377Y-53128284D01*
X139713553Y-53233676D01*
X139927501Y-53298577D01*
X140094248Y-53315000D01*
X140805752Y-53315000D01*
X140972499Y-53298577D01*
X141186447Y-53233676D01*
X141383623Y-53128284D01*
X141556449Y-52986449D01*
X141698284Y-52813623D01*
X141803676Y-52616447D01*
X141868577Y-52402499D01*
X141890491Y-52180000D01*
X142939509Y-52180000D01*
X142961423Y-52402499D01*
X143026324Y-52616447D01*
X143131716Y-52813623D01*
X143273551Y-52986449D01*
X143330715Y-53033362D01*
X143249259Y-53155269D01*
X143176892Y-53329978D01*
X143140000Y-53515448D01*
X143140000Y-53704552D01*
X143176892Y-53890022D01*
X143249259Y-54064731D01*
X143354319Y-54221964D01*
X143488036Y-54355681D01*
X143645269Y-54460741D01*
X143819978Y-54533108D01*
X144005448Y-54570000D01*
X144194552Y-54570000D01*
X144380022Y-54533108D01*
X144554731Y-54460741D01*
X144711964Y-54355681D01*
X144845681Y-54221964D01*
X144950741Y-54064731D01*
X145023108Y-53890022D01*
X145060000Y-53704552D01*
X145060000Y-53515448D01*
X145054776Y-53489180D01*
X157050679Y-53489180D01*
X157050679Y-53693058D01*
X157090453Y-53893017D01*
X157168474Y-54081375D01*
X157281742Y-54250893D01*
X157425905Y-54395056D01*
X157595423Y-54508324D01*
X157783781Y-54586345D01*
X157983740Y-54626119D01*
X158187618Y-54626119D01*
X158217061Y-54620262D01*
X158340226Y-54743427D01*
X158364932Y-54759935D01*
X158309744Y-54782795D01*
X158140226Y-54896063D01*
X157996063Y-55040226D01*
X157882795Y-55209744D01*
X157804774Y-55398102D01*
X157765000Y-55598061D01*
X157765000Y-55801939D01*
X157804774Y-56001898D01*
X157882795Y-56190256D01*
X157996063Y-56359774D01*
X158140226Y-56503937D01*
X158309744Y-56617205D01*
X158498102Y-56695226D01*
X158698061Y-56735000D01*
X158901939Y-56735000D01*
X159101898Y-56695226D01*
X159290256Y-56617205D01*
X159318907Y-56598061D01*
X159743988Y-56598061D01*
X159743988Y-56801939D01*
X159783762Y-57001898D01*
X159861783Y-57190256D01*
X159975051Y-57359774D01*
X160119214Y-57503937D01*
X160288732Y-57617205D01*
X160477090Y-57695226D01*
X160677049Y-57735000D01*
X160880927Y-57735000D01*
X161080886Y-57695226D01*
X161269244Y-57617205D01*
X161438762Y-57503937D01*
X161582925Y-57359774D01*
X161696193Y-57190256D01*
X161721863Y-57128283D01*
X161898095Y-57093229D01*
X162086453Y-57015208D01*
X162255971Y-56901940D01*
X162279948Y-56877963D01*
X162225398Y-57009657D01*
X162185624Y-57209616D01*
X162185624Y-57413494D01*
X162225398Y-57613453D01*
X162303419Y-57801811D01*
X162416687Y-57971329D01*
X162560850Y-58115492D01*
X162730368Y-58228760D01*
X162918726Y-58306781D01*
X163118685Y-58346555D01*
X163322563Y-58346555D01*
X163522522Y-58306781D01*
X163710880Y-58228760D01*
X163880398Y-58115492D01*
X164024561Y-57971329D01*
X164103637Y-57852983D01*
X164154127Y-57852983D01*
X164354086Y-57813209D01*
X164454910Y-57771446D01*
X164490820Y-57795440D01*
X164340226Y-57896063D01*
X164196063Y-58040226D01*
X164082795Y-58209744D01*
X164004774Y-58398102D01*
X163965000Y-58598061D01*
X163965000Y-58801939D01*
X164004774Y-59001898D01*
X164082795Y-59190256D01*
X164196063Y-59359774D01*
X164340226Y-59503937D01*
X164509744Y-59617205D01*
X164698102Y-59695226D01*
X164733935Y-59702354D01*
X164696063Y-59740226D01*
X164582795Y-59909744D01*
X164504774Y-60098102D01*
X164465000Y-60298061D01*
X164465000Y-60501939D01*
X164504774Y-60701898D01*
X164582795Y-60890256D01*
X164696063Y-61059774D01*
X164840226Y-61203937D01*
X165009744Y-61317205D01*
X165198102Y-61395226D01*
X165398061Y-61435000D01*
X165401289Y-61435000D01*
X165396063Y-61440226D01*
X165282795Y-61609744D01*
X165204774Y-61798102D01*
X165165000Y-61998061D01*
X165165000Y-62201939D01*
X165204774Y-62401898D01*
X165282795Y-62590256D01*
X165396063Y-62759774D01*
X165540226Y-62903937D01*
X165709744Y-63017205D01*
X165898102Y-63095226D01*
X166098061Y-63135000D01*
X166201289Y-63135000D01*
X166123479Y-63212810D01*
X166010211Y-63382328D01*
X165932190Y-63570686D01*
X165892416Y-63770645D01*
X165892416Y-63974523D01*
X165932190Y-64174482D01*
X165952553Y-64223641D01*
X165809744Y-64282795D01*
X165784635Y-64299572D01*
X165726710Y-64241647D01*
X165557192Y-64128379D01*
X165368834Y-64050358D01*
X165168875Y-64010584D01*
X164964997Y-64010584D01*
X164765038Y-64050358D01*
X164576680Y-64128379D01*
X164407162Y-64241647D01*
X164262999Y-64385810D01*
X164149731Y-64555328D01*
X164071710Y-64743686D01*
X164031936Y-64943645D01*
X164031936Y-65147523D01*
X164071710Y-65347482D01*
X164149731Y-65535840D01*
X164262999Y-65705358D01*
X164407162Y-65849521D01*
X164576680Y-65962789D01*
X164765038Y-66040810D01*
X164964997Y-66080584D01*
X165168875Y-66080584D01*
X165368834Y-66040810D01*
X165557192Y-65962789D01*
X165582301Y-65946012D01*
X165640226Y-66003937D01*
X165809744Y-66117205D01*
X165998102Y-66195226D01*
X166198061Y-66235000D01*
X166401939Y-66235000D01*
X166601898Y-66195226D01*
X166790256Y-66117205D01*
X166959774Y-66003937D01*
X167034157Y-65929554D01*
X167202050Y-65962950D01*
X167405928Y-65962950D01*
X167605887Y-65923176D01*
X167794245Y-65845155D01*
X167963763Y-65731887D01*
X168107926Y-65587724D01*
X168151684Y-65522234D01*
X170307012Y-65522234D01*
X170307012Y-65726112D01*
X170346786Y-65926071D01*
X170424807Y-66114429D01*
X170538075Y-66283947D01*
X170682238Y-66428110D01*
X170851756Y-66541378D01*
X171040114Y-66619399D01*
X171240073Y-66659173D01*
X171443951Y-66659173D01*
X171643910Y-66619399D01*
X171832268Y-66541378D01*
X172001786Y-66428110D01*
X172145949Y-66283947D01*
X172203336Y-66198061D01*
X173365000Y-66198061D01*
X173365000Y-66401939D01*
X173404774Y-66601898D01*
X173482795Y-66790256D01*
X173596063Y-66959774D01*
X173740226Y-67103937D01*
X173909744Y-67217205D01*
X174098102Y-67295226D01*
X174298061Y-67335000D01*
X174501939Y-67335000D01*
X174701898Y-67295226D01*
X174890256Y-67217205D01*
X175059774Y-67103937D01*
X175203937Y-66959774D01*
X175317205Y-66790256D01*
X175395226Y-66601898D01*
X175435000Y-66401939D01*
X175435000Y-66198061D01*
X175395226Y-65998102D01*
X175317205Y-65809744D01*
X175203937Y-65640226D01*
X175059774Y-65496063D01*
X174890256Y-65382795D01*
X174701898Y-65304774D01*
X174501939Y-65265000D01*
X174298061Y-65265000D01*
X174098102Y-65304774D01*
X173909744Y-65382795D01*
X173740226Y-65496063D01*
X173596063Y-65640226D01*
X173482795Y-65809744D01*
X173404774Y-65998102D01*
X173365000Y-66198061D01*
X172203336Y-66198061D01*
X172259217Y-66114429D01*
X172337238Y-65926071D01*
X172377012Y-65726112D01*
X172377012Y-65522234D01*
X172337238Y-65322275D01*
X172259217Y-65133917D01*
X172145949Y-64964399D01*
X172001786Y-64820236D01*
X171832268Y-64706968D01*
X171643910Y-64628947D01*
X171443951Y-64589173D01*
X171240073Y-64589173D01*
X171040114Y-64628947D01*
X170851756Y-64706968D01*
X170682238Y-64820236D01*
X170538075Y-64964399D01*
X170424807Y-65133917D01*
X170346786Y-65322275D01*
X170307012Y-65522234D01*
X168151684Y-65522234D01*
X168221194Y-65418206D01*
X168299215Y-65229848D01*
X168338989Y-65029889D01*
X168338989Y-64826011D01*
X168299215Y-64626052D01*
X168221194Y-64437694D01*
X168107926Y-64268176D01*
X167963763Y-64124013D01*
X167936327Y-64105681D01*
X167950123Y-64036319D01*
X177214490Y-64036319D01*
X177214490Y-64240197D01*
X177254264Y-64440156D01*
X177332285Y-64628514D01*
X177405054Y-64737421D01*
X177332285Y-64846328D01*
X177254264Y-65034686D01*
X177214490Y-65234645D01*
X177214490Y-65438523D01*
X177254264Y-65638482D01*
X177332285Y-65826840D01*
X177445553Y-65996358D01*
X177589716Y-66140521D01*
X177759234Y-66253789D01*
X177947592Y-66331810D01*
X178147551Y-66371584D01*
X178351429Y-66371584D01*
X178551388Y-66331810D01*
X178739746Y-66253789D01*
X178909264Y-66140521D01*
X179053427Y-65996358D01*
X179166695Y-65826840D01*
X179244716Y-65638482D01*
X179284490Y-65438523D01*
X179284490Y-65398061D01*
X211215000Y-65398061D01*
X211215000Y-65601939D01*
X211254774Y-65801898D01*
X211332795Y-65990256D01*
X211446063Y-66159774D01*
X211590226Y-66303937D01*
X211759744Y-66417205D01*
X211948102Y-66495226D01*
X212148061Y-66535000D01*
X212351939Y-66535000D01*
X212551898Y-66495226D01*
X212740256Y-66417205D01*
X212909774Y-66303937D01*
X213053937Y-66159774D01*
X213167205Y-65990256D01*
X213245226Y-65801898D01*
X213285000Y-65601939D01*
X213285000Y-65398061D01*
X213245226Y-65198102D01*
X213167205Y-65009744D01*
X213053937Y-64840226D01*
X212909774Y-64696063D01*
X212740256Y-64582795D01*
X212551898Y-64504774D01*
X212351939Y-64465000D01*
X212148061Y-64465000D01*
X211948102Y-64504774D01*
X211759744Y-64582795D01*
X211590226Y-64696063D01*
X211446063Y-64840226D01*
X211332795Y-65009744D01*
X211254774Y-65198102D01*
X211215000Y-65398061D01*
X179284490Y-65398061D01*
X179284490Y-65234645D01*
X179244716Y-65034686D01*
X179166695Y-64846328D01*
X179093926Y-64737421D01*
X179166695Y-64628514D01*
X179244716Y-64440156D01*
X179284490Y-64240197D01*
X179284490Y-64036319D01*
X179244716Y-63836360D01*
X179166695Y-63648002D01*
X179053427Y-63478484D01*
X178909264Y-63334321D01*
X178739746Y-63221053D01*
X178551388Y-63143032D01*
X178351429Y-63103258D01*
X178147551Y-63103258D01*
X177947592Y-63143032D01*
X177759234Y-63221053D01*
X177589716Y-63334321D01*
X177445553Y-63478484D01*
X177332285Y-63648002D01*
X177254264Y-63836360D01*
X177214490Y-64036319D01*
X167950123Y-64036319D01*
X167962416Y-63974523D01*
X167962416Y-63770645D01*
X167922642Y-63570686D01*
X167844621Y-63382328D01*
X167731353Y-63212810D01*
X167587190Y-63068647D01*
X167417672Y-62955379D01*
X167229314Y-62877358D01*
X167029355Y-62837584D01*
X166926127Y-62837584D01*
X167003937Y-62759774D01*
X167117205Y-62590256D01*
X167195226Y-62401898D01*
X167195989Y-62398061D01*
X168965000Y-62398061D01*
X168965000Y-62601939D01*
X169004774Y-62801898D01*
X169082795Y-62990256D01*
X169196063Y-63159774D01*
X169340226Y-63303937D01*
X169509744Y-63417205D01*
X169698102Y-63495226D01*
X169898061Y-63535000D01*
X170101939Y-63535000D01*
X170301898Y-63495226D01*
X170490256Y-63417205D01*
X170659774Y-63303937D01*
X170803937Y-63159774D01*
X170917205Y-62990256D01*
X170995226Y-62801898D01*
X171017750Y-62688660D01*
X171190256Y-62617205D01*
X171359774Y-62503937D01*
X171503937Y-62359774D01*
X171617205Y-62190256D01*
X171671833Y-62058373D01*
X173551357Y-62058373D01*
X173551357Y-62262251D01*
X173591131Y-62462210D01*
X173669152Y-62650568D01*
X173782420Y-62820086D01*
X173926583Y-62964249D01*
X174096101Y-63077517D01*
X174284459Y-63155538D01*
X174484418Y-63195312D01*
X174688296Y-63195312D01*
X174888255Y-63155538D01*
X175076613Y-63077517D01*
X175246131Y-62964249D01*
X175390294Y-62820086D01*
X175503562Y-62650568D01*
X175581583Y-62462210D01*
X175621357Y-62262251D01*
X175621357Y-62058373D01*
X175581583Y-61858414D01*
X175556584Y-61798061D01*
X177214490Y-61798061D01*
X177214490Y-62001939D01*
X177254264Y-62201898D01*
X177332285Y-62390256D01*
X177445553Y-62559774D01*
X177589716Y-62703937D01*
X177759234Y-62817205D01*
X177947592Y-62895226D01*
X178147551Y-62935000D01*
X178351429Y-62935000D01*
X178537180Y-62898052D01*
X214630989Y-62898052D01*
X214630989Y-63101930D01*
X214670763Y-63301889D01*
X214748784Y-63490247D01*
X214862052Y-63659765D01*
X215006215Y-63803928D01*
X215175733Y-63917196D01*
X215364091Y-63995217D01*
X215564050Y-64034991D01*
X215767928Y-64034991D01*
X215967887Y-63995217D01*
X216156245Y-63917196D01*
X216325763Y-63803928D01*
X216469926Y-63659765D01*
X216583194Y-63490247D01*
X216661215Y-63301889D01*
X216700989Y-63101930D01*
X216700989Y-62898052D01*
X216661215Y-62698093D01*
X216640491Y-62648061D01*
X218465000Y-62648061D01*
X218465000Y-62851939D01*
X218504774Y-63051898D01*
X218582795Y-63240256D01*
X218696063Y-63409774D01*
X218840226Y-63553937D01*
X219009744Y-63667205D01*
X219198102Y-63745226D01*
X219398061Y-63785000D01*
X219601939Y-63785000D01*
X219801898Y-63745226D01*
X219990256Y-63667205D01*
X220159774Y-63553937D01*
X220303937Y-63409774D01*
X220311763Y-63398061D01*
X221465000Y-63398061D01*
X221465000Y-63601939D01*
X221504774Y-63801898D01*
X221582795Y-63990256D01*
X221696063Y-64159774D01*
X221840226Y-64303937D01*
X222009744Y-64417205D01*
X222198102Y-64495226D01*
X222348791Y-64525200D01*
X222209744Y-64582795D01*
X222040226Y-64696063D01*
X221896063Y-64840226D01*
X221782795Y-65009744D01*
X221704774Y-65198102D01*
X221665000Y-65398061D01*
X221665000Y-65601939D01*
X221704774Y-65801898D01*
X221782795Y-65990256D01*
X221896063Y-66159774D01*
X222040226Y-66303937D01*
X222209744Y-66417205D01*
X222398102Y-66495226D01*
X222598061Y-66535000D01*
X222801939Y-66535000D01*
X223001898Y-66495226D01*
X223190256Y-66417205D01*
X223359774Y-66303937D01*
X223503937Y-66159774D01*
X223617205Y-65990256D01*
X223695226Y-65801898D01*
X223735000Y-65601939D01*
X223735000Y-65398061D01*
X223695226Y-65198102D01*
X223617205Y-65009744D01*
X223503937Y-64840226D01*
X223359774Y-64696063D01*
X223287934Y-64648061D01*
X224215000Y-64648061D01*
X224215000Y-64851939D01*
X224254774Y-65051898D01*
X224332795Y-65240256D01*
X224446063Y-65409774D01*
X224590226Y-65553937D01*
X224759744Y-65667205D01*
X224948102Y-65745226D01*
X225148061Y-65785000D01*
X225351939Y-65785000D01*
X225551898Y-65745226D01*
X225740256Y-65667205D01*
X225909774Y-65553937D01*
X226053937Y-65409774D01*
X226167205Y-65240256D01*
X226245226Y-65051898D01*
X226285000Y-64851939D01*
X226285000Y-64648061D01*
X226245226Y-64448102D01*
X226167205Y-64259744D01*
X226053937Y-64090226D01*
X225909774Y-63946063D01*
X225740256Y-63832795D01*
X225551898Y-63754774D01*
X225351939Y-63715000D01*
X225148061Y-63715000D01*
X224948102Y-63754774D01*
X224759744Y-63832795D01*
X224590226Y-63946063D01*
X224446063Y-64090226D01*
X224332795Y-64259744D01*
X224254774Y-64448102D01*
X224215000Y-64648061D01*
X223287934Y-64648061D01*
X223190256Y-64582795D01*
X223001898Y-64504774D01*
X222851209Y-64474800D01*
X222990256Y-64417205D01*
X223159774Y-64303937D01*
X223303937Y-64159774D01*
X223417205Y-63990256D01*
X223495226Y-63801898D01*
X223515880Y-63698061D01*
X226665000Y-63698061D01*
X226665000Y-63901939D01*
X226704774Y-64101898D01*
X226782795Y-64290256D01*
X226896063Y-64459774D01*
X227040226Y-64603937D01*
X227209744Y-64717205D01*
X227398102Y-64795226D01*
X227598061Y-64835000D01*
X227801939Y-64835000D01*
X228001898Y-64795226D01*
X228190256Y-64717205D01*
X228359774Y-64603937D01*
X228503937Y-64459774D01*
X228617205Y-64290256D01*
X228695226Y-64101898D01*
X228735000Y-63901939D01*
X228735000Y-63698061D01*
X228695226Y-63498102D01*
X228617205Y-63309744D01*
X228503937Y-63140226D01*
X228393711Y-63030000D01*
X230157573Y-63030000D01*
X230187210Y-63330913D01*
X230274983Y-63620261D01*
X230417519Y-63886927D01*
X230609339Y-64120661D01*
X230843073Y-64312481D01*
X231109739Y-64455017D01*
X231399087Y-64542790D01*
X231624592Y-64565000D01*
X233575408Y-64565000D01*
X233800913Y-64542790D01*
X234090261Y-64455017D01*
X234356927Y-64312481D01*
X234590661Y-64120661D01*
X234782481Y-63886927D01*
X234925017Y-63620261D01*
X235012790Y-63330913D01*
X235042427Y-63030000D01*
X235012790Y-62729087D01*
X234925017Y-62439739D01*
X234782481Y-62173073D01*
X234590661Y-61939339D01*
X234356927Y-61747519D01*
X234090261Y-61604983D01*
X233800913Y-61517210D01*
X233575408Y-61495000D01*
X231624592Y-61495000D01*
X231399087Y-61517210D01*
X231109739Y-61604983D01*
X230843073Y-61747519D01*
X230609339Y-61939339D01*
X230417519Y-62173073D01*
X230274983Y-62439739D01*
X230187210Y-62729087D01*
X230157573Y-63030000D01*
X228393711Y-63030000D01*
X228359774Y-62996063D01*
X228190256Y-62882795D01*
X228001898Y-62804774D01*
X227801939Y-62765000D01*
X227598061Y-62765000D01*
X227398102Y-62804774D01*
X227209744Y-62882795D01*
X227040226Y-62996063D01*
X226896063Y-63140226D01*
X226782795Y-63309744D01*
X226704774Y-63498102D01*
X226665000Y-63698061D01*
X223515880Y-63698061D01*
X223535000Y-63601939D01*
X223535000Y-63398061D01*
X223495226Y-63198102D01*
X223417205Y-63009744D01*
X223303937Y-62840226D01*
X223159774Y-62696063D01*
X222990256Y-62582795D01*
X222801898Y-62504774D01*
X222601939Y-62465000D01*
X222398061Y-62465000D01*
X222198102Y-62504774D01*
X222009744Y-62582795D01*
X221840226Y-62696063D01*
X221696063Y-62840226D01*
X221582795Y-63009744D01*
X221504774Y-63198102D01*
X221465000Y-63398061D01*
X220311763Y-63398061D01*
X220417205Y-63240256D01*
X220495226Y-63051898D01*
X220535000Y-62851939D01*
X220535000Y-62648061D01*
X220495226Y-62448102D01*
X220417205Y-62259744D01*
X220303937Y-62090226D01*
X220159774Y-61946063D01*
X219990256Y-61832795D01*
X219906402Y-61798061D01*
X223165000Y-61798061D01*
X223165000Y-62001939D01*
X223204774Y-62201898D01*
X223282795Y-62390256D01*
X223396063Y-62559774D01*
X223540226Y-62703937D01*
X223709744Y-62817205D01*
X223898102Y-62895226D01*
X224098061Y-62935000D01*
X224301939Y-62935000D01*
X224501898Y-62895226D01*
X224690256Y-62817205D01*
X224859774Y-62703937D01*
X225003937Y-62559774D01*
X225117205Y-62390256D01*
X225195226Y-62201898D01*
X225235000Y-62001939D01*
X225235000Y-61798061D01*
X225565000Y-61798061D01*
X225565000Y-62001939D01*
X225604774Y-62201898D01*
X225682795Y-62390256D01*
X225796063Y-62559774D01*
X225940226Y-62703937D01*
X226109744Y-62817205D01*
X226298102Y-62895226D01*
X226498061Y-62935000D01*
X226701939Y-62935000D01*
X226901898Y-62895226D01*
X227090256Y-62817205D01*
X227259774Y-62703937D01*
X227403937Y-62559774D01*
X227517205Y-62390256D01*
X227595226Y-62201898D01*
X227635000Y-62001939D01*
X227635000Y-61798061D01*
X227595226Y-61598102D01*
X227517205Y-61409744D01*
X227403937Y-61240226D01*
X227259774Y-61096063D01*
X227090256Y-60982795D01*
X226901898Y-60904774D01*
X226701939Y-60865000D01*
X226498061Y-60865000D01*
X226298102Y-60904774D01*
X226109744Y-60982795D01*
X225940226Y-61096063D01*
X225796063Y-61240226D01*
X225682795Y-61409744D01*
X225604774Y-61598102D01*
X225565000Y-61798061D01*
X225235000Y-61798061D01*
X225195226Y-61598102D01*
X225117205Y-61409744D01*
X225003937Y-61240226D01*
X224859774Y-61096063D01*
X224690256Y-60982795D01*
X224501898Y-60904774D01*
X224301939Y-60865000D01*
X224098061Y-60865000D01*
X223898102Y-60904774D01*
X223709744Y-60982795D01*
X223540226Y-61096063D01*
X223396063Y-61240226D01*
X223282795Y-61409744D01*
X223204774Y-61598102D01*
X223165000Y-61798061D01*
X219906402Y-61798061D01*
X219801898Y-61754774D01*
X219601939Y-61715000D01*
X219398061Y-61715000D01*
X219198102Y-61754774D01*
X219009744Y-61832795D01*
X218840226Y-61946063D01*
X218696063Y-62090226D01*
X218582795Y-62259744D01*
X218504774Y-62448102D01*
X218465000Y-62648061D01*
X216640491Y-62648061D01*
X216583194Y-62509735D01*
X216469926Y-62340217D01*
X216325763Y-62196054D01*
X216156245Y-62082786D01*
X215967887Y-62004765D01*
X215767928Y-61964991D01*
X215564050Y-61964991D01*
X215364091Y-62004765D01*
X215175733Y-62082786D01*
X215006215Y-62196054D01*
X214862052Y-62340217D01*
X214748784Y-62509735D01*
X214670763Y-62698093D01*
X214630989Y-62898052D01*
X178537180Y-62898052D01*
X178551388Y-62895226D01*
X178739746Y-62817205D01*
X178909264Y-62703937D01*
X179053427Y-62559774D01*
X179166695Y-62390256D01*
X179244716Y-62201898D01*
X179270309Y-62073233D01*
X179305900Y-62087975D01*
X179505859Y-62127749D01*
X179709737Y-62127749D01*
X179909696Y-62087975D01*
X180098054Y-62009954D01*
X180267572Y-61896686D01*
X180411735Y-61752523D01*
X180525003Y-61583005D01*
X180603024Y-61394647D01*
X180642798Y-61194688D01*
X180642798Y-60990810D01*
X180631201Y-60932510D01*
X180725784Y-60837927D01*
X180839052Y-60668409D01*
X180917073Y-60480051D01*
X180956847Y-60280092D01*
X180956847Y-60076214D01*
X180917073Y-59876255D01*
X180839052Y-59687897D01*
X180812435Y-59648061D01*
X224265000Y-59648061D01*
X224265000Y-59851939D01*
X224304774Y-60051898D01*
X224382795Y-60240256D01*
X224496063Y-60409774D01*
X224640226Y-60553937D01*
X224809744Y-60667205D01*
X224998102Y-60745226D01*
X225198061Y-60785000D01*
X225401939Y-60785000D01*
X225601898Y-60745226D01*
X225790256Y-60667205D01*
X225959774Y-60553937D01*
X226103937Y-60409774D01*
X226217205Y-60240256D01*
X226295226Y-60051898D01*
X226335000Y-59851939D01*
X226335000Y-59648061D01*
X226295226Y-59448102D01*
X226217205Y-59259744D01*
X226190649Y-59220000D01*
X230157573Y-59220000D01*
X230187210Y-59520913D01*
X230274983Y-59810261D01*
X230417519Y-60076927D01*
X230609339Y-60310661D01*
X230843073Y-60502481D01*
X231109739Y-60645017D01*
X231399087Y-60732790D01*
X231624592Y-60755000D01*
X233575408Y-60755000D01*
X233800913Y-60732790D01*
X234090261Y-60645017D01*
X234356927Y-60502481D01*
X234590661Y-60310661D01*
X234782481Y-60076927D01*
X234925017Y-59810261D01*
X235012790Y-59520913D01*
X235042427Y-59220000D01*
X235012790Y-58919087D01*
X234925017Y-58629739D01*
X234782481Y-58363073D01*
X234590661Y-58129339D01*
X234356927Y-57937519D01*
X234090261Y-57794983D01*
X233800913Y-57707210D01*
X233575408Y-57685000D01*
X231624592Y-57685000D01*
X231399087Y-57707210D01*
X231109739Y-57794983D01*
X230843073Y-57937519D01*
X230609339Y-58129339D01*
X230417519Y-58363073D01*
X230274983Y-58629739D01*
X230187210Y-58919087D01*
X230157573Y-59220000D01*
X226190649Y-59220000D01*
X226103937Y-59090226D01*
X225959774Y-58946063D01*
X225790256Y-58832795D01*
X225601898Y-58754774D01*
X225401939Y-58715000D01*
X225198061Y-58715000D01*
X224998102Y-58754774D01*
X224809744Y-58832795D01*
X224640226Y-58946063D01*
X224496063Y-59090226D01*
X224382795Y-59259744D01*
X224304774Y-59448102D01*
X224265000Y-59648061D01*
X180812435Y-59648061D01*
X180725784Y-59518379D01*
X180581621Y-59374216D01*
X180412103Y-59260948D01*
X180223745Y-59182927D01*
X180023786Y-59143153D01*
X179819908Y-59143153D01*
X179619949Y-59182927D01*
X179431591Y-59260948D01*
X179262073Y-59374216D01*
X179117910Y-59518379D01*
X179004642Y-59687897D01*
X178926621Y-59876255D01*
X178886847Y-60076214D01*
X178886847Y-60280092D01*
X178898444Y-60338392D01*
X178803861Y-60432975D01*
X178690593Y-60602493D01*
X178612572Y-60790851D01*
X178586979Y-60919516D01*
X178551388Y-60904774D01*
X178351429Y-60865000D01*
X178147551Y-60865000D01*
X177947592Y-60904774D01*
X177759234Y-60982795D01*
X177589716Y-61096063D01*
X177445553Y-61240226D01*
X177332285Y-61409744D01*
X177254264Y-61598102D01*
X177214490Y-61798061D01*
X175556584Y-61798061D01*
X175503562Y-61670056D01*
X175390294Y-61500538D01*
X175246131Y-61356375D01*
X175076613Y-61243107D01*
X174888255Y-61165086D01*
X174805317Y-61148589D01*
X174895069Y-61130736D01*
X175083427Y-61052715D01*
X175252945Y-60939447D01*
X175397108Y-60795284D01*
X175510376Y-60625766D01*
X175588397Y-60437408D01*
X175628171Y-60237449D01*
X175628171Y-60033571D01*
X175588397Y-59833612D01*
X175510376Y-59645254D01*
X175397108Y-59475736D01*
X175252945Y-59331573D01*
X175083427Y-59218305D01*
X174895069Y-59140284D01*
X174695110Y-59100510D01*
X174491232Y-59100510D01*
X174291273Y-59140284D01*
X174102915Y-59218305D01*
X173933397Y-59331573D01*
X173789234Y-59475736D01*
X173675966Y-59645254D01*
X173597945Y-59833612D01*
X173558171Y-60033571D01*
X173558171Y-60237449D01*
X173597945Y-60437408D01*
X173675966Y-60625766D01*
X173789234Y-60795284D01*
X173933397Y-60939447D01*
X174102915Y-61052715D01*
X174291273Y-61130736D01*
X174374211Y-61147233D01*
X174284459Y-61165086D01*
X174096101Y-61243107D01*
X173926583Y-61356375D01*
X173782420Y-61500538D01*
X173669152Y-61670056D01*
X173591131Y-61858414D01*
X173551357Y-62058373D01*
X171671833Y-62058373D01*
X171695226Y-62001898D01*
X171735000Y-61801939D01*
X171735000Y-61598061D01*
X171695226Y-61398102D01*
X171617205Y-61209744D01*
X171557067Y-61119741D01*
X171688055Y-61032218D01*
X171832218Y-60888055D01*
X171945486Y-60718537D01*
X172023507Y-60530179D01*
X172063281Y-60330220D01*
X172063281Y-60126342D01*
X172023507Y-59926383D01*
X171945486Y-59738025D01*
X171832218Y-59568507D01*
X171688055Y-59424344D01*
X171518537Y-59311076D01*
X171330179Y-59233055D01*
X171130220Y-59193281D01*
X170926342Y-59193281D01*
X170726383Y-59233055D01*
X170538025Y-59311076D01*
X170368507Y-59424344D01*
X170224344Y-59568507D01*
X170111076Y-59738025D01*
X170033055Y-59926383D01*
X169993281Y-60126342D01*
X169993281Y-60330220D01*
X170033055Y-60530179D01*
X170111076Y-60718537D01*
X170171214Y-60808540D01*
X170040226Y-60896063D01*
X169896063Y-61040226D01*
X169782795Y-61209744D01*
X169704774Y-61398102D01*
X169682250Y-61511340D01*
X169509744Y-61582795D01*
X169340226Y-61696063D01*
X169196063Y-61840226D01*
X169082795Y-62009744D01*
X169004774Y-62198102D01*
X168965000Y-62398061D01*
X167195989Y-62398061D01*
X167235000Y-62201939D01*
X167235000Y-61998061D01*
X167195226Y-61798102D01*
X167117205Y-61609744D01*
X167003937Y-61440226D01*
X166859774Y-61296063D01*
X166690256Y-61182795D01*
X166501898Y-61104774D01*
X166301939Y-61065000D01*
X166298711Y-61065000D01*
X166303937Y-61059774D01*
X166417205Y-60890256D01*
X166495226Y-60701898D01*
X166535000Y-60501939D01*
X166535000Y-60298061D01*
X166495226Y-60098102D01*
X166417205Y-59909744D01*
X166303937Y-59740226D01*
X166159774Y-59596063D01*
X165990256Y-59482795D01*
X165801898Y-59404774D01*
X165766065Y-59397646D01*
X165803937Y-59359774D01*
X165917205Y-59190256D01*
X165981515Y-59035000D01*
X166101939Y-59035000D01*
X166301898Y-58995226D01*
X166490256Y-58917205D01*
X166659774Y-58803937D01*
X166803937Y-58659774D01*
X166917205Y-58490256D01*
X166995226Y-58301898D01*
X167035000Y-58101939D01*
X167035000Y-57898061D01*
X166995226Y-57698102D01*
X166917205Y-57509744D01*
X166803937Y-57340226D01*
X166709765Y-57246054D01*
X166727496Y-57228323D01*
X166840764Y-57058805D01*
X166873342Y-56980156D01*
X166979973Y-56958946D01*
X167168331Y-56880925D01*
X167337849Y-56767657D01*
X167482012Y-56623494D01*
X167595280Y-56453976D01*
X167673301Y-56265618D01*
X167713075Y-56065659D01*
X167713075Y-55861781D01*
X167673301Y-55661822D01*
X167595280Y-55473464D01*
X167552875Y-55410000D01*
X230157573Y-55410000D01*
X230187210Y-55710913D01*
X230274983Y-56000261D01*
X230417519Y-56266927D01*
X230609339Y-56500661D01*
X230843073Y-56692481D01*
X231109739Y-56835017D01*
X231399087Y-56922790D01*
X231624592Y-56945000D01*
X233575408Y-56945000D01*
X233800913Y-56922790D01*
X234090261Y-56835017D01*
X234356927Y-56692481D01*
X234590661Y-56500661D01*
X234782481Y-56266927D01*
X234925017Y-56000261D01*
X235012790Y-55710913D01*
X235042427Y-55410000D01*
X235012790Y-55109087D01*
X234925017Y-54819739D01*
X234782481Y-54553073D01*
X234590661Y-54319339D01*
X234356927Y-54127519D01*
X234090261Y-53984983D01*
X233800913Y-53897210D01*
X233575408Y-53875000D01*
X231624592Y-53875000D01*
X231399087Y-53897210D01*
X231109739Y-53984983D01*
X230843073Y-54127519D01*
X230609339Y-54319339D01*
X230417519Y-54553073D01*
X230274983Y-54819739D01*
X230187210Y-55109087D01*
X230157573Y-55410000D01*
X167552875Y-55410000D01*
X167482012Y-55303946D01*
X167337849Y-55159783D01*
X167168331Y-55046515D01*
X166979973Y-54968494D01*
X166780014Y-54928720D01*
X166576136Y-54928720D01*
X166376177Y-54968494D01*
X166187819Y-55046515D01*
X166018301Y-55159783D01*
X165874138Y-55303946D01*
X165760870Y-55473464D01*
X165728292Y-55552113D01*
X165621661Y-55573323D01*
X165433303Y-55651344D01*
X165263785Y-55764612D01*
X165154701Y-55873696D01*
X165117542Y-55866305D01*
X164913664Y-55866305D01*
X164713705Y-55906079D01*
X164612881Y-55947842D01*
X164542444Y-55900778D01*
X164354086Y-55822757D01*
X164154127Y-55782983D01*
X163950249Y-55782983D01*
X163750290Y-55822757D01*
X163561932Y-55900778D01*
X163392414Y-56014046D01*
X163248251Y-56158209D01*
X163169175Y-56276555D01*
X163118685Y-56276555D01*
X162918726Y-56316329D01*
X162730368Y-56394350D01*
X162560850Y-56507618D01*
X162536873Y-56531595D01*
X162591423Y-56399901D01*
X162631197Y-56199942D01*
X162631197Y-55996064D01*
X162591423Y-55796105D01*
X162513402Y-55607747D01*
X162400134Y-55438229D01*
X162255971Y-55294066D01*
X162086453Y-55180798D01*
X161898095Y-55102777D01*
X161698136Y-55063003D01*
X161494258Y-55063003D01*
X161294299Y-55102777D01*
X161105941Y-55180798D01*
X160936423Y-55294066D01*
X160792260Y-55438229D01*
X160678992Y-55607747D01*
X160653322Y-55669720D01*
X160477090Y-55704774D01*
X160288732Y-55782795D01*
X160119214Y-55896063D01*
X159975051Y-56040226D01*
X159861783Y-56209744D01*
X159783762Y-56398102D01*
X159743988Y-56598061D01*
X159318907Y-56598061D01*
X159459774Y-56503937D01*
X159603937Y-56359774D01*
X159717205Y-56190256D01*
X159795226Y-56001898D01*
X159835000Y-55801939D01*
X159835000Y-55598061D01*
X159795226Y-55398102D01*
X159717205Y-55209744D01*
X159603937Y-55040226D01*
X159459774Y-54896063D01*
X159435068Y-54879555D01*
X159490256Y-54856695D01*
X159659774Y-54743427D01*
X159803937Y-54599264D01*
X159917205Y-54429746D01*
X159995226Y-54241388D01*
X160035000Y-54041429D01*
X160035000Y-53837551D01*
X159995226Y-53637592D01*
X159917205Y-53449234D01*
X159803937Y-53279716D01*
X159659774Y-53135553D01*
X159490256Y-53022285D01*
X159301898Y-52944264D01*
X159101939Y-52904490D01*
X158898061Y-52904490D01*
X158868618Y-52910347D01*
X158745453Y-52787182D01*
X158575935Y-52673914D01*
X158387577Y-52595893D01*
X158187618Y-52556119D01*
X157983740Y-52556119D01*
X157783781Y-52595893D01*
X157595423Y-52673914D01*
X157425905Y-52787182D01*
X157281742Y-52931345D01*
X157168474Y-53100863D01*
X157090453Y-53289221D01*
X157050679Y-53489180D01*
X145054776Y-53489180D01*
X145023108Y-53329978D01*
X145016904Y-53315000D01*
X145235752Y-53315000D01*
X145402499Y-53298577D01*
X145616447Y-53233676D01*
X145813623Y-53128284D01*
X145986449Y-52986449D01*
X146128284Y-52813623D01*
X146233676Y-52616447D01*
X146298577Y-52402499D01*
X146320491Y-52180000D01*
X146298577Y-51957501D01*
X146233676Y-51743553D01*
X146128284Y-51546377D01*
X145986449Y-51373551D01*
X145813623Y-51231716D01*
X145616447Y-51126324D01*
X145402499Y-51061423D01*
X145235752Y-51045000D01*
X144024248Y-51045000D01*
X143857501Y-51061423D01*
X143643553Y-51126324D01*
X143446377Y-51231716D01*
X143273551Y-51373551D01*
X143131716Y-51546377D01*
X143026324Y-51743553D01*
X142961423Y-51957501D01*
X142939509Y-52180000D01*
X141890491Y-52180000D01*
X141868577Y-51957501D01*
X141803676Y-51743553D01*
X141698284Y-51546377D01*
X141556449Y-51373551D01*
X141383623Y-51231716D01*
X141186447Y-51126324D01*
X140972499Y-51061423D01*
X140805752Y-51045000D01*
X140094248Y-51045000D01*
X139927501Y-51061423D01*
X139713553Y-51126324D01*
X139516377Y-51231716D01*
X139343551Y-51373551D01*
X139201716Y-51546377D01*
X139160000Y-51624423D01*
X139160000Y-50598061D01*
X149065000Y-50598061D01*
X149065000Y-50801939D01*
X149104774Y-51001898D01*
X149182795Y-51190256D01*
X149296063Y-51359774D01*
X149440226Y-51503937D01*
X149609744Y-51617205D01*
X149798102Y-51695226D01*
X149998061Y-51735000D01*
X150201939Y-51735000D01*
X150401898Y-51695226D01*
X150590256Y-51617205D01*
X150759774Y-51503937D01*
X150903937Y-51359774D01*
X151017205Y-51190256D01*
X151095226Y-51001898D01*
X151135000Y-50801939D01*
X151135000Y-50598061D01*
X153665000Y-50598061D01*
X153665000Y-50801939D01*
X153704774Y-51001898D01*
X153782795Y-51190256D01*
X153896063Y-51359774D01*
X154040226Y-51503937D01*
X154209744Y-51617205D01*
X154398102Y-51695226D01*
X154598061Y-51735000D01*
X154801939Y-51735000D01*
X155001898Y-51695226D01*
X155190256Y-51617205D01*
X155359774Y-51503937D01*
X155503937Y-51359774D01*
X155617205Y-51190256D01*
X155695226Y-51001898D01*
X155735000Y-50801939D01*
X155735000Y-50598061D01*
X155695226Y-50398102D01*
X155674084Y-50347060D01*
X156065000Y-50347060D01*
X156065000Y-50550938D01*
X156104774Y-50750897D01*
X156182795Y-50939255D01*
X156296063Y-51108773D01*
X156440226Y-51252936D01*
X156609744Y-51366204D01*
X156798102Y-51444225D01*
X156998061Y-51483999D01*
X157201939Y-51483999D01*
X157401898Y-51444225D01*
X157590256Y-51366204D01*
X157759774Y-51252936D01*
X157903937Y-51108773D01*
X158017205Y-50939255D01*
X158095226Y-50750897D01*
X158135000Y-50550938D01*
X158135000Y-50347060D01*
X158095226Y-50147101D01*
X158017205Y-49958743D01*
X157903937Y-49789225D01*
X157759774Y-49645062D01*
X157590256Y-49531794D01*
X157401898Y-49453773D01*
X157201939Y-49413999D01*
X156998061Y-49413999D01*
X156798102Y-49453773D01*
X156609744Y-49531794D01*
X156440226Y-49645062D01*
X156296063Y-49789225D01*
X156182795Y-49958743D01*
X156104774Y-50147101D01*
X156065000Y-50347060D01*
X155674084Y-50347060D01*
X155617205Y-50209744D01*
X155503937Y-50040226D01*
X155359774Y-49896063D01*
X155190256Y-49782795D01*
X155001898Y-49704774D01*
X154801939Y-49665000D01*
X154598061Y-49665000D01*
X154398102Y-49704774D01*
X154209744Y-49782795D01*
X154040226Y-49896063D01*
X153896063Y-50040226D01*
X153782795Y-50209744D01*
X153704774Y-50398102D01*
X153665000Y-50598061D01*
X151135000Y-50598061D01*
X151095226Y-50398102D01*
X151017205Y-50209744D01*
X150903937Y-50040226D01*
X150759774Y-49896063D01*
X150590256Y-49782795D01*
X150401898Y-49704774D01*
X150201939Y-49665000D01*
X149998061Y-49665000D01*
X149798102Y-49704774D01*
X149609744Y-49782795D01*
X149440226Y-49896063D01*
X149296063Y-50040226D01*
X149182795Y-50209744D01*
X149104774Y-50398102D01*
X149065000Y-50598061D01*
X139160000Y-50598061D01*
X139160000Y-46898061D01*
X159497719Y-46898061D01*
X159497719Y-47101939D01*
X159537493Y-47301898D01*
X159615514Y-47490256D01*
X159728782Y-47659774D01*
X159872945Y-47803937D01*
X160042463Y-47917205D01*
X160230821Y-47995226D01*
X160430780Y-48035000D01*
X160452118Y-48035000D01*
X160379292Y-48107826D01*
X160266024Y-48277344D01*
X160188003Y-48465702D01*
X160148229Y-48665661D01*
X160148229Y-48869539D01*
X160188003Y-49069498D01*
X160266024Y-49257856D01*
X160379292Y-49427374D01*
X160523455Y-49571537D01*
X160692973Y-49684805D01*
X160881331Y-49762826D01*
X161081290Y-49802600D01*
X161285168Y-49802600D01*
X161471468Y-49765543D01*
X161465000Y-49798061D01*
X161465000Y-50001939D01*
X161504774Y-50201898D01*
X161582795Y-50390256D01*
X161696063Y-50559774D01*
X161840226Y-50703937D01*
X162009744Y-50817205D01*
X162198102Y-50895226D01*
X162398061Y-50935000D01*
X162601939Y-50935000D01*
X162801898Y-50895226D01*
X162990256Y-50817205D01*
X163159774Y-50703937D01*
X163303937Y-50559774D01*
X163417205Y-50390256D01*
X163495226Y-50201898D01*
X163535000Y-50001939D01*
X163535000Y-49798061D01*
X163495226Y-49598102D01*
X163417205Y-49409744D01*
X163303937Y-49240226D01*
X163159774Y-49096063D01*
X162990256Y-48982795D01*
X162801898Y-48904774D01*
X162768150Y-48898061D01*
X164465000Y-48898061D01*
X164465000Y-49101939D01*
X164504774Y-49301898D01*
X164582795Y-49490256D01*
X164696063Y-49659774D01*
X164840226Y-49803937D01*
X165009744Y-49917205D01*
X165198102Y-49995226D01*
X165398061Y-50035000D01*
X165601939Y-50035000D01*
X165801898Y-49995226D01*
X165990256Y-49917205D01*
X166159774Y-49803937D01*
X166303937Y-49659774D01*
X166417205Y-49490256D01*
X166495226Y-49301898D01*
X166535000Y-49101939D01*
X166535000Y-48907911D01*
X167565000Y-48907911D01*
X167565000Y-49092089D01*
X167600932Y-49272729D01*
X167671414Y-49442889D01*
X167773738Y-49596028D01*
X167903972Y-49726262D01*
X168057111Y-49828586D01*
X168108809Y-49850000D01*
X168057111Y-49871414D01*
X167903972Y-49973738D01*
X167773738Y-50103972D01*
X167671414Y-50257111D01*
X167600932Y-50427271D01*
X167565000Y-50607911D01*
X167565000Y-50792089D01*
X167600932Y-50972729D01*
X167671414Y-51142889D01*
X167773738Y-51296028D01*
X167903972Y-51426262D01*
X168057111Y-51528586D01*
X168227271Y-51599068D01*
X168407911Y-51635000D01*
X168592089Y-51635000D01*
X168772729Y-51599068D01*
X168942889Y-51528586D01*
X169096028Y-51426262D01*
X169226262Y-51296028D01*
X169328586Y-51142889D01*
X169399068Y-50972729D01*
X169435000Y-50792089D01*
X169435000Y-50607911D01*
X169399068Y-50427271D01*
X169328586Y-50257111D01*
X169226262Y-50103972D01*
X169096028Y-49973738D01*
X168942889Y-49871414D01*
X168891191Y-49850000D01*
X168942889Y-49828586D01*
X169096028Y-49726262D01*
X169226262Y-49596028D01*
X169328586Y-49442889D01*
X169399068Y-49272729D01*
X169435000Y-49092089D01*
X169435000Y-48907911D01*
X169399068Y-48727271D01*
X169328586Y-48557111D01*
X169226262Y-48403972D01*
X169096028Y-48273738D01*
X168942889Y-48171414D01*
X168772729Y-48100932D01*
X168592089Y-48065000D01*
X168407911Y-48065000D01*
X168227271Y-48100932D01*
X168057111Y-48171414D01*
X167903972Y-48273738D01*
X167773738Y-48403972D01*
X167671414Y-48557111D01*
X167600932Y-48727271D01*
X167565000Y-48907911D01*
X166535000Y-48907911D01*
X166535000Y-48898061D01*
X166495226Y-48698102D01*
X166417205Y-48509744D01*
X166303937Y-48340226D01*
X166159774Y-48196063D01*
X165990256Y-48082795D01*
X165801898Y-48004774D01*
X165601939Y-47965000D01*
X165398061Y-47965000D01*
X165198102Y-48004774D01*
X165009744Y-48082795D01*
X164840226Y-48196063D01*
X164696063Y-48340226D01*
X164582795Y-48509744D01*
X164504774Y-48698102D01*
X164465000Y-48898061D01*
X162768150Y-48898061D01*
X162601939Y-48865000D01*
X162398061Y-48865000D01*
X162211761Y-48902057D01*
X162218229Y-48869539D01*
X162218229Y-48665661D01*
X162178455Y-48465702D01*
X162100434Y-48277344D01*
X161987166Y-48107826D01*
X161843003Y-47963663D01*
X161673485Y-47850395D01*
X161485127Y-47772374D01*
X161285168Y-47732600D01*
X161263830Y-47732600D01*
X161336656Y-47659774D01*
X161449924Y-47490256D01*
X161527945Y-47301898D01*
X161567719Y-47101939D01*
X161567719Y-46898061D01*
X161527945Y-46698102D01*
X161493067Y-46613900D01*
X161502996Y-46607266D01*
X161647159Y-46463103D01*
X161760427Y-46293585D01*
X161838448Y-46105227D01*
X161878222Y-45905268D01*
X161878222Y-45701390D01*
X161838448Y-45501431D01*
X161795631Y-45398061D01*
X163665000Y-45398061D01*
X163665000Y-45601939D01*
X163704774Y-45801898D01*
X163782795Y-45990256D01*
X163896063Y-46159774D01*
X164040226Y-46303937D01*
X164096177Y-46341322D01*
X164065000Y-46498061D01*
X164065000Y-46701939D01*
X164104774Y-46901898D01*
X164182795Y-47090256D01*
X164296063Y-47259774D01*
X164440226Y-47403937D01*
X164609744Y-47517205D01*
X164798102Y-47595226D01*
X164998061Y-47635000D01*
X165201939Y-47635000D01*
X165401898Y-47595226D01*
X165590256Y-47517205D01*
X165759774Y-47403937D01*
X165903937Y-47259774D01*
X166017205Y-47090256D01*
X166095226Y-46901898D01*
X166135000Y-46701939D01*
X166135000Y-46498061D01*
X166095226Y-46298102D01*
X166017205Y-46109744D01*
X165903937Y-45940226D01*
X165759774Y-45796063D01*
X165703823Y-45758678D01*
X165735000Y-45601939D01*
X165735000Y-45398061D01*
X165695226Y-45198102D01*
X165686834Y-45177840D01*
X165915661Y-45177840D01*
X165915661Y-45381718D01*
X165955435Y-45581677D01*
X166033456Y-45770035D01*
X166146724Y-45939553D01*
X166290887Y-46083716D01*
X166449639Y-46189790D01*
X166404774Y-46298102D01*
X166365000Y-46498061D01*
X166365000Y-46701939D01*
X166404774Y-46901898D01*
X166482795Y-47090256D01*
X166596063Y-47259774D01*
X166740226Y-47403937D01*
X166909744Y-47517205D01*
X167098102Y-47595226D01*
X167298061Y-47635000D01*
X167501939Y-47635000D01*
X167701898Y-47595226D01*
X167890256Y-47517205D01*
X168059774Y-47403937D01*
X168203937Y-47259774D01*
X168317205Y-47090256D01*
X168395226Y-46901898D01*
X168435000Y-46701939D01*
X168435000Y-46498061D01*
X168395226Y-46298102D01*
X168317205Y-46109744D01*
X168203937Y-45940226D01*
X168059774Y-45796063D01*
X167901022Y-45689989D01*
X167945887Y-45581677D01*
X167972566Y-45447551D01*
X168176276Y-45447551D01*
X168176276Y-45651429D01*
X168216050Y-45851388D01*
X168294071Y-46039746D01*
X168407339Y-46209264D01*
X168551502Y-46353427D01*
X168599151Y-46385265D01*
X168582795Y-46409744D01*
X168504774Y-46598102D01*
X168465000Y-46798061D01*
X168465000Y-47001939D01*
X168504774Y-47201898D01*
X168582795Y-47390256D01*
X168696063Y-47559774D01*
X168840226Y-47703937D01*
X169009744Y-47817205D01*
X169198102Y-47895226D01*
X169398061Y-47935000D01*
X169501313Y-47935000D01*
X169504774Y-47952398D01*
X169582795Y-48140756D01*
X169696063Y-48310274D01*
X169768006Y-48382217D01*
X169682795Y-48509744D01*
X169604774Y-48698102D01*
X169565000Y-48898061D01*
X169565000Y-49101939D01*
X169604774Y-49301898D01*
X169682795Y-49490256D01*
X169796063Y-49659774D01*
X169940226Y-49803937D01*
X170109744Y-49917205D01*
X170251987Y-49976124D01*
X170127271Y-50000932D01*
X169957111Y-50071414D01*
X169803972Y-50173738D01*
X169673738Y-50303972D01*
X169571414Y-50457111D01*
X169500932Y-50627271D01*
X169465000Y-50807911D01*
X169465000Y-50992089D01*
X169500932Y-51172729D01*
X169571414Y-51342889D01*
X169673738Y-51496028D01*
X169803972Y-51626262D01*
X169874331Y-51673275D01*
X169840226Y-51696063D01*
X169696063Y-51840226D01*
X169582795Y-52009744D01*
X169504774Y-52198102D01*
X169465000Y-52398061D01*
X169465000Y-52601939D01*
X169504774Y-52801898D01*
X169582795Y-52990256D01*
X169696063Y-53159774D01*
X169840226Y-53303937D01*
X170009744Y-53417205D01*
X170198102Y-53495226D01*
X170398061Y-53535000D01*
X170601939Y-53535000D01*
X170801898Y-53495226D01*
X170990256Y-53417205D01*
X171159774Y-53303937D01*
X171303937Y-53159774D01*
X171417205Y-52990256D01*
X171495226Y-52801898D01*
X171535000Y-52601939D01*
X171535000Y-52500000D01*
X230161928Y-52500000D01*
X230174188Y-52624482D01*
X230210498Y-52744180D01*
X230269463Y-52854494D01*
X230348815Y-52951185D01*
X230445506Y-53030537D01*
X230555820Y-53089502D01*
X230675518Y-53125812D01*
X230800000Y-53138072D01*
X232314250Y-53135000D01*
X232473000Y-52976250D01*
X232473000Y-51727000D01*
X232727000Y-51727000D01*
X232727000Y-52976250D01*
X232885750Y-53135000D01*
X234400000Y-53138072D01*
X234524482Y-53125812D01*
X234644180Y-53089502D01*
X234754494Y-53030537D01*
X234851185Y-52951185D01*
X234930537Y-52854494D01*
X234989502Y-52744180D01*
X235025812Y-52624482D01*
X235038072Y-52500000D01*
X235035000Y-51885750D01*
X234876250Y-51727000D01*
X232727000Y-51727000D01*
X232473000Y-51727000D01*
X230323750Y-51727000D01*
X230165000Y-51885750D01*
X230161928Y-52500000D01*
X171535000Y-52500000D01*
X171535000Y-52398061D01*
X171495226Y-52198102D01*
X171417205Y-52009744D01*
X171303937Y-51840226D01*
X171159774Y-51696063D01*
X171019773Y-51602517D01*
X171126262Y-51496028D01*
X171228586Y-51342889D01*
X171299068Y-51172729D01*
X171335000Y-50992089D01*
X171335000Y-50807911D01*
X171313535Y-50700000D01*
X230161928Y-50700000D01*
X230165000Y-51314250D01*
X230323750Y-51473000D01*
X232473000Y-51473000D01*
X232473000Y-50223750D01*
X232727000Y-50223750D01*
X232727000Y-51473000D01*
X234876250Y-51473000D01*
X235035000Y-51314250D01*
X235038072Y-50700000D01*
X235025812Y-50575518D01*
X234989502Y-50455820D01*
X234930537Y-50345506D01*
X234851185Y-50248815D01*
X234754494Y-50169463D01*
X234644180Y-50110498D01*
X234524482Y-50074188D01*
X234400000Y-50061928D01*
X232885750Y-50065000D01*
X232727000Y-50223750D01*
X232473000Y-50223750D01*
X232314250Y-50065000D01*
X230800000Y-50061928D01*
X230675518Y-50074188D01*
X230555820Y-50110498D01*
X230445506Y-50169463D01*
X230348815Y-50248815D01*
X230269463Y-50345506D01*
X230210498Y-50455820D01*
X230174188Y-50575518D01*
X230161928Y-50700000D01*
X171313535Y-50700000D01*
X171299068Y-50627271D01*
X171228586Y-50457111D01*
X171126262Y-50303972D01*
X170996028Y-50173738D01*
X170842889Y-50071414D01*
X170737770Y-50027873D01*
X170901898Y-49995226D01*
X171090256Y-49917205D01*
X171259774Y-49803937D01*
X171403937Y-49659774D01*
X171517205Y-49490256D01*
X171595226Y-49301898D01*
X171635000Y-49101939D01*
X171635000Y-48898061D01*
X171595226Y-48698102D01*
X171517205Y-48509744D01*
X171403937Y-48340226D01*
X171331994Y-48268283D01*
X171417205Y-48140756D01*
X171495226Y-47952398D01*
X171535000Y-47752439D01*
X171535000Y-47548561D01*
X171495226Y-47348602D01*
X171417205Y-47160244D01*
X171303937Y-46990726D01*
X171159774Y-46846563D01*
X170990256Y-46733295D01*
X170801898Y-46655274D01*
X170601939Y-46615500D01*
X170498687Y-46615500D01*
X170495226Y-46598102D01*
X170417205Y-46409744D01*
X170303937Y-46240226D01*
X170159774Y-46096063D01*
X170112125Y-46064225D01*
X170128481Y-46039746D01*
X170206502Y-45851388D01*
X170246276Y-45651429D01*
X170246276Y-45447551D01*
X171265000Y-45447551D01*
X171265000Y-45651429D01*
X171304774Y-45851388D01*
X171382795Y-46039746D01*
X171496063Y-46209264D01*
X171640226Y-46353427D01*
X171809744Y-46466695D01*
X171998102Y-46544716D01*
X172198061Y-46584490D01*
X172401939Y-46584490D01*
X172601898Y-46544716D01*
X172790256Y-46466695D01*
X172959774Y-46353427D01*
X173103937Y-46209264D01*
X173217205Y-46039746D01*
X173295226Y-45851388D01*
X173335000Y-45651429D01*
X173335000Y-45447551D01*
X173295226Y-45247592D01*
X173259880Y-45162259D01*
X176401699Y-45162259D01*
X176401699Y-45366137D01*
X176441473Y-45566096D01*
X176519494Y-45754454D01*
X176632762Y-45923972D01*
X176697110Y-45988320D01*
X176682795Y-46009744D01*
X176604774Y-46198102D01*
X176565000Y-46398061D01*
X176565000Y-46601939D01*
X176604774Y-46801898D01*
X176682795Y-46990256D01*
X176796063Y-47159774D01*
X176940226Y-47303937D01*
X176996177Y-47341322D01*
X176965000Y-47498061D01*
X176965000Y-47701939D01*
X177004774Y-47901898D01*
X177082795Y-48090256D01*
X177196063Y-48259774D01*
X177251331Y-48315042D01*
X177214490Y-48500255D01*
X177214490Y-48704133D01*
X177254264Y-48904092D01*
X177332285Y-49092450D01*
X177445553Y-49261968D01*
X177589716Y-49406131D01*
X177759234Y-49519399D01*
X177947592Y-49597420D01*
X178147551Y-49637194D01*
X178351429Y-49637194D01*
X178551388Y-49597420D01*
X178739746Y-49519399D01*
X178909264Y-49406131D01*
X179053427Y-49261968D01*
X179166695Y-49092450D01*
X179244716Y-48904092D01*
X179284490Y-48704133D01*
X179284490Y-48500255D01*
X179284054Y-48498061D01*
X187265000Y-48498061D01*
X187265000Y-48701939D01*
X187304774Y-48901898D01*
X187382795Y-49090256D01*
X187496063Y-49259774D01*
X187640226Y-49403937D01*
X187809744Y-49517205D01*
X187998102Y-49595226D01*
X188198061Y-49635000D01*
X188401939Y-49635000D01*
X188601898Y-49595226D01*
X188790256Y-49517205D01*
X188959774Y-49403937D01*
X189103937Y-49259774D01*
X189217205Y-49090256D01*
X189295226Y-48901898D01*
X189335000Y-48701939D01*
X189335000Y-48498061D01*
X189295226Y-48298102D01*
X189217205Y-48109744D01*
X189103937Y-47940226D01*
X188959774Y-47796063D01*
X188790256Y-47682795D01*
X188601898Y-47604774D01*
X188401939Y-47565000D01*
X188198061Y-47565000D01*
X187998102Y-47604774D01*
X187809744Y-47682795D01*
X187640226Y-47796063D01*
X187496063Y-47940226D01*
X187382795Y-48109744D01*
X187304774Y-48298102D01*
X187265000Y-48498061D01*
X179284054Y-48498061D01*
X179244716Y-48300296D01*
X179166695Y-48111938D01*
X179053427Y-47942420D01*
X178998159Y-47887152D01*
X179035000Y-47701939D01*
X179035000Y-47498061D01*
X178995226Y-47298102D01*
X178917205Y-47109744D01*
X178803937Y-46940226D01*
X178659774Y-46796063D01*
X178603823Y-46758678D01*
X178635000Y-46601939D01*
X178635000Y-46398061D01*
X178595226Y-46198102D01*
X178517205Y-46009744D01*
X178403937Y-45840226D01*
X178339589Y-45775878D01*
X178353904Y-45754454D01*
X178418684Y-45598061D01*
X187265000Y-45598061D01*
X187265000Y-45801939D01*
X187304774Y-46001898D01*
X187382795Y-46190256D01*
X187496063Y-46359774D01*
X187640226Y-46503937D01*
X187809744Y-46617205D01*
X187998102Y-46695226D01*
X188198061Y-46735000D01*
X188401939Y-46735000D01*
X188601898Y-46695226D01*
X188790256Y-46617205D01*
X188959774Y-46503937D01*
X189103937Y-46359774D01*
X189217205Y-46190256D01*
X189295226Y-46001898D01*
X189335000Y-45801939D01*
X189335000Y-45598061D01*
X189295226Y-45398102D01*
X189217205Y-45209744D01*
X189103937Y-45040226D01*
X188959774Y-44896063D01*
X188790256Y-44782795D01*
X188601898Y-44704774D01*
X188401939Y-44665000D01*
X188198061Y-44665000D01*
X187998102Y-44704774D01*
X187809744Y-44782795D01*
X187640226Y-44896063D01*
X187496063Y-45040226D01*
X187382795Y-45209744D01*
X187304774Y-45398102D01*
X187265000Y-45598061D01*
X178418684Y-45598061D01*
X178431925Y-45566096D01*
X178471699Y-45366137D01*
X178471699Y-45162259D01*
X178431925Y-44962300D01*
X178353904Y-44773942D01*
X178240636Y-44604424D01*
X178096473Y-44460261D01*
X177926955Y-44346993D01*
X177738597Y-44268972D01*
X177538638Y-44229198D01*
X177334760Y-44229198D01*
X177134801Y-44268972D01*
X176946443Y-44346993D01*
X176776925Y-44460261D01*
X176632762Y-44604424D01*
X176519494Y-44773942D01*
X176441473Y-44962300D01*
X176401699Y-45162259D01*
X173259880Y-45162259D01*
X173217205Y-45059234D01*
X173103937Y-44889716D01*
X172959774Y-44745553D01*
X172790256Y-44632285D01*
X172601898Y-44554264D01*
X172401939Y-44514490D01*
X172198061Y-44514490D01*
X171998102Y-44554264D01*
X171809744Y-44632285D01*
X171640226Y-44745553D01*
X171496063Y-44889716D01*
X171382795Y-45059234D01*
X171304774Y-45247592D01*
X171265000Y-45447551D01*
X170246276Y-45447551D01*
X170206502Y-45247592D01*
X170128481Y-45059234D01*
X170028632Y-44909799D01*
X170101898Y-44895226D01*
X170290256Y-44817205D01*
X170459774Y-44703937D01*
X170603937Y-44559774D01*
X170717205Y-44390256D01*
X170795226Y-44201898D01*
X170835000Y-44001939D01*
X170835000Y-43798061D01*
X170795226Y-43598102D01*
X170753788Y-43498061D01*
X172065000Y-43498061D01*
X172065000Y-43701939D01*
X172104774Y-43901898D01*
X172182795Y-44090256D01*
X172296063Y-44259774D01*
X172440226Y-44403937D01*
X172609744Y-44517205D01*
X172798102Y-44595226D01*
X172998061Y-44635000D01*
X173201939Y-44635000D01*
X173401898Y-44595226D01*
X173590256Y-44517205D01*
X173759774Y-44403937D01*
X173903937Y-44259774D01*
X174017205Y-44090256D01*
X174095226Y-43901898D01*
X174135000Y-43701939D01*
X174135000Y-43498061D01*
X174095226Y-43298102D01*
X174017205Y-43109744D01*
X173903937Y-42940226D01*
X173861772Y-42898061D01*
X187165000Y-42898061D01*
X187165000Y-43101939D01*
X187204774Y-43301898D01*
X187282795Y-43490256D01*
X187396063Y-43659774D01*
X187540226Y-43803937D01*
X187709744Y-43917205D01*
X187898102Y-43995226D01*
X188098061Y-44035000D01*
X188301939Y-44035000D01*
X188501898Y-43995226D01*
X188690256Y-43917205D01*
X188859774Y-43803937D01*
X188865650Y-43798061D01*
X224065000Y-43798061D01*
X224065000Y-44001939D01*
X224104774Y-44201898D01*
X224182795Y-44390256D01*
X224296063Y-44559774D01*
X224440226Y-44703937D01*
X224609744Y-44817205D01*
X224798102Y-44895226D01*
X224998061Y-44935000D01*
X225201939Y-44935000D01*
X225401898Y-44895226D01*
X225590256Y-44817205D01*
X225759774Y-44703937D01*
X225903937Y-44559774D01*
X226017205Y-44390256D01*
X226095226Y-44201898D01*
X226135000Y-44001939D01*
X226135000Y-43798061D01*
X226095226Y-43598102D01*
X226017205Y-43409744D01*
X225903937Y-43240226D01*
X225759774Y-43096063D01*
X225590256Y-42982795D01*
X225401898Y-42904774D01*
X225201939Y-42865000D01*
X224998061Y-42865000D01*
X224798102Y-42904774D01*
X224609744Y-42982795D01*
X224440226Y-43096063D01*
X224296063Y-43240226D01*
X224182795Y-43409744D01*
X224104774Y-43598102D01*
X224065000Y-43798061D01*
X188865650Y-43798061D01*
X189003937Y-43659774D01*
X189117205Y-43490256D01*
X189195226Y-43301898D01*
X189235000Y-43101939D01*
X189235000Y-42898061D01*
X189195226Y-42698102D01*
X189117205Y-42509744D01*
X189003937Y-42340226D01*
X188859774Y-42196063D01*
X188690256Y-42082795D01*
X188501898Y-42004774D01*
X188301939Y-41965000D01*
X188098061Y-41965000D01*
X187898102Y-42004774D01*
X187709744Y-42082795D01*
X187540226Y-42196063D01*
X187396063Y-42340226D01*
X187282795Y-42509744D01*
X187204774Y-42698102D01*
X187165000Y-42898061D01*
X173861772Y-42898061D01*
X173759774Y-42796063D01*
X173590256Y-42682795D01*
X173401898Y-42604774D01*
X173201939Y-42565000D01*
X172998061Y-42565000D01*
X172798102Y-42604774D01*
X172609744Y-42682795D01*
X172440226Y-42796063D01*
X172296063Y-42940226D01*
X172182795Y-43109744D01*
X172104774Y-43298102D01*
X172065000Y-43498061D01*
X170753788Y-43498061D01*
X170717205Y-43409744D01*
X170603937Y-43240226D01*
X170459774Y-43096063D01*
X170340680Y-43016487D01*
X170360393Y-43003316D01*
X170504556Y-42859153D01*
X170617824Y-42689635D01*
X170695845Y-42501277D01*
X170735619Y-42301318D01*
X170735619Y-42097440D01*
X170695961Y-41898061D01*
X192215000Y-41898061D01*
X192215000Y-42101939D01*
X192254774Y-42301898D01*
X192332795Y-42490256D01*
X192446063Y-42659774D01*
X192590226Y-42803937D01*
X192759744Y-42917205D01*
X192948102Y-42995226D01*
X193148061Y-43035000D01*
X193351939Y-43035000D01*
X193551898Y-42995226D01*
X193740256Y-42917205D01*
X193909774Y-42803937D01*
X194053937Y-42659774D01*
X194167205Y-42490256D01*
X194245226Y-42301898D01*
X194250000Y-42277897D01*
X194254774Y-42301898D01*
X194332795Y-42490256D01*
X194446063Y-42659774D01*
X194590226Y-42803937D01*
X194759744Y-42917205D01*
X194948102Y-42995226D01*
X195148061Y-43035000D01*
X195351939Y-43035000D01*
X195551898Y-42995226D01*
X195740256Y-42917205D01*
X195909774Y-42803937D01*
X196053937Y-42659774D01*
X196167205Y-42490256D01*
X196245226Y-42301898D01*
X196285000Y-42101939D01*
X196285000Y-41898061D01*
X196245226Y-41698102D01*
X196167205Y-41509744D01*
X196053937Y-41340226D01*
X195909774Y-41196063D01*
X195740256Y-41082795D01*
X195551898Y-41004774D01*
X195351939Y-40965000D01*
X195148061Y-40965000D01*
X194948102Y-41004774D01*
X194759744Y-41082795D01*
X194590226Y-41196063D01*
X194446063Y-41340226D01*
X194332795Y-41509744D01*
X194254774Y-41698102D01*
X194250000Y-41722103D01*
X194245226Y-41698102D01*
X194167205Y-41509744D01*
X194053937Y-41340226D01*
X193909774Y-41196063D01*
X193740256Y-41082795D01*
X193551898Y-41004774D01*
X193351939Y-40965000D01*
X193148061Y-40965000D01*
X192948102Y-41004774D01*
X192759744Y-41082795D01*
X192590226Y-41196063D01*
X192446063Y-41340226D01*
X192332795Y-41509744D01*
X192254774Y-41698102D01*
X192215000Y-41898061D01*
X170695961Y-41898061D01*
X170695845Y-41897481D01*
X170617824Y-41709123D01*
X170504556Y-41539605D01*
X170360393Y-41395442D01*
X170190875Y-41282174D01*
X170002517Y-41204153D01*
X169802558Y-41164379D01*
X169598680Y-41164379D01*
X169398721Y-41204153D01*
X169210363Y-41282174D01*
X169040845Y-41395442D01*
X168896682Y-41539605D01*
X168783414Y-41709123D01*
X168705393Y-41897481D01*
X168665619Y-42097440D01*
X168665619Y-42301318D01*
X168705393Y-42501277D01*
X168783414Y-42689635D01*
X168896682Y-42859153D01*
X169040845Y-43003316D01*
X169159939Y-43082892D01*
X169140226Y-43096063D01*
X168996063Y-43240226D01*
X168882795Y-43409744D01*
X168804774Y-43598102D01*
X168765000Y-43798061D01*
X168765000Y-44001939D01*
X168804774Y-44201898D01*
X168882795Y-44390256D01*
X168982644Y-44539691D01*
X168909378Y-44554264D01*
X168721020Y-44632285D01*
X168551502Y-44745553D01*
X168407339Y-44889716D01*
X168294071Y-45059234D01*
X168216050Y-45247592D01*
X168176276Y-45447551D01*
X167972566Y-45447551D01*
X167985661Y-45381718D01*
X167985661Y-45177840D01*
X167945887Y-44977881D01*
X167867866Y-44789523D01*
X167754598Y-44620005D01*
X167610435Y-44475842D01*
X167440917Y-44362574D01*
X167252559Y-44284553D01*
X167052600Y-44244779D01*
X166848722Y-44244779D01*
X166648763Y-44284553D01*
X166460405Y-44362574D01*
X166290887Y-44475842D01*
X166146724Y-44620005D01*
X166033456Y-44789523D01*
X165955435Y-44977881D01*
X165915661Y-45177840D01*
X165686834Y-45177840D01*
X165617205Y-45009744D01*
X165503937Y-44840226D01*
X165359774Y-44696063D01*
X165190256Y-44582795D01*
X165001898Y-44504774D01*
X164801939Y-44465000D01*
X164598061Y-44465000D01*
X164398102Y-44504774D01*
X164209744Y-44582795D01*
X164040226Y-44696063D01*
X163896063Y-44840226D01*
X163782795Y-45009744D01*
X163704774Y-45198102D01*
X163665000Y-45398061D01*
X161795631Y-45398061D01*
X161760427Y-45313073D01*
X161647159Y-45143555D01*
X161502996Y-44999392D01*
X161333478Y-44886124D01*
X161145120Y-44808103D01*
X160945161Y-44768329D01*
X160741283Y-44768329D01*
X160541324Y-44808103D01*
X160352966Y-44886124D01*
X160183448Y-44999392D01*
X160039285Y-45143555D01*
X159926017Y-45313073D01*
X159847996Y-45501431D01*
X159808222Y-45701390D01*
X159808222Y-45905268D01*
X159847996Y-46105227D01*
X159882874Y-46189429D01*
X159872945Y-46196063D01*
X159728782Y-46340226D01*
X159615514Y-46509744D01*
X159537493Y-46698102D01*
X159497719Y-46898061D01*
X139160000Y-46898061D01*
X139160000Y-43698061D01*
X160965000Y-43698061D01*
X160965000Y-43901939D01*
X161004774Y-44101898D01*
X161082795Y-44290256D01*
X161196063Y-44459774D01*
X161340226Y-44603937D01*
X161509744Y-44717205D01*
X161698102Y-44795226D01*
X161898061Y-44835000D01*
X162101939Y-44835000D01*
X162301898Y-44795226D01*
X162490256Y-44717205D01*
X162659774Y-44603937D01*
X162803937Y-44459774D01*
X162917205Y-44290256D01*
X162988660Y-44117750D01*
X163101898Y-44095226D01*
X163290256Y-44017205D01*
X163459774Y-43903937D01*
X163603937Y-43759774D01*
X163717205Y-43590256D01*
X163795226Y-43401898D01*
X163835000Y-43201939D01*
X163835000Y-42998061D01*
X163795226Y-42798102D01*
X163717205Y-42609744D01*
X163642582Y-42498061D01*
X166565000Y-42498061D01*
X166565000Y-42701939D01*
X166604774Y-42901898D01*
X166682795Y-43090256D01*
X166796063Y-43259774D01*
X166940226Y-43403937D01*
X167109744Y-43517205D01*
X167298102Y-43595226D01*
X167498061Y-43635000D01*
X167701939Y-43635000D01*
X167901898Y-43595226D01*
X168090256Y-43517205D01*
X168259774Y-43403937D01*
X168403937Y-43259774D01*
X168517205Y-43090256D01*
X168595226Y-42901898D01*
X168635000Y-42701939D01*
X168635000Y-42498061D01*
X168595226Y-42298102D01*
X168517205Y-42109744D01*
X168403937Y-41940226D01*
X168259774Y-41796063D01*
X168090256Y-41682795D01*
X167901898Y-41604774D01*
X167701939Y-41565000D01*
X167498061Y-41565000D01*
X167298102Y-41604774D01*
X167109744Y-41682795D01*
X166940226Y-41796063D01*
X166796063Y-41940226D01*
X166682795Y-42109744D01*
X166604774Y-42298102D01*
X166565000Y-42498061D01*
X163642582Y-42498061D01*
X163603937Y-42440226D01*
X163459774Y-42296063D01*
X163290256Y-42182795D01*
X163101898Y-42104774D01*
X162901939Y-42065000D01*
X162698061Y-42065000D01*
X162498102Y-42104774D01*
X162309744Y-42182795D01*
X162140226Y-42296063D01*
X161996063Y-42440226D01*
X161882795Y-42609744D01*
X161811340Y-42782250D01*
X161698102Y-42804774D01*
X161509744Y-42882795D01*
X161340226Y-42996063D01*
X161196063Y-43140226D01*
X161082795Y-43309744D01*
X161004774Y-43498102D01*
X160965000Y-43698061D01*
X139160000Y-43698061D01*
X139160000Y-41398061D01*
X158714999Y-41398061D01*
X158714999Y-41601939D01*
X158754773Y-41801898D01*
X158832794Y-41990256D01*
X158946062Y-42159774D01*
X159090225Y-42303937D01*
X159259743Y-42417205D01*
X159448101Y-42495226D01*
X159648060Y-42535000D01*
X159851938Y-42535000D01*
X160051897Y-42495226D01*
X160240255Y-42417205D01*
X160409773Y-42303937D01*
X160553936Y-42159774D01*
X160667204Y-41990256D01*
X160745225Y-41801898D01*
X160784999Y-41601939D01*
X160784999Y-41398061D01*
X160745225Y-41198102D01*
X160667204Y-41009744D01*
X160553936Y-40840226D01*
X160409773Y-40696063D01*
X160240255Y-40582795D01*
X160051897Y-40504774D01*
X159851938Y-40465000D01*
X159648060Y-40465000D01*
X159448101Y-40504774D01*
X159259743Y-40582795D01*
X159090225Y-40696063D01*
X158946062Y-40840226D01*
X158832794Y-41009744D01*
X158754773Y-41198102D01*
X158714999Y-41398061D01*
X139160000Y-41398061D01*
X139160000Y-40032279D01*
X139198147Y-39643225D01*
X139301763Y-39300033D01*
X139470062Y-38983511D01*
X139696637Y-38705701D01*
X139972856Y-38477194D01*
X140288197Y-38306690D01*
X140630656Y-38200681D01*
X141017712Y-38160000D01*
X141882850Y-38160000D01*
X141782795Y-38309744D01*
%TA.AperFunction,Conductor*%
D16*
G36*
X141782795Y-38309744D02*
G01*
X141704774Y-38498102D01*
X141665000Y-38698061D01*
X141665000Y-38901939D01*
X141704774Y-39101898D01*
X141782795Y-39290256D01*
X141896063Y-39459774D01*
X142040226Y-39603937D01*
X142209744Y-39717205D01*
X142398102Y-39795226D01*
X142598061Y-39835000D01*
X142801939Y-39835000D01*
X143001898Y-39795226D01*
X143190256Y-39717205D01*
X143359774Y-39603937D01*
X143503937Y-39459774D01*
X143617205Y-39290256D01*
X143695226Y-39101898D01*
X143735000Y-38901939D01*
X143735000Y-38698061D01*
X143695226Y-38498102D01*
X143617205Y-38309744D01*
X143517150Y-38160000D01*
X144982850Y-38160000D01*
X144882795Y-38309744D01*
X144804774Y-38498102D01*
X144765000Y-38698061D01*
X144765000Y-38901939D01*
X144804774Y-39101898D01*
X144882795Y-39290256D01*
X144996063Y-39459774D01*
X145140226Y-39603937D01*
X145309744Y-39717205D01*
X145498102Y-39795226D01*
X145698061Y-39835000D01*
X145901939Y-39835000D01*
X146101898Y-39795226D01*
X146290256Y-39717205D01*
X146459774Y-39603937D01*
X146603937Y-39459774D01*
X146717205Y-39290256D01*
X146795226Y-39101898D01*
X146835000Y-38901939D01*
X146835000Y-38698061D01*
X146795226Y-38498102D01*
X146717205Y-38309744D01*
X146617150Y-38160000D01*
X147982850Y-38160000D01*
X147882795Y-38309744D01*
X147804774Y-38498102D01*
X147765000Y-38698061D01*
X147765000Y-38901939D01*
X147804774Y-39101898D01*
X147882795Y-39290256D01*
X147996063Y-39459774D01*
X148140226Y-39603937D01*
X148309744Y-39717205D01*
X148498102Y-39795226D01*
X148698061Y-39835000D01*
X148901939Y-39835000D01*
X149101898Y-39795226D01*
X149290256Y-39717205D01*
X149459774Y-39603937D01*
X149603937Y-39459774D01*
X149717205Y-39290256D01*
X149795226Y-39101898D01*
X149835000Y-38901939D01*
X149835000Y-38698061D01*
X149795226Y-38498102D01*
X149717205Y-38309744D01*
X149617150Y-38160000D01*
X150756464Y-38160000D01*
X150682795Y-38270254D01*
X150604774Y-38458612D01*
X150565000Y-38658571D01*
X150565000Y-38862449D01*
X150604774Y-39062408D01*
X150682795Y-39250766D01*
X150796063Y-39420284D01*
X150940226Y-39564447D01*
X151109744Y-39677715D01*
X151298102Y-39755736D01*
X151498061Y-39795510D01*
X151701939Y-39795510D01*
X151901898Y-39755736D01*
X152090256Y-39677715D01*
X152259774Y-39564447D01*
X152403937Y-39420284D01*
X152517205Y-39250766D01*
X152595226Y-39062408D01*
X152635000Y-38862449D01*
X152635000Y-38658571D01*
X152595226Y-38458612D01*
X152517205Y-38270254D01*
X152443536Y-38160000D01*
X153782850Y-38160000D01*
X153682795Y-38309744D01*
X153604774Y-38498102D01*
X153565000Y-38698061D01*
X153565000Y-38901939D01*
X153604774Y-39101898D01*
X153682795Y-39290256D01*
X153796063Y-39459774D01*
X153940226Y-39603937D01*
X154109744Y-39717205D01*
X154298102Y-39795226D01*
X154498061Y-39835000D01*
X154701939Y-39835000D01*
X154901898Y-39795226D01*
X155090256Y-39717205D01*
X155259774Y-39603937D01*
X155403937Y-39459774D01*
X155517205Y-39290256D01*
X155595226Y-39101898D01*
X155635000Y-38901939D01*
X155635000Y-38698061D01*
X155595226Y-38498102D01*
X155517205Y-38309744D01*
X155417150Y-38160000D01*
X156682850Y-38160000D01*
X156582795Y-38309744D01*
X156504774Y-38498102D01*
X156465000Y-38698061D01*
X156465000Y-38901939D01*
X156504774Y-39101898D01*
X156582795Y-39290256D01*
X156696063Y-39459774D01*
X156840226Y-39603937D01*
X157009744Y-39717205D01*
X157198102Y-39795226D01*
X157398061Y-39835000D01*
X157601939Y-39835000D01*
X157801898Y-39795226D01*
X157990256Y-39717205D01*
X158159774Y-39603937D01*
X158303937Y-39459774D01*
X158417205Y-39290256D01*
X158495226Y-39101898D01*
X158535000Y-38901939D01*
X158535000Y-38698061D01*
X158495226Y-38498102D01*
X158417205Y-38309744D01*
X158317150Y-38160000D01*
X165676289Y-38160000D01*
X165596063Y-38240226D01*
X165482795Y-38409744D01*
X165404774Y-38598102D01*
X165365000Y-38798061D01*
X165365000Y-39001939D01*
X165404774Y-39201898D01*
X165454814Y-39322705D01*
X165309744Y-39382795D01*
X165200000Y-39456123D01*
X165090256Y-39382795D01*
X164901898Y-39304774D01*
X164701939Y-39265000D01*
X164498061Y-39265000D01*
X164298102Y-39304774D01*
X164109744Y-39382795D01*
X163940226Y-39496063D01*
X163796063Y-39640226D01*
X163682795Y-39809744D01*
X163604774Y-39998102D01*
X163565000Y-40198061D01*
X163565000Y-40401939D01*
X163604774Y-40601898D01*
X163682795Y-40790256D01*
X163796063Y-40959774D01*
X163940226Y-41103937D01*
X164109744Y-41217205D01*
X164298102Y-41295226D01*
X164498061Y-41335000D01*
X164701939Y-41335000D01*
X164901898Y-41295226D01*
X165090256Y-41217205D01*
X165200000Y-41143877D01*
X165309744Y-41217205D01*
X165498102Y-41295226D01*
X165698061Y-41335000D01*
X165901939Y-41335000D01*
X166101898Y-41295226D01*
X166290256Y-41217205D01*
X166459774Y-41103937D01*
X166603937Y-40959774D01*
X166717205Y-40790256D01*
X166795226Y-40601898D01*
X166835000Y-40401939D01*
X166835000Y-40198061D01*
X166795226Y-39998102D01*
X166745186Y-39877295D01*
X166890256Y-39817205D01*
X167059774Y-39703937D01*
X167203937Y-39559774D01*
X167317205Y-39390256D01*
X167395226Y-39201898D01*
X167435000Y-39001939D01*
X167435000Y-38798061D01*
X167395226Y-38598102D01*
X167317205Y-38409744D01*
X167203937Y-38240226D01*
X167123711Y-38160000D01*
X168695461Y-38160000D01*
X168665619Y-38310029D01*
X168665619Y-38513907D01*
X168705393Y-38713866D01*
X168783414Y-38902224D01*
X168896682Y-39071742D01*
X169040845Y-39215905D01*
X169210363Y-39329173D01*
X169398721Y-39407194D01*
X169598680Y-39446968D01*
X169802558Y-39446968D01*
X170002517Y-39407194D01*
X170190875Y-39329173D01*
X170360393Y-39215905D01*
X170504556Y-39071742D01*
X170617824Y-38902224D01*
X170695845Y-38713866D01*
X170735619Y-38513907D01*
X170735619Y-38310029D01*
X170705777Y-38160000D01*
X181173000Y-38160000D01*
X181173000Y-41600000D01*
X181175440Y-41624776D01*
X181182667Y-41648601D01*
X181194403Y-41670557D01*
X181210197Y-41689803D01*
X181229443Y-41705597D01*
X181251399Y-41717333D01*
X181275224Y-41724560D01*
X181300000Y-41727000D01*
X188800000Y-41727000D01*
X188824776Y-41724560D01*
X188848601Y-41717333D01*
X188870557Y-41705597D01*
X188889803Y-41689803D01*
X188905597Y-41670557D01*
X188917333Y-41648601D01*
X188924560Y-41624776D01*
X188927000Y-41600000D01*
X188927000Y-39563137D01*
X211915000Y-39563137D01*
X211915000Y-39776863D01*
X211956696Y-39986483D01*
X212038485Y-40183940D01*
X212157225Y-40361647D01*
X212308353Y-40512775D01*
X212486060Y-40631515D01*
X212683517Y-40713304D01*
X212893137Y-40755000D01*
X213106863Y-40755000D01*
X213316483Y-40713304D01*
X213513940Y-40631515D01*
X213691647Y-40512775D01*
X213842775Y-40361647D01*
X213961515Y-40183940D01*
X214043304Y-39986483D01*
X214085000Y-39776863D01*
X214085000Y-39563137D01*
X214915000Y-39563137D01*
X214915000Y-39776863D01*
X214956696Y-39986483D01*
X215038485Y-40183940D01*
X215157225Y-40361647D01*
X215308353Y-40512775D01*
X215486060Y-40631515D01*
X215683517Y-40713304D01*
X215893137Y-40755000D01*
X216106863Y-40755000D01*
X216316483Y-40713304D01*
X216513940Y-40631515D01*
X216691647Y-40512775D01*
X216842775Y-40361647D01*
X216961515Y-40183940D01*
X217043304Y-39986483D01*
X217085000Y-39776863D01*
X217085000Y-39563137D01*
X217043304Y-39353517D01*
X216961515Y-39156060D01*
X216842775Y-38978353D01*
X216691647Y-38827225D01*
X216513940Y-38708485D01*
X216316483Y-38626696D01*
X216106863Y-38585000D01*
X215893137Y-38585000D01*
X215683517Y-38626696D01*
X215486060Y-38708485D01*
X215308353Y-38827225D01*
X215157225Y-38978353D01*
X215038485Y-39156060D01*
X214956696Y-39353517D01*
X214915000Y-39563137D01*
X214085000Y-39563137D01*
X214043304Y-39353517D01*
X213961515Y-39156060D01*
X213842775Y-38978353D01*
X213691647Y-38827225D01*
X213513940Y-38708485D01*
X213316483Y-38626696D01*
X213106863Y-38585000D01*
X212893137Y-38585000D01*
X212683517Y-38626696D01*
X212486060Y-38708485D01*
X212308353Y-38827225D01*
X212157225Y-38978353D01*
X212038485Y-39156060D01*
X211956696Y-39353517D01*
X211915000Y-39563137D01*
X188927000Y-39563137D01*
X188927000Y-38160000D01*
X234967721Y-38160000D01*
X235356775Y-38198147D01*
X235699967Y-38301763D01*
X236016489Y-38470062D01*
X236294299Y-38696637D01*
X236522806Y-38972856D01*
X236693310Y-39288197D01*
X236799319Y-39630656D01*
X236840000Y-40017712D01*
X236840001Y-73467711D01*
X236801853Y-73856776D01*
X236698238Y-74199964D01*
X236529939Y-74516489D01*
X236303365Y-74794296D01*
X236027146Y-75022805D01*
X235711803Y-75193310D01*
X235369344Y-75299319D01*
X234982288Y-75340000D01*
X141032279Y-75340000D01*
X140643224Y-75301853D01*
X140300036Y-75198238D01*
X139983511Y-75029939D01*
X139705704Y-74803365D01*
X139477195Y-74527146D01*
X139306690Y-74211803D01*
X139200681Y-73869344D01*
X139160000Y-73482288D01*
X139160000Y-68648061D01*
X139800032Y-68648061D01*
X139800032Y-68851939D01*
X139839806Y-69051898D01*
X139917827Y-69240256D01*
X140031095Y-69409774D01*
X140175258Y-69553937D01*
X140344776Y-69667205D01*
X140533134Y-69745226D01*
X140557291Y-69750031D01*
X140573137Y-69829696D01*
X140658341Y-70035398D01*
X140782039Y-70220524D01*
X140930909Y-70369394D01*
X140796746Y-70424966D01*
X140498256Y-70624411D01*
X140244411Y-70878256D01*
X140044966Y-71176746D01*
X139907586Y-71508411D01*
X139837550Y-71860504D01*
X139837550Y-72219496D01*
X139907586Y-72571589D01*
X140044966Y-72903254D01*
X140244411Y-73201744D01*
X140498256Y-73455589D01*
X140796746Y-73655034D01*
X141128411Y-73792414D01*
X141480504Y-73862450D01*
X141839496Y-73862450D01*
X142191589Y-73792414D01*
X142523254Y-73655034D01*
X142821744Y-73455589D01*
X143075589Y-73201744D01*
X143247500Y-72944461D01*
X143419411Y-73201744D01*
X143673256Y-73455589D01*
X143971746Y-73655034D01*
X144303411Y-73792414D01*
X144655504Y-73862450D01*
X145014496Y-73862450D01*
X145366589Y-73792414D01*
X145594377Y-73698061D01*
X176965000Y-73698061D01*
X176965000Y-73901939D01*
X177004774Y-74101898D01*
X177082795Y-74290256D01*
X177196063Y-74459774D01*
X177340226Y-74603937D01*
X177509744Y-74717205D01*
X177698102Y-74795226D01*
X177898061Y-74835000D01*
X178101939Y-74835000D01*
X178301898Y-74795226D01*
X178490256Y-74717205D01*
X178659774Y-74603937D01*
X178803937Y-74459774D01*
X178917205Y-74290256D01*
X178995226Y-74101898D01*
X179035000Y-73901939D01*
X179035000Y-73698061D01*
X179032938Y-73687690D01*
X189649430Y-73687690D01*
X189649430Y-73891568D01*
X189689204Y-74091527D01*
X189767225Y-74279885D01*
X189880493Y-74449403D01*
X190024656Y-74593566D01*
X190194174Y-74706834D01*
X190382532Y-74784855D01*
X190582491Y-74824629D01*
X190786369Y-74824629D01*
X190986328Y-74784855D01*
X191174686Y-74706834D01*
X191344204Y-74593566D01*
X191429329Y-74508441D01*
X191509744Y-74562173D01*
X191698102Y-74640194D01*
X191898061Y-74679968D01*
X192101939Y-74679968D01*
X192301898Y-74640194D01*
X192490256Y-74562173D01*
X192659774Y-74448905D01*
X192803937Y-74304742D01*
X192917205Y-74135224D01*
X192995226Y-73946866D01*
X193035000Y-73746907D01*
X193035000Y-73543029D01*
X192995226Y-73343070D01*
X192917205Y-73154712D01*
X192803937Y-72985194D01*
X192659774Y-72841031D01*
X192490256Y-72727763D01*
X192301898Y-72649742D01*
X192101939Y-72609968D01*
X191903121Y-72609968D01*
X192000643Y-72544806D01*
X192144806Y-72400643D01*
X192211817Y-72300354D01*
X192302290Y-72390827D01*
X192471808Y-72504095D01*
X192660166Y-72582116D01*
X192860125Y-72621890D01*
X193064003Y-72621890D01*
X193263962Y-72582116D01*
X193452320Y-72504095D01*
X193621838Y-72390827D01*
X193766001Y-72246664D01*
X193879269Y-72077146D01*
X193957290Y-71888788D01*
X193997064Y-71688829D01*
X193997064Y-71484951D01*
X193957290Y-71284992D01*
X193879269Y-71096634D01*
X193766001Y-70927116D01*
X193621838Y-70782953D01*
X193452320Y-70669685D01*
X193263962Y-70591664D01*
X193064003Y-70551890D01*
X192860125Y-70551890D01*
X192660166Y-70591664D01*
X192471808Y-70669685D01*
X192302290Y-70782953D01*
X192158127Y-70927116D01*
X192091116Y-71027405D01*
X192000643Y-70936932D01*
X191831125Y-70823664D01*
X191642767Y-70745643D01*
X191442808Y-70705869D01*
X191238930Y-70705869D01*
X191038971Y-70745643D01*
X190850613Y-70823664D01*
X190681095Y-70936932D01*
X190536932Y-71081095D01*
X190423664Y-71250613D01*
X190345643Y-71438971D01*
X190305869Y-71638930D01*
X190305869Y-71842808D01*
X190345643Y-72042767D01*
X190423664Y-72231125D01*
X190536932Y-72400643D01*
X190681095Y-72544806D01*
X190850613Y-72658074D01*
X191038971Y-72736095D01*
X191238930Y-72775869D01*
X191437748Y-72775869D01*
X191340226Y-72841031D01*
X191255101Y-72926156D01*
X191174686Y-72872424D01*
X190986328Y-72794403D01*
X190786369Y-72754629D01*
X190582491Y-72754629D01*
X190382532Y-72794403D01*
X190194174Y-72872424D01*
X190024656Y-72985692D01*
X189880493Y-73129855D01*
X189767225Y-73299373D01*
X189689204Y-73487731D01*
X189649430Y-73687690D01*
X179032938Y-73687690D01*
X178995226Y-73498102D01*
X178917205Y-73309744D01*
X178803937Y-73140226D01*
X178659774Y-72996063D01*
X178490256Y-72882795D01*
X178301898Y-72804774D01*
X178101939Y-72765000D01*
X177898061Y-72765000D01*
X177698102Y-72804774D01*
X177509744Y-72882795D01*
X177340226Y-72996063D01*
X177196063Y-73140226D01*
X177082795Y-73309744D01*
X177004774Y-73498102D01*
X176965000Y-73698061D01*
X145594377Y-73698061D01*
X145698254Y-73655034D01*
X145996744Y-73455589D01*
X146250589Y-73201744D01*
X146450034Y-72903254D01*
X146587414Y-72571589D01*
X146657450Y-72219496D01*
X146657450Y-71860504D01*
X146615193Y-71648061D01*
X159965000Y-71648061D01*
X159965000Y-71851939D01*
X160004774Y-72051898D01*
X160082795Y-72240256D01*
X160196063Y-72409774D01*
X160340226Y-72553937D01*
X160509744Y-72667205D01*
X160698102Y-72745226D01*
X160898061Y-72785000D01*
X161101939Y-72785000D01*
X161301898Y-72745226D01*
X161490256Y-72667205D01*
X161659774Y-72553937D01*
X161803937Y-72409774D01*
X161917205Y-72240256D01*
X161995226Y-72051898D01*
X162035000Y-71851939D01*
X162035000Y-71648061D01*
X161995226Y-71448102D01*
X161917205Y-71259744D01*
X161803937Y-71090226D01*
X161659774Y-70946063D01*
X161490256Y-70832795D01*
X161301898Y-70754774D01*
X161101939Y-70715000D01*
X160898061Y-70715000D01*
X160698102Y-70754774D01*
X160509744Y-70832795D01*
X160340226Y-70946063D01*
X160196063Y-71090226D01*
X160082795Y-71259744D01*
X160004774Y-71448102D01*
X159965000Y-71648061D01*
X146615193Y-71648061D01*
X146614272Y-71643435D01*
X146628675Y-71646300D01*
X146851325Y-71646300D01*
X147069696Y-71602863D01*
X147275398Y-71517659D01*
X147460524Y-71393961D01*
X147617961Y-71236524D01*
X147741659Y-71051398D01*
X147826863Y-70845696D01*
X147870300Y-70627325D01*
X147870300Y-70404675D01*
X147826863Y-70186304D01*
X147741659Y-69980602D01*
X147617961Y-69795476D01*
X147460524Y-69638039D01*
X147275398Y-69514341D01*
X147240776Y-69500000D01*
X147275398Y-69485659D01*
X147460524Y-69361961D01*
X147617961Y-69204524D01*
X147741659Y-69019398D01*
X147826863Y-68813696D01*
X147870300Y-68595325D01*
X147870300Y-68478246D01*
X164588474Y-68478246D01*
X164588474Y-68682124D01*
X164628248Y-68882083D01*
X164706269Y-69070441D01*
X164819537Y-69239959D01*
X164963700Y-69384122D01*
X165133218Y-69497390D01*
X165321576Y-69575411D01*
X165521535Y-69615185D01*
X165725413Y-69615185D01*
X165796967Y-69600952D01*
X165882293Y-69686278D01*
X166051811Y-69799546D01*
X166240169Y-69877567D01*
X166440128Y-69917341D01*
X166644006Y-69917341D01*
X166843965Y-69877567D01*
X167032323Y-69799546D01*
X167201841Y-69686278D01*
X167290058Y-69598061D01*
X169465000Y-69598061D01*
X169465000Y-69801939D01*
X169504774Y-70001898D01*
X169582795Y-70190256D01*
X169696063Y-70359774D01*
X169840226Y-70503937D01*
X170009744Y-70617205D01*
X170198102Y-70695226D01*
X170398061Y-70735000D01*
X170601939Y-70735000D01*
X170801898Y-70695226D01*
X170990256Y-70617205D01*
X171159774Y-70503937D01*
X171303937Y-70359774D01*
X171417205Y-70190256D01*
X171495226Y-70001898D01*
X171535000Y-69801939D01*
X171535000Y-69598061D01*
X171495226Y-69398102D01*
X171417205Y-69209744D01*
X171303937Y-69040226D01*
X171159774Y-68896063D01*
X170990256Y-68782795D01*
X170801898Y-68704774D01*
X170601939Y-68665000D01*
X170398061Y-68665000D01*
X170198102Y-68704774D01*
X170009744Y-68782795D01*
X169840226Y-68896063D01*
X169696063Y-69040226D01*
X169582795Y-69209744D01*
X169504774Y-69398102D01*
X169465000Y-69598061D01*
X167290058Y-69598061D01*
X167346004Y-69542115D01*
X167459272Y-69372597D01*
X167537293Y-69184239D01*
X167577067Y-68984280D01*
X167577067Y-68780402D01*
X167537293Y-68580443D01*
X167459272Y-68392085D01*
X167346004Y-68222567D01*
X167201841Y-68078404D01*
X167081599Y-67998061D01*
X177865000Y-67998061D01*
X177865000Y-68201939D01*
X177904774Y-68401898D01*
X177982795Y-68590256D01*
X178096063Y-68759774D01*
X178240226Y-68903937D01*
X178409744Y-69017205D01*
X178598102Y-69095226D01*
X178798061Y-69135000D01*
X179001939Y-69135000D01*
X179201898Y-69095226D01*
X179390256Y-69017205D01*
X179559774Y-68903937D01*
X179703937Y-68759774D01*
X179817205Y-68590256D01*
X179895226Y-68401898D01*
X179895989Y-68398061D01*
X195065000Y-68398061D01*
X195065000Y-68601939D01*
X195104774Y-68801898D01*
X195182795Y-68990256D01*
X195296063Y-69159774D01*
X195440226Y-69303937D01*
X195609744Y-69417205D01*
X195798102Y-69495226D01*
X195998061Y-69535000D01*
X196201939Y-69535000D01*
X196401898Y-69495226D01*
X196590256Y-69417205D01*
X196759774Y-69303937D01*
X196903937Y-69159774D01*
X197017205Y-68990256D01*
X197095226Y-68801898D01*
X197135000Y-68601939D01*
X197135000Y-68398061D01*
X197095226Y-68198102D01*
X197017205Y-68009744D01*
X196903937Y-67840226D01*
X196759774Y-67696063D01*
X196687934Y-67648061D01*
X225215000Y-67648061D01*
X225215000Y-67851939D01*
X225254774Y-68051898D01*
X225332795Y-68240256D01*
X225446063Y-68409774D01*
X225590226Y-68553937D01*
X225759744Y-68667205D01*
X225948102Y-68745226D01*
X226148061Y-68785000D01*
X226351939Y-68785000D01*
X226551898Y-68745226D01*
X226740256Y-68667205D01*
X226909774Y-68553937D01*
X227053937Y-68409774D01*
X227125000Y-68303420D01*
X227196063Y-68409774D01*
X227340226Y-68553937D01*
X227509744Y-68667205D01*
X227698102Y-68745226D01*
X227898061Y-68785000D01*
X228101939Y-68785000D01*
X228301898Y-68745226D01*
X228490256Y-68667205D01*
X228659774Y-68553937D01*
X228803937Y-68409774D01*
X228917205Y-68240256D01*
X228995226Y-68051898D01*
X229035000Y-67851939D01*
X229035000Y-67648061D01*
X228995226Y-67448102D01*
X228917205Y-67259744D01*
X228803937Y-67090226D01*
X228659774Y-66946063D01*
X228490256Y-66832795D01*
X228301898Y-66754774D01*
X228101939Y-66715000D01*
X227898061Y-66715000D01*
X227698102Y-66754774D01*
X227509744Y-66832795D01*
X227340226Y-66946063D01*
X227196063Y-67090226D01*
X227125000Y-67196580D01*
X227053937Y-67090226D01*
X226909774Y-66946063D01*
X226740256Y-66832795D01*
X226551898Y-66754774D01*
X226351939Y-66715000D01*
X226148061Y-66715000D01*
X225948102Y-66754774D01*
X225759744Y-66832795D01*
X225590226Y-66946063D01*
X225446063Y-67090226D01*
X225332795Y-67259744D01*
X225254774Y-67448102D01*
X225215000Y-67648061D01*
X196687934Y-67648061D01*
X196590256Y-67582795D01*
X196401898Y-67504774D01*
X196201939Y-67465000D01*
X195998061Y-67465000D01*
X195798102Y-67504774D01*
X195609744Y-67582795D01*
X195440226Y-67696063D01*
X195296063Y-67840226D01*
X195182795Y-68009744D01*
X195104774Y-68198102D01*
X195065000Y-68398061D01*
X179895989Y-68398061D01*
X179935000Y-68201939D01*
X179935000Y-67998061D01*
X179895226Y-67798102D01*
X179817205Y-67609744D01*
X179703937Y-67440226D01*
X179559774Y-67296063D01*
X179390256Y-67182795D01*
X179201898Y-67104774D01*
X179001939Y-67065000D01*
X178798061Y-67065000D01*
X178598102Y-67104774D01*
X178409744Y-67182795D01*
X178240226Y-67296063D01*
X178096063Y-67440226D01*
X177982795Y-67609744D01*
X177904774Y-67798102D01*
X177865000Y-67998061D01*
X167081599Y-67998061D01*
X167032323Y-67965136D01*
X166843965Y-67887115D01*
X166644006Y-67847341D01*
X166440128Y-67847341D01*
X166368574Y-67861574D01*
X166283248Y-67776248D01*
X166113730Y-67662980D01*
X165925372Y-67584959D01*
X165725413Y-67545185D01*
X165521535Y-67545185D01*
X165321576Y-67584959D01*
X165133218Y-67662980D01*
X164963700Y-67776248D01*
X164819537Y-67920411D01*
X164706269Y-68089929D01*
X164628248Y-68278287D01*
X164588474Y-68478246D01*
X147870300Y-68478246D01*
X147870300Y-68372675D01*
X147826863Y-68154304D01*
X147741659Y-67948602D01*
X147617961Y-67763476D01*
X147460524Y-67606039D01*
X147275398Y-67482341D01*
X147069696Y-67397137D01*
X146851325Y-67353700D01*
X146628675Y-67353700D01*
X146614272Y-67356565D01*
X146657450Y-67139496D01*
X146657450Y-66780504D01*
X146587414Y-66428411D01*
X146492001Y-66198061D01*
X158664998Y-66198061D01*
X158664998Y-66401939D01*
X158704772Y-66601898D01*
X158782793Y-66790256D01*
X158896061Y-66959774D01*
X159040224Y-67103937D01*
X159209742Y-67217205D01*
X159398100Y-67295226D01*
X159598059Y-67335000D01*
X159801937Y-67335000D01*
X160001896Y-67295226D01*
X160190254Y-67217205D01*
X160359772Y-67103937D01*
X160503935Y-66959774D01*
X160617203Y-66790256D01*
X160695224Y-66601898D01*
X160734998Y-66401939D01*
X160734998Y-66198061D01*
X160695224Y-65998102D01*
X160617203Y-65809744D01*
X160503935Y-65640226D01*
X160359772Y-65496063D01*
X160190254Y-65382795D01*
X160001896Y-65304774D01*
X159801937Y-65265000D01*
X159598059Y-65265000D01*
X159398100Y-65304774D01*
X159209742Y-65382795D01*
X159040224Y-65496063D01*
X158896061Y-65640226D01*
X158782793Y-65809744D01*
X158704772Y-65998102D01*
X158664998Y-66198061D01*
X146492001Y-66198061D01*
X146450034Y-66096746D01*
X146250589Y-65798256D01*
X145996744Y-65544411D01*
X145698254Y-65344966D01*
X145366589Y-65207586D01*
X145014496Y-65137550D01*
X144655504Y-65137550D01*
X144303411Y-65207586D01*
X143971746Y-65344966D01*
X143673256Y-65544411D01*
X143419411Y-65798256D01*
X143247500Y-66055539D01*
X143075589Y-65798256D01*
X142821744Y-65544411D01*
X142523254Y-65344966D01*
X142191589Y-65207586D01*
X141839496Y-65137550D01*
X141480504Y-65137550D01*
X141128411Y-65207586D01*
X140796746Y-65344966D01*
X140498256Y-65544411D01*
X140244411Y-65798256D01*
X140044966Y-66096746D01*
X139907586Y-66428411D01*
X139837550Y-66780504D01*
X139837550Y-67139496D01*
X139907586Y-67491589D01*
X140044966Y-67823254D01*
X140146344Y-67974977D01*
X140031095Y-68090226D01*
X139917827Y-68259744D01*
X139839806Y-68448102D01*
X139800032Y-68648061D01*
X139160000Y-68648061D01*
X139160000Y-63898061D01*
X148715000Y-63898061D01*
X148715000Y-64101939D01*
X148754774Y-64301898D01*
X148832795Y-64490256D01*
X148946063Y-64659774D01*
X149090226Y-64803937D01*
X149259744Y-64917205D01*
X149448102Y-64995226D01*
X149648061Y-65035000D01*
X149851939Y-65035000D01*
X150037645Y-64998061D01*
X151965000Y-64998061D01*
X151965000Y-65201939D01*
X152004774Y-65401898D01*
X152082795Y-65590256D01*
X152196063Y-65759774D01*
X152340226Y-65903937D01*
X152509744Y-66017205D01*
X152698102Y-66095226D01*
X152898061Y-66135000D01*
X153101939Y-66135000D01*
X153301898Y-66095226D01*
X153490256Y-66017205D01*
X153659774Y-65903937D01*
X153803937Y-65759774D01*
X153917205Y-65590256D01*
X153995226Y-65401898D01*
X154035000Y-65201939D01*
X154035000Y-64998061D01*
X154024347Y-64944506D01*
X154090256Y-64917205D01*
X154259774Y-64803937D01*
X154403937Y-64659774D01*
X154517205Y-64490256D01*
X154595226Y-64301898D01*
X154635000Y-64101939D01*
X154635000Y-63898061D01*
X154595226Y-63698102D01*
X154517205Y-63509744D01*
X154403937Y-63340226D01*
X154271804Y-63208093D01*
X157565000Y-63208093D01*
X157565000Y-63411971D01*
X157604774Y-63611930D01*
X157682795Y-63800288D01*
X157796063Y-63969806D01*
X157940226Y-64113969D01*
X158109744Y-64227237D01*
X158298102Y-64305258D01*
X158498061Y-64345032D01*
X158701939Y-64345032D01*
X158901898Y-64305258D01*
X159090256Y-64227237D01*
X159259774Y-64113969D01*
X159403937Y-63969806D01*
X159517205Y-63800288D01*
X159595226Y-63611930D01*
X159635000Y-63411971D01*
X159635000Y-63208093D01*
X159595226Y-63008134D01*
X159517205Y-62819776D01*
X159403937Y-62650258D01*
X159259774Y-62506095D01*
X159090256Y-62392827D01*
X158901898Y-62314806D01*
X158701939Y-62275032D01*
X158498061Y-62275032D01*
X158298102Y-62314806D01*
X158109744Y-62392827D01*
X157940226Y-62506095D01*
X157796063Y-62650258D01*
X157682795Y-62819776D01*
X157604774Y-63008134D01*
X157565000Y-63208093D01*
X154271804Y-63208093D01*
X154259774Y-63196063D01*
X154090256Y-63082795D01*
X153901898Y-63004774D01*
X153701939Y-62965000D01*
X153498061Y-62965000D01*
X153298102Y-63004774D01*
X153109744Y-63082795D01*
X152940226Y-63196063D01*
X152796063Y-63340226D01*
X152682795Y-63509744D01*
X152604774Y-63698102D01*
X152565000Y-63898061D01*
X152565000Y-64101939D01*
X152575653Y-64155494D01*
X152509744Y-64182795D01*
X152340226Y-64296063D01*
X152196063Y-64440226D01*
X152082795Y-64609744D01*
X152004774Y-64798102D01*
X151965000Y-64998061D01*
X150037645Y-64998061D01*
X150051898Y-64995226D01*
X150240256Y-64917205D01*
X150409774Y-64803937D01*
X150553937Y-64659774D01*
X150667205Y-64490256D01*
X150745226Y-64301898D01*
X150785000Y-64101939D01*
X150785000Y-63898061D01*
X150745226Y-63698102D01*
X150667205Y-63509744D01*
X150553937Y-63340226D01*
X150409774Y-63196063D01*
X150240256Y-63082795D01*
X150051898Y-63004774D01*
X149851939Y-62965000D01*
X149648061Y-62965000D01*
X149448102Y-63004774D01*
X149259744Y-63082795D01*
X149090226Y-63196063D01*
X148946063Y-63340226D01*
X148832795Y-63509744D01*
X148754774Y-63698102D01*
X148715000Y-63898061D01*
X139160000Y-63898061D01*
X139160000Y-61375577D01*
X139201716Y-61453623D01*
X139343551Y-61626449D01*
X139516377Y-61768284D01*
X139713553Y-61873676D01*
X139927501Y-61938577D01*
X140094248Y-61955000D01*
X140805752Y-61955000D01*
X140972499Y-61938577D01*
X141186447Y-61873676D01*
X141383623Y-61768284D01*
X141556449Y-61626449D01*
X141698284Y-61453623D01*
X141803676Y-61256447D01*
X141868577Y-61042499D01*
X141890491Y-60820000D01*
X142939509Y-60820000D01*
X142961423Y-61042499D01*
X143026324Y-61256447D01*
X143131716Y-61453623D01*
X143273551Y-61626449D01*
X143446377Y-61768284D01*
X143643553Y-61873676D01*
X143857501Y-61938577D01*
X144024248Y-61955000D01*
X145235752Y-61955000D01*
X145402499Y-61938577D01*
X145616447Y-61873676D01*
X145813623Y-61768284D01*
X145986449Y-61626449D01*
X146128284Y-61453623D01*
X146233676Y-61256447D01*
X146298577Y-61042499D01*
X146320491Y-60820000D01*
X146298577Y-60597501D01*
X146258879Y-60466633D01*
X148726466Y-60466633D01*
X148726466Y-60670511D01*
X148766240Y-60870470D01*
X148844261Y-61058828D01*
X148957529Y-61228346D01*
X149101692Y-61372509D01*
X149271210Y-61485777D01*
X149459568Y-61563798D01*
X149659527Y-61603572D01*
X149863405Y-61603572D01*
X150063364Y-61563798D01*
X150251722Y-61485777D01*
X150421240Y-61372509D01*
X150565403Y-61228346D01*
X150585335Y-61198516D01*
X150698102Y-61245226D01*
X150898061Y-61285000D01*
X151101939Y-61285000D01*
X151301898Y-61245226D01*
X151490256Y-61167205D01*
X151659774Y-61053937D01*
X151736125Y-60977586D01*
X151782795Y-61090256D01*
X151787666Y-61097547D01*
X151640226Y-61196063D01*
X151496063Y-61340226D01*
X151382795Y-61509744D01*
X151304774Y-61698102D01*
X151265000Y-61898061D01*
X151265000Y-62101939D01*
X151304774Y-62301898D01*
X151382795Y-62490256D01*
X151496063Y-62659774D01*
X151640226Y-62803937D01*
X151809744Y-62917205D01*
X151998102Y-62995226D01*
X152198061Y-63035000D01*
X152401939Y-63035000D01*
X152601898Y-62995226D01*
X152790256Y-62917205D01*
X152959774Y-62803937D01*
X153069745Y-62693966D01*
X153090226Y-62714447D01*
X153259744Y-62827715D01*
X153448102Y-62905736D01*
X153648061Y-62945510D01*
X153851939Y-62945510D01*
X154051898Y-62905736D01*
X154240256Y-62827715D01*
X154409774Y-62714447D01*
X154553937Y-62570284D01*
X154667205Y-62400766D01*
X154745226Y-62212408D01*
X154785000Y-62012449D01*
X154785000Y-61808571D01*
X154745226Y-61608612D01*
X154667205Y-61420254D01*
X154553937Y-61250736D01*
X154409774Y-61106573D01*
X154240256Y-60993305D01*
X154051898Y-60915284D01*
X153851939Y-60875510D01*
X153700475Y-60875510D01*
X153735000Y-60701939D01*
X153735000Y-60498061D01*
X153695226Y-60298102D01*
X153617205Y-60109744D01*
X153511767Y-59951944D01*
X153553937Y-59909774D01*
X153561623Y-59898270D01*
X159715004Y-59898270D01*
X159715004Y-60102148D01*
X159754778Y-60302107D01*
X159832799Y-60490465D01*
X159946067Y-60659983D01*
X160004707Y-60718623D01*
X159967625Y-60755705D01*
X159854357Y-60925223D01*
X159776336Y-61113581D01*
X159736562Y-61313540D01*
X159736562Y-61517418D01*
X159776336Y-61717377D01*
X159854357Y-61905735D01*
X159967625Y-62075253D01*
X160111788Y-62219416D01*
X160281306Y-62332684D01*
X160469664Y-62410705D01*
X160669623Y-62450479D01*
X160873501Y-62450479D01*
X161073460Y-62410705D01*
X161261818Y-62332684D01*
X161431336Y-62219416D01*
X161575499Y-62075253D01*
X161688767Y-61905735D01*
X161766788Y-61717377D01*
X161806562Y-61517418D01*
X161806562Y-61313540D01*
X161803118Y-61296224D01*
X161998061Y-61335000D01*
X162072107Y-61335000D01*
X162109802Y-61426003D01*
X162150704Y-61487218D01*
X162104774Y-61598102D01*
X162065000Y-61798061D01*
X162065000Y-62001939D01*
X162104774Y-62201898D01*
X162182795Y-62390256D01*
X162296063Y-62559774D01*
X162440226Y-62703937D01*
X162609744Y-62817205D01*
X162798102Y-62895226D01*
X162998061Y-62935000D01*
X163201939Y-62935000D01*
X163401898Y-62895226D01*
X163590256Y-62817205D01*
X163759774Y-62703937D01*
X163903937Y-62559774D01*
X164017205Y-62390256D01*
X164095226Y-62201898D01*
X164135000Y-62001939D01*
X164135000Y-61798061D01*
X164095226Y-61598102D01*
X164017205Y-61409744D01*
X163976303Y-61348529D01*
X164022233Y-61237645D01*
X164062007Y-61037686D01*
X164062007Y-60833808D01*
X164022233Y-60633849D01*
X163944212Y-60445491D01*
X163830944Y-60275973D01*
X163686781Y-60131810D01*
X163517263Y-60018542D01*
X163328905Y-59940521D01*
X163128946Y-59900747D01*
X163054900Y-59900747D01*
X163017205Y-59809744D01*
X162903937Y-59640226D01*
X162759774Y-59496063D01*
X162590256Y-59382795D01*
X162401898Y-59304774D01*
X162201939Y-59265000D01*
X161998061Y-59265000D01*
X161798102Y-59304774D01*
X161609744Y-59382795D01*
X161590733Y-59395498D01*
X161553941Y-59340435D01*
X161409778Y-59196272D01*
X161240260Y-59083004D01*
X161051902Y-59004983D01*
X160851943Y-58965209D01*
X160648065Y-58965209D01*
X160448106Y-59004983D01*
X160259748Y-59083004D01*
X160090230Y-59196272D01*
X159946067Y-59340435D01*
X159832799Y-59509953D01*
X159754778Y-59698311D01*
X159715004Y-59898270D01*
X153561623Y-59898270D01*
X153667205Y-59740256D01*
X153745226Y-59551898D01*
X153785000Y-59351939D01*
X153785000Y-59148061D01*
X153745226Y-58948102D01*
X153667205Y-58759744D01*
X153553937Y-58590226D01*
X153409774Y-58446063D01*
X153240256Y-58332795D01*
X153051898Y-58254774D01*
X153004628Y-58245372D01*
X152995226Y-58198102D01*
X152917205Y-58009744D01*
X152803937Y-57840226D01*
X152659774Y-57696063D01*
X152490256Y-57582795D01*
X152301898Y-57504774D01*
X152101939Y-57465000D01*
X151898061Y-57465000D01*
X151698102Y-57504774D01*
X151509744Y-57582795D01*
X151340226Y-57696063D01*
X151196063Y-57840226D01*
X151082795Y-58009744D01*
X151004774Y-58198102D01*
X150965000Y-58398061D01*
X150965000Y-58601939D01*
X151004774Y-58801898D01*
X151082795Y-58990256D01*
X151196063Y-59159774D01*
X151288373Y-59252084D01*
X151101939Y-59215000D01*
X150898061Y-59215000D01*
X150698102Y-59254774D01*
X150509744Y-59332795D01*
X150340226Y-59446063D01*
X150196063Y-59590226D01*
X150176131Y-59620056D01*
X150063364Y-59573346D01*
X149863405Y-59533572D01*
X149659527Y-59533572D01*
X149459568Y-59573346D01*
X149271210Y-59651367D01*
X149101692Y-59764635D01*
X148957529Y-59908798D01*
X148844261Y-60078316D01*
X148766240Y-60266674D01*
X148726466Y-60466633D01*
X146258879Y-60466633D01*
X146233676Y-60383553D01*
X146128284Y-60186377D01*
X145986449Y-60013551D01*
X145813623Y-59871716D01*
X145616447Y-59766324D01*
X145402499Y-59701423D01*
X145235752Y-59685000D01*
X145016904Y-59685000D01*
X145023108Y-59670022D01*
X145060000Y-59484552D01*
X145060000Y-59295448D01*
X145023108Y-59109978D01*
X144950741Y-58935269D01*
X144845681Y-58778036D01*
X144711964Y-58644319D01*
X144554731Y-58539259D01*
X144380022Y-58466892D01*
X144194552Y-58430000D01*
X144005448Y-58430000D01*
X143819978Y-58466892D01*
X143645269Y-58539259D01*
X143488036Y-58644319D01*
X143354319Y-58778036D01*
X143249259Y-58935269D01*
X143176892Y-59109978D01*
X143140000Y-59295448D01*
X143140000Y-59484552D01*
X143176892Y-59670022D01*
X143249259Y-59844731D01*
X143330715Y-59966638D01*
X143273551Y-60013551D01*
X143131716Y-60186377D01*
X143026324Y-60383553D01*
X142961423Y-60597501D01*
X142939509Y-60820000D01*
X141890491Y-60820000D01*
X141868577Y-60597501D01*
X141803676Y-60383553D01*
X141698284Y-60186377D01*
X141556449Y-60013551D01*
X141383623Y-59871716D01*
X141186447Y-59766324D01*
X140972499Y-59701423D01*
X140805752Y-59685000D01*
X140094248Y-59685000D01*
X139927501Y-59701423D01*
X139713553Y-59766324D01*
X139516377Y-59871716D01*
X139343551Y-60013551D01*
X139201716Y-60186377D01*
X139160000Y-60264423D01*
X139160000Y-54898061D01*
X149765000Y-54898061D01*
X149765000Y-55101939D01*
X149804774Y-55301898D01*
X149882795Y-55490256D01*
X149996063Y-55659774D01*
X150140226Y-55803937D01*
X150309744Y-55917205D01*
X150498102Y-55995226D01*
X150698061Y-56035000D01*
X150901939Y-56035000D01*
X151101898Y-55995226D01*
X151290256Y-55917205D01*
X151459774Y-55803937D01*
X151603937Y-55659774D01*
X151717205Y-55490256D01*
X151795226Y-55301898D01*
X151835000Y-55101939D01*
X151835000Y-54898061D01*
X151795226Y-54698102D01*
X151717205Y-54509744D01*
X151603937Y-54340226D01*
X151459774Y-54196063D01*
X151290256Y-54082795D01*
X151101898Y-54004774D01*
X150901939Y-53965000D01*
X150698061Y-53965000D01*
X150498102Y-54004774D01*
X150309744Y-54082795D01*
X150140226Y-54196063D01*
X149996063Y-54340226D01*
X149882795Y-54509744D01*
X149804774Y-54698102D01*
X149765000Y-54898061D01*
X139160000Y-54898061D01*
X139160000Y-52735577D01*
X139201716Y-52813623D01*
X139343551Y-52986449D01*
X139516377Y-53128284D01*
X139713553Y-53233676D01*
X139927501Y-53298577D01*
X140094248Y-53315000D01*
X140805752Y-53315000D01*
X140972499Y-53298577D01*
X141186447Y-53233676D01*
X141383623Y-53128284D01*
X141556449Y-52986449D01*
X141698284Y-52813623D01*
X141803676Y-52616447D01*
X141868577Y-52402499D01*
X141890491Y-52180000D01*
X142939509Y-52180000D01*
X142961423Y-52402499D01*
X143026324Y-52616447D01*
X143131716Y-52813623D01*
X143273551Y-52986449D01*
X143330715Y-53033362D01*
X143249259Y-53155269D01*
X143176892Y-53329978D01*
X143140000Y-53515448D01*
X143140000Y-53704552D01*
X143176892Y-53890022D01*
X143249259Y-54064731D01*
X143354319Y-54221964D01*
X143488036Y-54355681D01*
X143645269Y-54460741D01*
X143819978Y-54533108D01*
X144005448Y-54570000D01*
X144194552Y-54570000D01*
X144380022Y-54533108D01*
X144554731Y-54460741D01*
X144711964Y-54355681D01*
X144845681Y-54221964D01*
X144950741Y-54064731D01*
X145023108Y-53890022D01*
X145060000Y-53704552D01*
X145060000Y-53515448D01*
X145054776Y-53489180D01*
X157050679Y-53489180D01*
X157050679Y-53693058D01*
X157090453Y-53893017D01*
X157168474Y-54081375D01*
X157281742Y-54250893D01*
X157425905Y-54395056D01*
X157595423Y-54508324D01*
X157783781Y-54586345D01*
X157983740Y-54626119D01*
X158187618Y-54626119D01*
X158217061Y-54620262D01*
X158340226Y-54743427D01*
X158364932Y-54759935D01*
X158309744Y-54782795D01*
X158140226Y-54896063D01*
X157996063Y-55040226D01*
X157882795Y-55209744D01*
X157804774Y-55398102D01*
X157765000Y-55598061D01*
X157765000Y-55801939D01*
X157804774Y-56001898D01*
X157882795Y-56190256D01*
X157996063Y-56359774D01*
X158140226Y-56503937D01*
X158309744Y-56617205D01*
X158498102Y-56695226D01*
X158698061Y-56735000D01*
X158901939Y-56735000D01*
X159101898Y-56695226D01*
X159290256Y-56617205D01*
X159318907Y-56598061D01*
X159743988Y-56598061D01*
X159743988Y-56801939D01*
X159783762Y-57001898D01*
X159861783Y-57190256D01*
X159975051Y-57359774D01*
X160119214Y-57503937D01*
X160288732Y-57617205D01*
X160477090Y-57695226D01*
X160677049Y-57735000D01*
X160880927Y-57735000D01*
X161080886Y-57695226D01*
X161269244Y-57617205D01*
X161438762Y-57503937D01*
X161582925Y-57359774D01*
X161696193Y-57190256D01*
X161721863Y-57128283D01*
X161898095Y-57093229D01*
X162086453Y-57015208D01*
X162255971Y-56901940D01*
X162279948Y-56877963D01*
X162225398Y-57009657D01*
X162185624Y-57209616D01*
X162185624Y-57413494D01*
X162225398Y-57613453D01*
X162303419Y-57801811D01*
X162416687Y-57971329D01*
X162560850Y-58115492D01*
X162730368Y-58228760D01*
X162918726Y-58306781D01*
X163118685Y-58346555D01*
X163322563Y-58346555D01*
X163522522Y-58306781D01*
X163710880Y-58228760D01*
X163880398Y-58115492D01*
X164024561Y-57971329D01*
X164103637Y-57852983D01*
X164154127Y-57852983D01*
X164354086Y-57813209D01*
X164454910Y-57771446D01*
X164490820Y-57795440D01*
X164340226Y-57896063D01*
X164196063Y-58040226D01*
X164082795Y-58209744D01*
X164004774Y-58398102D01*
X163965000Y-58598061D01*
X163965000Y-58801939D01*
X164004774Y-59001898D01*
X164082795Y-59190256D01*
X164196063Y-59359774D01*
X164340226Y-59503937D01*
X164509744Y-59617205D01*
X164698102Y-59695226D01*
X164733935Y-59702354D01*
X164696063Y-59740226D01*
X164582795Y-59909744D01*
X164504774Y-60098102D01*
X164465000Y-60298061D01*
X164465000Y-60501939D01*
X164504774Y-60701898D01*
X164582795Y-60890256D01*
X164696063Y-61059774D01*
X164840226Y-61203937D01*
X165009744Y-61317205D01*
X165198102Y-61395226D01*
X165398061Y-61435000D01*
X165401289Y-61435000D01*
X165396063Y-61440226D01*
X165282795Y-61609744D01*
X165204774Y-61798102D01*
X165165000Y-61998061D01*
X165165000Y-62201939D01*
X165204774Y-62401898D01*
X165282795Y-62590256D01*
X165396063Y-62759774D01*
X165540226Y-62903937D01*
X165709744Y-63017205D01*
X165898102Y-63095226D01*
X166098061Y-63135000D01*
X166201289Y-63135000D01*
X166123479Y-63212810D01*
X166010211Y-63382328D01*
X165932190Y-63570686D01*
X165892416Y-63770645D01*
X165892416Y-63974523D01*
X165932190Y-64174482D01*
X165952553Y-64223641D01*
X165809744Y-64282795D01*
X165784635Y-64299572D01*
X165726710Y-64241647D01*
X165557192Y-64128379D01*
X165368834Y-64050358D01*
X165168875Y-64010584D01*
X164964997Y-64010584D01*
X164765038Y-64050358D01*
X164576680Y-64128379D01*
X164407162Y-64241647D01*
X164262999Y-64385810D01*
X164149731Y-64555328D01*
X164071710Y-64743686D01*
X164031936Y-64943645D01*
X164031936Y-65147523D01*
X164071710Y-65347482D01*
X164149731Y-65535840D01*
X164262999Y-65705358D01*
X164407162Y-65849521D01*
X164576680Y-65962789D01*
X164765038Y-66040810D01*
X164964997Y-66080584D01*
X165168875Y-66080584D01*
X165368834Y-66040810D01*
X165557192Y-65962789D01*
X165582301Y-65946012D01*
X165640226Y-66003937D01*
X165809744Y-66117205D01*
X165998102Y-66195226D01*
X166198061Y-66235000D01*
X166401939Y-66235000D01*
X166601898Y-66195226D01*
X166790256Y-66117205D01*
X166959774Y-66003937D01*
X167034157Y-65929554D01*
X167202050Y-65962950D01*
X167405928Y-65962950D01*
X167605887Y-65923176D01*
X167794245Y-65845155D01*
X167963763Y-65731887D01*
X168107926Y-65587724D01*
X168151684Y-65522234D01*
X170307012Y-65522234D01*
X170307012Y-65726112D01*
X170346786Y-65926071D01*
X170424807Y-66114429D01*
X170538075Y-66283947D01*
X170682238Y-66428110D01*
X170851756Y-66541378D01*
X171040114Y-66619399D01*
X171240073Y-66659173D01*
X171443951Y-66659173D01*
X171643910Y-66619399D01*
X171832268Y-66541378D01*
X172001786Y-66428110D01*
X172145949Y-66283947D01*
X172203336Y-66198061D01*
X173365000Y-66198061D01*
X173365000Y-66401939D01*
X173404774Y-66601898D01*
X173482795Y-66790256D01*
X173596063Y-66959774D01*
X173740226Y-67103937D01*
X173909744Y-67217205D01*
X174098102Y-67295226D01*
X174298061Y-67335000D01*
X174501939Y-67335000D01*
X174701898Y-67295226D01*
X174890256Y-67217205D01*
X175059774Y-67103937D01*
X175203937Y-66959774D01*
X175317205Y-66790256D01*
X175395226Y-66601898D01*
X175435000Y-66401939D01*
X175435000Y-66198061D01*
X175395226Y-65998102D01*
X175317205Y-65809744D01*
X175203937Y-65640226D01*
X175059774Y-65496063D01*
X174890256Y-65382795D01*
X174701898Y-65304774D01*
X174501939Y-65265000D01*
X174298061Y-65265000D01*
X174098102Y-65304774D01*
X173909744Y-65382795D01*
X173740226Y-65496063D01*
X173596063Y-65640226D01*
X173482795Y-65809744D01*
X173404774Y-65998102D01*
X173365000Y-66198061D01*
X172203336Y-66198061D01*
X172259217Y-66114429D01*
X172337238Y-65926071D01*
X172377012Y-65726112D01*
X172377012Y-65522234D01*
X172337238Y-65322275D01*
X172259217Y-65133917D01*
X172145949Y-64964399D01*
X172001786Y-64820236D01*
X171832268Y-64706968D01*
X171643910Y-64628947D01*
X171443951Y-64589173D01*
X171240073Y-64589173D01*
X171040114Y-64628947D01*
X170851756Y-64706968D01*
X170682238Y-64820236D01*
X170538075Y-64964399D01*
X170424807Y-65133917D01*
X170346786Y-65322275D01*
X170307012Y-65522234D01*
X168151684Y-65522234D01*
X168221194Y-65418206D01*
X168299215Y-65229848D01*
X168338989Y-65029889D01*
X168338989Y-64826011D01*
X168299215Y-64626052D01*
X168221194Y-64437694D01*
X168107926Y-64268176D01*
X167963763Y-64124013D01*
X167936327Y-64105681D01*
X167950123Y-64036319D01*
X177214490Y-64036319D01*
X177214490Y-64240197D01*
X177254264Y-64440156D01*
X177332285Y-64628514D01*
X177405054Y-64737421D01*
X177332285Y-64846328D01*
X177254264Y-65034686D01*
X177214490Y-65234645D01*
X177214490Y-65438523D01*
X177254264Y-65638482D01*
X177332285Y-65826840D01*
X177445553Y-65996358D01*
X177589716Y-66140521D01*
X177759234Y-66253789D01*
X177947592Y-66331810D01*
X178147551Y-66371584D01*
X178351429Y-66371584D01*
X178551388Y-66331810D01*
X178739746Y-66253789D01*
X178909264Y-66140521D01*
X179053427Y-65996358D01*
X179166695Y-65826840D01*
X179244716Y-65638482D01*
X179284490Y-65438523D01*
X179284490Y-65398061D01*
X211215000Y-65398061D01*
X211215000Y-65601939D01*
X211254774Y-65801898D01*
X211332795Y-65990256D01*
X211446063Y-66159774D01*
X211590226Y-66303937D01*
X211759744Y-66417205D01*
X211948102Y-66495226D01*
X212148061Y-66535000D01*
X212351939Y-66535000D01*
X212551898Y-66495226D01*
X212740256Y-66417205D01*
X212909774Y-66303937D01*
X213053937Y-66159774D01*
X213167205Y-65990256D01*
X213245226Y-65801898D01*
X213285000Y-65601939D01*
X213285000Y-65398061D01*
X213245226Y-65198102D01*
X213167205Y-65009744D01*
X213053937Y-64840226D01*
X212909774Y-64696063D01*
X212740256Y-64582795D01*
X212551898Y-64504774D01*
X212351939Y-64465000D01*
X212148061Y-64465000D01*
X211948102Y-64504774D01*
X211759744Y-64582795D01*
X211590226Y-64696063D01*
X211446063Y-64840226D01*
X211332795Y-65009744D01*
X211254774Y-65198102D01*
X211215000Y-65398061D01*
X179284490Y-65398061D01*
X179284490Y-65234645D01*
X179244716Y-65034686D01*
X179166695Y-64846328D01*
X179093926Y-64737421D01*
X179166695Y-64628514D01*
X179244716Y-64440156D01*
X179284490Y-64240197D01*
X179284490Y-64036319D01*
X179244716Y-63836360D01*
X179166695Y-63648002D01*
X179053427Y-63478484D01*
X178909264Y-63334321D01*
X178739746Y-63221053D01*
X178551388Y-63143032D01*
X178351429Y-63103258D01*
X178147551Y-63103258D01*
X177947592Y-63143032D01*
X177759234Y-63221053D01*
X177589716Y-63334321D01*
X177445553Y-63478484D01*
X177332285Y-63648002D01*
X177254264Y-63836360D01*
X177214490Y-64036319D01*
X167950123Y-64036319D01*
X167962416Y-63974523D01*
X167962416Y-63770645D01*
X167922642Y-63570686D01*
X167844621Y-63382328D01*
X167731353Y-63212810D01*
X167587190Y-63068647D01*
X167417672Y-62955379D01*
X167229314Y-62877358D01*
X167029355Y-62837584D01*
X166926127Y-62837584D01*
X167003937Y-62759774D01*
X167117205Y-62590256D01*
X167195226Y-62401898D01*
X167195989Y-62398061D01*
X168965000Y-62398061D01*
X168965000Y-62601939D01*
X169004774Y-62801898D01*
X169082795Y-62990256D01*
X169196063Y-63159774D01*
X169340226Y-63303937D01*
X169509744Y-63417205D01*
X169698102Y-63495226D01*
X169898061Y-63535000D01*
X170101939Y-63535000D01*
X170301898Y-63495226D01*
X170490256Y-63417205D01*
X170659774Y-63303937D01*
X170803937Y-63159774D01*
X170917205Y-62990256D01*
X170995226Y-62801898D01*
X171017750Y-62688660D01*
X171190256Y-62617205D01*
X171359774Y-62503937D01*
X171503937Y-62359774D01*
X171617205Y-62190256D01*
X171671833Y-62058373D01*
X173551357Y-62058373D01*
X173551357Y-62262251D01*
X173591131Y-62462210D01*
X173669152Y-62650568D01*
X173782420Y-62820086D01*
X173926583Y-62964249D01*
X174096101Y-63077517D01*
X174284459Y-63155538D01*
X174484418Y-63195312D01*
X174688296Y-63195312D01*
X174888255Y-63155538D01*
X175076613Y-63077517D01*
X175246131Y-62964249D01*
X175390294Y-62820086D01*
X175503562Y-62650568D01*
X175581583Y-62462210D01*
X175621357Y-62262251D01*
X175621357Y-62058373D01*
X175581583Y-61858414D01*
X175556584Y-61798061D01*
X177214490Y-61798061D01*
X177214490Y-62001939D01*
X177254264Y-62201898D01*
X177332285Y-62390256D01*
X177445553Y-62559774D01*
X177589716Y-62703937D01*
X177759234Y-62817205D01*
X177947592Y-62895226D01*
X178147551Y-62935000D01*
X178351429Y-62935000D01*
X178537180Y-62898052D01*
X214630989Y-62898052D01*
X214630989Y-63101930D01*
X214670763Y-63301889D01*
X214748784Y-63490247D01*
X214862052Y-63659765D01*
X215006215Y-63803928D01*
X215175733Y-63917196D01*
X215364091Y-63995217D01*
X215564050Y-64034991D01*
X215767928Y-64034991D01*
X215967887Y-63995217D01*
X216156245Y-63917196D01*
X216325763Y-63803928D01*
X216469926Y-63659765D01*
X216583194Y-63490247D01*
X216661215Y-63301889D01*
X216700989Y-63101930D01*
X216700989Y-62898052D01*
X216661215Y-62698093D01*
X216640491Y-62648061D01*
X218465000Y-62648061D01*
X218465000Y-62851939D01*
X218504774Y-63051898D01*
X218582795Y-63240256D01*
X218696063Y-63409774D01*
X218840226Y-63553937D01*
X219009744Y-63667205D01*
X219198102Y-63745226D01*
X219398061Y-63785000D01*
X219601939Y-63785000D01*
X219801898Y-63745226D01*
X219990256Y-63667205D01*
X220159774Y-63553937D01*
X220303937Y-63409774D01*
X220311763Y-63398061D01*
X221465000Y-63398061D01*
X221465000Y-63601939D01*
X221504774Y-63801898D01*
X221582795Y-63990256D01*
X221696063Y-64159774D01*
X221840226Y-64303937D01*
X222009744Y-64417205D01*
X222198102Y-64495226D01*
X222348791Y-64525200D01*
X222209744Y-64582795D01*
X222040226Y-64696063D01*
X221896063Y-64840226D01*
X221782795Y-65009744D01*
X221704774Y-65198102D01*
X221665000Y-65398061D01*
X221665000Y-65601939D01*
X221704774Y-65801898D01*
X221782795Y-65990256D01*
X221896063Y-66159774D01*
X222040226Y-66303937D01*
X222209744Y-66417205D01*
X222398102Y-66495226D01*
X222598061Y-66535000D01*
X222801939Y-66535000D01*
X223001898Y-66495226D01*
X223190256Y-66417205D01*
X223359774Y-66303937D01*
X223503937Y-66159774D01*
X223617205Y-65990256D01*
X223695226Y-65801898D01*
X223735000Y-65601939D01*
X223735000Y-65398061D01*
X223695226Y-65198102D01*
X223617205Y-65009744D01*
X223503937Y-64840226D01*
X223359774Y-64696063D01*
X223287934Y-64648061D01*
X224215000Y-64648061D01*
X224215000Y-64851939D01*
X224254774Y-65051898D01*
X224332795Y-65240256D01*
X224446063Y-65409774D01*
X224590226Y-65553937D01*
X224759744Y-65667205D01*
X224948102Y-65745226D01*
X225148061Y-65785000D01*
X225351939Y-65785000D01*
X225551898Y-65745226D01*
X225740256Y-65667205D01*
X225909774Y-65553937D01*
X226053937Y-65409774D01*
X226167205Y-65240256D01*
X226245226Y-65051898D01*
X226285000Y-64851939D01*
X226285000Y-64648061D01*
X226245226Y-64448102D01*
X226167205Y-64259744D01*
X226053937Y-64090226D01*
X225909774Y-63946063D01*
X225740256Y-63832795D01*
X225551898Y-63754774D01*
X225351939Y-63715000D01*
X225148061Y-63715000D01*
X224948102Y-63754774D01*
X224759744Y-63832795D01*
X224590226Y-63946063D01*
X224446063Y-64090226D01*
X224332795Y-64259744D01*
X224254774Y-64448102D01*
X224215000Y-64648061D01*
X223287934Y-64648061D01*
X223190256Y-64582795D01*
X223001898Y-64504774D01*
X222851209Y-64474800D01*
X222990256Y-64417205D01*
X223159774Y-64303937D01*
X223303937Y-64159774D01*
X223417205Y-63990256D01*
X223495226Y-63801898D01*
X223515880Y-63698061D01*
X226665000Y-63698061D01*
X226665000Y-63901939D01*
X226704774Y-64101898D01*
X226782795Y-64290256D01*
X226896063Y-64459774D01*
X227040226Y-64603937D01*
X227209744Y-64717205D01*
X227398102Y-64795226D01*
X227598061Y-64835000D01*
X227801939Y-64835000D01*
X228001898Y-64795226D01*
X228190256Y-64717205D01*
X228359774Y-64603937D01*
X228503937Y-64459774D01*
X228617205Y-64290256D01*
X228695226Y-64101898D01*
X228735000Y-63901939D01*
X228735000Y-63698061D01*
X228695226Y-63498102D01*
X228617205Y-63309744D01*
X228503937Y-63140226D01*
X228393711Y-63030000D01*
X230157573Y-63030000D01*
X230187210Y-63330913D01*
X230274983Y-63620261D01*
X230417519Y-63886927D01*
X230609339Y-64120661D01*
X230843073Y-64312481D01*
X231109739Y-64455017D01*
X231399087Y-64542790D01*
X231624592Y-64565000D01*
X233575408Y-64565000D01*
X233800913Y-64542790D01*
X234090261Y-64455017D01*
X234356927Y-64312481D01*
X234590661Y-64120661D01*
X234782481Y-63886927D01*
X234925017Y-63620261D01*
X235012790Y-63330913D01*
X235042427Y-63030000D01*
X235012790Y-62729087D01*
X234925017Y-62439739D01*
X234782481Y-62173073D01*
X234590661Y-61939339D01*
X234356927Y-61747519D01*
X234090261Y-61604983D01*
X233800913Y-61517210D01*
X233575408Y-61495000D01*
X231624592Y-61495000D01*
X231399087Y-61517210D01*
X231109739Y-61604983D01*
X230843073Y-61747519D01*
X230609339Y-61939339D01*
X230417519Y-62173073D01*
X230274983Y-62439739D01*
X230187210Y-62729087D01*
X230157573Y-63030000D01*
X228393711Y-63030000D01*
X228359774Y-62996063D01*
X228190256Y-62882795D01*
X228001898Y-62804774D01*
X227801939Y-62765000D01*
X227598061Y-62765000D01*
X227398102Y-62804774D01*
X227209744Y-62882795D01*
X227040226Y-62996063D01*
X226896063Y-63140226D01*
X226782795Y-63309744D01*
X226704774Y-63498102D01*
X226665000Y-63698061D01*
X223515880Y-63698061D01*
X223535000Y-63601939D01*
X223535000Y-63398061D01*
X223495226Y-63198102D01*
X223417205Y-63009744D01*
X223303937Y-62840226D01*
X223159774Y-62696063D01*
X222990256Y-62582795D01*
X222801898Y-62504774D01*
X222601939Y-62465000D01*
X222398061Y-62465000D01*
X222198102Y-62504774D01*
X222009744Y-62582795D01*
X221840226Y-62696063D01*
X221696063Y-62840226D01*
X221582795Y-63009744D01*
X221504774Y-63198102D01*
X221465000Y-63398061D01*
X220311763Y-63398061D01*
X220417205Y-63240256D01*
X220495226Y-63051898D01*
X220535000Y-62851939D01*
X220535000Y-62648061D01*
X220495226Y-62448102D01*
X220417205Y-62259744D01*
X220303937Y-62090226D01*
X220159774Y-61946063D01*
X219990256Y-61832795D01*
X219906402Y-61798061D01*
X223165000Y-61798061D01*
X223165000Y-62001939D01*
X223204774Y-62201898D01*
X223282795Y-62390256D01*
X223396063Y-62559774D01*
X223540226Y-62703937D01*
X223709744Y-62817205D01*
X223898102Y-62895226D01*
X224098061Y-62935000D01*
X224301939Y-62935000D01*
X224501898Y-62895226D01*
X224690256Y-62817205D01*
X224859774Y-62703937D01*
X225003937Y-62559774D01*
X225117205Y-62390256D01*
X225195226Y-62201898D01*
X225235000Y-62001939D01*
X225235000Y-61798061D01*
X225565000Y-61798061D01*
X225565000Y-62001939D01*
X225604774Y-62201898D01*
X225682795Y-62390256D01*
X225796063Y-62559774D01*
X225940226Y-62703937D01*
X226109744Y-62817205D01*
X226298102Y-62895226D01*
X226498061Y-62935000D01*
X226701939Y-62935000D01*
X226901898Y-62895226D01*
X227090256Y-62817205D01*
X227259774Y-62703937D01*
X227403937Y-62559774D01*
X227517205Y-62390256D01*
X227595226Y-62201898D01*
X227635000Y-62001939D01*
X227635000Y-61798061D01*
X227595226Y-61598102D01*
X227517205Y-61409744D01*
X227403937Y-61240226D01*
X227259774Y-61096063D01*
X227090256Y-60982795D01*
X226901898Y-60904774D01*
X226701939Y-60865000D01*
X226498061Y-60865000D01*
X226298102Y-60904774D01*
X226109744Y-60982795D01*
X225940226Y-61096063D01*
X225796063Y-61240226D01*
X225682795Y-61409744D01*
X225604774Y-61598102D01*
X225565000Y-61798061D01*
X225235000Y-61798061D01*
X225195226Y-61598102D01*
X225117205Y-61409744D01*
X225003937Y-61240226D01*
X224859774Y-61096063D01*
X224690256Y-60982795D01*
X224501898Y-60904774D01*
X224301939Y-60865000D01*
X224098061Y-60865000D01*
X223898102Y-60904774D01*
X223709744Y-60982795D01*
X223540226Y-61096063D01*
X223396063Y-61240226D01*
X223282795Y-61409744D01*
X223204774Y-61598102D01*
X223165000Y-61798061D01*
X219906402Y-61798061D01*
X219801898Y-61754774D01*
X219601939Y-61715000D01*
X219398061Y-61715000D01*
X219198102Y-61754774D01*
X219009744Y-61832795D01*
X218840226Y-61946063D01*
X218696063Y-62090226D01*
X218582795Y-62259744D01*
X218504774Y-62448102D01*
X218465000Y-62648061D01*
X216640491Y-62648061D01*
X216583194Y-62509735D01*
X216469926Y-62340217D01*
X216325763Y-62196054D01*
X216156245Y-62082786D01*
X215967887Y-62004765D01*
X215767928Y-61964991D01*
X215564050Y-61964991D01*
X215364091Y-62004765D01*
X215175733Y-62082786D01*
X215006215Y-62196054D01*
X214862052Y-62340217D01*
X214748784Y-62509735D01*
X214670763Y-62698093D01*
X214630989Y-62898052D01*
X178537180Y-62898052D01*
X178551388Y-62895226D01*
X178739746Y-62817205D01*
X178909264Y-62703937D01*
X179053427Y-62559774D01*
X179166695Y-62390256D01*
X179244716Y-62201898D01*
X179270309Y-62073233D01*
X179305900Y-62087975D01*
X179505859Y-62127749D01*
X179709737Y-62127749D01*
X179909696Y-62087975D01*
X180098054Y-62009954D01*
X180267572Y-61896686D01*
X180411735Y-61752523D01*
X180525003Y-61583005D01*
X180603024Y-61394647D01*
X180642798Y-61194688D01*
X180642798Y-60990810D01*
X180631201Y-60932510D01*
X180725784Y-60837927D01*
X180839052Y-60668409D01*
X180917073Y-60480051D01*
X180956847Y-60280092D01*
X180956847Y-60076214D01*
X180917073Y-59876255D01*
X180839052Y-59687897D01*
X180812435Y-59648061D01*
X224265000Y-59648061D01*
X224265000Y-59851939D01*
X224304774Y-60051898D01*
X224382795Y-60240256D01*
X224496063Y-60409774D01*
X224640226Y-60553937D01*
X224809744Y-60667205D01*
X224998102Y-60745226D01*
X225198061Y-60785000D01*
X225401939Y-60785000D01*
X225601898Y-60745226D01*
X225790256Y-60667205D01*
X225959774Y-60553937D01*
X226103937Y-60409774D01*
X226217205Y-60240256D01*
X226295226Y-60051898D01*
X226335000Y-59851939D01*
X226335000Y-59648061D01*
X226295226Y-59448102D01*
X226217205Y-59259744D01*
X226190649Y-59220000D01*
X230157573Y-59220000D01*
X230187210Y-59520913D01*
X230274983Y-59810261D01*
X230417519Y-60076927D01*
X230609339Y-60310661D01*
X230843073Y-60502481D01*
X231109739Y-60645017D01*
X231399087Y-60732790D01*
X231624592Y-60755000D01*
X233575408Y-60755000D01*
X233800913Y-60732790D01*
X234090261Y-60645017D01*
X234356927Y-60502481D01*
X234590661Y-60310661D01*
X234782481Y-60076927D01*
X234925017Y-59810261D01*
X235012790Y-59520913D01*
X235042427Y-59220000D01*
X235012790Y-58919087D01*
X234925017Y-58629739D01*
X234782481Y-58363073D01*
X234590661Y-58129339D01*
X234356927Y-57937519D01*
X234090261Y-57794983D01*
X233800913Y-57707210D01*
X233575408Y-57685000D01*
X231624592Y-57685000D01*
X231399087Y-57707210D01*
X231109739Y-57794983D01*
X230843073Y-57937519D01*
X230609339Y-58129339D01*
X230417519Y-58363073D01*
X230274983Y-58629739D01*
X230187210Y-58919087D01*
X230157573Y-59220000D01*
X226190649Y-59220000D01*
X226103937Y-59090226D01*
X225959774Y-58946063D01*
X225790256Y-58832795D01*
X225601898Y-58754774D01*
X225401939Y-58715000D01*
X225198061Y-58715000D01*
X224998102Y-58754774D01*
X224809744Y-58832795D01*
X224640226Y-58946063D01*
X224496063Y-59090226D01*
X224382795Y-59259744D01*
X224304774Y-59448102D01*
X224265000Y-59648061D01*
X180812435Y-59648061D01*
X180725784Y-59518379D01*
X180581621Y-59374216D01*
X180412103Y-59260948D01*
X180223745Y-59182927D01*
X180023786Y-59143153D01*
X179819908Y-59143153D01*
X179619949Y-59182927D01*
X179431591Y-59260948D01*
X179262073Y-59374216D01*
X179117910Y-59518379D01*
X179004642Y-59687897D01*
X178926621Y-59876255D01*
X178886847Y-60076214D01*
X178886847Y-60280092D01*
X178898444Y-60338392D01*
X178803861Y-60432975D01*
X178690593Y-60602493D01*
X178612572Y-60790851D01*
X178586979Y-60919516D01*
X178551388Y-60904774D01*
X178351429Y-60865000D01*
X178147551Y-60865000D01*
X177947592Y-60904774D01*
X177759234Y-60982795D01*
X177589716Y-61096063D01*
X177445553Y-61240226D01*
X177332285Y-61409744D01*
X177254264Y-61598102D01*
X177214490Y-61798061D01*
X175556584Y-61798061D01*
X175503562Y-61670056D01*
X175390294Y-61500538D01*
X175246131Y-61356375D01*
X175076613Y-61243107D01*
X174888255Y-61165086D01*
X174805317Y-61148589D01*
X174895069Y-61130736D01*
X175083427Y-61052715D01*
X175252945Y-60939447D01*
X175397108Y-60795284D01*
X175510376Y-60625766D01*
X175588397Y-60437408D01*
X175628171Y-60237449D01*
X175628171Y-60033571D01*
X175588397Y-59833612D01*
X175510376Y-59645254D01*
X175397108Y-59475736D01*
X175252945Y-59331573D01*
X175083427Y-59218305D01*
X174895069Y-59140284D01*
X174695110Y-59100510D01*
X174491232Y-59100510D01*
X174291273Y-59140284D01*
X174102915Y-59218305D01*
X173933397Y-59331573D01*
X173789234Y-59475736D01*
X173675966Y-59645254D01*
X173597945Y-59833612D01*
X173558171Y-60033571D01*
X173558171Y-60237449D01*
X173597945Y-60437408D01*
X173675966Y-60625766D01*
X173789234Y-60795284D01*
X173933397Y-60939447D01*
X174102915Y-61052715D01*
X174291273Y-61130736D01*
X174374211Y-61147233D01*
X174284459Y-61165086D01*
X174096101Y-61243107D01*
X173926583Y-61356375D01*
X173782420Y-61500538D01*
X173669152Y-61670056D01*
X173591131Y-61858414D01*
X173551357Y-62058373D01*
X171671833Y-62058373D01*
X171695226Y-62001898D01*
X171735000Y-61801939D01*
X171735000Y-61598061D01*
X171695226Y-61398102D01*
X171617205Y-61209744D01*
X171557067Y-61119741D01*
X171688055Y-61032218D01*
X171832218Y-60888055D01*
X171945486Y-60718537D01*
X172023507Y-60530179D01*
X172063281Y-60330220D01*
X172063281Y-60126342D01*
X172023507Y-59926383D01*
X171945486Y-59738025D01*
X171832218Y-59568507D01*
X171688055Y-59424344D01*
X171518537Y-59311076D01*
X171330179Y-59233055D01*
X171130220Y-59193281D01*
X170926342Y-59193281D01*
X170726383Y-59233055D01*
X170538025Y-59311076D01*
X170368507Y-59424344D01*
X170224344Y-59568507D01*
X170111076Y-59738025D01*
X170033055Y-59926383D01*
X169993281Y-60126342D01*
X169993281Y-60330220D01*
X170033055Y-60530179D01*
X170111076Y-60718537D01*
X170171214Y-60808540D01*
X170040226Y-60896063D01*
X169896063Y-61040226D01*
X169782795Y-61209744D01*
X169704774Y-61398102D01*
X169682250Y-61511340D01*
X169509744Y-61582795D01*
X169340226Y-61696063D01*
X169196063Y-61840226D01*
X169082795Y-62009744D01*
X169004774Y-62198102D01*
X168965000Y-62398061D01*
X167195989Y-62398061D01*
X167235000Y-62201939D01*
X167235000Y-61998061D01*
X167195226Y-61798102D01*
X167117205Y-61609744D01*
X167003937Y-61440226D01*
X166859774Y-61296063D01*
X166690256Y-61182795D01*
X166501898Y-61104774D01*
X166301939Y-61065000D01*
X166298711Y-61065000D01*
X166303937Y-61059774D01*
X166417205Y-60890256D01*
X166495226Y-60701898D01*
X166535000Y-60501939D01*
X166535000Y-60298061D01*
X166495226Y-60098102D01*
X166417205Y-59909744D01*
X166303937Y-59740226D01*
X166159774Y-59596063D01*
X165990256Y-59482795D01*
X165801898Y-59404774D01*
X165766065Y-59397646D01*
X165803937Y-59359774D01*
X165917205Y-59190256D01*
X165981515Y-59035000D01*
X166101939Y-59035000D01*
X166301898Y-58995226D01*
X166490256Y-58917205D01*
X166659774Y-58803937D01*
X166803937Y-58659774D01*
X166917205Y-58490256D01*
X166995226Y-58301898D01*
X167035000Y-58101939D01*
X167035000Y-57898061D01*
X166995226Y-57698102D01*
X166917205Y-57509744D01*
X166803937Y-57340226D01*
X166709765Y-57246054D01*
X166727496Y-57228323D01*
X166840764Y-57058805D01*
X166873342Y-56980156D01*
X166979973Y-56958946D01*
X167168331Y-56880925D01*
X167337849Y-56767657D01*
X167482012Y-56623494D01*
X167595280Y-56453976D01*
X167673301Y-56265618D01*
X167713075Y-56065659D01*
X167713075Y-55861781D01*
X167673301Y-55661822D01*
X167595280Y-55473464D01*
X167552875Y-55410000D01*
X230157573Y-55410000D01*
X230187210Y-55710913D01*
X230274983Y-56000261D01*
X230417519Y-56266927D01*
X230609339Y-56500661D01*
X230843073Y-56692481D01*
X231109739Y-56835017D01*
X231399087Y-56922790D01*
X231624592Y-56945000D01*
X233575408Y-56945000D01*
X233800913Y-56922790D01*
X234090261Y-56835017D01*
X234356927Y-56692481D01*
X234590661Y-56500661D01*
X234782481Y-56266927D01*
X234925017Y-56000261D01*
X235012790Y-55710913D01*
X235042427Y-55410000D01*
X235012790Y-55109087D01*
X234925017Y-54819739D01*
X234782481Y-54553073D01*
X234590661Y-54319339D01*
X234356927Y-54127519D01*
X234090261Y-53984983D01*
X233800913Y-53897210D01*
X233575408Y-53875000D01*
X231624592Y-53875000D01*
X231399087Y-53897210D01*
X231109739Y-53984983D01*
X230843073Y-54127519D01*
X230609339Y-54319339D01*
X230417519Y-54553073D01*
X230274983Y-54819739D01*
X230187210Y-55109087D01*
X230157573Y-55410000D01*
X167552875Y-55410000D01*
X167482012Y-55303946D01*
X167337849Y-55159783D01*
X167168331Y-55046515D01*
X166979973Y-54968494D01*
X166780014Y-54928720D01*
X166576136Y-54928720D01*
X166376177Y-54968494D01*
X166187819Y-55046515D01*
X166018301Y-55159783D01*
X165874138Y-55303946D01*
X165760870Y-55473464D01*
X165728292Y-55552113D01*
X165621661Y-55573323D01*
X165433303Y-55651344D01*
X165263785Y-55764612D01*
X165154701Y-55873696D01*
X165117542Y-55866305D01*
X164913664Y-55866305D01*
X164713705Y-55906079D01*
X164612881Y-55947842D01*
X164542444Y-55900778D01*
X164354086Y-55822757D01*
X164154127Y-55782983D01*
X163950249Y-55782983D01*
X163750290Y-55822757D01*
X163561932Y-55900778D01*
X163392414Y-56014046D01*
X163248251Y-56158209D01*
X163169175Y-56276555D01*
X163118685Y-56276555D01*
X162918726Y-56316329D01*
X162730368Y-56394350D01*
X162560850Y-56507618D01*
X162536873Y-56531595D01*
X162591423Y-56399901D01*
X162631197Y-56199942D01*
X162631197Y-55996064D01*
X162591423Y-55796105D01*
X162513402Y-55607747D01*
X162400134Y-55438229D01*
X162255971Y-55294066D01*
X162086453Y-55180798D01*
X161898095Y-55102777D01*
X161698136Y-55063003D01*
X161494258Y-55063003D01*
X161294299Y-55102777D01*
X161105941Y-55180798D01*
X160936423Y-55294066D01*
X160792260Y-55438229D01*
X160678992Y-55607747D01*
X160653322Y-55669720D01*
X160477090Y-55704774D01*
X160288732Y-55782795D01*
X160119214Y-55896063D01*
X159975051Y-56040226D01*
X159861783Y-56209744D01*
X159783762Y-56398102D01*
X159743988Y-56598061D01*
X159318907Y-56598061D01*
X159459774Y-56503937D01*
X159603937Y-56359774D01*
X159717205Y-56190256D01*
X159795226Y-56001898D01*
X159835000Y-55801939D01*
X159835000Y-55598061D01*
X159795226Y-55398102D01*
X159717205Y-55209744D01*
X159603937Y-55040226D01*
X159459774Y-54896063D01*
X159435068Y-54879555D01*
X159490256Y-54856695D01*
X159659774Y-54743427D01*
X159803937Y-54599264D01*
X159917205Y-54429746D01*
X159995226Y-54241388D01*
X160035000Y-54041429D01*
X160035000Y-53837551D01*
X159995226Y-53637592D01*
X159917205Y-53449234D01*
X159803937Y-53279716D01*
X159659774Y-53135553D01*
X159490256Y-53022285D01*
X159301898Y-52944264D01*
X159101939Y-52904490D01*
X158898061Y-52904490D01*
X158868618Y-52910347D01*
X158745453Y-52787182D01*
X158575935Y-52673914D01*
X158387577Y-52595893D01*
X158187618Y-52556119D01*
X157983740Y-52556119D01*
X157783781Y-52595893D01*
X157595423Y-52673914D01*
X157425905Y-52787182D01*
X157281742Y-52931345D01*
X157168474Y-53100863D01*
X157090453Y-53289221D01*
X157050679Y-53489180D01*
X145054776Y-53489180D01*
X145023108Y-53329978D01*
X145016904Y-53315000D01*
X145235752Y-53315000D01*
X145402499Y-53298577D01*
X145616447Y-53233676D01*
X145813623Y-53128284D01*
X145986449Y-52986449D01*
X146128284Y-52813623D01*
X146233676Y-52616447D01*
X146298577Y-52402499D01*
X146320491Y-52180000D01*
X146298577Y-51957501D01*
X146233676Y-51743553D01*
X146128284Y-51546377D01*
X145986449Y-51373551D01*
X145813623Y-51231716D01*
X145616447Y-51126324D01*
X145402499Y-51061423D01*
X145235752Y-51045000D01*
X144024248Y-51045000D01*
X143857501Y-51061423D01*
X143643553Y-51126324D01*
X143446377Y-51231716D01*
X143273551Y-51373551D01*
X143131716Y-51546377D01*
X143026324Y-51743553D01*
X142961423Y-51957501D01*
X142939509Y-52180000D01*
X141890491Y-52180000D01*
X141868577Y-51957501D01*
X141803676Y-51743553D01*
X141698284Y-51546377D01*
X141556449Y-51373551D01*
X141383623Y-51231716D01*
X141186447Y-51126324D01*
X140972499Y-51061423D01*
X140805752Y-51045000D01*
X140094248Y-51045000D01*
X139927501Y-51061423D01*
X139713553Y-51126324D01*
X139516377Y-51231716D01*
X139343551Y-51373551D01*
X139201716Y-51546377D01*
X139160000Y-51624423D01*
X139160000Y-50598061D01*
X149065000Y-50598061D01*
X149065000Y-50801939D01*
X149104774Y-51001898D01*
X149182795Y-51190256D01*
X149296063Y-51359774D01*
X149440226Y-51503937D01*
X149609744Y-51617205D01*
X149798102Y-51695226D01*
X149998061Y-51735000D01*
X150201939Y-51735000D01*
X150401898Y-51695226D01*
X150590256Y-51617205D01*
X150759774Y-51503937D01*
X150903937Y-51359774D01*
X151017205Y-51190256D01*
X151095226Y-51001898D01*
X151135000Y-50801939D01*
X151135000Y-50598061D01*
X153665000Y-50598061D01*
X153665000Y-50801939D01*
X153704774Y-51001898D01*
X153782795Y-51190256D01*
X153896063Y-51359774D01*
X154040226Y-51503937D01*
X154209744Y-51617205D01*
X154398102Y-51695226D01*
X154598061Y-51735000D01*
X154801939Y-51735000D01*
X155001898Y-51695226D01*
X155190256Y-51617205D01*
X155359774Y-51503937D01*
X155503937Y-51359774D01*
X155617205Y-51190256D01*
X155695226Y-51001898D01*
X155735000Y-50801939D01*
X155735000Y-50598061D01*
X155695226Y-50398102D01*
X155674084Y-50347060D01*
X156065000Y-50347060D01*
X156065000Y-50550938D01*
X156104774Y-50750897D01*
X156182795Y-50939255D01*
X156296063Y-51108773D01*
X156440226Y-51252936D01*
X156609744Y-51366204D01*
X156798102Y-51444225D01*
X156998061Y-51483999D01*
X157201939Y-51483999D01*
X157401898Y-51444225D01*
X157590256Y-51366204D01*
X157759774Y-51252936D01*
X157903937Y-51108773D01*
X158017205Y-50939255D01*
X158095226Y-50750897D01*
X158135000Y-50550938D01*
X158135000Y-50347060D01*
X158095226Y-50147101D01*
X158017205Y-49958743D01*
X157903937Y-49789225D01*
X157759774Y-49645062D01*
X157590256Y-49531794D01*
X157401898Y-49453773D01*
X157201939Y-49413999D01*
X156998061Y-49413999D01*
X156798102Y-49453773D01*
X156609744Y-49531794D01*
X156440226Y-49645062D01*
X156296063Y-49789225D01*
X156182795Y-49958743D01*
X156104774Y-50147101D01*
X156065000Y-50347060D01*
X155674084Y-50347060D01*
X155617205Y-50209744D01*
X155503937Y-50040226D01*
X155359774Y-49896063D01*
X155190256Y-49782795D01*
X155001898Y-49704774D01*
X154801939Y-49665000D01*
X154598061Y-49665000D01*
X154398102Y-49704774D01*
X154209744Y-49782795D01*
X154040226Y-49896063D01*
X153896063Y-50040226D01*
X153782795Y-50209744D01*
X153704774Y-50398102D01*
X153665000Y-50598061D01*
X151135000Y-50598061D01*
X151095226Y-50398102D01*
X151017205Y-50209744D01*
X150903937Y-50040226D01*
X150759774Y-49896063D01*
X150590256Y-49782795D01*
X150401898Y-49704774D01*
X150201939Y-49665000D01*
X149998061Y-49665000D01*
X149798102Y-49704774D01*
X149609744Y-49782795D01*
X149440226Y-49896063D01*
X149296063Y-50040226D01*
X149182795Y-50209744D01*
X149104774Y-50398102D01*
X149065000Y-50598061D01*
X139160000Y-50598061D01*
X139160000Y-46898061D01*
X159497719Y-46898061D01*
X159497719Y-47101939D01*
X159537493Y-47301898D01*
X159615514Y-47490256D01*
X159728782Y-47659774D01*
X159872945Y-47803937D01*
X160042463Y-47917205D01*
X160230821Y-47995226D01*
X160430780Y-48035000D01*
X160452118Y-48035000D01*
X160379292Y-48107826D01*
X160266024Y-48277344D01*
X160188003Y-48465702D01*
X160148229Y-48665661D01*
X160148229Y-48869539D01*
X160188003Y-49069498D01*
X160266024Y-49257856D01*
X160379292Y-49427374D01*
X160523455Y-49571537D01*
X160692973Y-49684805D01*
X160881331Y-49762826D01*
X161081290Y-49802600D01*
X161285168Y-49802600D01*
X161471468Y-49765543D01*
X161465000Y-49798061D01*
X161465000Y-50001939D01*
X161504774Y-50201898D01*
X161582795Y-50390256D01*
X161696063Y-50559774D01*
X161840226Y-50703937D01*
X162009744Y-50817205D01*
X162198102Y-50895226D01*
X162398061Y-50935000D01*
X162601939Y-50935000D01*
X162801898Y-50895226D01*
X162990256Y-50817205D01*
X163159774Y-50703937D01*
X163303937Y-50559774D01*
X163417205Y-50390256D01*
X163495226Y-50201898D01*
X163535000Y-50001939D01*
X163535000Y-49798061D01*
X163495226Y-49598102D01*
X163417205Y-49409744D01*
X163303937Y-49240226D01*
X163159774Y-49096063D01*
X162990256Y-48982795D01*
X162801898Y-48904774D01*
X162768150Y-48898061D01*
X164465000Y-48898061D01*
X164465000Y-49101939D01*
X164504774Y-49301898D01*
X164582795Y-49490256D01*
X164696063Y-49659774D01*
X164840226Y-49803937D01*
X165009744Y-49917205D01*
X165198102Y-49995226D01*
X165398061Y-50035000D01*
X165601939Y-50035000D01*
X165801898Y-49995226D01*
X165990256Y-49917205D01*
X166159774Y-49803937D01*
X166303937Y-49659774D01*
X166417205Y-49490256D01*
X166495226Y-49301898D01*
X166535000Y-49101939D01*
X166535000Y-48907911D01*
X167565000Y-48907911D01*
X167565000Y-49092089D01*
X167600932Y-49272729D01*
X167671414Y-49442889D01*
X167773738Y-49596028D01*
X167903972Y-49726262D01*
X168057111Y-49828586D01*
X168108809Y-49850000D01*
X168057111Y-49871414D01*
X167903972Y-49973738D01*
X167773738Y-50103972D01*
X167671414Y-50257111D01*
X167600932Y-50427271D01*
X167565000Y-50607911D01*
X167565000Y-50792089D01*
X167600932Y-50972729D01*
X167671414Y-51142889D01*
X167773738Y-51296028D01*
X167903972Y-51426262D01*
X168057111Y-51528586D01*
X168227271Y-51599068D01*
X168407911Y-51635000D01*
X168592089Y-51635000D01*
X168772729Y-51599068D01*
X168942889Y-51528586D01*
X169096028Y-51426262D01*
X169226262Y-51296028D01*
X169328586Y-51142889D01*
X169399068Y-50972729D01*
X169435000Y-50792089D01*
X169435000Y-50607911D01*
X169399068Y-50427271D01*
X169328586Y-50257111D01*
X169226262Y-50103972D01*
X169096028Y-49973738D01*
X168942889Y-49871414D01*
X168891191Y-49850000D01*
X168942889Y-49828586D01*
X169096028Y-49726262D01*
X169226262Y-49596028D01*
X169328586Y-49442889D01*
X169399068Y-49272729D01*
X169435000Y-49092089D01*
X169435000Y-48907911D01*
X169399068Y-48727271D01*
X169328586Y-48557111D01*
X169226262Y-48403972D01*
X169096028Y-48273738D01*
X168942889Y-48171414D01*
X168772729Y-48100932D01*
X168592089Y-48065000D01*
X168407911Y-48065000D01*
X168227271Y-48100932D01*
X168057111Y-48171414D01*
X167903972Y-48273738D01*
X167773738Y-48403972D01*
X167671414Y-48557111D01*
X167600932Y-48727271D01*
X167565000Y-48907911D01*
X166535000Y-48907911D01*
X166535000Y-48898061D01*
X166495226Y-48698102D01*
X166417205Y-48509744D01*
X166303937Y-48340226D01*
X166159774Y-48196063D01*
X165990256Y-48082795D01*
X165801898Y-48004774D01*
X165601939Y-47965000D01*
X165398061Y-47965000D01*
X165198102Y-48004774D01*
X165009744Y-48082795D01*
X164840226Y-48196063D01*
X164696063Y-48340226D01*
X164582795Y-48509744D01*
X164504774Y-48698102D01*
X164465000Y-48898061D01*
X162768150Y-48898061D01*
X162601939Y-48865000D01*
X162398061Y-48865000D01*
X162211761Y-48902057D01*
X162218229Y-48869539D01*
X162218229Y-48665661D01*
X162178455Y-48465702D01*
X162100434Y-48277344D01*
X161987166Y-48107826D01*
X161843003Y-47963663D01*
X161673485Y-47850395D01*
X161485127Y-47772374D01*
X161285168Y-47732600D01*
X161263830Y-47732600D01*
X161336656Y-47659774D01*
X161449924Y-47490256D01*
X161527945Y-47301898D01*
X161567719Y-47101939D01*
X161567719Y-46898061D01*
X161527945Y-46698102D01*
X161493067Y-46613900D01*
X161502996Y-46607266D01*
X161647159Y-46463103D01*
X161760427Y-46293585D01*
X161838448Y-46105227D01*
X161878222Y-45905268D01*
X161878222Y-45701390D01*
X161838448Y-45501431D01*
X161795631Y-45398061D01*
X163665000Y-45398061D01*
X163665000Y-45601939D01*
X163704774Y-45801898D01*
X163782795Y-45990256D01*
X163896063Y-46159774D01*
X164040226Y-46303937D01*
X164096177Y-46341322D01*
X164065000Y-46498061D01*
X164065000Y-46701939D01*
X164104774Y-46901898D01*
X164182795Y-47090256D01*
X164296063Y-47259774D01*
X164440226Y-47403937D01*
X164609744Y-47517205D01*
X164798102Y-47595226D01*
X164998061Y-47635000D01*
X165201939Y-47635000D01*
X165401898Y-47595226D01*
X165590256Y-47517205D01*
X165759774Y-47403937D01*
X165903937Y-47259774D01*
X166017205Y-47090256D01*
X166095226Y-46901898D01*
X166135000Y-46701939D01*
X166135000Y-46498061D01*
X166095226Y-46298102D01*
X166017205Y-46109744D01*
X165903937Y-45940226D01*
X165759774Y-45796063D01*
X165703823Y-45758678D01*
X165735000Y-45601939D01*
X165735000Y-45398061D01*
X165695226Y-45198102D01*
X165686834Y-45177840D01*
X165915661Y-45177840D01*
X165915661Y-45381718D01*
X165955435Y-45581677D01*
X166033456Y-45770035D01*
X166146724Y-45939553D01*
X166290887Y-46083716D01*
X166449639Y-46189790D01*
X166404774Y-46298102D01*
X166365000Y-46498061D01*
X166365000Y-46701939D01*
X166404774Y-46901898D01*
X166482795Y-47090256D01*
X166596063Y-47259774D01*
X166740226Y-47403937D01*
X166909744Y-47517205D01*
X167098102Y-47595226D01*
X167298061Y-47635000D01*
X167501939Y-47635000D01*
X167701898Y-47595226D01*
X167890256Y-47517205D01*
X168059774Y-47403937D01*
X168203937Y-47259774D01*
X168317205Y-47090256D01*
X168395226Y-46901898D01*
X168435000Y-46701939D01*
X168435000Y-46498061D01*
X168395226Y-46298102D01*
X168317205Y-46109744D01*
X168203937Y-45940226D01*
X168059774Y-45796063D01*
X167901022Y-45689989D01*
X167945887Y-45581677D01*
X167972566Y-45447551D01*
X168176276Y-45447551D01*
X168176276Y-45651429D01*
X168216050Y-45851388D01*
X168294071Y-46039746D01*
X168407339Y-46209264D01*
X168551502Y-46353427D01*
X168599151Y-46385265D01*
X168582795Y-46409744D01*
X168504774Y-46598102D01*
X168465000Y-46798061D01*
X168465000Y-47001939D01*
X168504774Y-47201898D01*
X168582795Y-47390256D01*
X168696063Y-47559774D01*
X168840226Y-47703937D01*
X169009744Y-47817205D01*
X169198102Y-47895226D01*
X169398061Y-47935000D01*
X169501313Y-47935000D01*
X169504774Y-47952398D01*
X169582795Y-48140756D01*
X169696063Y-48310274D01*
X169768006Y-48382217D01*
X169682795Y-48509744D01*
X169604774Y-48698102D01*
X169565000Y-48898061D01*
X169565000Y-49101939D01*
X169604774Y-49301898D01*
X169682795Y-49490256D01*
X169796063Y-49659774D01*
X169940226Y-49803937D01*
X170109744Y-49917205D01*
X170251987Y-49976124D01*
X170127271Y-50000932D01*
X169957111Y-50071414D01*
X169803972Y-50173738D01*
X169673738Y-50303972D01*
X169571414Y-50457111D01*
X169500932Y-50627271D01*
X169465000Y-50807911D01*
X169465000Y-50992089D01*
X169500932Y-51172729D01*
X169571414Y-51342889D01*
X169673738Y-51496028D01*
X169803972Y-51626262D01*
X169874331Y-51673275D01*
X169840226Y-51696063D01*
X169696063Y-51840226D01*
X169582795Y-52009744D01*
X169504774Y-52198102D01*
X169465000Y-52398061D01*
X169465000Y-52601939D01*
X169504774Y-52801898D01*
X169582795Y-52990256D01*
X169696063Y-53159774D01*
X169840226Y-53303937D01*
X170009744Y-53417205D01*
X170198102Y-53495226D01*
X170398061Y-53535000D01*
X170601939Y-53535000D01*
X170801898Y-53495226D01*
X170990256Y-53417205D01*
X171159774Y-53303937D01*
X171303937Y-53159774D01*
X171417205Y-52990256D01*
X171495226Y-52801898D01*
X171535000Y-52601939D01*
X171535000Y-52500000D01*
X230161928Y-52500000D01*
X230174188Y-52624482D01*
X230210498Y-52744180D01*
X230269463Y-52854494D01*
X230348815Y-52951185D01*
X230445506Y-53030537D01*
X230555820Y-53089502D01*
X230675518Y-53125812D01*
X230800000Y-53138072D01*
X232314250Y-53135000D01*
X232473000Y-52976250D01*
X232473000Y-51727000D01*
X232727000Y-51727000D01*
X232727000Y-52976250D01*
X232885750Y-53135000D01*
X234400000Y-53138072D01*
X234524482Y-53125812D01*
X234644180Y-53089502D01*
X234754494Y-53030537D01*
X234851185Y-52951185D01*
X234930537Y-52854494D01*
X234989502Y-52744180D01*
X235025812Y-52624482D01*
X235038072Y-52500000D01*
X235035000Y-51885750D01*
X234876250Y-51727000D01*
X232727000Y-51727000D01*
X232473000Y-51727000D01*
X230323750Y-51727000D01*
X230165000Y-51885750D01*
X230161928Y-52500000D01*
X171535000Y-52500000D01*
X171535000Y-52398061D01*
X171495226Y-52198102D01*
X171417205Y-52009744D01*
X171303937Y-51840226D01*
X171159774Y-51696063D01*
X171019773Y-51602517D01*
X171126262Y-51496028D01*
X171228586Y-51342889D01*
X171299068Y-51172729D01*
X171335000Y-50992089D01*
X171335000Y-50807911D01*
X171313535Y-50700000D01*
X230161928Y-50700000D01*
X230165000Y-51314250D01*
X230323750Y-51473000D01*
X232473000Y-51473000D01*
X232473000Y-50223750D01*
X232727000Y-50223750D01*
X232727000Y-51473000D01*
X234876250Y-51473000D01*
X235035000Y-51314250D01*
X235038072Y-50700000D01*
X235025812Y-50575518D01*
X234989502Y-50455820D01*
X234930537Y-50345506D01*
X234851185Y-50248815D01*
X234754494Y-50169463D01*
X234644180Y-50110498D01*
X234524482Y-50074188D01*
X234400000Y-50061928D01*
X232885750Y-50065000D01*
X232727000Y-50223750D01*
X232473000Y-50223750D01*
X232314250Y-50065000D01*
X230800000Y-50061928D01*
X230675518Y-50074188D01*
X230555820Y-50110498D01*
X230445506Y-50169463D01*
X230348815Y-50248815D01*
X230269463Y-50345506D01*
X230210498Y-50455820D01*
X230174188Y-50575518D01*
X230161928Y-50700000D01*
X171313535Y-50700000D01*
X171299068Y-50627271D01*
X171228586Y-50457111D01*
X171126262Y-50303972D01*
X170996028Y-50173738D01*
X170842889Y-50071414D01*
X170737770Y-50027873D01*
X170901898Y-49995226D01*
X171090256Y-49917205D01*
X171259774Y-49803937D01*
X171403937Y-49659774D01*
X171517205Y-49490256D01*
X171595226Y-49301898D01*
X171635000Y-49101939D01*
X171635000Y-48898061D01*
X171595226Y-48698102D01*
X171517205Y-48509744D01*
X171403937Y-48340226D01*
X171331994Y-48268283D01*
X171417205Y-48140756D01*
X171495226Y-47952398D01*
X171535000Y-47752439D01*
X171535000Y-47548561D01*
X171495226Y-47348602D01*
X171417205Y-47160244D01*
X171303937Y-46990726D01*
X171159774Y-46846563D01*
X170990256Y-46733295D01*
X170801898Y-46655274D01*
X170601939Y-46615500D01*
X170498687Y-46615500D01*
X170495226Y-46598102D01*
X170417205Y-46409744D01*
X170303937Y-46240226D01*
X170159774Y-46096063D01*
X170112125Y-46064225D01*
X170128481Y-46039746D01*
X170206502Y-45851388D01*
X170246276Y-45651429D01*
X170246276Y-45447551D01*
X171265000Y-45447551D01*
X171265000Y-45651429D01*
X171304774Y-45851388D01*
X171382795Y-46039746D01*
X171496063Y-46209264D01*
X171640226Y-46353427D01*
X171809744Y-46466695D01*
X171998102Y-46544716D01*
X172198061Y-46584490D01*
X172401939Y-46584490D01*
X172601898Y-46544716D01*
X172790256Y-46466695D01*
X172959774Y-46353427D01*
X173103937Y-46209264D01*
X173217205Y-46039746D01*
X173295226Y-45851388D01*
X173335000Y-45651429D01*
X173335000Y-45447551D01*
X173295226Y-45247592D01*
X173259880Y-45162259D01*
X176401699Y-45162259D01*
X176401699Y-45366137D01*
X176441473Y-45566096D01*
X176519494Y-45754454D01*
X176632762Y-45923972D01*
X176697110Y-45988320D01*
X176682795Y-46009744D01*
X176604774Y-46198102D01*
X176565000Y-46398061D01*
X176565000Y-46601939D01*
X176604774Y-46801898D01*
X176682795Y-46990256D01*
X176796063Y-47159774D01*
X176940226Y-47303937D01*
X176996177Y-47341322D01*
X176965000Y-47498061D01*
X176965000Y-47701939D01*
X177004774Y-47901898D01*
X177082795Y-48090256D01*
X177196063Y-48259774D01*
X177251331Y-48315042D01*
X177214490Y-48500255D01*
X177214490Y-48704133D01*
X177254264Y-48904092D01*
X177332285Y-49092450D01*
X177445553Y-49261968D01*
X177589716Y-49406131D01*
X177759234Y-49519399D01*
X177947592Y-49597420D01*
X178147551Y-49637194D01*
X178351429Y-49637194D01*
X178551388Y-49597420D01*
X178739746Y-49519399D01*
X178909264Y-49406131D01*
X179053427Y-49261968D01*
X179166695Y-49092450D01*
X179244716Y-48904092D01*
X179284490Y-48704133D01*
X179284490Y-48500255D01*
X179284054Y-48498061D01*
X187265000Y-48498061D01*
X187265000Y-48701939D01*
X187304774Y-48901898D01*
X187382795Y-49090256D01*
X187496063Y-49259774D01*
X187640226Y-49403937D01*
X187809744Y-49517205D01*
X187998102Y-49595226D01*
X188198061Y-49635000D01*
X188401939Y-49635000D01*
X188601898Y-49595226D01*
X188790256Y-49517205D01*
X188959774Y-49403937D01*
X189103937Y-49259774D01*
X189217205Y-49090256D01*
X189295226Y-48901898D01*
X189335000Y-48701939D01*
X189335000Y-48498061D01*
X189295226Y-48298102D01*
X189217205Y-48109744D01*
X189103937Y-47940226D01*
X188959774Y-47796063D01*
X188790256Y-47682795D01*
X188601898Y-47604774D01*
X188401939Y-47565000D01*
X188198061Y-47565000D01*
X187998102Y-47604774D01*
X187809744Y-47682795D01*
X187640226Y-47796063D01*
X187496063Y-47940226D01*
X187382795Y-48109744D01*
X187304774Y-48298102D01*
X187265000Y-48498061D01*
X179284054Y-48498061D01*
X179244716Y-48300296D01*
X179166695Y-48111938D01*
X179053427Y-47942420D01*
X178998159Y-47887152D01*
X179035000Y-47701939D01*
X179035000Y-47498061D01*
X178995226Y-47298102D01*
X178917205Y-47109744D01*
X178803937Y-46940226D01*
X178659774Y-46796063D01*
X178603823Y-46758678D01*
X178635000Y-46601939D01*
X178635000Y-46398061D01*
X178595226Y-46198102D01*
X178517205Y-46009744D01*
X178403937Y-45840226D01*
X178339589Y-45775878D01*
X178353904Y-45754454D01*
X178418684Y-45598061D01*
X187265000Y-45598061D01*
X187265000Y-45801939D01*
X187304774Y-46001898D01*
X187382795Y-46190256D01*
X187496063Y-46359774D01*
X187640226Y-46503937D01*
X187809744Y-46617205D01*
X187998102Y-46695226D01*
X188198061Y-46735000D01*
X188401939Y-46735000D01*
X188601898Y-46695226D01*
X188790256Y-46617205D01*
X188959774Y-46503937D01*
X189103937Y-46359774D01*
X189217205Y-46190256D01*
X189295226Y-46001898D01*
X189335000Y-45801939D01*
X189335000Y-45598061D01*
X189295226Y-45398102D01*
X189217205Y-45209744D01*
X189103937Y-45040226D01*
X188959774Y-44896063D01*
X188790256Y-44782795D01*
X188601898Y-44704774D01*
X188401939Y-44665000D01*
X188198061Y-44665000D01*
X187998102Y-44704774D01*
X187809744Y-44782795D01*
X187640226Y-44896063D01*
X187496063Y-45040226D01*
X187382795Y-45209744D01*
X187304774Y-45398102D01*
X187265000Y-45598061D01*
X178418684Y-45598061D01*
X178431925Y-45566096D01*
X178471699Y-45366137D01*
X178471699Y-45162259D01*
X178431925Y-44962300D01*
X178353904Y-44773942D01*
X178240636Y-44604424D01*
X178096473Y-44460261D01*
X177926955Y-44346993D01*
X177738597Y-44268972D01*
X177538638Y-44229198D01*
X177334760Y-44229198D01*
X177134801Y-44268972D01*
X176946443Y-44346993D01*
X176776925Y-44460261D01*
X176632762Y-44604424D01*
X176519494Y-44773942D01*
X176441473Y-44962300D01*
X176401699Y-45162259D01*
X173259880Y-45162259D01*
X173217205Y-45059234D01*
X173103937Y-44889716D01*
X172959774Y-44745553D01*
X172790256Y-44632285D01*
X172601898Y-44554264D01*
X172401939Y-44514490D01*
X172198061Y-44514490D01*
X171998102Y-44554264D01*
X171809744Y-44632285D01*
X171640226Y-44745553D01*
X171496063Y-44889716D01*
X171382795Y-45059234D01*
X171304774Y-45247592D01*
X171265000Y-45447551D01*
X170246276Y-45447551D01*
X170206502Y-45247592D01*
X170128481Y-45059234D01*
X170028632Y-44909799D01*
X170101898Y-44895226D01*
X170290256Y-44817205D01*
X170459774Y-44703937D01*
X170603937Y-44559774D01*
X170717205Y-44390256D01*
X170795226Y-44201898D01*
X170835000Y-44001939D01*
X170835000Y-43798061D01*
X170795226Y-43598102D01*
X170753788Y-43498061D01*
X172065000Y-43498061D01*
X172065000Y-43701939D01*
X172104774Y-43901898D01*
X172182795Y-44090256D01*
X172296063Y-44259774D01*
X172440226Y-44403937D01*
X172609744Y-44517205D01*
X172798102Y-44595226D01*
X172998061Y-44635000D01*
X173201939Y-44635000D01*
X173401898Y-44595226D01*
X173590256Y-44517205D01*
X173759774Y-44403937D01*
X173903937Y-44259774D01*
X174017205Y-44090256D01*
X174095226Y-43901898D01*
X174135000Y-43701939D01*
X174135000Y-43498061D01*
X174095226Y-43298102D01*
X174017205Y-43109744D01*
X173903937Y-42940226D01*
X173861772Y-42898061D01*
X187165000Y-42898061D01*
X187165000Y-43101939D01*
X187204774Y-43301898D01*
X187282795Y-43490256D01*
X187396063Y-43659774D01*
X187540226Y-43803937D01*
X187709744Y-43917205D01*
X187898102Y-43995226D01*
X188098061Y-44035000D01*
X188301939Y-44035000D01*
X188501898Y-43995226D01*
X188690256Y-43917205D01*
X188859774Y-43803937D01*
X188865650Y-43798061D01*
X224065000Y-43798061D01*
X224065000Y-44001939D01*
X224104774Y-44201898D01*
X224182795Y-44390256D01*
X224296063Y-44559774D01*
X224440226Y-44703937D01*
X224609744Y-44817205D01*
X224798102Y-44895226D01*
X224998061Y-44935000D01*
X225201939Y-44935000D01*
X225401898Y-44895226D01*
X225590256Y-44817205D01*
X225759774Y-44703937D01*
X225903937Y-44559774D01*
X226017205Y-44390256D01*
X226095226Y-44201898D01*
X226135000Y-44001939D01*
X226135000Y-43798061D01*
X226095226Y-43598102D01*
X226017205Y-43409744D01*
X225903937Y-43240226D01*
X225759774Y-43096063D01*
X225590256Y-42982795D01*
X225401898Y-42904774D01*
X225201939Y-42865000D01*
X224998061Y-42865000D01*
X224798102Y-42904774D01*
X224609744Y-42982795D01*
X224440226Y-43096063D01*
X224296063Y-43240226D01*
X224182795Y-43409744D01*
X224104774Y-43598102D01*
X224065000Y-43798061D01*
X188865650Y-43798061D01*
X189003937Y-43659774D01*
X189117205Y-43490256D01*
X189195226Y-43301898D01*
X189235000Y-43101939D01*
X189235000Y-42898061D01*
X189195226Y-42698102D01*
X189117205Y-42509744D01*
X189003937Y-42340226D01*
X188859774Y-42196063D01*
X188690256Y-42082795D01*
X188501898Y-42004774D01*
X188301939Y-41965000D01*
X188098061Y-41965000D01*
X187898102Y-42004774D01*
X187709744Y-42082795D01*
X187540226Y-42196063D01*
X187396063Y-42340226D01*
X187282795Y-42509744D01*
X187204774Y-42698102D01*
X187165000Y-42898061D01*
X173861772Y-42898061D01*
X173759774Y-42796063D01*
X173590256Y-42682795D01*
X173401898Y-42604774D01*
X173201939Y-42565000D01*
X172998061Y-42565000D01*
X172798102Y-42604774D01*
X172609744Y-42682795D01*
X172440226Y-42796063D01*
X172296063Y-42940226D01*
X172182795Y-43109744D01*
X172104774Y-43298102D01*
X172065000Y-43498061D01*
X170753788Y-43498061D01*
X170717205Y-43409744D01*
X170603937Y-43240226D01*
X170459774Y-43096063D01*
X170340680Y-43016487D01*
X170360393Y-43003316D01*
X170504556Y-42859153D01*
X170617824Y-42689635D01*
X170695845Y-42501277D01*
X170735619Y-42301318D01*
X170735619Y-42097440D01*
X170695961Y-41898061D01*
X192215000Y-41898061D01*
X192215000Y-42101939D01*
X192254774Y-42301898D01*
X192332795Y-42490256D01*
X192446063Y-42659774D01*
X192590226Y-42803937D01*
X192759744Y-42917205D01*
X192948102Y-42995226D01*
X193148061Y-43035000D01*
X193351939Y-43035000D01*
X193551898Y-42995226D01*
X193740256Y-42917205D01*
X193909774Y-42803937D01*
X194053937Y-42659774D01*
X194167205Y-42490256D01*
X194245226Y-42301898D01*
X194250000Y-42277897D01*
X194254774Y-42301898D01*
X194332795Y-42490256D01*
X194446063Y-42659774D01*
X194590226Y-42803937D01*
X194759744Y-42917205D01*
X194948102Y-42995226D01*
X195148061Y-43035000D01*
X195351939Y-43035000D01*
X195551898Y-42995226D01*
X195740256Y-42917205D01*
X195909774Y-42803937D01*
X196053937Y-42659774D01*
X196167205Y-42490256D01*
X196245226Y-42301898D01*
X196285000Y-42101939D01*
X196285000Y-41898061D01*
X196245226Y-41698102D01*
X196167205Y-41509744D01*
X196053937Y-41340226D01*
X195909774Y-41196063D01*
X195740256Y-41082795D01*
X195551898Y-41004774D01*
X195351939Y-40965000D01*
X195148061Y-40965000D01*
X194948102Y-41004774D01*
X194759744Y-41082795D01*
X194590226Y-41196063D01*
X194446063Y-41340226D01*
X194332795Y-41509744D01*
X194254774Y-41698102D01*
X194250000Y-41722103D01*
X194245226Y-41698102D01*
X194167205Y-41509744D01*
X194053937Y-41340226D01*
X193909774Y-41196063D01*
X193740256Y-41082795D01*
X193551898Y-41004774D01*
X193351939Y-40965000D01*
X193148061Y-40965000D01*
X192948102Y-41004774D01*
X192759744Y-41082795D01*
X192590226Y-41196063D01*
X192446063Y-41340226D01*
X192332795Y-41509744D01*
X192254774Y-41698102D01*
X192215000Y-41898061D01*
X170695961Y-41898061D01*
X170695845Y-41897481D01*
X170617824Y-41709123D01*
X170504556Y-41539605D01*
X170360393Y-41395442D01*
X170190875Y-41282174D01*
X170002517Y-41204153D01*
X169802558Y-41164379D01*
X169598680Y-41164379D01*
X169398721Y-41204153D01*
X169210363Y-41282174D01*
X169040845Y-41395442D01*
X168896682Y-41539605D01*
X168783414Y-41709123D01*
X168705393Y-41897481D01*
X168665619Y-42097440D01*
X168665619Y-42301318D01*
X168705393Y-42501277D01*
X168783414Y-42689635D01*
X168896682Y-42859153D01*
X169040845Y-43003316D01*
X169159939Y-43082892D01*
X169140226Y-43096063D01*
X168996063Y-43240226D01*
X168882795Y-43409744D01*
X168804774Y-43598102D01*
X168765000Y-43798061D01*
X168765000Y-44001939D01*
X168804774Y-44201898D01*
X168882795Y-44390256D01*
X168982644Y-44539691D01*
X168909378Y-44554264D01*
X168721020Y-44632285D01*
X168551502Y-44745553D01*
X168407339Y-44889716D01*
X168294071Y-45059234D01*
X168216050Y-45247592D01*
X168176276Y-45447551D01*
X167972566Y-45447551D01*
X167985661Y-45381718D01*
X167985661Y-45177840D01*
X167945887Y-44977881D01*
X167867866Y-44789523D01*
X167754598Y-44620005D01*
X167610435Y-44475842D01*
X167440917Y-44362574D01*
X167252559Y-44284553D01*
X167052600Y-44244779D01*
X166848722Y-44244779D01*
X166648763Y-44284553D01*
X166460405Y-44362574D01*
X166290887Y-44475842D01*
X166146724Y-44620005D01*
X166033456Y-44789523D01*
X165955435Y-44977881D01*
X165915661Y-45177840D01*
X165686834Y-45177840D01*
X165617205Y-45009744D01*
X165503937Y-44840226D01*
X165359774Y-44696063D01*
X165190256Y-44582795D01*
X165001898Y-44504774D01*
X164801939Y-44465000D01*
X164598061Y-44465000D01*
X164398102Y-44504774D01*
X164209744Y-44582795D01*
X164040226Y-44696063D01*
X163896063Y-44840226D01*
X163782795Y-45009744D01*
X163704774Y-45198102D01*
X163665000Y-45398061D01*
X161795631Y-45398061D01*
X161760427Y-45313073D01*
X161647159Y-45143555D01*
X161502996Y-44999392D01*
X161333478Y-44886124D01*
X161145120Y-44808103D01*
X160945161Y-44768329D01*
X160741283Y-44768329D01*
X160541324Y-44808103D01*
X160352966Y-44886124D01*
X160183448Y-44999392D01*
X160039285Y-45143555D01*
X159926017Y-45313073D01*
X159847996Y-45501431D01*
X159808222Y-45701390D01*
X159808222Y-45905268D01*
X159847996Y-46105227D01*
X159882874Y-46189429D01*
X159872945Y-46196063D01*
X159728782Y-46340226D01*
X159615514Y-46509744D01*
X159537493Y-46698102D01*
X159497719Y-46898061D01*
X139160000Y-46898061D01*
X139160000Y-43698061D01*
X160965000Y-43698061D01*
X160965000Y-43901939D01*
X161004774Y-44101898D01*
X161082795Y-44290256D01*
X161196063Y-44459774D01*
X161340226Y-44603937D01*
X161509744Y-44717205D01*
X161698102Y-44795226D01*
X161898061Y-44835000D01*
X162101939Y-44835000D01*
X162301898Y-44795226D01*
X162490256Y-44717205D01*
X162659774Y-44603937D01*
X162803937Y-44459774D01*
X162917205Y-44290256D01*
X162988660Y-44117750D01*
X163101898Y-44095226D01*
X163290256Y-44017205D01*
X163459774Y-43903937D01*
X163603937Y-43759774D01*
X163717205Y-43590256D01*
X163795226Y-43401898D01*
X163835000Y-43201939D01*
X163835000Y-42998061D01*
X163795226Y-42798102D01*
X163717205Y-42609744D01*
X163642582Y-42498061D01*
X166565000Y-42498061D01*
X166565000Y-42701939D01*
X166604774Y-42901898D01*
X166682795Y-43090256D01*
X166796063Y-43259774D01*
X166940226Y-43403937D01*
X167109744Y-43517205D01*
X167298102Y-43595226D01*
X167498061Y-43635000D01*
X167701939Y-43635000D01*
X167901898Y-43595226D01*
X168090256Y-43517205D01*
X168259774Y-43403937D01*
X168403937Y-43259774D01*
X168517205Y-43090256D01*
X168595226Y-42901898D01*
X168635000Y-42701939D01*
X168635000Y-42498061D01*
X168595226Y-42298102D01*
X168517205Y-42109744D01*
X168403937Y-41940226D01*
X168259774Y-41796063D01*
X168090256Y-41682795D01*
X167901898Y-41604774D01*
X167701939Y-41565000D01*
X167498061Y-41565000D01*
X167298102Y-41604774D01*
X167109744Y-41682795D01*
X166940226Y-41796063D01*
X166796063Y-41940226D01*
X166682795Y-42109744D01*
X166604774Y-42298102D01*
X166565000Y-42498061D01*
X163642582Y-42498061D01*
X163603937Y-42440226D01*
X163459774Y-42296063D01*
X163290256Y-42182795D01*
X163101898Y-42104774D01*
X162901939Y-42065000D01*
X162698061Y-42065000D01*
X162498102Y-42104774D01*
X162309744Y-42182795D01*
X162140226Y-42296063D01*
X161996063Y-42440226D01*
X161882795Y-42609744D01*
X161811340Y-42782250D01*
X161698102Y-42804774D01*
X161509744Y-42882795D01*
X161340226Y-42996063D01*
X161196063Y-43140226D01*
X161082795Y-43309744D01*
X161004774Y-43498102D01*
X160965000Y-43698061D01*
X139160000Y-43698061D01*
X139160000Y-41398061D01*
X158714999Y-41398061D01*
X158714999Y-41601939D01*
X158754773Y-41801898D01*
X158832794Y-41990256D01*
X158946062Y-42159774D01*
X159090225Y-42303937D01*
X159259743Y-42417205D01*
X159448101Y-42495226D01*
X159648060Y-42535000D01*
X159851938Y-42535000D01*
X160051897Y-42495226D01*
X160240255Y-42417205D01*
X160409773Y-42303937D01*
X160553936Y-42159774D01*
X160667204Y-41990256D01*
X160745225Y-41801898D01*
X160784999Y-41601939D01*
X160784999Y-41398061D01*
X160745225Y-41198102D01*
X160667204Y-41009744D01*
X160553936Y-40840226D01*
X160409773Y-40696063D01*
X160240255Y-40582795D01*
X160051897Y-40504774D01*
X159851938Y-40465000D01*
X159648060Y-40465000D01*
X159448101Y-40504774D01*
X159259743Y-40582795D01*
X159090225Y-40696063D01*
X158946062Y-40840226D01*
X158832794Y-41009744D01*
X158754773Y-41198102D01*
X158714999Y-41398061D01*
X139160000Y-41398061D01*
X139160000Y-40032279D01*
X139198147Y-39643225D01*
X139301763Y-39300033D01*
X139470062Y-38983511D01*
X139696637Y-38705701D01*
X139972856Y-38477194D01*
X140288197Y-38306690D01*
X140630656Y-38200681D01*
X141017712Y-38160000D01*
X141882850Y-38160000D01*
X141782795Y-38309744D01*
G37*
%TD.AperFunction*%
%TD*%
M02*
