%TF.GenerationSoftware,KiCad,Pcbnew,(5.1.10-1-10_14)*%
%TF.CreationDate,2021-07-19T22:49:48+10:00*%
%TF.ProjectId,samd21_gps_tracker,73616d64-3231-45f6-9770-735f74726163,rev?*%
%TF.SameCoordinates,Original*%
%TF.FileFunction,Paste,Top*%
%TF.FilePolarity,Positive*%
%FSLAX46Y46*%
G04 Gerber Fmt 4.6, Leading zero omitted, Abs format (unit mm)*
G04 Created by KiCad (PCBNEW (5.1.10-1-10_14)) date 2021-07-19 22:49:48*
%MOMM*%
%LPD*%
G01*
G04 APERTURE LIST*
%ADD10C,0.010000*%
%ADD11R,2.610000X1.560000*%
%ADD12R,1.350000X0.900000*%
%ADD13R,1.340000X0.900000*%
%ADD14R,1.050000X1.100000*%
%ADD15R,1.100000X2.250000*%
%ADD16O,1.800000X0.550000*%
%ADD17O,0.550000X1.800000*%
G04 APERTURE END LIST*
D10*
%TO.C,U4*%
G36*
X187350000Y-52700000D02*
G01*
X186650000Y-52700000D01*
X186650000Y-50525000D01*
X187350000Y-50525000D01*
X187350000Y-52700000D01*
G37*
X187350000Y-52700000D02*
X186650000Y-52700000D01*
X186650000Y-50525000D01*
X187350000Y-50525000D01*
X187350000Y-52700000D01*
G36*
X186350000Y-52700000D02*
G01*
X185650000Y-52700000D01*
X185650000Y-50525000D01*
X186350000Y-50525000D01*
X186350000Y-52700000D01*
G37*
X186350000Y-52700000D02*
X185650000Y-52700000D01*
X185650000Y-50525000D01*
X186350000Y-50525000D01*
X186350000Y-52700000D01*
G36*
X185350000Y-52700000D02*
G01*
X184650000Y-52700000D01*
X184650000Y-50525000D01*
X185350000Y-50525000D01*
X185350000Y-52700000D01*
G37*
X185350000Y-52700000D02*
X184650000Y-52700000D01*
X184650000Y-50525000D01*
X185350000Y-50525000D01*
X185350000Y-52700000D01*
G36*
X184350000Y-52700000D02*
G01*
X183650000Y-52700000D01*
X183650000Y-50525000D01*
X184350000Y-50525000D01*
X184350000Y-52700000D01*
G37*
X184350000Y-52700000D02*
X183650000Y-52700000D01*
X183650000Y-50525000D01*
X184350000Y-50525000D01*
X184350000Y-52700000D01*
G36*
X183350000Y-52700000D02*
G01*
X182650000Y-52700000D01*
X182650000Y-50525000D01*
X183350000Y-50525000D01*
X183350000Y-52700000D01*
G37*
X183350000Y-52700000D02*
X182650000Y-52700000D01*
X182650000Y-50525000D01*
X183350000Y-50525000D01*
X183350000Y-52700000D01*
G36*
X181175000Y-38900000D02*
G01*
X179000000Y-38900000D01*
X179000000Y-38200000D01*
X181175000Y-38200000D01*
X181175000Y-38900000D01*
G37*
X181175000Y-38900000D02*
X179000000Y-38900000D01*
X179000000Y-38200000D01*
X181175000Y-38200000D01*
X181175000Y-38900000D01*
G36*
X191000000Y-38900000D02*
G01*
X188825000Y-38900000D01*
X188825000Y-38200000D01*
X191000000Y-38200000D01*
X191000000Y-38900000D01*
G37*
X191000000Y-38900000D02*
X188825000Y-38900000D01*
X188825000Y-38200000D01*
X191000000Y-38200000D01*
X191000000Y-38900000D01*
G36*
X181175000Y-40050000D02*
G01*
X179000000Y-40050000D01*
X179000000Y-39350000D01*
X181175000Y-39350000D01*
X181175000Y-40050000D01*
G37*
X181175000Y-40050000D02*
X179000000Y-40050000D01*
X179000000Y-39350000D01*
X181175000Y-39350000D01*
X181175000Y-40050000D01*
G36*
X181175000Y-41050000D02*
G01*
X179000000Y-41050000D01*
X179000000Y-40350000D01*
X181175000Y-40350000D01*
X181175000Y-41050000D01*
G37*
X181175000Y-41050000D02*
X179000000Y-41050000D01*
X179000000Y-40350000D01*
X181175000Y-40350000D01*
X181175000Y-41050000D01*
G36*
X181175000Y-42050000D02*
G01*
X179000000Y-42050000D01*
X179000000Y-41350000D01*
X181175000Y-41350000D01*
X181175000Y-42050000D01*
G37*
X181175000Y-42050000D02*
X179000000Y-42050000D01*
X179000000Y-41350000D01*
X181175000Y-41350000D01*
X181175000Y-42050000D01*
G36*
X181175000Y-43050000D02*
G01*
X179000000Y-43050000D01*
X179000000Y-42350000D01*
X181175000Y-42350000D01*
X181175000Y-43050000D01*
G37*
X181175000Y-43050000D02*
X179000000Y-43050000D01*
X179000000Y-42350000D01*
X181175000Y-42350000D01*
X181175000Y-43050000D01*
G36*
X181175000Y-44050000D02*
G01*
X179000000Y-44050000D01*
X179000000Y-43350000D01*
X181175000Y-43350000D01*
X181175000Y-44050000D01*
G37*
X181175000Y-44050000D02*
X179000000Y-44050000D01*
X179000000Y-43350000D01*
X181175000Y-43350000D01*
X181175000Y-44050000D01*
G36*
X181175000Y-51050000D02*
G01*
X179000000Y-51050000D01*
X179000000Y-50350000D01*
X181175000Y-50350000D01*
X181175000Y-51050000D01*
G37*
X181175000Y-51050000D02*
X179000000Y-51050000D01*
X179000000Y-50350000D01*
X181175000Y-50350000D01*
X181175000Y-51050000D01*
G36*
X181175000Y-50050000D02*
G01*
X179000000Y-50050000D01*
X179000000Y-49350000D01*
X181175000Y-49350000D01*
X181175000Y-50050000D01*
G37*
X181175000Y-50050000D02*
X179000000Y-50050000D01*
X179000000Y-49350000D01*
X181175000Y-49350000D01*
X181175000Y-50050000D01*
G36*
X181175000Y-49050000D02*
G01*
X179000000Y-49050000D01*
X179000000Y-48350000D01*
X181175000Y-48350000D01*
X181175000Y-49050000D01*
G37*
X181175000Y-49050000D02*
X179000000Y-49050000D01*
X179000000Y-48350000D01*
X181175000Y-48350000D01*
X181175000Y-49050000D01*
G36*
X181175000Y-47050000D02*
G01*
X179000000Y-47050000D01*
X179000000Y-46350000D01*
X181175000Y-46350000D01*
X181175000Y-47050000D01*
G37*
X181175000Y-47050000D02*
X179000000Y-47050000D01*
X179000000Y-46350000D01*
X181175000Y-46350000D01*
X181175000Y-47050000D01*
G36*
X181175000Y-48050000D02*
G01*
X179000000Y-48050000D01*
X179000000Y-47350000D01*
X181175000Y-47350000D01*
X181175000Y-48050000D01*
G37*
X181175000Y-48050000D02*
X179000000Y-48050000D01*
X179000000Y-47350000D01*
X181175000Y-47350000D01*
X181175000Y-48050000D01*
G36*
X181175000Y-46050000D02*
G01*
X179000000Y-46050000D01*
X179000000Y-45350000D01*
X181175000Y-45350000D01*
X181175000Y-46050000D01*
G37*
X181175000Y-46050000D02*
X179000000Y-46050000D01*
X179000000Y-45350000D01*
X181175000Y-45350000D01*
X181175000Y-46050000D01*
G36*
X191000000Y-40050000D02*
G01*
X188825000Y-40050000D01*
X188825000Y-39350000D01*
X191000000Y-39350000D01*
X191000000Y-40050000D01*
G37*
X191000000Y-40050000D02*
X188825000Y-40050000D01*
X188825000Y-39350000D01*
X191000000Y-39350000D01*
X191000000Y-40050000D01*
G36*
X191000000Y-41050000D02*
G01*
X188825000Y-41050000D01*
X188825000Y-40350000D01*
X191000000Y-40350000D01*
X191000000Y-41050000D01*
G37*
X191000000Y-41050000D02*
X188825000Y-41050000D01*
X188825000Y-40350000D01*
X191000000Y-40350000D01*
X191000000Y-41050000D01*
G36*
X191000000Y-42050000D02*
G01*
X188825000Y-42050000D01*
X188825000Y-41350000D01*
X191000000Y-41350000D01*
X191000000Y-42050000D01*
G37*
X191000000Y-42050000D02*
X188825000Y-42050000D01*
X188825000Y-41350000D01*
X191000000Y-41350000D01*
X191000000Y-42050000D01*
G36*
X191000000Y-43050000D02*
G01*
X188825000Y-43050000D01*
X188825000Y-42350000D01*
X191000000Y-42350000D01*
X191000000Y-43050000D01*
G37*
X191000000Y-43050000D02*
X188825000Y-43050000D01*
X188825000Y-42350000D01*
X191000000Y-42350000D01*
X191000000Y-43050000D01*
G36*
X191000000Y-44050000D02*
G01*
X188825000Y-44050000D01*
X188825000Y-43350000D01*
X191000000Y-43350000D01*
X191000000Y-44050000D01*
G37*
X191000000Y-44050000D02*
X188825000Y-44050000D01*
X188825000Y-43350000D01*
X191000000Y-43350000D01*
X191000000Y-44050000D01*
G36*
X191000000Y-51050000D02*
G01*
X188825000Y-51050000D01*
X188825000Y-50350000D01*
X191000000Y-50350000D01*
X191000000Y-51050000D01*
G37*
X191000000Y-51050000D02*
X188825000Y-51050000D01*
X188825000Y-50350000D01*
X191000000Y-50350000D01*
X191000000Y-51050000D01*
G36*
X191000000Y-50050000D02*
G01*
X188825000Y-50050000D01*
X188825000Y-49350000D01*
X191000000Y-49350000D01*
X191000000Y-50050000D01*
G37*
X191000000Y-50050000D02*
X188825000Y-50050000D01*
X188825000Y-49350000D01*
X191000000Y-49350000D01*
X191000000Y-50050000D01*
G36*
X191000000Y-49050000D02*
G01*
X188825000Y-49050000D01*
X188825000Y-48350000D01*
X191000000Y-48350000D01*
X191000000Y-49050000D01*
G37*
X191000000Y-49050000D02*
X188825000Y-49050000D01*
X188825000Y-48350000D01*
X191000000Y-48350000D01*
X191000000Y-49050000D01*
G36*
X191000000Y-48050000D02*
G01*
X188825000Y-48050000D01*
X188825000Y-47350000D01*
X191000000Y-47350000D01*
X191000000Y-48050000D01*
G37*
X191000000Y-48050000D02*
X188825000Y-48050000D01*
X188825000Y-47350000D01*
X191000000Y-47350000D01*
X191000000Y-48050000D01*
G36*
X191000000Y-47050000D02*
G01*
X188825000Y-47050000D01*
X188825000Y-46350000D01*
X191000000Y-46350000D01*
X191000000Y-47050000D01*
G37*
X191000000Y-47050000D02*
X188825000Y-47050000D01*
X188825000Y-46350000D01*
X191000000Y-46350000D01*
X191000000Y-47050000D01*
G36*
X191000000Y-46050000D02*
G01*
X188825000Y-46050000D01*
X188825000Y-45350000D01*
X191000000Y-45350000D01*
X191000000Y-46050000D01*
G37*
X191000000Y-46050000D02*
X188825000Y-46050000D01*
X188825000Y-45350000D01*
X191000000Y-45350000D01*
X191000000Y-46050000D01*
G36*
X181175000Y-45050000D02*
G01*
X179000000Y-45050000D01*
X179000000Y-44350000D01*
X181175000Y-44350000D01*
X181175000Y-45050000D01*
G37*
X181175000Y-45050000D02*
X179000000Y-45050000D01*
X179000000Y-44350000D01*
X181175000Y-44350000D01*
X181175000Y-45050000D01*
G36*
X191000000Y-45050000D02*
G01*
X188825000Y-45050000D01*
X188825000Y-44350000D01*
X191000000Y-44350000D01*
X191000000Y-45050000D01*
G37*
X191000000Y-45050000D02*
X188825000Y-45050000D01*
X188825000Y-44350000D01*
X191000000Y-44350000D01*
X191000000Y-45050000D01*
%TD*%
D11*
%TO.C,J4*%
X182660000Y-70800000D03*
X195290000Y-70800000D03*
X195290000Y-54600000D03*
X182660000Y-54600000D03*
D12*
X180010000Y-67940000D03*
X180010000Y-65440000D03*
X180010000Y-62940000D03*
D13*
X180010000Y-69240000D03*
D12*
X180010000Y-66690000D03*
X180010000Y-64190000D03*
%TD*%
D14*
%TO.C,J6*%
X154000000Y-68450000D03*
D15*
X152525000Y-70000000D03*
X155475000Y-70000000D03*
%TD*%
D16*
%TO.C,U8*%
X172950000Y-67550000D03*
X172950000Y-66450000D03*
X172950000Y-65350000D03*
X172950000Y-64250000D03*
X172950000Y-63150000D03*
X172950000Y-62050000D03*
X172950000Y-60950000D03*
X172950000Y-59850000D03*
X172950000Y-58750000D03*
X172950000Y-55450000D03*
X172950000Y-57650000D03*
X172950000Y-56550000D03*
D17*
X169400000Y-52600000D03*
X168300000Y-52600000D03*
X166100000Y-52600000D03*
X167200000Y-52600000D03*
X161700000Y-52600000D03*
X162800000Y-52600000D03*
X163900000Y-52600000D03*
X165000000Y-52600000D03*
X160600000Y-52600000D03*
D16*
X157050000Y-63150000D03*
X157050000Y-59850000D03*
X157050000Y-62050000D03*
X157050000Y-58750000D03*
X157050000Y-67550000D03*
X157050000Y-66450000D03*
X157050000Y-56550000D03*
X157050000Y-55450000D03*
X157050000Y-65350000D03*
X157050000Y-60950000D03*
X157050000Y-57650000D03*
X157050000Y-64250000D03*
D17*
X166100000Y-70400000D03*
X160600000Y-70400000D03*
X167200000Y-70400000D03*
X161700000Y-70400000D03*
X163900000Y-70400000D03*
X165000000Y-70400000D03*
X162800000Y-70400000D03*
X168300000Y-70400000D03*
X169400000Y-70400000D03*
%TD*%
M02*
