%TF.GenerationSoftware,KiCad,Pcbnew,(5.1.10-1-10_14)*%
%TF.CreationDate,2021-07-19T22:49:48+10:00*%
%TF.ProjectId,samd21_gps_tracker,73616d64-3231-45f6-9770-735f74726163,rev?*%
%TF.SameCoordinates,Original*%
%TF.FileFunction,Legend,Bot*%
%TF.FilePolarity,Positive*%
%FSLAX46Y46*%
G04 Gerber Fmt 4.6, Leading zero omitted, Abs format (unit mm)*
G04 Created by KiCad (PCBNEW (5.1.10-1-10_14)) date 2021-07-19 22:49:48*
%MOMM*%
%LPD*%
G01*
G04 APERTURE LIST*
%ADD10C,0.150000*%
%ADD11C,0.170000*%
%ADD12C,0.300000*%
%ADD13C,0.120000*%
%ADD14C,0.127000*%
%ADD15C,0.010000*%
%ADD16C,0.050000*%
G04 APERTURE END LIST*
D10*
X220509523Y-72727380D02*
X220509523Y-71727380D01*
X220271428Y-71727380D01*
X220128571Y-71775000D01*
X220033333Y-71870238D01*
X219985714Y-71965476D01*
X219938095Y-72155952D01*
X219938095Y-72298809D01*
X219985714Y-72489285D01*
X220033333Y-72584523D01*
X220128571Y-72679761D01*
X220271428Y-72727380D01*
X220509523Y-72727380D01*
X219366666Y-72727380D02*
X219461904Y-72679761D01*
X219509523Y-72632142D01*
X219557142Y-72536904D01*
X219557142Y-72251190D01*
X219509523Y-72155952D01*
X219461904Y-72108333D01*
X219366666Y-72060714D01*
X219223809Y-72060714D01*
X219128571Y-72108333D01*
X219080952Y-72155952D01*
X219033333Y-72251190D01*
X219033333Y-72536904D01*
X219080952Y-72632142D01*
X219128571Y-72679761D01*
X219223809Y-72727380D01*
X219366666Y-72727380D01*
X218604761Y-72060714D02*
X218604761Y-72727380D01*
X218604761Y-72155952D02*
X218557142Y-72108333D01*
X218461904Y-72060714D01*
X218319047Y-72060714D01*
X218223809Y-72108333D01*
X218176190Y-72203571D01*
X218176190Y-72727380D01*
X217652380Y-71727380D02*
X217652380Y-71775000D01*
X217700000Y-71870238D01*
X217747619Y-71917857D01*
X217366666Y-72060714D02*
X216985714Y-72060714D01*
X217223809Y-71727380D02*
X217223809Y-72584523D01*
X217176190Y-72679761D01*
X217080952Y-72727380D01*
X216985714Y-72727380D01*
X215938095Y-72679761D02*
X215842857Y-72727380D01*
X215652380Y-72727380D01*
X215557142Y-72679761D01*
X215509523Y-72584523D01*
X215509523Y-72536904D01*
X215557142Y-72441666D01*
X215652380Y-72394047D01*
X215795238Y-72394047D01*
X215890476Y-72346428D01*
X215938095Y-72251190D01*
X215938095Y-72203571D01*
X215890476Y-72108333D01*
X215795238Y-72060714D01*
X215652380Y-72060714D01*
X215557142Y-72108333D01*
X215223809Y-72060714D02*
X214842857Y-72060714D01*
X215080952Y-71727380D02*
X215080952Y-72584523D01*
X215033333Y-72679761D01*
X214938095Y-72727380D01*
X214842857Y-72727380D01*
X214128571Y-72679761D02*
X214223809Y-72727380D01*
X214414285Y-72727380D01*
X214509523Y-72679761D01*
X214557142Y-72584523D01*
X214557142Y-72203571D01*
X214509523Y-72108333D01*
X214414285Y-72060714D01*
X214223809Y-72060714D01*
X214128571Y-72108333D01*
X214080952Y-72203571D01*
X214080952Y-72298809D01*
X214557142Y-72394047D01*
X213223809Y-72727380D02*
X213223809Y-72203571D01*
X213271428Y-72108333D01*
X213366666Y-72060714D01*
X213557142Y-72060714D01*
X213652380Y-72108333D01*
X213223809Y-72679761D02*
X213319047Y-72727380D01*
X213557142Y-72727380D01*
X213652380Y-72679761D01*
X213700000Y-72584523D01*
X213700000Y-72489285D01*
X213652380Y-72394047D01*
X213557142Y-72346428D01*
X213319047Y-72346428D01*
X213223809Y-72298809D01*
X212604761Y-72727380D02*
X212700000Y-72679761D01*
X212747619Y-72584523D01*
X212747619Y-71727380D01*
X211461904Y-72727380D02*
X211461904Y-72060714D01*
X211461904Y-72155952D02*
X211414285Y-72108333D01*
X211319047Y-72060714D01*
X211176190Y-72060714D01*
X211080952Y-72108333D01*
X211033333Y-72203571D01*
X211033333Y-72727380D01*
X211033333Y-72203571D02*
X210985714Y-72108333D01*
X210890476Y-72060714D01*
X210747619Y-72060714D01*
X210652380Y-72108333D01*
X210604761Y-72203571D01*
X210604761Y-72727380D01*
X210223809Y-72060714D02*
X209985714Y-72727380D01*
X209747619Y-72060714D02*
X209985714Y-72727380D01*
X210080952Y-72965476D01*
X210128571Y-73013095D01*
X210223809Y-73060714D01*
X208604761Y-72727380D02*
X208604761Y-71727380D01*
X208604761Y-72108333D02*
X208509523Y-72060714D01*
X208319047Y-72060714D01*
X208223809Y-72108333D01*
X208176190Y-72155952D01*
X208128571Y-72251190D01*
X208128571Y-72536904D01*
X208176190Y-72632142D01*
X208223809Y-72679761D01*
X208319047Y-72727380D01*
X208509523Y-72727380D01*
X208604761Y-72679761D01*
X207700000Y-72727380D02*
X207700000Y-72060714D01*
X207700000Y-71727380D02*
X207747619Y-71775000D01*
X207700000Y-71822619D01*
X207652380Y-71775000D01*
X207700000Y-71727380D01*
X207700000Y-71822619D01*
X207223809Y-72727380D02*
X207223809Y-71727380D01*
X207128571Y-72346428D02*
X206842857Y-72727380D01*
X206842857Y-72060714D02*
X207223809Y-72441666D01*
X206033333Y-72679761D02*
X206128571Y-72727380D01*
X206319047Y-72727380D01*
X206414285Y-72679761D01*
X206461904Y-72584523D01*
X206461904Y-72203571D01*
X206414285Y-72108333D01*
X206319047Y-72060714D01*
X206128571Y-72060714D01*
X206033333Y-72108333D01*
X205985714Y-72203571D01*
X205985714Y-72298809D01*
X206461904Y-72394047D01*
X205509523Y-72679761D02*
X205509523Y-72727380D01*
X205557142Y-72822619D01*
X205604761Y-72870238D01*
X204414285Y-72060714D02*
X204176190Y-72727380D01*
X203938095Y-72060714D02*
X204176190Y-72727380D01*
X204271428Y-72965476D01*
X204319047Y-73013095D01*
X204414285Y-73060714D01*
X203414285Y-72727380D02*
X203509523Y-72679761D01*
X203557142Y-72632142D01*
X203604761Y-72536904D01*
X203604761Y-72251190D01*
X203557142Y-72155952D01*
X203509523Y-72108333D01*
X203414285Y-72060714D01*
X203271428Y-72060714D01*
X203176190Y-72108333D01*
X203128571Y-72155952D01*
X203080952Y-72251190D01*
X203080952Y-72536904D01*
X203128571Y-72632142D01*
X203176190Y-72679761D01*
X203271428Y-72727380D01*
X203414285Y-72727380D01*
X202223809Y-72060714D02*
X202223809Y-72727380D01*
X202652380Y-72060714D02*
X202652380Y-72584523D01*
X202604761Y-72679761D01*
X202509523Y-72727380D01*
X202366666Y-72727380D01*
X202271428Y-72679761D01*
X202223809Y-72632142D01*
X200557142Y-72679761D02*
X200652380Y-72727380D01*
X200842857Y-72727380D01*
X200938095Y-72679761D01*
X200985714Y-72632142D01*
X201033333Y-72536904D01*
X201033333Y-72251190D01*
X200985714Y-72155952D01*
X200938095Y-72108333D01*
X200842857Y-72060714D01*
X200652380Y-72060714D01*
X200557142Y-72108333D01*
X199985714Y-71727380D02*
X199985714Y-71965476D01*
X200223809Y-71870238D02*
X199985714Y-71965476D01*
X199747619Y-71870238D01*
X200128571Y-72155952D02*
X199985714Y-71965476D01*
X199842857Y-72155952D01*
X199366666Y-72060714D02*
X199366666Y-72727380D01*
X199366666Y-72155952D02*
X199319047Y-72108333D01*
X199223809Y-72060714D01*
X199080952Y-72060714D01*
X198985714Y-72108333D01*
X198938095Y-72203571D01*
X198938095Y-72727380D01*
X198604761Y-72060714D02*
X198223809Y-72060714D01*
X198461904Y-71727380D02*
X198461904Y-72584523D01*
X198414285Y-72679761D01*
X198319047Y-72727380D01*
X198223809Y-72727380D01*
X197890476Y-72632142D02*
X197842857Y-72679761D01*
X197890476Y-72727380D01*
X197938095Y-72679761D01*
X197890476Y-72632142D01*
X197890476Y-72727380D01*
X197890476Y-72346428D02*
X197938095Y-71775000D01*
X197890476Y-71727380D01*
X197842857Y-71775000D01*
X197890476Y-72346428D01*
X197890476Y-71727380D01*
X216652380Y-74091666D02*
X216176190Y-74091666D01*
X216747619Y-74377380D02*
X216414285Y-73377380D01*
X216080952Y-74377380D01*
X215319047Y-74329761D02*
X215414285Y-74377380D01*
X215604761Y-74377380D01*
X215700000Y-74329761D01*
X215747619Y-74282142D01*
X215795238Y-74186904D01*
X215795238Y-73901190D01*
X215747619Y-73805952D01*
X215700000Y-73758333D01*
X215604761Y-73710714D01*
X215414285Y-73710714D01*
X215319047Y-73758333D01*
X214509523Y-74329761D02*
X214604761Y-74377380D01*
X214795238Y-74377380D01*
X214890476Y-74329761D01*
X214938095Y-74234523D01*
X214938095Y-73853571D01*
X214890476Y-73758333D01*
X214795238Y-73710714D01*
X214604761Y-73710714D01*
X214509523Y-73758333D01*
X214461904Y-73853571D01*
X214461904Y-73948809D01*
X214938095Y-74044047D01*
X213604761Y-74377380D02*
X213604761Y-73853571D01*
X213652380Y-73758333D01*
X213747619Y-73710714D01*
X213938095Y-73710714D01*
X214033333Y-73758333D01*
X213604761Y-74329761D02*
X213700000Y-74377380D01*
X213938095Y-74377380D01*
X214033333Y-74329761D01*
X214080952Y-74234523D01*
X214080952Y-74139285D01*
X214033333Y-74044047D01*
X213938095Y-73996428D01*
X213700000Y-73996428D01*
X213604761Y-73948809D01*
X211700000Y-74472619D02*
X211795238Y-74425000D01*
X211890476Y-74329761D01*
X212033333Y-74186904D01*
X212128571Y-74139285D01*
X212223809Y-74139285D01*
X212176190Y-74377380D02*
X212271428Y-74329761D01*
X212366666Y-74234523D01*
X212414285Y-74044047D01*
X212414285Y-73710714D01*
X212366666Y-73520238D01*
X212271428Y-73425000D01*
X212176190Y-73377380D01*
X211985714Y-73377380D01*
X211890476Y-73425000D01*
X211795238Y-73520238D01*
X211747619Y-73710714D01*
X211747619Y-74044047D01*
X211795238Y-74234523D01*
X211890476Y-74329761D01*
X211985714Y-74377380D01*
X212176190Y-74377380D01*
X210890476Y-73710714D02*
X210890476Y-74377380D01*
X211319047Y-73710714D02*
X211319047Y-74234523D01*
X211271428Y-74329761D01*
X211176190Y-74377380D01*
X211033333Y-74377380D01*
X210938095Y-74329761D01*
X210890476Y-74282142D01*
X210414285Y-74377380D02*
X210414285Y-73710714D01*
X210414285Y-73377380D02*
X210461904Y-73425000D01*
X210414285Y-73472619D01*
X210366666Y-73425000D01*
X210414285Y-73377380D01*
X210414285Y-73472619D01*
X209509523Y-73710714D02*
X209509523Y-74520238D01*
X209557142Y-74615476D01*
X209604761Y-74663095D01*
X209700000Y-74710714D01*
X209842857Y-74710714D01*
X209938095Y-74663095D01*
X209509523Y-74329761D02*
X209604761Y-74377380D01*
X209795238Y-74377380D01*
X209890476Y-74329761D01*
X209938095Y-74282142D01*
X209985714Y-74186904D01*
X209985714Y-73901190D01*
X209938095Y-73805952D01*
X209890476Y-73758333D01*
X209795238Y-73710714D01*
X209604761Y-73710714D01*
X209509523Y-73758333D01*
X208604761Y-73710714D02*
X208604761Y-74520238D01*
X208652380Y-74615476D01*
X208700000Y-74663095D01*
X208795238Y-74710714D01*
X208938095Y-74710714D01*
X209033333Y-74663095D01*
X208604761Y-74329761D02*
X208700000Y-74377380D01*
X208890476Y-74377380D01*
X208985714Y-74329761D01*
X209033333Y-74282142D01*
X209080952Y-74186904D01*
X209080952Y-73901190D01*
X209033333Y-73805952D01*
X208985714Y-73758333D01*
X208890476Y-73710714D01*
X208700000Y-73710714D01*
X208604761Y-73758333D01*
X207128571Y-74710714D02*
X207128571Y-73282142D01*
X205080952Y-74377380D02*
X205414285Y-73901190D01*
X205652380Y-74377380D02*
X205652380Y-73377380D01*
X205271428Y-73377380D01*
X205176190Y-73425000D01*
X205128571Y-73472619D01*
X205080952Y-73567857D01*
X205080952Y-73710714D01*
X205128571Y-73805952D01*
X205176190Y-73853571D01*
X205271428Y-73901190D01*
X205652380Y-73901190D01*
X204271428Y-74329761D02*
X204366666Y-74377380D01*
X204557142Y-74377380D01*
X204652380Y-74329761D01*
X204700000Y-74234523D01*
X204700000Y-73853571D01*
X204652380Y-73758333D01*
X204557142Y-73710714D01*
X204366666Y-73710714D01*
X204271428Y-73758333D01*
X204223809Y-73853571D01*
X204223809Y-73948809D01*
X204700000Y-74044047D01*
X203890476Y-73710714D02*
X203652380Y-74377380D01*
X203414285Y-73710714D01*
X202080952Y-73377380D02*
X201985714Y-73377380D01*
X201890476Y-73425000D01*
X201842857Y-73472619D01*
X201795238Y-73567857D01*
X201747619Y-73758333D01*
X201747619Y-73996428D01*
X201795238Y-74186904D01*
X201842857Y-74282142D01*
X201890476Y-74329761D01*
X201985714Y-74377380D01*
X202080952Y-74377380D01*
X202176190Y-74329761D01*
X202223809Y-74282142D01*
X202271428Y-74186904D01*
X202319047Y-73996428D01*
X202319047Y-73758333D01*
X202271428Y-73567857D01*
X202223809Y-73472619D01*
X202176190Y-73425000D01*
X202080952Y-73377380D01*
D11*
X155452380Y-39004761D02*
X155452380Y-38528571D01*
X154452380Y-38528571D01*
X155452380Y-39480952D02*
X155404761Y-39385714D01*
X155357142Y-39338095D01*
X155261904Y-39290476D01*
X154976190Y-39290476D01*
X154880952Y-39338095D01*
X154833333Y-39385714D01*
X154785714Y-39480952D01*
X154785714Y-39623809D01*
X154833333Y-39719047D01*
X154880952Y-39766666D01*
X154976190Y-39814285D01*
X155261904Y-39814285D01*
X155357142Y-39766666D01*
X155404761Y-39719047D01*
X155452380Y-39623809D01*
X155452380Y-39480952D01*
X155452380Y-40814285D02*
X154976190Y-40480952D01*
X155452380Y-40242857D02*
X154452380Y-40242857D01*
X154452380Y-40623809D01*
X154500000Y-40719047D01*
X154547619Y-40766666D01*
X154642857Y-40814285D01*
X154785714Y-40814285D01*
X154880952Y-40766666D01*
X154928571Y-40719047D01*
X154976190Y-40623809D01*
X154976190Y-40242857D01*
X155452380Y-41671428D02*
X154928571Y-41671428D01*
X154833333Y-41623809D01*
X154785714Y-41528571D01*
X154785714Y-41338095D01*
X154833333Y-41242857D01*
X155404761Y-41671428D02*
X155452380Y-41576190D01*
X155452380Y-41338095D01*
X155404761Y-41242857D01*
X155309523Y-41195238D01*
X155214285Y-41195238D01*
X155119047Y-41242857D01*
X155071428Y-41338095D01*
X155071428Y-41576190D01*
X155023809Y-41671428D01*
D12*
X221828571Y-39078571D02*
X221542857Y-39078571D01*
X221400000Y-39150000D01*
X221257142Y-39292857D01*
X221185714Y-39578571D01*
X221185714Y-40078571D01*
X221257142Y-40364285D01*
X221400000Y-40507142D01*
X221542857Y-40578571D01*
X221828571Y-40578571D01*
X221971428Y-40507142D01*
X222114285Y-40364285D01*
X222185714Y-40078571D01*
X222185714Y-39578571D01*
X222114285Y-39292857D01*
X221971428Y-39150000D01*
X221828571Y-39078571D01*
X220542857Y-40578571D02*
X220542857Y-39078571D01*
X219685714Y-40578571D01*
X219685714Y-39078571D01*
X209300000Y-40478571D02*
X209300000Y-38978571D01*
X208800000Y-40050000D01*
X208300000Y-38978571D01*
X208300000Y-40478571D01*
X207585714Y-40478571D02*
X207585714Y-38978571D01*
X207228571Y-38978571D01*
X207014285Y-39050000D01*
X206871428Y-39192857D01*
X206800000Y-39335714D01*
X206728571Y-39621428D01*
X206728571Y-39835714D01*
X206800000Y-40121428D01*
X206871428Y-40264285D01*
X207014285Y-40407142D01*
X207228571Y-40478571D01*
X207585714Y-40478571D01*
D11*
X152552380Y-39485714D02*
X152552380Y-39009523D01*
X151552380Y-39009523D01*
X152552380Y-39819047D02*
X151552380Y-39819047D01*
X152552380Y-40390476D01*
X151552380Y-40390476D01*
X152552380Y-40866666D02*
X151552380Y-40866666D01*
X152552380Y-41438095D02*
X151980952Y-41009523D01*
X151552380Y-41438095D02*
X152123809Y-40866666D01*
X149452380Y-37942857D02*
X148452380Y-37942857D01*
X149452380Y-38514285D01*
X148452380Y-38514285D01*
X148928571Y-39323809D02*
X148976190Y-39466666D01*
X149023809Y-39514285D01*
X149119047Y-39561904D01*
X149261904Y-39561904D01*
X149357142Y-39514285D01*
X149404761Y-39466666D01*
X149452380Y-39371428D01*
X149452380Y-38990476D01*
X148452380Y-38990476D01*
X148452380Y-39323809D01*
X148500000Y-39419047D01*
X148547619Y-39466666D01*
X148642857Y-39514285D01*
X148738095Y-39514285D01*
X148833333Y-39466666D01*
X148880952Y-39419047D01*
X148928571Y-39323809D01*
X148928571Y-38990476D01*
X149452380Y-39990476D02*
X148452380Y-39990476D01*
X149452380Y-40609523D02*
X149404761Y-40514285D01*
X149357142Y-40466666D01*
X149261904Y-40419047D01*
X148976190Y-40419047D01*
X148880952Y-40466666D01*
X148833333Y-40514285D01*
X148785714Y-40609523D01*
X148785714Y-40752380D01*
X148833333Y-40847619D01*
X148880952Y-40895238D01*
X148976190Y-40942857D01*
X149261904Y-40942857D01*
X149357142Y-40895238D01*
X149404761Y-40847619D01*
X149452380Y-40752380D01*
X149452380Y-40609523D01*
X148452380Y-41228571D02*
X148452380Y-41800000D01*
X149452380Y-41514285D02*
X148452380Y-41514285D01*
X145600000Y-39085714D02*
X145552380Y-38990476D01*
X145552380Y-38847619D01*
X145600000Y-38704761D01*
X145695238Y-38609523D01*
X145790476Y-38561904D01*
X145980952Y-38514285D01*
X146123809Y-38514285D01*
X146314285Y-38561904D01*
X146409523Y-38609523D01*
X146504761Y-38704761D01*
X146552380Y-38847619D01*
X146552380Y-38942857D01*
X146504761Y-39085714D01*
X146457142Y-39133333D01*
X146123809Y-39133333D01*
X146123809Y-38942857D01*
X146552380Y-39561904D02*
X145552380Y-39561904D01*
X145552380Y-39942857D01*
X145600000Y-40038095D01*
X145647619Y-40085714D01*
X145742857Y-40133333D01*
X145885714Y-40133333D01*
X145980952Y-40085714D01*
X146028571Y-40038095D01*
X146076190Y-39942857D01*
X146076190Y-39561904D01*
X146504761Y-40514285D02*
X146552380Y-40657142D01*
X146552380Y-40895238D01*
X146504761Y-40990476D01*
X146457142Y-41038095D01*
X146361904Y-41085714D01*
X146266666Y-41085714D01*
X146171428Y-41038095D01*
X146123809Y-40990476D01*
X146076190Y-40895238D01*
X146028571Y-40704761D01*
X145980952Y-40609523D01*
X145933333Y-40561904D01*
X145838095Y-40514285D01*
X145742857Y-40514285D01*
X145647619Y-40561904D01*
X145600000Y-40609523D01*
X145552380Y-40704761D01*
X145552380Y-40942857D01*
X145600000Y-41085714D01*
X143552380Y-38661904D02*
X142552380Y-38661904D01*
X142552380Y-39042857D01*
X142600000Y-39138095D01*
X142647619Y-39185714D01*
X142742857Y-39233333D01*
X142885714Y-39233333D01*
X142980952Y-39185714D01*
X143028571Y-39138095D01*
X143076190Y-39042857D01*
X143076190Y-38661904D01*
X143552380Y-39661904D02*
X142552380Y-39661904D01*
X142552380Y-40042857D01*
X142600000Y-40138095D01*
X142647619Y-40185714D01*
X142742857Y-40233333D01*
X142885714Y-40233333D01*
X142980952Y-40185714D01*
X143028571Y-40138095D01*
X143076190Y-40042857D01*
X143076190Y-39661904D01*
X143504761Y-40614285D02*
X143552380Y-40757142D01*
X143552380Y-40995238D01*
X143504761Y-41090476D01*
X143457142Y-41138095D01*
X143361904Y-41185714D01*
X143266666Y-41185714D01*
X143171428Y-41138095D01*
X143123809Y-41090476D01*
X143076190Y-40995238D01*
X143028571Y-40804761D01*
X142980952Y-40709523D01*
X142933333Y-40661904D01*
X142838095Y-40614285D01*
X142742857Y-40614285D01*
X142647619Y-40661904D01*
X142600000Y-40709523D01*
X142552380Y-40804761D01*
X142552380Y-41042857D01*
X142600000Y-41185714D01*
X139785714Y-40114285D02*
X140452380Y-40114285D01*
X139785714Y-39685714D02*
X140309523Y-39685714D01*
X140404761Y-39733333D01*
X140452380Y-39828571D01*
X140452380Y-39971428D01*
X140404761Y-40066666D01*
X140357142Y-40114285D01*
X140357142Y-41161904D02*
X140404761Y-41114285D01*
X140452380Y-40971428D01*
X140452380Y-40876190D01*
X140404761Y-40733333D01*
X140309523Y-40638095D01*
X140214285Y-40590476D01*
X140023809Y-40542857D01*
X139880952Y-40542857D01*
X139690476Y-40590476D01*
X139595238Y-40638095D01*
X139500000Y-40733333D01*
X139452380Y-40876190D01*
X139452380Y-40971428D01*
X139500000Y-41114285D01*
X139547619Y-41161904D01*
D10*
X147552380Y-64352380D02*
X147076190Y-64019047D01*
X147552380Y-63780952D02*
X146552380Y-63780952D01*
X146552380Y-64161904D01*
X146600000Y-64257142D01*
X146647619Y-64304761D01*
X146742857Y-64352380D01*
X146885714Y-64352380D01*
X146980952Y-64304761D01*
X147028571Y-64257142D01*
X147076190Y-64161904D01*
X147076190Y-63780952D01*
X147504761Y-64733333D02*
X147552380Y-64876190D01*
X147552380Y-65114285D01*
X147504761Y-65209523D01*
X147457142Y-65257142D01*
X147361904Y-65304761D01*
X147266666Y-65304761D01*
X147171428Y-65257142D01*
X147123809Y-65209523D01*
X147076190Y-65114285D01*
X147028571Y-64923809D01*
X146980952Y-64828571D01*
X146933333Y-64780952D01*
X146838095Y-64733333D01*
X146742857Y-64733333D01*
X146647619Y-64780952D01*
X146600000Y-64828571D01*
X146552380Y-64923809D01*
X146552380Y-65161904D01*
X146600000Y-65304761D01*
X146552380Y-65590476D02*
X146552380Y-66161904D01*
X147552380Y-65876190D02*
X146552380Y-65876190D01*
D13*
%TO.C,J5*%
X139500000Y-61200000D02*
X137600000Y-61200000D01*
X143400000Y-61200000D02*
X141400000Y-61200000D01*
X139500000Y-51800000D02*
X137600000Y-51800000D01*
X143400000Y-51800000D02*
X141400000Y-51800000D01*
X137600000Y-61200000D02*
X137600000Y-51800000D01*
%TO.C,U5*%
X194000000Y-42750000D02*
X194000000Y-42060000D01*
X194000000Y-42060000D02*
X176000000Y-42060000D01*
X176000000Y-42060000D02*
X176000000Y-42750000D01*
X194000000Y-68200000D02*
X194000000Y-68940000D01*
X194000000Y-68940000D02*
X189572000Y-68940000D01*
X180428000Y-68940000D02*
X176000000Y-68940000D01*
X176000000Y-68940000D02*
X176000000Y-68200000D01*
X194000000Y-42750000D02*
X194652000Y-42750000D01*
D14*
%TO.C,J3*%
X187800000Y-74000000D02*
X185200000Y-74000000D01*
D13*
%TO.C,C1*%
X152859420Y-55490000D02*
X153140580Y-55490000D01*
X152859420Y-56510000D02*
X153140580Y-56510000D01*
%TO.C,C2*%
X153140580Y-52490000D02*
X152859420Y-52490000D01*
X153140580Y-53510000D02*
X152859420Y-53510000D01*
%TO.C,C3*%
X155640580Y-57990000D02*
X155359420Y-57990000D01*
X155640580Y-59010000D02*
X155359420Y-59010000D01*
%TO.C,C4*%
X155640580Y-59690000D02*
X155359420Y-59690000D01*
X155640580Y-60710000D02*
X155359420Y-60710000D01*
%TO.C,C5*%
X218740580Y-55290000D02*
X218459420Y-55290000D01*
X218740580Y-56310000D02*
X218459420Y-56310000D01*
%TO.C,C6*%
X221970000Y-54180000D02*
X221970000Y-51830000D01*
X221970000Y-47360000D02*
X221970000Y-49710000D01*
X227725563Y-47360000D02*
X221970000Y-47360000D01*
X227725563Y-54180000D02*
X221970000Y-54180000D01*
X228790000Y-53115563D02*
X228790000Y-51830000D01*
X228790000Y-48424437D02*
X228790000Y-49710000D01*
X228790000Y-48424437D02*
X227725563Y-47360000D01*
X228790000Y-53115563D02*
X227725563Y-54180000D01*
%TO.C,C7*%
X223054437Y-62810000D02*
X221990000Y-61745563D01*
X227745563Y-62810000D02*
X228810000Y-61745563D01*
X227745563Y-62810000D02*
X226460000Y-62810000D01*
X223054437Y-62810000D02*
X224340000Y-62810000D01*
X221990000Y-61745563D02*
X221990000Y-55990000D01*
X228810000Y-61745563D02*
X228810000Y-55990000D01*
X228810000Y-55990000D02*
X226460000Y-55990000D01*
X221990000Y-55990000D02*
X224340000Y-55990000D01*
%TO.C,C8*%
X160490000Y-66859420D02*
X160490000Y-67140580D01*
X161510000Y-66859420D02*
X161510000Y-67140580D01*
%TO.C,C9*%
X163190000Y-48140580D02*
X163190000Y-47859420D01*
X164210000Y-48140580D02*
X164210000Y-47859420D01*
%TO.C,C10*%
X210640580Y-66010000D02*
X210359420Y-66010000D01*
X210640580Y-64990000D02*
X210359420Y-64990000D01*
%TO.C,C11*%
X206010000Y-47609420D02*
X206010000Y-47890580D01*
X204990000Y-47609420D02*
X204990000Y-47890580D01*
%TO.C,C12*%
X197990000Y-47890580D02*
X197990000Y-47609420D01*
X199010000Y-47890580D02*
X199010000Y-47609420D01*
%TO.C,C13*%
X173910000Y-58711252D02*
X173910000Y-57288748D01*
X172090000Y-58711252D02*
X172090000Y-57288748D01*
%TO.C,C14*%
X195859420Y-39410000D02*
X196140580Y-39410000D01*
X195859420Y-38390000D02*
X196140580Y-38390000D01*
%TO.C,C15*%
X192640580Y-39260000D02*
X192359420Y-39260000D01*
X192640580Y-38240000D02*
X192359420Y-38240000D01*
%TO.C,C16*%
X196490000Y-68359420D02*
X196490000Y-68640580D01*
X197510000Y-68359420D02*
X197510000Y-68640580D01*
%TO.C,C17*%
X196590000Y-57711252D02*
X196590000Y-56288748D01*
X198410000Y-57711252D02*
X198410000Y-56288748D01*
%TO.C,C18*%
X195859420Y-41260000D02*
X196140580Y-41260000D01*
X195859420Y-40240000D02*
X196140580Y-40240000D01*
%TO.C,C19*%
X192640580Y-40240000D02*
X192359420Y-40240000D01*
X192640580Y-41260000D02*
X192359420Y-41260000D01*
%TO.C,C20*%
X166260000Y-42609420D02*
X166260000Y-42890580D01*
X165240000Y-42609420D02*
X165240000Y-42890580D01*
%TO.C,C21*%
X163590000Y-42609420D02*
X163590000Y-42890580D01*
X164610000Y-42609420D02*
X164610000Y-42890580D01*
%TO.C,C22*%
X172010000Y-52359420D02*
X172010000Y-52640580D01*
X170990000Y-52359420D02*
X170990000Y-52640580D01*
%TO.C,C23*%
X170010000Y-52359420D02*
X170010000Y-52640580D01*
X168990000Y-52359420D02*
X168990000Y-52640580D01*
%TO.C,C24*%
X168010000Y-52359420D02*
X168010000Y-52640580D01*
X166990000Y-52359420D02*
X166990000Y-52640580D01*
%TO.C,C25*%
X178359420Y-70990000D02*
X178640580Y-70990000D01*
X178359420Y-72010000D02*
X178640580Y-72010000D01*
%TO.C,C26*%
X160510000Y-73359420D02*
X160510000Y-73640580D01*
X159490000Y-73359420D02*
X159490000Y-73640580D01*
%TO.C,C27*%
X161490000Y-73359420D02*
X161490000Y-73640580D01*
X162510000Y-73359420D02*
X162510000Y-73640580D01*
%TO.C,C28*%
X166510000Y-70040000D02*
X166510000Y-74250000D01*
X163490000Y-70040000D02*
X166510000Y-70040000D01*
X163490000Y-74250000D02*
X163490000Y-70040000D01*
%TO.C,C29*%
X167490000Y-74250000D02*
X167490000Y-70040000D01*
X167490000Y-70040000D02*
X170510000Y-70040000D01*
X170510000Y-70040000D02*
X170510000Y-74250000D01*
%TO.C,C30*%
X174510000Y-70040000D02*
X174510000Y-74250000D01*
X171490000Y-70040000D02*
X174510000Y-70040000D01*
X171490000Y-74250000D02*
X171490000Y-70040000D01*
%TO.C,D1*%
X140765000Y-40985000D02*
X140765000Y-38700000D01*
X142235000Y-40985000D02*
X140765000Y-40985000D01*
X142235000Y-38700000D02*
X142235000Y-40985000D01*
%TO.C,D2*%
X143765000Y-40985000D02*
X143765000Y-38700000D01*
X145235000Y-40985000D02*
X143765000Y-40985000D01*
X145235000Y-38700000D02*
X145235000Y-40985000D01*
%TO.C,D3*%
X229550000Y-71400000D02*
X229550000Y-66000000D01*
X226250000Y-71400000D02*
X226250000Y-66000000D01*
X229550000Y-71400000D02*
X226250000Y-71400000D01*
%TO.C,D4*%
X148235000Y-38700000D02*
X148235000Y-40985000D01*
X148235000Y-40985000D02*
X146765000Y-40985000D01*
X146765000Y-40985000D02*
X146765000Y-38700000D01*
%TO.C,D5*%
X149765000Y-41085000D02*
X149765000Y-38800000D01*
X151235000Y-41085000D02*
X149765000Y-41085000D01*
X151235000Y-38800000D02*
X151235000Y-41085000D01*
%TO.C,D6*%
X154235000Y-38800000D02*
X154235000Y-41085000D01*
X154235000Y-41085000D02*
X152765000Y-41085000D01*
X152765000Y-41085000D02*
X152765000Y-38800000D01*
%TO.C,D7*%
X227500000Y-44700000D02*
X225500000Y-44700000D01*
X225500000Y-44700000D02*
X225500000Y-40850000D01*
X227500000Y-44700000D02*
X227500000Y-40850000D01*
%TO.C,D8*%
X224500000Y-44700000D02*
X224500000Y-40850000D01*
X222500000Y-44700000D02*
X222500000Y-40850000D01*
X224500000Y-44700000D02*
X222500000Y-44700000D01*
%TO.C,FB1*%
X162990000Y-51662779D02*
X162990000Y-51337221D01*
X164010000Y-51662779D02*
X164010000Y-51337221D01*
%TO.C,J1*%
X142930000Y-68230000D02*
X142295000Y-68230000D01*
X142295000Y-68230000D02*
X142295000Y-68865000D01*
%TO.C,J2*%
X230000000Y-51300000D02*
X230000000Y-51900000D01*
X230600000Y-51600000D02*
X230000000Y-51300000D01*
X230000000Y-51900000D02*
X230600000Y-51600000D01*
X237400000Y-48890000D02*
X237400000Y-65740000D01*
X231290000Y-60270000D02*
X231290000Y-61980000D01*
X231290000Y-56460000D02*
X231290000Y-58170000D01*
X231290000Y-52650000D02*
X231290000Y-54360000D01*
X231290000Y-65740000D02*
X231290000Y-64080000D01*
X231290000Y-48890000D02*
X231290000Y-50550000D01*
X240710000Y-65740000D02*
X231290000Y-65740000D01*
X240710000Y-48890000D02*
X240710000Y-65740000D01*
X231290000Y-48890000D02*
X240710000Y-48890000D01*
%TO.C,L1*%
X217740000Y-69850000D02*
X217740000Y-70700000D01*
X224660000Y-70700000D02*
X224660000Y-69850000D01*
X217740000Y-65150000D02*
X217740000Y-65950000D01*
X224050000Y-64490000D02*
X218400000Y-64490000D01*
X224660000Y-65950000D02*
X224660000Y-65100000D01*
X218350000Y-71310000D02*
X224050000Y-71310000D01*
X217740000Y-70700000D02*
G75*
G03*
X218350000Y-71310000I610000J0D01*
G01*
X224050000Y-71310000D02*
G75*
G03*
X224660000Y-70700000I0J610000D01*
G01*
X218400000Y-64490000D02*
G75*
G03*
X217740000Y-65150000I0J-660000D01*
G01*
X224660000Y-65100000D02*
G75*
G03*
X224050000Y-64490000I-610000J0D01*
G01*
%TO.C,Q1*%
X139920000Y-46540000D02*
X139920000Y-48000000D01*
X143080000Y-46540000D02*
X143080000Y-48700000D01*
X143080000Y-46540000D02*
X142150000Y-46540000D01*
X139920000Y-46540000D02*
X140850000Y-46540000D01*
%TO.C,Q2*%
X143420000Y-46540000D02*
X143420000Y-48000000D01*
X146580000Y-46540000D02*
X146580000Y-48700000D01*
X146580000Y-46540000D02*
X145650000Y-46540000D01*
X143420000Y-46540000D02*
X144350000Y-46540000D01*
%TO.C,Q3*%
X146920000Y-46540000D02*
X147850000Y-46540000D01*
X150080000Y-46540000D02*
X149150000Y-46540000D01*
X150080000Y-46540000D02*
X150080000Y-48700000D01*
X146920000Y-46540000D02*
X146920000Y-48000000D01*
%TO.C,Q4*%
X150420000Y-46540000D02*
X150420000Y-48000000D01*
X153580000Y-46540000D02*
X153580000Y-48700000D01*
X153580000Y-46540000D02*
X152650000Y-46540000D01*
X150420000Y-46540000D02*
X151350000Y-46540000D01*
%TO.C,Q5*%
X153920000Y-46540000D02*
X154850000Y-46540000D01*
X157080000Y-46540000D02*
X156150000Y-46540000D01*
X157080000Y-46540000D02*
X157080000Y-48700000D01*
X153920000Y-46540000D02*
X153920000Y-48000000D01*
%TO.C,Q6*%
X172750000Y-43450000D02*
X173800000Y-43450000D01*
X173800000Y-43450000D02*
X173800000Y-41600000D01*
X170750000Y-43450000D02*
X171750000Y-43450000D01*
X170740000Y-43430000D02*
X170740000Y-41000000D01*
%TO.C,Q7*%
X167240000Y-43430000D02*
X167240000Y-41000000D01*
X167250000Y-43450000D02*
X168250000Y-43450000D01*
X170300000Y-43450000D02*
X170300000Y-41600000D01*
X169250000Y-43450000D02*
X170300000Y-43450000D01*
%TO.C,Q8*%
X167990000Y-67930000D02*
X167990000Y-65500000D01*
X168000000Y-67950000D02*
X169000000Y-67950000D01*
X171050000Y-67950000D02*
X171050000Y-66100000D01*
X170000000Y-67950000D02*
X171050000Y-67950000D01*
%TO.C,R1*%
X165522500Y-67237258D02*
X165522500Y-66762742D01*
X164477500Y-67237258D02*
X164477500Y-66762742D01*
%TO.C,R2*%
X162477500Y-67237258D02*
X162477500Y-66762742D01*
X163522500Y-67237258D02*
X163522500Y-66762742D01*
%TO.C,R3*%
X155737258Y-66522500D02*
X155262742Y-66522500D01*
X155737258Y-65477500D02*
X155262742Y-65477500D01*
%TO.C,R4*%
X140977500Y-42762742D02*
X140977500Y-43237258D01*
X142022500Y-42762742D02*
X142022500Y-43237258D01*
%TO.C,R5*%
X143977500Y-42762742D02*
X143977500Y-43237258D01*
X145022500Y-42762742D02*
X145022500Y-43237258D01*
%TO.C,R6*%
X155262742Y-63477500D02*
X155737258Y-63477500D01*
X155262742Y-64522500D02*
X155737258Y-64522500D01*
%TO.C,R7*%
X155262742Y-62522500D02*
X155737258Y-62522500D01*
X155262742Y-61477500D02*
X155737258Y-61477500D01*
%TO.C,R8*%
X148022500Y-42762742D02*
X148022500Y-43237258D01*
X146977500Y-42762742D02*
X146977500Y-43237258D01*
%TO.C,R9*%
X149977500Y-42762742D02*
X149977500Y-43237258D01*
X151022500Y-42762742D02*
X151022500Y-43237258D01*
%TO.C,R10*%
X154022500Y-42762742D02*
X154022500Y-43237258D01*
X152977500Y-42762742D02*
X152977500Y-43237258D01*
%TO.C,R11*%
X160977500Y-51262742D02*
X160977500Y-51737258D01*
X162022500Y-51262742D02*
X162022500Y-51737258D01*
%TO.C,R12*%
X166022500Y-51262742D02*
X166022500Y-51737258D01*
X164977500Y-51262742D02*
X164977500Y-51737258D01*
%TO.C,R13*%
X170977500Y-49237258D02*
X170977500Y-48762742D01*
X172022500Y-49237258D02*
X172022500Y-48762742D01*
%TO.C,R14*%
X170022500Y-49237258D02*
X170022500Y-48762742D01*
X168977500Y-49237258D02*
X168977500Y-48762742D01*
%TO.C,R15*%
X166977500Y-49237258D02*
X166977500Y-48762742D01*
X168022500Y-49237258D02*
X168022500Y-48762742D01*
%TO.C,R16*%
X148762742Y-58977500D02*
X149237258Y-58977500D01*
X148762742Y-60022500D02*
X149237258Y-60022500D01*
%TO.C,R17*%
X148262742Y-54022500D02*
X148737258Y-54022500D01*
X148262742Y-52977500D02*
X148737258Y-52977500D01*
%TO.C,R18*%
X148262742Y-56022500D02*
X148737258Y-56022500D01*
X148262742Y-54977500D02*
X148737258Y-54977500D01*
%TO.C,R19*%
X148762742Y-56977500D02*
X149237258Y-56977500D01*
X148762742Y-58022500D02*
X149237258Y-58022500D01*
%TO.C,SW1*%
X151270000Y-62730000D02*
X150970000Y-62730000D01*
X148130000Y-66870000D02*
X148430000Y-66870000D01*
X150970000Y-66870000D02*
X151270000Y-66870000D01*
X148130000Y-62730000D02*
X148130000Y-66870000D01*
X148430000Y-62730000D02*
X148130000Y-62730000D01*
X151270000Y-66870000D02*
X151270000Y-62730000D01*
%TO.C,SW2*%
X217950000Y-39280000D02*
X217950000Y-40070000D01*
X211050000Y-40070000D02*
X211050000Y-39280000D01*
X212900000Y-41120000D02*
X214600000Y-41120000D01*
X211650000Y-38270000D02*
X217350000Y-38270000D01*
X214400000Y-36980000D02*
X214400000Y-38270000D01*
X213300000Y-36770000D02*
X214200000Y-36770000D01*
X213100000Y-38270000D02*
X213100000Y-36980000D01*
X214400000Y-36980000D02*
X214200000Y-36770000D01*
X213100000Y-36980000D02*
X213300000Y-36770000D01*
X215900000Y-41120000D02*
X216100000Y-41120000D01*
%TO.C,U1*%
X217000000Y-57440000D02*
X220450000Y-57440000D01*
X217000000Y-57440000D02*
X215050000Y-57440000D01*
X217000000Y-62560000D02*
X218950000Y-62560000D01*
X217000000Y-62560000D02*
X215050000Y-62560000D01*
D10*
%TO.C,U2*%
X160300000Y-55575000D02*
X160300000Y-54200000D01*
X159875000Y-62825000D02*
X159875000Y-62300000D01*
X167125000Y-62825000D02*
X167125000Y-62300000D01*
X167125000Y-55575000D02*
X167125000Y-56100000D01*
X159875000Y-55575000D02*
X159875000Y-56100000D01*
X167125000Y-55575000D02*
X166600000Y-55575000D01*
X167125000Y-62825000D02*
X166600000Y-62825000D01*
X159875000Y-62825000D02*
X160400000Y-62825000D01*
X159875000Y-55575000D02*
X160300000Y-55575000D01*
D13*
%TO.C,U3*%
X202140000Y-63140000D02*
X200325000Y-63140000D01*
X202140000Y-63385000D02*
X202140000Y-63140000D01*
X206000000Y-63385000D02*
X202140000Y-63385000D01*
X209860000Y-63385000D02*
X209860000Y-63140000D01*
X206000000Y-63385000D02*
X209860000Y-63385000D01*
X202140000Y-51615000D02*
X202140000Y-51860000D01*
X206000000Y-51615000D02*
X202140000Y-51615000D01*
X209860000Y-51615000D02*
X209860000Y-51860000D01*
X206000000Y-51615000D02*
X209860000Y-51615000D01*
%TO.C,U6*%
X203000000Y-65440000D02*
X204950000Y-65440000D01*
X203000000Y-65440000D02*
X201050000Y-65440000D01*
X203000000Y-70560000D02*
X204950000Y-70560000D01*
X203000000Y-70560000D02*
X199550000Y-70560000D01*
%TO.C,U7*%
X160650000Y-42350000D02*
X160650000Y-42350000D01*
X161150000Y-42350000D02*
X160650000Y-42350000D01*
X160650000Y-40650000D02*
X160650000Y-40650000D01*
X160650000Y-40150000D02*
X160650000Y-40650000D01*
X161150000Y-40150000D02*
X160650000Y-40150000D01*
X162350000Y-40150000D02*
X162350000Y-40150000D01*
X162850000Y-40150000D02*
X162350000Y-40150000D01*
X162850000Y-40650000D02*
X162850000Y-40150000D01*
X162850000Y-41850000D02*
X162850000Y-41850000D01*
X162850000Y-42350000D02*
X162850000Y-41850000D01*
X162350000Y-42350000D02*
X162850000Y-42350000D01*
%TO.C,Y1*%
X156875000Y-55375000D02*
X156875000Y-54025000D01*
X155125000Y-55375000D02*
X155125000Y-54025000D01*
%TO.C,Y2*%
X200350000Y-49750000D02*
X200350000Y-45750000D01*
X203650000Y-49750000D02*
X200350000Y-49750000D01*
%TO.C,D9*%
X155665000Y-41085000D02*
X155665000Y-38800000D01*
X157135000Y-41085000D02*
X155665000Y-41085000D01*
X157135000Y-38800000D02*
X157135000Y-41085000D01*
%TO.C,Q9*%
X157420000Y-46540000D02*
X157420000Y-48000000D01*
X160580000Y-46540000D02*
X160580000Y-48700000D01*
X160580000Y-46540000D02*
X159650000Y-46540000D01*
X157420000Y-46540000D02*
X158350000Y-46540000D01*
%TO.C,R20*%
X156922500Y-42762742D02*
X156922500Y-43237258D01*
X155877500Y-42762742D02*
X155877500Y-43237258D01*
%TO.C,C31*%
X170510000Y-57340580D02*
X170510000Y-57059420D01*
X169490000Y-57340580D02*
X169490000Y-57059420D01*
%TO.C,R21*%
X227462742Y-45477500D02*
X227937258Y-45477500D01*
X227462742Y-46522500D02*
X227937258Y-46522500D01*
%TO.C,R22*%
X230862742Y-46522500D02*
X231337258Y-46522500D01*
X230862742Y-45477500D02*
X231337258Y-45477500D01*
%TO.C,C32*%
X158959420Y-49990000D02*
X159240580Y-49990000D01*
X158959420Y-51010000D02*
X159240580Y-51010000D01*
%TO.C,C33*%
X152659420Y-51310000D02*
X152940580Y-51310000D01*
X152659420Y-50290000D02*
X152940580Y-50290000D01*
%TO.C,U9*%
X154420000Y-50040000D02*
X154420000Y-51500000D01*
X157580000Y-50040000D02*
X157580000Y-52200000D01*
X157580000Y-50040000D02*
X156650000Y-50040000D01*
X154420000Y-50040000D02*
X155350000Y-50040000D01*
D15*
%TO.C,J7*%
G36*
X213871500Y-47548167D02*
G01*
X212622666Y-47548167D01*
X212622666Y-46193500D01*
X213871500Y-46193500D01*
X213871500Y-47548167D01*
G37*
X213871500Y-47548167D02*
X212622666Y-47548167D01*
X212622666Y-46193500D01*
X213871500Y-46193500D01*
X213871500Y-47548167D01*
G36*
X213000863Y-43680888D02*
G01*
X213381303Y-43682934D01*
X213720397Y-43685210D01*
X214019130Y-43687733D01*
X214278490Y-43690519D01*
X214499463Y-43693583D01*
X214683035Y-43696941D01*
X214830193Y-43700611D01*
X214941923Y-43704607D01*
X215019212Y-43708946D01*
X215063045Y-43713644D01*
X215067416Y-43714519D01*
X215169383Y-43746006D01*
X215292066Y-43796495D01*
X215422179Y-43859775D01*
X215546434Y-43929631D01*
X215599673Y-43963395D01*
X215754710Y-44083974D01*
X215905827Y-44233918D01*
X216043401Y-44401775D01*
X216157808Y-44576093D01*
X216223101Y-44705289D01*
X216238315Y-44740378D01*
X216252022Y-44773154D01*
X216264315Y-44805903D01*
X216275286Y-44840912D01*
X216285028Y-44880466D01*
X216293632Y-44926854D01*
X216301192Y-44982361D01*
X216307799Y-45049274D01*
X216313545Y-45129879D01*
X216318525Y-45226464D01*
X216322828Y-45341313D01*
X216326549Y-45476715D01*
X216329778Y-45634955D01*
X216332610Y-45818320D01*
X216335135Y-46029096D01*
X216337447Y-46269571D01*
X216339637Y-46542030D01*
X216341799Y-46848760D01*
X216344024Y-47192048D01*
X216346404Y-47574180D01*
X216347749Y-47791343D01*
X216364559Y-50500437D01*
X216281732Y-50665170D01*
X216202993Y-50804699D01*
X216118253Y-50915091D01*
X216015852Y-51009165D01*
X215889309Y-51096519D01*
X215732008Y-51194560D01*
X215008129Y-51204850D01*
X214837023Y-51206805D01*
X214679424Y-51207688D01*
X214540317Y-51207543D01*
X214424691Y-51206413D01*
X214337532Y-51204340D01*
X214283828Y-51201368D01*
X214268375Y-51198459D01*
X214264464Y-51173916D01*
X214260903Y-51112282D01*
X214257815Y-51018799D01*
X214255322Y-50898706D01*
X214253548Y-50757247D01*
X214252613Y-50599662D01*
X214252500Y-50520416D01*
X214252500Y-49859054D01*
X214331875Y-49847690D01*
X214398549Y-49839156D01*
X214484001Y-49829517D01*
X214538250Y-49823961D01*
X214677154Y-49806534D01*
X214781180Y-49783648D01*
X214857665Y-49753014D01*
X214913945Y-49712344D01*
X214922026Y-49704273D01*
X214982750Y-49640894D01*
X214982750Y-48701922D01*
X214982695Y-48477971D01*
X214982417Y-48292449D01*
X214981745Y-48141454D01*
X214980508Y-48021081D01*
X214978536Y-47927427D01*
X214975658Y-47856589D01*
X214971703Y-47804662D01*
X214966500Y-47767743D01*
X214959879Y-47741929D01*
X214951669Y-47723315D01*
X214941699Y-47707999D01*
X214939128Y-47704517D01*
X214900247Y-47665142D01*
X214845115Y-47633706D01*
X214767434Y-47608219D01*
X214660909Y-47586690D01*
X214519242Y-47567129D01*
X214495916Y-47564396D01*
X214263083Y-47537583D01*
X214257494Y-46865542D01*
X214251905Y-46193500D01*
X215020863Y-46193500D01*
X215007328Y-45986965D01*
X214991538Y-45803942D01*
X214970115Y-45657854D01*
X214942031Y-45543553D01*
X214906255Y-45455892D01*
X214898232Y-45441355D01*
X214833095Y-45352133D01*
X214741535Y-45257221D01*
X214635798Y-45168149D01*
X214537940Y-45102103D01*
X214432416Y-45040249D01*
X212950750Y-45025959D01*
X212618086Y-45022675D01*
X212325051Y-45019568D01*
X212068940Y-45016532D01*
X211847049Y-45013460D01*
X211656673Y-45010246D01*
X211495108Y-45006783D01*
X211359651Y-45002964D01*
X211247596Y-44998684D01*
X211156240Y-44993835D01*
X211082879Y-44988312D01*
X211024808Y-44982007D01*
X210979322Y-44974814D01*
X210943719Y-44966627D01*
X210915293Y-44957338D01*
X210891340Y-44946843D01*
X210887011Y-44944672D01*
X210767470Y-44862125D01*
X210662621Y-44747232D01*
X210597471Y-44642334D01*
X210567715Y-44577256D01*
X210550183Y-44515348D01*
X210541720Y-44440871D01*
X210539265Y-44352000D01*
X210540459Y-44255069D01*
X210548044Y-44184198D01*
X210565105Y-44123242D01*
X210594733Y-44056058D01*
X210596588Y-44052268D01*
X210688595Y-43912411D01*
X210815446Y-43796590D01*
X210931061Y-43726707D01*
X211040143Y-43671432D01*
X213000863Y-43680888D01*
G37*
X213000863Y-43680888D02*
X213381303Y-43682934D01*
X213720397Y-43685210D01*
X214019130Y-43687733D01*
X214278490Y-43690519D01*
X214499463Y-43693583D01*
X214683035Y-43696941D01*
X214830193Y-43700611D01*
X214941923Y-43704607D01*
X215019212Y-43708946D01*
X215063045Y-43713644D01*
X215067416Y-43714519D01*
X215169383Y-43746006D01*
X215292066Y-43796495D01*
X215422179Y-43859775D01*
X215546434Y-43929631D01*
X215599673Y-43963395D01*
X215754710Y-44083974D01*
X215905827Y-44233918D01*
X216043401Y-44401775D01*
X216157808Y-44576093D01*
X216223101Y-44705289D01*
X216238315Y-44740378D01*
X216252022Y-44773154D01*
X216264315Y-44805903D01*
X216275286Y-44840912D01*
X216285028Y-44880466D01*
X216293632Y-44926854D01*
X216301192Y-44982361D01*
X216307799Y-45049274D01*
X216313545Y-45129879D01*
X216318525Y-45226464D01*
X216322828Y-45341313D01*
X216326549Y-45476715D01*
X216329778Y-45634955D01*
X216332610Y-45818320D01*
X216335135Y-46029096D01*
X216337447Y-46269571D01*
X216339637Y-46542030D01*
X216341799Y-46848760D01*
X216344024Y-47192048D01*
X216346404Y-47574180D01*
X216347749Y-47791343D01*
X216364559Y-50500437D01*
X216281732Y-50665170D01*
X216202993Y-50804699D01*
X216118253Y-50915091D01*
X216015852Y-51009165D01*
X215889309Y-51096519D01*
X215732008Y-51194560D01*
X215008129Y-51204850D01*
X214837023Y-51206805D01*
X214679424Y-51207688D01*
X214540317Y-51207543D01*
X214424691Y-51206413D01*
X214337532Y-51204340D01*
X214283828Y-51201368D01*
X214268375Y-51198459D01*
X214264464Y-51173916D01*
X214260903Y-51112282D01*
X214257815Y-51018799D01*
X214255322Y-50898706D01*
X214253548Y-50757247D01*
X214252613Y-50599662D01*
X214252500Y-50520416D01*
X214252500Y-49859054D01*
X214331875Y-49847690D01*
X214398549Y-49839156D01*
X214484001Y-49829517D01*
X214538250Y-49823961D01*
X214677154Y-49806534D01*
X214781180Y-49783648D01*
X214857665Y-49753014D01*
X214913945Y-49712344D01*
X214922026Y-49704273D01*
X214982750Y-49640894D01*
X214982750Y-48701922D01*
X214982695Y-48477971D01*
X214982417Y-48292449D01*
X214981745Y-48141454D01*
X214980508Y-48021081D01*
X214978536Y-47927427D01*
X214975658Y-47856589D01*
X214971703Y-47804662D01*
X214966500Y-47767743D01*
X214959879Y-47741929D01*
X214951669Y-47723315D01*
X214941699Y-47707999D01*
X214939128Y-47704517D01*
X214900247Y-47665142D01*
X214845115Y-47633706D01*
X214767434Y-47608219D01*
X214660909Y-47586690D01*
X214519242Y-47567129D01*
X214495916Y-47564396D01*
X214263083Y-47537583D01*
X214257494Y-46865542D01*
X214251905Y-46193500D01*
X215020863Y-46193500D01*
X215007328Y-45986965D01*
X214991538Y-45803942D01*
X214970115Y-45657854D01*
X214942031Y-45543553D01*
X214906255Y-45455892D01*
X214898232Y-45441355D01*
X214833095Y-45352133D01*
X214741535Y-45257221D01*
X214635798Y-45168149D01*
X214537940Y-45102103D01*
X214432416Y-45040249D01*
X212950750Y-45025959D01*
X212618086Y-45022675D01*
X212325051Y-45019568D01*
X212068940Y-45016532D01*
X211847049Y-45013460D01*
X211656673Y-45010246D01*
X211495108Y-45006783D01*
X211359651Y-45002964D01*
X211247596Y-44998684D01*
X211156240Y-44993835D01*
X211082879Y-44988312D01*
X211024808Y-44982007D01*
X210979322Y-44974814D01*
X210943719Y-44966627D01*
X210915293Y-44957338D01*
X210891340Y-44946843D01*
X210887011Y-44944672D01*
X210767470Y-44862125D01*
X210662621Y-44747232D01*
X210597471Y-44642334D01*
X210567715Y-44577256D01*
X210550183Y-44515348D01*
X210541720Y-44440871D01*
X210539265Y-44352000D01*
X210540459Y-44255069D01*
X210548044Y-44184198D01*
X210565105Y-44123242D01*
X210594733Y-44056058D01*
X210596588Y-44052268D01*
X210688595Y-43912411D01*
X210815446Y-43796590D01*
X210931061Y-43726707D01*
X211040143Y-43671432D01*
X213000863Y-43680888D01*
G36*
X213860916Y-51199417D02*
G01*
X213256221Y-51205026D01*
X213100272Y-51205982D01*
X212958236Y-51205913D01*
X212835583Y-51204896D01*
X212737784Y-51203010D01*
X212670310Y-51200332D01*
X212638632Y-51196941D01*
X212637096Y-51196207D01*
X212633574Y-51172261D01*
X212630364Y-51111150D01*
X212627573Y-51018039D01*
X212625309Y-50898096D01*
X212623680Y-50756488D01*
X212622796Y-50598382D01*
X212622666Y-50507972D01*
X212622666Y-49834167D01*
X213872086Y-49834167D01*
X213860916Y-51199417D01*
G37*
X213860916Y-51199417D02*
X213256221Y-51205026D01*
X213100272Y-51205982D01*
X212958236Y-51205913D01*
X212835583Y-51204896D01*
X212737784Y-51203010D01*
X212670310Y-51200332D01*
X212638632Y-51196941D01*
X212637096Y-51196207D01*
X212633574Y-51172261D01*
X212630364Y-51111150D01*
X212627573Y-51018039D01*
X212625309Y-50898096D01*
X212623680Y-50756488D01*
X212622796Y-50598382D01*
X212622666Y-50507972D01*
X212622666Y-49834167D01*
X213872086Y-49834167D01*
X213860916Y-51199417D01*
G36*
X212241666Y-47544797D02*
G01*
X212098791Y-47557134D01*
X211925992Y-47572415D01*
X211790336Y-47585393D01*
X211686740Y-47596787D01*
X211610121Y-47607317D01*
X211555397Y-47617702D01*
X211517484Y-47628662D01*
X211491301Y-47640914D01*
X211486801Y-47643730D01*
X211433344Y-47699791D01*
X211388728Y-47786783D01*
X211357833Y-47893488D01*
X211347847Y-47963051D01*
X211338320Y-48071019D01*
X211655775Y-48084759D01*
X211745858Y-48087703D01*
X211871933Y-48090431D01*
X212027659Y-48092874D01*
X212206696Y-48094963D01*
X212402702Y-48096631D01*
X212609337Y-48097807D01*
X212820260Y-48098423D01*
X212922365Y-48098500D01*
X213871500Y-48098500D01*
X213871500Y-49305000D01*
X211334161Y-49305000D01*
X211342766Y-49373792D01*
X211350872Y-49438688D01*
X211360745Y-49517838D01*
X211363884Y-49543024D01*
X211395436Y-49651582D01*
X211458400Y-49733173D01*
X211550500Y-49784969D01*
X211561618Y-49788519D01*
X211617761Y-49799964D01*
X211703353Y-49811077D01*
X211805526Y-49820396D01*
X211885664Y-49825345D01*
X211986742Y-49830839D01*
X212075991Y-49836844D01*
X212142620Y-49842566D01*
X212172875Y-49846503D01*
X212220500Y-49856140D01*
X212220500Y-51210000D01*
X212077625Y-51207823D01*
X211992083Y-51203793D01*
X211882703Y-51194823D01*
X211767475Y-51182502D01*
X211714747Y-51175780D01*
X211426245Y-51118665D01*
X211162377Y-51028125D01*
X210919660Y-50902382D01*
X210694611Y-50739659D01*
X210500406Y-50556008D01*
X210350344Y-50383452D01*
X210231435Y-50213883D01*
X210140261Y-50039060D01*
X210073399Y-49850745D01*
X210027431Y-49640698D01*
X209998935Y-49400681D01*
X209994253Y-49336750D01*
X209988435Y-49217992D01*
X209984506Y-49072871D01*
X209982364Y-48908058D01*
X209981906Y-48730226D01*
X209983030Y-48546048D01*
X209985634Y-48362197D01*
X209989614Y-48185343D01*
X209994869Y-48022162D01*
X210001297Y-47879323D01*
X210008794Y-47763501D01*
X210017259Y-47681368D01*
X210019919Y-47664583D01*
X210053569Y-47541199D01*
X210110813Y-47399278D01*
X210185633Y-47250531D01*
X210272005Y-47106669D01*
X210363910Y-46979404D01*
X210385732Y-46953086D01*
X210563580Y-46763133D01*
X210747921Y-46604194D01*
X210943919Y-46473888D01*
X211156736Y-46369830D01*
X211391536Y-46289637D01*
X211653482Y-46230923D01*
X211947737Y-46191307D01*
X212056458Y-46181733D01*
X212241666Y-46167326D01*
X212241666Y-47544797D01*
G37*
X212241666Y-47544797D02*
X212098791Y-47557134D01*
X211925992Y-47572415D01*
X211790336Y-47585393D01*
X211686740Y-47596787D01*
X211610121Y-47607317D01*
X211555397Y-47617702D01*
X211517484Y-47628662D01*
X211491301Y-47640914D01*
X211486801Y-47643730D01*
X211433344Y-47699791D01*
X211388728Y-47786783D01*
X211357833Y-47893488D01*
X211347847Y-47963051D01*
X211338320Y-48071019D01*
X211655775Y-48084759D01*
X211745858Y-48087703D01*
X211871933Y-48090431D01*
X212027659Y-48092874D01*
X212206696Y-48094963D01*
X212402702Y-48096631D01*
X212609337Y-48097807D01*
X212820260Y-48098423D01*
X212922365Y-48098500D01*
X213871500Y-48098500D01*
X213871500Y-49305000D01*
X211334161Y-49305000D01*
X211342766Y-49373792D01*
X211350872Y-49438688D01*
X211360745Y-49517838D01*
X211363884Y-49543024D01*
X211395436Y-49651582D01*
X211458400Y-49733173D01*
X211550500Y-49784969D01*
X211561618Y-49788519D01*
X211617761Y-49799964D01*
X211703353Y-49811077D01*
X211805526Y-49820396D01*
X211885664Y-49825345D01*
X211986742Y-49830839D01*
X212075991Y-49836844D01*
X212142620Y-49842566D01*
X212172875Y-49846503D01*
X212220500Y-49856140D01*
X212220500Y-51210000D01*
X212077625Y-51207823D01*
X211992083Y-51203793D01*
X211882703Y-51194823D01*
X211767475Y-51182502D01*
X211714747Y-51175780D01*
X211426245Y-51118665D01*
X211162377Y-51028125D01*
X210919660Y-50902382D01*
X210694611Y-50739659D01*
X210500406Y-50556008D01*
X210350344Y-50383452D01*
X210231435Y-50213883D01*
X210140261Y-50039060D01*
X210073399Y-49850745D01*
X210027431Y-49640698D01*
X209998935Y-49400681D01*
X209994253Y-49336750D01*
X209988435Y-49217992D01*
X209984506Y-49072871D01*
X209982364Y-48908058D01*
X209981906Y-48730226D01*
X209983030Y-48546048D01*
X209985634Y-48362197D01*
X209989614Y-48185343D01*
X209994869Y-48022162D01*
X210001297Y-47879323D01*
X210008794Y-47763501D01*
X210017259Y-47681368D01*
X210019919Y-47664583D01*
X210053569Y-47541199D01*
X210110813Y-47399278D01*
X210185633Y-47250531D01*
X210272005Y-47106669D01*
X210363910Y-46979404D01*
X210385732Y-46953086D01*
X210563580Y-46763133D01*
X210747921Y-46604194D01*
X210943919Y-46473888D01*
X211156736Y-46369830D01*
X211391536Y-46289637D01*
X211653482Y-46230923D01*
X211947737Y-46191307D01*
X212056458Y-46181733D01*
X212241666Y-46167326D01*
X212241666Y-47544797D01*
%TO.C,J3*%
D16*
X186569330Y-74391612D02*
X186569330Y-75106705D01*
X186617002Y-75249723D01*
X186712348Y-75345069D01*
X186855367Y-75392742D01*
X186950712Y-75392742D01*
X186187947Y-74391612D02*
X185568200Y-74391612D01*
X185901910Y-74772995D01*
X185758891Y-74772995D01*
X185663545Y-74820667D01*
X185615872Y-74868340D01*
X185568200Y-74963686D01*
X185568200Y-75202050D01*
X185615872Y-75297396D01*
X185663545Y-75345069D01*
X185758891Y-75392742D01*
X186044928Y-75392742D01*
X186140274Y-75345069D01*
X186187947Y-75297396D01*
X191008180Y-68979224D02*
X191008180Y-69790472D01*
X190960459Y-69885913D01*
X190912739Y-69933634D01*
X190817298Y-69981354D01*
X190626416Y-69981354D01*
X190530975Y-69933634D01*
X190483255Y-69885913D01*
X190435534Y-69790472D01*
X190435534Y-68979224D01*
X189958329Y-69885913D02*
X189910609Y-69933634D01*
X189958329Y-69981354D01*
X190006050Y-69933634D01*
X189958329Y-69885913D01*
X189958329Y-69981354D01*
X189147081Y-69456429D02*
X189481125Y-69456429D01*
X189481125Y-69981354D02*
X189481125Y-68979224D01*
X189003920Y-68979224D01*
X188144951Y-69981354D02*
X188622156Y-69981354D01*
X188622156Y-68979224D01*
X187810908Y-69599590D02*
X187047380Y-69599590D01*
X185997530Y-69981354D02*
X186331573Y-69504149D01*
X186570175Y-69981354D02*
X186570175Y-68979224D01*
X186188412Y-68979224D01*
X186092971Y-69026945D01*
X186045250Y-69074665D01*
X185997530Y-69170106D01*
X185997530Y-69313267D01*
X186045250Y-69408708D01*
X186092971Y-69456429D01*
X186188412Y-69504149D01*
X186570175Y-69504149D01*
X185568045Y-69599590D02*
X184804518Y-69599590D01*
X184375034Y-69933634D02*
X184231872Y-69981354D01*
X183993270Y-69981354D01*
X183897829Y-69933634D01*
X183850108Y-69885913D01*
X183802388Y-69790472D01*
X183802388Y-69695031D01*
X183850108Y-69599590D01*
X183897829Y-69551870D01*
X183993270Y-69504149D01*
X184184152Y-69456429D01*
X184279593Y-69408708D01*
X184327313Y-69360988D01*
X184375034Y-69265547D01*
X184375034Y-69170106D01*
X184327313Y-69074665D01*
X184279593Y-69026945D01*
X184184152Y-68979224D01*
X183945549Y-68979224D01*
X183802388Y-69026945D01*
X183372904Y-69981354D02*
X183372904Y-68979224D01*
X183038860Y-69695031D01*
X182704817Y-68979224D01*
X182704817Y-69981354D01*
X182370774Y-68979224D02*
X181798128Y-68979224D01*
X182084451Y-69981354D02*
X182084451Y-68979224D01*
%TO.C,C31*%
D10*
X171787142Y-56557142D02*
X171834761Y-56509523D01*
X171882380Y-56366666D01*
X171882380Y-56271428D01*
X171834761Y-56128571D01*
X171739523Y-56033333D01*
X171644285Y-55985714D01*
X171453809Y-55938095D01*
X171310952Y-55938095D01*
X171120476Y-55985714D01*
X171025238Y-56033333D01*
X170930000Y-56128571D01*
X170882380Y-56271428D01*
X170882380Y-56366666D01*
X170930000Y-56509523D01*
X170977619Y-56557142D01*
X170882380Y-56890476D02*
X170882380Y-57509523D01*
X171263333Y-57176190D01*
X171263333Y-57319047D01*
X171310952Y-57414285D01*
X171358571Y-57461904D01*
X171453809Y-57509523D01*
X171691904Y-57509523D01*
X171787142Y-57461904D01*
X171834761Y-57414285D01*
X171882380Y-57319047D01*
X171882380Y-57033333D01*
X171834761Y-56938095D01*
X171787142Y-56890476D01*
X171882380Y-58461904D02*
X171882380Y-57890476D01*
X171882380Y-58176190D02*
X170882380Y-58176190D01*
X171025238Y-58080952D01*
X171120476Y-57985714D01*
X171168095Y-57890476D01*
%TD*%
M02*
