%TF.GenerationSoftware,KiCad,Pcbnew,(5.1.10-1-10_14)*%
%TF.CreationDate,2021-07-19T22:49:48+10:00*%
%TF.ProjectId,samd21_gps_tracker,73616d64-3231-45f6-9770-735f74726163,rev?*%
%TF.SameCoordinates,Original*%
%TF.FileFunction,Legend,Top*%
%TF.FilePolarity,Positive*%
%FSLAX46Y46*%
G04 Gerber Fmt 4.6, Leading zero omitted, Abs format (unit mm)*
G04 Created by KiCad (PCBNEW (5.1.10-1-10_14)) date 2021-07-19 22:49:48*
%MOMM*%
%LPD*%
G01*
G04 APERTURE LIST*
%ADD10C,0.200000*%
%ADD11C,0.127000*%
%ADD12C,0.300000*%
%ADD13C,0.120000*%
%ADD14C,0.010000*%
G04 APERTURE END LIST*
D10*
%TO.C,J4*%
X196890000Y-70575000D02*
X196890000Y-54825000D01*
X181100000Y-70575000D02*
X180930000Y-70575000D01*
X180930000Y-70575000D02*
X180930000Y-58860000D01*
X180930000Y-58860000D02*
X179920000Y-58860000D01*
X179920000Y-58860000D02*
X179920000Y-54825000D01*
X181100000Y-54825000D02*
X179920000Y-54825000D01*
D11*
%TO.C,J6*%
X152700000Y-71300000D02*
X155300000Y-71300000D01*
D12*
%TO.C,U4*%
X191800000Y-50700000D02*
G75*
G03*
X191800000Y-50700000I-100000J0D01*
G01*
D11*
X180125000Y-37425000D02*
X180125000Y-37800000D01*
X189875000Y-37425000D02*
X180125000Y-37425000D01*
X189875000Y-37800000D02*
X189875000Y-37425000D01*
X182350000Y-51575000D02*
X180125000Y-51575000D01*
X189875000Y-51575000D02*
X187650000Y-51575000D01*
D13*
%TO.C,U8*%
X172960000Y-52590000D02*
X170000000Y-52590000D01*
X157040000Y-52590000D02*
X157040000Y-54900000D01*
X157040000Y-52590000D02*
X160000000Y-52590000D01*
X172960000Y-52590000D02*
X172960000Y-54900000D01*
X157040000Y-70410000D02*
X160000000Y-70410000D01*
X157040000Y-70410000D02*
X157040000Y-68100000D01*
X172850000Y-70410000D02*
X170000000Y-70410000D01*
D14*
%TO.C,J7*%
G36*
X213871500Y-47548167D02*
G01*
X212622666Y-47548167D01*
X212622666Y-46193500D01*
X213871500Y-46193500D01*
X213871500Y-47548167D01*
G37*
X213871500Y-47548167D02*
X212622666Y-47548167D01*
X212622666Y-46193500D01*
X213871500Y-46193500D01*
X213871500Y-47548167D01*
G36*
X213000863Y-43680888D02*
G01*
X213381303Y-43682934D01*
X213720397Y-43685210D01*
X214019130Y-43687733D01*
X214278490Y-43690519D01*
X214499463Y-43693583D01*
X214683035Y-43696941D01*
X214830193Y-43700611D01*
X214941923Y-43704607D01*
X215019212Y-43708946D01*
X215063045Y-43713644D01*
X215067416Y-43714519D01*
X215169383Y-43746006D01*
X215292066Y-43796495D01*
X215422179Y-43859775D01*
X215546434Y-43929631D01*
X215599673Y-43963395D01*
X215754710Y-44083974D01*
X215905827Y-44233918D01*
X216043401Y-44401775D01*
X216157808Y-44576093D01*
X216223101Y-44705289D01*
X216238315Y-44740378D01*
X216252022Y-44773154D01*
X216264315Y-44805903D01*
X216275286Y-44840912D01*
X216285028Y-44880466D01*
X216293632Y-44926854D01*
X216301192Y-44982361D01*
X216307799Y-45049274D01*
X216313545Y-45129879D01*
X216318525Y-45226464D01*
X216322828Y-45341313D01*
X216326549Y-45476715D01*
X216329778Y-45634955D01*
X216332610Y-45818320D01*
X216335135Y-46029096D01*
X216337447Y-46269571D01*
X216339637Y-46542030D01*
X216341799Y-46848760D01*
X216344024Y-47192048D01*
X216346404Y-47574180D01*
X216347749Y-47791343D01*
X216364559Y-50500437D01*
X216281732Y-50665170D01*
X216202993Y-50804699D01*
X216118253Y-50915091D01*
X216015852Y-51009165D01*
X215889309Y-51096519D01*
X215732008Y-51194560D01*
X215008129Y-51204850D01*
X214837023Y-51206805D01*
X214679424Y-51207688D01*
X214540317Y-51207543D01*
X214424691Y-51206413D01*
X214337532Y-51204340D01*
X214283828Y-51201368D01*
X214268375Y-51198459D01*
X214264464Y-51173916D01*
X214260903Y-51112282D01*
X214257815Y-51018799D01*
X214255322Y-50898706D01*
X214253548Y-50757247D01*
X214252613Y-50599662D01*
X214252500Y-50520416D01*
X214252500Y-49859054D01*
X214331875Y-49847690D01*
X214398549Y-49839156D01*
X214484001Y-49829517D01*
X214538250Y-49823961D01*
X214677154Y-49806534D01*
X214781180Y-49783648D01*
X214857665Y-49753014D01*
X214913945Y-49712344D01*
X214922026Y-49704273D01*
X214982750Y-49640894D01*
X214982750Y-48701922D01*
X214982695Y-48477971D01*
X214982417Y-48292449D01*
X214981745Y-48141454D01*
X214980508Y-48021081D01*
X214978536Y-47927427D01*
X214975658Y-47856589D01*
X214971703Y-47804662D01*
X214966500Y-47767743D01*
X214959879Y-47741929D01*
X214951669Y-47723315D01*
X214941699Y-47707999D01*
X214939128Y-47704517D01*
X214900247Y-47665142D01*
X214845115Y-47633706D01*
X214767434Y-47608219D01*
X214660909Y-47586690D01*
X214519242Y-47567129D01*
X214495916Y-47564396D01*
X214263083Y-47537583D01*
X214257494Y-46865542D01*
X214251905Y-46193500D01*
X215020863Y-46193500D01*
X215007328Y-45986965D01*
X214991538Y-45803942D01*
X214970115Y-45657854D01*
X214942031Y-45543553D01*
X214906255Y-45455892D01*
X214898232Y-45441355D01*
X214833095Y-45352133D01*
X214741535Y-45257221D01*
X214635798Y-45168149D01*
X214537940Y-45102103D01*
X214432416Y-45040249D01*
X212950750Y-45025959D01*
X212618086Y-45022675D01*
X212325051Y-45019568D01*
X212068940Y-45016532D01*
X211847049Y-45013460D01*
X211656673Y-45010246D01*
X211495108Y-45006783D01*
X211359651Y-45002964D01*
X211247596Y-44998684D01*
X211156240Y-44993835D01*
X211082879Y-44988312D01*
X211024808Y-44982007D01*
X210979322Y-44974814D01*
X210943719Y-44966627D01*
X210915293Y-44957338D01*
X210891340Y-44946843D01*
X210887011Y-44944672D01*
X210767470Y-44862125D01*
X210662621Y-44747232D01*
X210597471Y-44642334D01*
X210567715Y-44577256D01*
X210550183Y-44515348D01*
X210541720Y-44440871D01*
X210539265Y-44352000D01*
X210540459Y-44255069D01*
X210548044Y-44184198D01*
X210565105Y-44123242D01*
X210594733Y-44056058D01*
X210596588Y-44052268D01*
X210688595Y-43912411D01*
X210815446Y-43796590D01*
X210931061Y-43726707D01*
X211040143Y-43671432D01*
X213000863Y-43680888D01*
G37*
X213000863Y-43680888D02*
X213381303Y-43682934D01*
X213720397Y-43685210D01*
X214019130Y-43687733D01*
X214278490Y-43690519D01*
X214499463Y-43693583D01*
X214683035Y-43696941D01*
X214830193Y-43700611D01*
X214941923Y-43704607D01*
X215019212Y-43708946D01*
X215063045Y-43713644D01*
X215067416Y-43714519D01*
X215169383Y-43746006D01*
X215292066Y-43796495D01*
X215422179Y-43859775D01*
X215546434Y-43929631D01*
X215599673Y-43963395D01*
X215754710Y-44083974D01*
X215905827Y-44233918D01*
X216043401Y-44401775D01*
X216157808Y-44576093D01*
X216223101Y-44705289D01*
X216238315Y-44740378D01*
X216252022Y-44773154D01*
X216264315Y-44805903D01*
X216275286Y-44840912D01*
X216285028Y-44880466D01*
X216293632Y-44926854D01*
X216301192Y-44982361D01*
X216307799Y-45049274D01*
X216313545Y-45129879D01*
X216318525Y-45226464D01*
X216322828Y-45341313D01*
X216326549Y-45476715D01*
X216329778Y-45634955D01*
X216332610Y-45818320D01*
X216335135Y-46029096D01*
X216337447Y-46269571D01*
X216339637Y-46542030D01*
X216341799Y-46848760D01*
X216344024Y-47192048D01*
X216346404Y-47574180D01*
X216347749Y-47791343D01*
X216364559Y-50500437D01*
X216281732Y-50665170D01*
X216202993Y-50804699D01*
X216118253Y-50915091D01*
X216015852Y-51009165D01*
X215889309Y-51096519D01*
X215732008Y-51194560D01*
X215008129Y-51204850D01*
X214837023Y-51206805D01*
X214679424Y-51207688D01*
X214540317Y-51207543D01*
X214424691Y-51206413D01*
X214337532Y-51204340D01*
X214283828Y-51201368D01*
X214268375Y-51198459D01*
X214264464Y-51173916D01*
X214260903Y-51112282D01*
X214257815Y-51018799D01*
X214255322Y-50898706D01*
X214253548Y-50757247D01*
X214252613Y-50599662D01*
X214252500Y-50520416D01*
X214252500Y-49859054D01*
X214331875Y-49847690D01*
X214398549Y-49839156D01*
X214484001Y-49829517D01*
X214538250Y-49823961D01*
X214677154Y-49806534D01*
X214781180Y-49783648D01*
X214857665Y-49753014D01*
X214913945Y-49712344D01*
X214922026Y-49704273D01*
X214982750Y-49640894D01*
X214982750Y-48701922D01*
X214982695Y-48477971D01*
X214982417Y-48292449D01*
X214981745Y-48141454D01*
X214980508Y-48021081D01*
X214978536Y-47927427D01*
X214975658Y-47856589D01*
X214971703Y-47804662D01*
X214966500Y-47767743D01*
X214959879Y-47741929D01*
X214951669Y-47723315D01*
X214941699Y-47707999D01*
X214939128Y-47704517D01*
X214900247Y-47665142D01*
X214845115Y-47633706D01*
X214767434Y-47608219D01*
X214660909Y-47586690D01*
X214519242Y-47567129D01*
X214495916Y-47564396D01*
X214263083Y-47537583D01*
X214257494Y-46865542D01*
X214251905Y-46193500D01*
X215020863Y-46193500D01*
X215007328Y-45986965D01*
X214991538Y-45803942D01*
X214970115Y-45657854D01*
X214942031Y-45543553D01*
X214906255Y-45455892D01*
X214898232Y-45441355D01*
X214833095Y-45352133D01*
X214741535Y-45257221D01*
X214635798Y-45168149D01*
X214537940Y-45102103D01*
X214432416Y-45040249D01*
X212950750Y-45025959D01*
X212618086Y-45022675D01*
X212325051Y-45019568D01*
X212068940Y-45016532D01*
X211847049Y-45013460D01*
X211656673Y-45010246D01*
X211495108Y-45006783D01*
X211359651Y-45002964D01*
X211247596Y-44998684D01*
X211156240Y-44993835D01*
X211082879Y-44988312D01*
X211024808Y-44982007D01*
X210979322Y-44974814D01*
X210943719Y-44966627D01*
X210915293Y-44957338D01*
X210891340Y-44946843D01*
X210887011Y-44944672D01*
X210767470Y-44862125D01*
X210662621Y-44747232D01*
X210597471Y-44642334D01*
X210567715Y-44577256D01*
X210550183Y-44515348D01*
X210541720Y-44440871D01*
X210539265Y-44352000D01*
X210540459Y-44255069D01*
X210548044Y-44184198D01*
X210565105Y-44123242D01*
X210594733Y-44056058D01*
X210596588Y-44052268D01*
X210688595Y-43912411D01*
X210815446Y-43796590D01*
X210931061Y-43726707D01*
X211040143Y-43671432D01*
X213000863Y-43680888D01*
G36*
X213860916Y-51199417D02*
G01*
X213256221Y-51205026D01*
X213100272Y-51205982D01*
X212958236Y-51205913D01*
X212835583Y-51204896D01*
X212737784Y-51203010D01*
X212670310Y-51200332D01*
X212638632Y-51196941D01*
X212637096Y-51196207D01*
X212633574Y-51172261D01*
X212630364Y-51111150D01*
X212627573Y-51018039D01*
X212625309Y-50898096D01*
X212623680Y-50756488D01*
X212622796Y-50598382D01*
X212622666Y-50507972D01*
X212622666Y-49834167D01*
X213872086Y-49834167D01*
X213860916Y-51199417D01*
G37*
X213860916Y-51199417D02*
X213256221Y-51205026D01*
X213100272Y-51205982D01*
X212958236Y-51205913D01*
X212835583Y-51204896D01*
X212737784Y-51203010D01*
X212670310Y-51200332D01*
X212638632Y-51196941D01*
X212637096Y-51196207D01*
X212633574Y-51172261D01*
X212630364Y-51111150D01*
X212627573Y-51018039D01*
X212625309Y-50898096D01*
X212623680Y-50756488D01*
X212622796Y-50598382D01*
X212622666Y-50507972D01*
X212622666Y-49834167D01*
X213872086Y-49834167D01*
X213860916Y-51199417D01*
G36*
X212241666Y-47544797D02*
G01*
X212098791Y-47557134D01*
X211925992Y-47572415D01*
X211790336Y-47585393D01*
X211686740Y-47596787D01*
X211610121Y-47607317D01*
X211555397Y-47617702D01*
X211517484Y-47628662D01*
X211491301Y-47640914D01*
X211486801Y-47643730D01*
X211433344Y-47699791D01*
X211388728Y-47786783D01*
X211357833Y-47893488D01*
X211347847Y-47963051D01*
X211338320Y-48071019D01*
X211655775Y-48084759D01*
X211745858Y-48087703D01*
X211871933Y-48090431D01*
X212027659Y-48092874D01*
X212206696Y-48094963D01*
X212402702Y-48096631D01*
X212609337Y-48097807D01*
X212820260Y-48098423D01*
X212922365Y-48098500D01*
X213871500Y-48098500D01*
X213871500Y-49305000D01*
X211334161Y-49305000D01*
X211342766Y-49373792D01*
X211350872Y-49438688D01*
X211360745Y-49517838D01*
X211363884Y-49543024D01*
X211395436Y-49651582D01*
X211458400Y-49733173D01*
X211550500Y-49784969D01*
X211561618Y-49788519D01*
X211617761Y-49799964D01*
X211703353Y-49811077D01*
X211805526Y-49820396D01*
X211885664Y-49825345D01*
X211986742Y-49830839D01*
X212075991Y-49836844D01*
X212142620Y-49842566D01*
X212172875Y-49846503D01*
X212220500Y-49856140D01*
X212220500Y-51210000D01*
X212077625Y-51207823D01*
X211992083Y-51203793D01*
X211882703Y-51194823D01*
X211767475Y-51182502D01*
X211714747Y-51175780D01*
X211426245Y-51118665D01*
X211162377Y-51028125D01*
X210919660Y-50902382D01*
X210694611Y-50739659D01*
X210500406Y-50556008D01*
X210350344Y-50383452D01*
X210231435Y-50213883D01*
X210140261Y-50039060D01*
X210073399Y-49850745D01*
X210027431Y-49640698D01*
X209998935Y-49400681D01*
X209994253Y-49336750D01*
X209988435Y-49217992D01*
X209984506Y-49072871D01*
X209982364Y-48908058D01*
X209981906Y-48730226D01*
X209983030Y-48546048D01*
X209985634Y-48362197D01*
X209989614Y-48185343D01*
X209994869Y-48022162D01*
X210001297Y-47879323D01*
X210008794Y-47763501D01*
X210017259Y-47681368D01*
X210019919Y-47664583D01*
X210053569Y-47541199D01*
X210110813Y-47399278D01*
X210185633Y-47250531D01*
X210272005Y-47106669D01*
X210363910Y-46979404D01*
X210385732Y-46953086D01*
X210563580Y-46763133D01*
X210747921Y-46604194D01*
X210943919Y-46473888D01*
X211156736Y-46369830D01*
X211391536Y-46289637D01*
X211653482Y-46230923D01*
X211947737Y-46191307D01*
X212056458Y-46181733D01*
X212241666Y-46167326D01*
X212241666Y-47544797D01*
G37*
X212241666Y-47544797D02*
X212098791Y-47557134D01*
X211925992Y-47572415D01*
X211790336Y-47585393D01*
X211686740Y-47596787D01*
X211610121Y-47607317D01*
X211555397Y-47617702D01*
X211517484Y-47628662D01*
X211491301Y-47640914D01*
X211486801Y-47643730D01*
X211433344Y-47699791D01*
X211388728Y-47786783D01*
X211357833Y-47893488D01*
X211347847Y-47963051D01*
X211338320Y-48071019D01*
X211655775Y-48084759D01*
X211745858Y-48087703D01*
X211871933Y-48090431D01*
X212027659Y-48092874D01*
X212206696Y-48094963D01*
X212402702Y-48096631D01*
X212609337Y-48097807D01*
X212820260Y-48098423D01*
X212922365Y-48098500D01*
X213871500Y-48098500D01*
X213871500Y-49305000D01*
X211334161Y-49305000D01*
X211342766Y-49373792D01*
X211350872Y-49438688D01*
X211360745Y-49517838D01*
X211363884Y-49543024D01*
X211395436Y-49651582D01*
X211458400Y-49733173D01*
X211550500Y-49784969D01*
X211561618Y-49788519D01*
X211617761Y-49799964D01*
X211703353Y-49811077D01*
X211805526Y-49820396D01*
X211885664Y-49825345D01*
X211986742Y-49830839D01*
X212075991Y-49836844D01*
X212142620Y-49842566D01*
X212172875Y-49846503D01*
X212220500Y-49856140D01*
X212220500Y-51210000D01*
X212077625Y-51207823D01*
X211992083Y-51203793D01*
X211882703Y-51194823D01*
X211767475Y-51182502D01*
X211714747Y-51175780D01*
X211426245Y-51118665D01*
X211162377Y-51028125D01*
X210919660Y-50902382D01*
X210694611Y-50739659D01*
X210500406Y-50556008D01*
X210350344Y-50383452D01*
X210231435Y-50213883D01*
X210140261Y-50039060D01*
X210073399Y-49850745D01*
X210027431Y-49640698D01*
X209998935Y-49400681D01*
X209994253Y-49336750D01*
X209988435Y-49217992D01*
X209984506Y-49072871D01*
X209982364Y-48908058D01*
X209981906Y-48730226D01*
X209983030Y-48546048D01*
X209985634Y-48362197D01*
X209989614Y-48185343D01*
X209994869Y-48022162D01*
X210001297Y-47879323D01*
X210008794Y-47763501D01*
X210017259Y-47681368D01*
X210019919Y-47664583D01*
X210053569Y-47541199D01*
X210110813Y-47399278D01*
X210185633Y-47250531D01*
X210272005Y-47106669D01*
X210363910Y-46979404D01*
X210385732Y-46953086D01*
X210563580Y-46763133D01*
X210747921Y-46604194D01*
X210943919Y-46473888D01*
X211156736Y-46369830D01*
X211391536Y-46289637D01*
X211653482Y-46230923D01*
X211947737Y-46191307D01*
X212056458Y-46181733D01*
X212241666Y-46167326D01*
X212241666Y-47544797D01*
%TD*%
M02*
