%TF.GenerationSoftware,KiCad,Pcbnew,(5.1.10-1-10_14)*%
%TF.CreationDate,2021-07-19T22:49:48+10:00*%
%TF.ProjectId,samd21_gps_tracker,73616d64-3231-45f6-9770-735f74726163,rev?*%
%TF.SameCoordinates,Original*%
%TF.FileFunction,Soldermask,Bot*%
%TF.FilePolarity,Negative*%
%FSLAX46Y46*%
G04 Gerber Fmt 4.6, Leading zero omitted, Abs format (unit mm)*
G04 Created by KiCad (PCBNEW (5.1.10-1-10_14)) date 2021-07-19 22:49:48*
%MOMM*%
%LPD*%
G01*
G04 APERTURE LIST*
%ADD10R,1.450000X0.600000*%
%ADD11R,1.450000X0.300000*%
%ADD12O,2.100000X1.000000*%
%ADD13C,0.650000*%
%ADD14O,1.600000X1.000000*%
%ADD15R,1.524000X1.016000*%
%ADD16R,1.016000X1.524000*%
%ADD17R,1.050000X1.100000*%
%ADD18R,1.100000X2.250000*%
%ADD19R,1.800000X2.500000*%
%ADD20R,1.100000X1.100000*%
%ADD21C,2.374900*%
%ADD22C,0.990600*%
%ADD23C,0.787400*%
%ADD24O,3.600000X1.800000*%
%ADD25R,2.950000X3.500000*%
%ADD26R,0.800000X0.900000*%
%ADD27R,0.650000X1.220000*%
%ADD28C,0.900000*%
%ADD29R,0.700000X1.500000*%
%ADD30R,1.000000X0.800000*%
%ADD31R,0.250000X1.300000*%
%ADD32R,1.300000X0.250000*%
%ADD33R,0.375000X0.350000*%
%ADD34R,0.350000X0.375000*%
%ADD35R,1.800000X1.000000*%
%ADD36R,1.200000X1.400000*%
G04 APERTURE END LIST*
D10*
%TO.C,J5*%
X145545000Y-53250000D03*
X145545000Y-54050000D03*
X145545000Y-58950000D03*
X145545000Y-59750000D03*
X145545000Y-59750000D03*
X145545000Y-58950000D03*
X145545000Y-54050000D03*
X145545000Y-53250000D03*
D11*
X145545000Y-58250000D03*
X145545000Y-57750000D03*
X145545000Y-57250000D03*
X145545000Y-56250000D03*
X145545000Y-55750000D03*
X145545000Y-55250000D03*
X145545000Y-54750000D03*
X145545000Y-56750000D03*
D12*
X144630000Y-52180000D03*
X144630000Y-60820000D03*
D13*
X144100000Y-59390000D03*
D14*
X140450000Y-60820000D03*
D13*
X144100000Y-53610000D03*
D14*
X140450000Y-52180000D03*
%TD*%
D15*
%TO.C,U5*%
X176110000Y-43435000D03*
X176110000Y-44705000D03*
X176110000Y-45975000D03*
X176110000Y-47245000D03*
X176110000Y-48515000D03*
X176110000Y-49785000D03*
X176110000Y-51055000D03*
X176110000Y-52325000D03*
X176110000Y-53595000D03*
X176110000Y-54865000D03*
X176110000Y-56135000D03*
X176110000Y-57405000D03*
X176110000Y-58675000D03*
X176110000Y-59945000D03*
X176110000Y-61215000D03*
X176110000Y-62485000D03*
X176110000Y-63755000D03*
X176110000Y-65025000D03*
X176110000Y-66295000D03*
X176110000Y-67565000D03*
D16*
X181190000Y-68835000D03*
X182460000Y-68835000D03*
X183730000Y-68835000D03*
X185000000Y-68835000D03*
X186270000Y-68835000D03*
X187540000Y-68835000D03*
X188810000Y-68835000D03*
D15*
X193890000Y-67565000D03*
X193890000Y-66295000D03*
X193890000Y-65025000D03*
X193890000Y-63755000D03*
X193890000Y-62485000D03*
X193890000Y-61215000D03*
X193890000Y-59945000D03*
X193890000Y-58675000D03*
X193890000Y-57405000D03*
X193890000Y-56135000D03*
X193890000Y-54865000D03*
X193890000Y-53595000D03*
X193890000Y-52325000D03*
X193890000Y-51055000D03*
X193890000Y-49785000D03*
X193890000Y-48515000D03*
X193890000Y-47245000D03*
X193890000Y-45975000D03*
X193890000Y-44705000D03*
X193890000Y-43435000D03*
%TD*%
D17*
%TO.C,J3*%
X186500000Y-71150000D03*
D18*
X187975000Y-72700000D03*
X185025000Y-72700000D03*
%TD*%
%TO.C,C1*%
G36*
G01*
X151775000Y-56250000D02*
X151775000Y-55750000D01*
G75*
G02*
X152000000Y-55525000I225000J0D01*
G01*
X152450000Y-55525000D01*
G75*
G02*
X152675000Y-55750000I0J-225000D01*
G01*
X152675000Y-56250000D01*
G75*
G02*
X152450000Y-56475000I-225000J0D01*
G01*
X152000000Y-56475000D01*
G75*
G02*
X151775000Y-56250000I0J225000D01*
G01*
G37*
G36*
G01*
X153325000Y-56250000D02*
X153325000Y-55750000D01*
G75*
G02*
X153550000Y-55525000I225000J0D01*
G01*
X154000000Y-55525000D01*
G75*
G02*
X154225000Y-55750000I0J-225000D01*
G01*
X154225000Y-56250000D01*
G75*
G02*
X154000000Y-56475000I-225000J0D01*
G01*
X153550000Y-56475000D01*
G75*
G02*
X153325000Y-56250000I0J225000D01*
G01*
G37*
%TD*%
%TO.C,C2*%
G36*
G01*
X152675000Y-52750000D02*
X152675000Y-53250000D01*
G75*
G02*
X152450000Y-53475000I-225000J0D01*
G01*
X152000000Y-53475000D01*
G75*
G02*
X151775000Y-53250000I0J225000D01*
G01*
X151775000Y-52750000D01*
G75*
G02*
X152000000Y-52525000I225000J0D01*
G01*
X152450000Y-52525000D01*
G75*
G02*
X152675000Y-52750000I0J-225000D01*
G01*
G37*
G36*
G01*
X154225000Y-52750000D02*
X154225000Y-53250000D01*
G75*
G02*
X154000000Y-53475000I-225000J0D01*
G01*
X153550000Y-53475000D01*
G75*
G02*
X153325000Y-53250000I0J225000D01*
G01*
X153325000Y-52750000D01*
G75*
G02*
X153550000Y-52525000I225000J0D01*
G01*
X154000000Y-52525000D01*
G75*
G02*
X154225000Y-52750000I0J-225000D01*
G01*
G37*
%TD*%
%TO.C,C3*%
G36*
G01*
X155175000Y-58250000D02*
X155175000Y-58750000D01*
G75*
G02*
X154950000Y-58975000I-225000J0D01*
G01*
X154500000Y-58975000D01*
G75*
G02*
X154275000Y-58750000I0J225000D01*
G01*
X154275000Y-58250000D01*
G75*
G02*
X154500000Y-58025000I225000J0D01*
G01*
X154950000Y-58025000D01*
G75*
G02*
X155175000Y-58250000I0J-225000D01*
G01*
G37*
G36*
G01*
X156725000Y-58250000D02*
X156725000Y-58750000D01*
G75*
G02*
X156500000Y-58975000I-225000J0D01*
G01*
X156050000Y-58975000D01*
G75*
G02*
X155825000Y-58750000I0J225000D01*
G01*
X155825000Y-58250000D01*
G75*
G02*
X156050000Y-58025000I225000J0D01*
G01*
X156500000Y-58025000D01*
G75*
G02*
X156725000Y-58250000I0J-225000D01*
G01*
G37*
%TD*%
%TO.C,C4*%
G36*
G01*
X155175000Y-59950000D02*
X155175000Y-60450000D01*
G75*
G02*
X154950000Y-60675000I-225000J0D01*
G01*
X154500000Y-60675000D01*
G75*
G02*
X154275000Y-60450000I0J225000D01*
G01*
X154275000Y-59950000D01*
G75*
G02*
X154500000Y-59725000I225000J0D01*
G01*
X154950000Y-59725000D01*
G75*
G02*
X155175000Y-59950000I0J-225000D01*
G01*
G37*
G36*
G01*
X156725000Y-59950000D02*
X156725000Y-60450000D01*
G75*
G02*
X156500000Y-60675000I-225000J0D01*
G01*
X156050000Y-60675000D01*
G75*
G02*
X155825000Y-60450000I0J225000D01*
G01*
X155825000Y-59950000D01*
G75*
G02*
X156050000Y-59725000I225000J0D01*
G01*
X156500000Y-59725000D01*
G75*
G02*
X156725000Y-59950000I0J-225000D01*
G01*
G37*
%TD*%
%TO.C,C5*%
G36*
G01*
X218275000Y-55550000D02*
X218275000Y-56050000D01*
G75*
G02*
X218050000Y-56275000I-225000J0D01*
G01*
X217600000Y-56275000D01*
G75*
G02*
X217375000Y-56050000I0J225000D01*
G01*
X217375000Y-55550000D01*
G75*
G02*
X217600000Y-55325000I225000J0D01*
G01*
X218050000Y-55325000D01*
G75*
G02*
X218275000Y-55550000I0J-225000D01*
G01*
G37*
G36*
G01*
X219825000Y-55550000D02*
X219825000Y-56050000D01*
G75*
G02*
X219600000Y-56275000I-225000J0D01*
G01*
X219150000Y-56275000D01*
G75*
G02*
X218925000Y-56050000I0J225000D01*
G01*
X218925000Y-55550000D01*
G75*
G02*
X219150000Y-55325000I225000J0D01*
G01*
X219600000Y-55325000D01*
G75*
G02*
X219825000Y-55550000I0J-225000D01*
G01*
G37*
%TD*%
%TO.C,C6*%
G36*
G01*
X224505000Y-50220000D02*
X224505000Y-51320000D01*
G75*
G02*
X224255000Y-51570000I-250000J0D01*
G01*
X221430000Y-51570000D01*
G75*
G02*
X221180000Y-51320000I0J250000D01*
G01*
X221180000Y-50220000D01*
G75*
G02*
X221430000Y-49970000I250000J0D01*
G01*
X224255000Y-49970000D01*
G75*
G02*
X224505000Y-50220000I0J-250000D01*
G01*
G37*
G36*
G01*
X229580000Y-50220000D02*
X229580000Y-51320000D01*
G75*
G02*
X229330000Y-51570000I-250000J0D01*
G01*
X226505000Y-51570000D01*
G75*
G02*
X226255000Y-51320000I0J250000D01*
G01*
X226255000Y-50220000D01*
G75*
G02*
X226505000Y-49970000I250000J0D01*
G01*
X229330000Y-49970000D01*
G75*
G02*
X229580000Y-50220000I0J-250000D01*
G01*
G37*
%TD*%
%TO.C,C7*%
G36*
G01*
X225950000Y-63600000D02*
X224850000Y-63600000D01*
G75*
G02*
X224600000Y-63350000I0J250000D01*
G01*
X224600000Y-60525000D01*
G75*
G02*
X224850000Y-60275000I250000J0D01*
G01*
X225950000Y-60275000D01*
G75*
G02*
X226200000Y-60525000I0J-250000D01*
G01*
X226200000Y-63350000D01*
G75*
G02*
X225950000Y-63600000I-250000J0D01*
G01*
G37*
G36*
G01*
X225950000Y-58525000D02*
X224850000Y-58525000D01*
G75*
G02*
X224600000Y-58275000I0J250000D01*
G01*
X224600000Y-55450000D01*
G75*
G02*
X224850000Y-55200000I250000J0D01*
G01*
X225950000Y-55200000D01*
G75*
G02*
X226200000Y-55450000I0J-250000D01*
G01*
X226200000Y-58275000D01*
G75*
G02*
X225950000Y-58525000I-250000J0D01*
G01*
G37*
%TD*%
%TO.C,C8*%
G36*
G01*
X160750000Y-67325000D02*
X161250000Y-67325000D01*
G75*
G02*
X161475000Y-67550000I0J-225000D01*
G01*
X161475000Y-68000000D01*
G75*
G02*
X161250000Y-68225000I-225000J0D01*
G01*
X160750000Y-68225000D01*
G75*
G02*
X160525000Y-68000000I0J225000D01*
G01*
X160525000Y-67550000D01*
G75*
G02*
X160750000Y-67325000I225000J0D01*
G01*
G37*
G36*
G01*
X160750000Y-65775000D02*
X161250000Y-65775000D01*
G75*
G02*
X161475000Y-66000000I0J-225000D01*
G01*
X161475000Y-66450000D01*
G75*
G02*
X161250000Y-66675000I-225000J0D01*
G01*
X160750000Y-66675000D01*
G75*
G02*
X160525000Y-66450000I0J225000D01*
G01*
X160525000Y-66000000D01*
G75*
G02*
X160750000Y-65775000I225000J0D01*
G01*
G37*
%TD*%
%TO.C,C9*%
G36*
G01*
X163950000Y-49225000D02*
X163450000Y-49225000D01*
G75*
G02*
X163225000Y-49000000I0J225000D01*
G01*
X163225000Y-48550000D01*
G75*
G02*
X163450000Y-48325000I225000J0D01*
G01*
X163950000Y-48325000D01*
G75*
G02*
X164175000Y-48550000I0J-225000D01*
G01*
X164175000Y-49000000D01*
G75*
G02*
X163950000Y-49225000I-225000J0D01*
G01*
G37*
G36*
G01*
X163950000Y-47675000D02*
X163450000Y-47675000D01*
G75*
G02*
X163225000Y-47450000I0J225000D01*
G01*
X163225000Y-47000000D01*
G75*
G02*
X163450000Y-46775000I225000J0D01*
G01*
X163950000Y-46775000D01*
G75*
G02*
X164175000Y-47000000I0J-225000D01*
G01*
X164175000Y-47450000D01*
G75*
G02*
X163950000Y-47675000I-225000J0D01*
G01*
G37*
%TD*%
%TO.C,C10*%
G36*
G01*
X211725000Y-65250000D02*
X211725000Y-65750000D01*
G75*
G02*
X211500000Y-65975000I-225000J0D01*
G01*
X211050000Y-65975000D01*
G75*
G02*
X210825000Y-65750000I0J225000D01*
G01*
X210825000Y-65250000D01*
G75*
G02*
X211050000Y-65025000I225000J0D01*
G01*
X211500000Y-65025000D01*
G75*
G02*
X211725000Y-65250000I0J-225000D01*
G01*
G37*
G36*
G01*
X210175000Y-65250000D02*
X210175000Y-65750000D01*
G75*
G02*
X209950000Y-65975000I-225000J0D01*
G01*
X209500000Y-65975000D01*
G75*
G02*
X209275000Y-65750000I0J225000D01*
G01*
X209275000Y-65250000D01*
G75*
G02*
X209500000Y-65025000I225000J0D01*
G01*
X209950000Y-65025000D01*
G75*
G02*
X210175000Y-65250000I0J-225000D01*
G01*
G37*
%TD*%
%TO.C,C11*%
G36*
G01*
X205250000Y-46525000D02*
X205750000Y-46525000D01*
G75*
G02*
X205975000Y-46750000I0J-225000D01*
G01*
X205975000Y-47200000D01*
G75*
G02*
X205750000Y-47425000I-225000J0D01*
G01*
X205250000Y-47425000D01*
G75*
G02*
X205025000Y-47200000I0J225000D01*
G01*
X205025000Y-46750000D01*
G75*
G02*
X205250000Y-46525000I225000J0D01*
G01*
G37*
G36*
G01*
X205250000Y-48075000D02*
X205750000Y-48075000D01*
G75*
G02*
X205975000Y-48300000I0J-225000D01*
G01*
X205975000Y-48750000D01*
G75*
G02*
X205750000Y-48975000I-225000J0D01*
G01*
X205250000Y-48975000D01*
G75*
G02*
X205025000Y-48750000I0J225000D01*
G01*
X205025000Y-48300000D01*
G75*
G02*
X205250000Y-48075000I225000J0D01*
G01*
G37*
%TD*%
%TO.C,C12*%
G36*
G01*
X198750000Y-48975000D02*
X198250000Y-48975000D01*
G75*
G02*
X198025000Y-48750000I0J225000D01*
G01*
X198025000Y-48300000D01*
G75*
G02*
X198250000Y-48075000I225000J0D01*
G01*
X198750000Y-48075000D01*
G75*
G02*
X198975000Y-48300000I0J-225000D01*
G01*
X198975000Y-48750000D01*
G75*
G02*
X198750000Y-48975000I-225000J0D01*
G01*
G37*
G36*
G01*
X198750000Y-47425000D02*
X198250000Y-47425000D01*
G75*
G02*
X198025000Y-47200000I0J225000D01*
G01*
X198025000Y-46750000D01*
G75*
G02*
X198250000Y-46525000I225000J0D01*
G01*
X198750000Y-46525000D01*
G75*
G02*
X198975000Y-46750000I0J-225000D01*
G01*
X198975000Y-47200000D01*
G75*
G02*
X198750000Y-47425000I-225000J0D01*
G01*
G37*
%TD*%
%TO.C,C13*%
G36*
G01*
X173650001Y-57100000D02*
X172349999Y-57100000D01*
G75*
G02*
X172100000Y-56850001I0J249999D01*
G01*
X172100000Y-56199999D01*
G75*
G02*
X172349999Y-55950000I249999J0D01*
G01*
X173650001Y-55950000D01*
G75*
G02*
X173900000Y-56199999I0J-249999D01*
G01*
X173900000Y-56850001D01*
G75*
G02*
X173650001Y-57100000I-249999J0D01*
G01*
G37*
G36*
G01*
X173650001Y-60050000D02*
X172349999Y-60050000D01*
G75*
G02*
X172100000Y-59800001I0J249999D01*
G01*
X172100000Y-59149999D01*
G75*
G02*
X172349999Y-58900000I249999J0D01*
G01*
X173650001Y-58900000D01*
G75*
G02*
X173900000Y-59149999I0J-249999D01*
G01*
X173900000Y-59800001D01*
G75*
G02*
X173650001Y-60050000I-249999J0D01*
G01*
G37*
%TD*%
%TO.C,C14*%
G36*
G01*
X196325000Y-39150000D02*
X196325000Y-38650000D01*
G75*
G02*
X196550000Y-38425000I225000J0D01*
G01*
X197000000Y-38425000D01*
G75*
G02*
X197225000Y-38650000I0J-225000D01*
G01*
X197225000Y-39150000D01*
G75*
G02*
X197000000Y-39375000I-225000J0D01*
G01*
X196550000Y-39375000D01*
G75*
G02*
X196325000Y-39150000I0J225000D01*
G01*
G37*
G36*
G01*
X194775000Y-39150000D02*
X194775000Y-38650000D01*
G75*
G02*
X195000000Y-38425000I225000J0D01*
G01*
X195450000Y-38425000D01*
G75*
G02*
X195675000Y-38650000I0J-225000D01*
G01*
X195675000Y-39150000D01*
G75*
G02*
X195450000Y-39375000I-225000J0D01*
G01*
X195000000Y-39375000D01*
G75*
G02*
X194775000Y-39150000I0J225000D01*
G01*
G37*
%TD*%
%TO.C,C15*%
G36*
G01*
X193725000Y-38500000D02*
X193725000Y-39000000D01*
G75*
G02*
X193500000Y-39225000I-225000J0D01*
G01*
X193050000Y-39225000D01*
G75*
G02*
X192825000Y-39000000I0J225000D01*
G01*
X192825000Y-38500000D01*
G75*
G02*
X193050000Y-38275000I225000J0D01*
G01*
X193500000Y-38275000D01*
G75*
G02*
X193725000Y-38500000I0J-225000D01*
G01*
G37*
G36*
G01*
X192175000Y-38500000D02*
X192175000Y-39000000D01*
G75*
G02*
X191950000Y-39225000I-225000J0D01*
G01*
X191500000Y-39225000D01*
G75*
G02*
X191275000Y-39000000I0J225000D01*
G01*
X191275000Y-38500000D01*
G75*
G02*
X191500000Y-38275000I225000J0D01*
G01*
X191950000Y-38275000D01*
G75*
G02*
X192175000Y-38500000I0J-225000D01*
G01*
G37*
%TD*%
%TO.C,C16*%
G36*
G01*
X196750000Y-68825000D02*
X197250000Y-68825000D01*
G75*
G02*
X197475000Y-69050000I0J-225000D01*
G01*
X197475000Y-69500000D01*
G75*
G02*
X197250000Y-69725000I-225000J0D01*
G01*
X196750000Y-69725000D01*
G75*
G02*
X196525000Y-69500000I0J225000D01*
G01*
X196525000Y-69050000D01*
G75*
G02*
X196750000Y-68825000I225000J0D01*
G01*
G37*
G36*
G01*
X196750000Y-67275000D02*
X197250000Y-67275000D01*
G75*
G02*
X197475000Y-67500000I0J-225000D01*
G01*
X197475000Y-67950000D01*
G75*
G02*
X197250000Y-68175000I-225000J0D01*
G01*
X196750000Y-68175000D01*
G75*
G02*
X196525000Y-67950000I0J225000D01*
G01*
X196525000Y-67500000D01*
G75*
G02*
X196750000Y-67275000I225000J0D01*
G01*
G37*
%TD*%
%TO.C,C17*%
G36*
G01*
X198150001Y-59050000D02*
X196849999Y-59050000D01*
G75*
G02*
X196600000Y-58800001I0J249999D01*
G01*
X196600000Y-58149999D01*
G75*
G02*
X196849999Y-57900000I249999J0D01*
G01*
X198150001Y-57900000D01*
G75*
G02*
X198400000Y-58149999I0J-249999D01*
G01*
X198400000Y-58800001D01*
G75*
G02*
X198150001Y-59050000I-249999J0D01*
G01*
G37*
G36*
G01*
X198150001Y-56100000D02*
X196849999Y-56100000D01*
G75*
G02*
X196600000Y-55850001I0J249999D01*
G01*
X196600000Y-55199999D01*
G75*
G02*
X196849999Y-54950000I249999J0D01*
G01*
X198150001Y-54950000D01*
G75*
G02*
X198400000Y-55199999I0J-249999D01*
G01*
X198400000Y-55850001D01*
G75*
G02*
X198150001Y-56100000I-249999J0D01*
G01*
G37*
%TD*%
%TO.C,C18*%
G36*
G01*
X196325000Y-41000000D02*
X196325000Y-40500000D01*
G75*
G02*
X196550000Y-40275000I225000J0D01*
G01*
X197000000Y-40275000D01*
G75*
G02*
X197225000Y-40500000I0J-225000D01*
G01*
X197225000Y-41000000D01*
G75*
G02*
X197000000Y-41225000I-225000J0D01*
G01*
X196550000Y-41225000D01*
G75*
G02*
X196325000Y-41000000I0J225000D01*
G01*
G37*
G36*
G01*
X194775000Y-41000000D02*
X194775000Y-40500000D01*
G75*
G02*
X195000000Y-40275000I225000J0D01*
G01*
X195450000Y-40275000D01*
G75*
G02*
X195675000Y-40500000I0J-225000D01*
G01*
X195675000Y-41000000D01*
G75*
G02*
X195450000Y-41225000I-225000J0D01*
G01*
X195000000Y-41225000D01*
G75*
G02*
X194775000Y-41000000I0J225000D01*
G01*
G37*
%TD*%
%TO.C,C19*%
G36*
G01*
X192175000Y-40500000D02*
X192175000Y-41000000D01*
G75*
G02*
X191950000Y-41225000I-225000J0D01*
G01*
X191500000Y-41225000D01*
G75*
G02*
X191275000Y-41000000I0J225000D01*
G01*
X191275000Y-40500000D01*
G75*
G02*
X191500000Y-40275000I225000J0D01*
G01*
X191950000Y-40275000D01*
G75*
G02*
X192175000Y-40500000I0J-225000D01*
G01*
G37*
G36*
G01*
X193725000Y-40500000D02*
X193725000Y-41000000D01*
G75*
G02*
X193500000Y-41225000I-225000J0D01*
G01*
X193050000Y-41225000D01*
G75*
G02*
X192825000Y-41000000I0J225000D01*
G01*
X192825000Y-40500000D01*
G75*
G02*
X193050000Y-40275000I225000J0D01*
G01*
X193500000Y-40275000D01*
G75*
G02*
X193725000Y-40500000I0J-225000D01*
G01*
G37*
%TD*%
%TO.C,C20*%
G36*
G01*
X165500000Y-41525000D02*
X166000000Y-41525000D01*
G75*
G02*
X166225000Y-41750000I0J-225000D01*
G01*
X166225000Y-42200000D01*
G75*
G02*
X166000000Y-42425000I-225000J0D01*
G01*
X165500000Y-42425000D01*
G75*
G02*
X165275000Y-42200000I0J225000D01*
G01*
X165275000Y-41750000D01*
G75*
G02*
X165500000Y-41525000I225000J0D01*
G01*
G37*
G36*
G01*
X165500000Y-43075000D02*
X166000000Y-43075000D01*
G75*
G02*
X166225000Y-43300000I0J-225000D01*
G01*
X166225000Y-43750000D01*
G75*
G02*
X166000000Y-43975000I-225000J0D01*
G01*
X165500000Y-43975000D01*
G75*
G02*
X165275000Y-43750000I0J225000D01*
G01*
X165275000Y-43300000D01*
G75*
G02*
X165500000Y-43075000I225000J0D01*
G01*
G37*
%TD*%
%TO.C,C21*%
G36*
G01*
X163850000Y-43075000D02*
X164350000Y-43075000D01*
G75*
G02*
X164575000Y-43300000I0J-225000D01*
G01*
X164575000Y-43750000D01*
G75*
G02*
X164350000Y-43975000I-225000J0D01*
G01*
X163850000Y-43975000D01*
G75*
G02*
X163625000Y-43750000I0J225000D01*
G01*
X163625000Y-43300000D01*
G75*
G02*
X163850000Y-43075000I225000J0D01*
G01*
G37*
G36*
G01*
X163850000Y-41525000D02*
X164350000Y-41525000D01*
G75*
G02*
X164575000Y-41750000I0J-225000D01*
G01*
X164575000Y-42200000D01*
G75*
G02*
X164350000Y-42425000I-225000J0D01*
G01*
X163850000Y-42425000D01*
G75*
G02*
X163625000Y-42200000I0J225000D01*
G01*
X163625000Y-41750000D01*
G75*
G02*
X163850000Y-41525000I225000J0D01*
G01*
G37*
%TD*%
%TO.C,C22*%
G36*
G01*
X171250000Y-51275000D02*
X171750000Y-51275000D01*
G75*
G02*
X171975000Y-51500000I0J-225000D01*
G01*
X171975000Y-51950000D01*
G75*
G02*
X171750000Y-52175000I-225000J0D01*
G01*
X171250000Y-52175000D01*
G75*
G02*
X171025000Y-51950000I0J225000D01*
G01*
X171025000Y-51500000D01*
G75*
G02*
X171250000Y-51275000I225000J0D01*
G01*
G37*
G36*
G01*
X171250000Y-52825000D02*
X171750000Y-52825000D01*
G75*
G02*
X171975000Y-53050000I0J-225000D01*
G01*
X171975000Y-53500000D01*
G75*
G02*
X171750000Y-53725000I-225000J0D01*
G01*
X171250000Y-53725000D01*
G75*
G02*
X171025000Y-53500000I0J225000D01*
G01*
X171025000Y-53050000D01*
G75*
G02*
X171250000Y-52825000I225000J0D01*
G01*
G37*
%TD*%
%TO.C,C23*%
G36*
G01*
X169250000Y-51275000D02*
X169750000Y-51275000D01*
G75*
G02*
X169975000Y-51500000I0J-225000D01*
G01*
X169975000Y-51950000D01*
G75*
G02*
X169750000Y-52175000I-225000J0D01*
G01*
X169250000Y-52175000D01*
G75*
G02*
X169025000Y-51950000I0J225000D01*
G01*
X169025000Y-51500000D01*
G75*
G02*
X169250000Y-51275000I225000J0D01*
G01*
G37*
G36*
G01*
X169250000Y-52825000D02*
X169750000Y-52825000D01*
G75*
G02*
X169975000Y-53050000I0J-225000D01*
G01*
X169975000Y-53500000D01*
G75*
G02*
X169750000Y-53725000I-225000J0D01*
G01*
X169250000Y-53725000D01*
G75*
G02*
X169025000Y-53500000I0J225000D01*
G01*
X169025000Y-53050000D01*
G75*
G02*
X169250000Y-52825000I225000J0D01*
G01*
G37*
%TD*%
%TO.C,C24*%
G36*
G01*
X167250000Y-51275000D02*
X167750000Y-51275000D01*
G75*
G02*
X167975000Y-51500000I0J-225000D01*
G01*
X167975000Y-51950000D01*
G75*
G02*
X167750000Y-52175000I-225000J0D01*
G01*
X167250000Y-52175000D01*
G75*
G02*
X167025000Y-51950000I0J225000D01*
G01*
X167025000Y-51500000D01*
G75*
G02*
X167250000Y-51275000I225000J0D01*
G01*
G37*
G36*
G01*
X167250000Y-52825000D02*
X167750000Y-52825000D01*
G75*
G02*
X167975000Y-53050000I0J-225000D01*
G01*
X167975000Y-53500000D01*
G75*
G02*
X167750000Y-53725000I-225000J0D01*
G01*
X167250000Y-53725000D01*
G75*
G02*
X167025000Y-53500000I0J225000D01*
G01*
X167025000Y-53050000D01*
G75*
G02*
X167250000Y-52825000I225000J0D01*
G01*
G37*
%TD*%
%TO.C,C25*%
G36*
G01*
X177275000Y-71750000D02*
X177275000Y-71250000D01*
G75*
G02*
X177500000Y-71025000I225000J0D01*
G01*
X177950000Y-71025000D01*
G75*
G02*
X178175000Y-71250000I0J-225000D01*
G01*
X178175000Y-71750000D01*
G75*
G02*
X177950000Y-71975000I-225000J0D01*
G01*
X177500000Y-71975000D01*
G75*
G02*
X177275000Y-71750000I0J225000D01*
G01*
G37*
G36*
G01*
X178825000Y-71750000D02*
X178825000Y-71250000D01*
G75*
G02*
X179050000Y-71025000I225000J0D01*
G01*
X179500000Y-71025000D01*
G75*
G02*
X179725000Y-71250000I0J-225000D01*
G01*
X179725000Y-71750000D01*
G75*
G02*
X179500000Y-71975000I-225000J0D01*
G01*
X179050000Y-71975000D01*
G75*
G02*
X178825000Y-71750000I0J225000D01*
G01*
G37*
%TD*%
%TO.C,C26*%
G36*
G01*
X159750000Y-72275000D02*
X160250000Y-72275000D01*
G75*
G02*
X160475000Y-72500000I0J-225000D01*
G01*
X160475000Y-72950000D01*
G75*
G02*
X160250000Y-73175000I-225000J0D01*
G01*
X159750000Y-73175000D01*
G75*
G02*
X159525000Y-72950000I0J225000D01*
G01*
X159525000Y-72500000D01*
G75*
G02*
X159750000Y-72275000I225000J0D01*
G01*
G37*
G36*
G01*
X159750000Y-73825000D02*
X160250000Y-73825000D01*
G75*
G02*
X160475000Y-74050000I0J-225000D01*
G01*
X160475000Y-74500000D01*
G75*
G02*
X160250000Y-74725000I-225000J0D01*
G01*
X159750000Y-74725000D01*
G75*
G02*
X159525000Y-74500000I0J225000D01*
G01*
X159525000Y-74050000D01*
G75*
G02*
X159750000Y-73825000I225000J0D01*
G01*
G37*
%TD*%
%TO.C,C27*%
G36*
G01*
X161750000Y-73825000D02*
X162250000Y-73825000D01*
G75*
G02*
X162475000Y-74050000I0J-225000D01*
G01*
X162475000Y-74500000D01*
G75*
G02*
X162250000Y-74725000I-225000J0D01*
G01*
X161750000Y-74725000D01*
G75*
G02*
X161525000Y-74500000I0J225000D01*
G01*
X161525000Y-74050000D01*
G75*
G02*
X161750000Y-73825000I225000J0D01*
G01*
G37*
G36*
G01*
X161750000Y-72275000D02*
X162250000Y-72275000D01*
G75*
G02*
X162475000Y-72500000I0J-225000D01*
G01*
X162475000Y-72950000D01*
G75*
G02*
X162250000Y-73175000I-225000J0D01*
G01*
X161750000Y-73175000D01*
G75*
G02*
X161525000Y-72950000I0J225000D01*
G01*
X161525000Y-72500000D01*
G75*
G02*
X161750000Y-72275000I225000J0D01*
G01*
G37*
%TD*%
%TO.C,C28*%
G36*
G01*
X164074998Y-70300000D02*
X165925002Y-70300000D01*
G75*
G02*
X166175000Y-70549998I0J-249998D01*
G01*
X166175000Y-71375002D01*
G75*
G02*
X165925002Y-71625000I-249998J0D01*
G01*
X164074998Y-71625000D01*
G75*
G02*
X163825000Y-71375002I0J249998D01*
G01*
X163825000Y-70549998D01*
G75*
G02*
X164074998Y-70300000I249998J0D01*
G01*
G37*
G36*
G01*
X164074998Y-73375000D02*
X165925002Y-73375000D01*
G75*
G02*
X166175000Y-73624998I0J-249998D01*
G01*
X166175000Y-74450002D01*
G75*
G02*
X165925002Y-74700000I-249998J0D01*
G01*
X164074998Y-74700000D01*
G75*
G02*
X163825000Y-74450002I0J249998D01*
G01*
X163825000Y-73624998D01*
G75*
G02*
X164074998Y-73375000I249998J0D01*
G01*
G37*
%TD*%
%TO.C,C29*%
G36*
G01*
X168074998Y-73375000D02*
X169925002Y-73375000D01*
G75*
G02*
X170175000Y-73624998I0J-249998D01*
G01*
X170175000Y-74450002D01*
G75*
G02*
X169925002Y-74700000I-249998J0D01*
G01*
X168074998Y-74700000D01*
G75*
G02*
X167825000Y-74450002I0J249998D01*
G01*
X167825000Y-73624998D01*
G75*
G02*
X168074998Y-73375000I249998J0D01*
G01*
G37*
G36*
G01*
X168074998Y-70300000D02*
X169925002Y-70300000D01*
G75*
G02*
X170175000Y-70549998I0J-249998D01*
G01*
X170175000Y-71375002D01*
G75*
G02*
X169925002Y-71625000I-249998J0D01*
G01*
X168074998Y-71625000D01*
G75*
G02*
X167825000Y-71375002I0J249998D01*
G01*
X167825000Y-70549998D01*
G75*
G02*
X168074998Y-70300000I249998J0D01*
G01*
G37*
%TD*%
%TO.C,C30*%
G36*
G01*
X172074998Y-70300000D02*
X173925002Y-70300000D01*
G75*
G02*
X174175000Y-70549998I0J-249998D01*
G01*
X174175000Y-71375002D01*
G75*
G02*
X173925002Y-71625000I-249998J0D01*
G01*
X172074998Y-71625000D01*
G75*
G02*
X171825000Y-71375002I0J249998D01*
G01*
X171825000Y-70549998D01*
G75*
G02*
X172074998Y-70300000I249998J0D01*
G01*
G37*
G36*
G01*
X172074998Y-73375000D02*
X173925002Y-73375000D01*
G75*
G02*
X174175000Y-73624998I0J-249998D01*
G01*
X174175000Y-74450002D01*
G75*
G02*
X173925002Y-74700000I-249998J0D01*
G01*
X172074998Y-74700000D01*
G75*
G02*
X171825000Y-74450002I0J249998D01*
G01*
X171825000Y-73624998D01*
G75*
G02*
X172074998Y-73375000I249998J0D01*
G01*
G37*
%TD*%
%TO.C,D1*%
G36*
G01*
X141756250Y-40725000D02*
X141243750Y-40725000D01*
G75*
G02*
X141025000Y-40506250I0J218750D01*
G01*
X141025000Y-40068750D01*
G75*
G02*
X141243750Y-39850000I218750J0D01*
G01*
X141756250Y-39850000D01*
G75*
G02*
X141975000Y-40068750I0J-218750D01*
G01*
X141975000Y-40506250D01*
G75*
G02*
X141756250Y-40725000I-218750J0D01*
G01*
G37*
G36*
G01*
X141756250Y-39150000D02*
X141243750Y-39150000D01*
G75*
G02*
X141025000Y-38931250I0J218750D01*
G01*
X141025000Y-38493750D01*
G75*
G02*
X141243750Y-38275000I218750J0D01*
G01*
X141756250Y-38275000D01*
G75*
G02*
X141975000Y-38493750I0J-218750D01*
G01*
X141975000Y-38931250D01*
G75*
G02*
X141756250Y-39150000I-218750J0D01*
G01*
G37*
%TD*%
%TO.C,D2*%
G36*
G01*
X144756250Y-40725000D02*
X144243750Y-40725000D01*
G75*
G02*
X144025000Y-40506250I0J218750D01*
G01*
X144025000Y-40068750D01*
G75*
G02*
X144243750Y-39850000I218750J0D01*
G01*
X144756250Y-39850000D01*
G75*
G02*
X144975000Y-40068750I0J-218750D01*
G01*
X144975000Y-40506250D01*
G75*
G02*
X144756250Y-40725000I-218750J0D01*
G01*
G37*
G36*
G01*
X144756250Y-39150000D02*
X144243750Y-39150000D01*
G75*
G02*
X144025000Y-38931250I0J218750D01*
G01*
X144025000Y-38493750D01*
G75*
G02*
X144243750Y-38275000I218750J0D01*
G01*
X144756250Y-38275000D01*
G75*
G02*
X144975000Y-38493750I0J-218750D01*
G01*
X144975000Y-38931250D01*
G75*
G02*
X144756250Y-39150000I-218750J0D01*
G01*
G37*
%TD*%
D19*
%TO.C,D3*%
X227900000Y-70000000D03*
X227900000Y-66000000D03*
%TD*%
%TO.C,D4*%
G36*
G01*
X147756250Y-39150000D02*
X147243750Y-39150000D01*
G75*
G02*
X147025000Y-38931250I0J218750D01*
G01*
X147025000Y-38493750D01*
G75*
G02*
X147243750Y-38275000I218750J0D01*
G01*
X147756250Y-38275000D01*
G75*
G02*
X147975000Y-38493750I0J-218750D01*
G01*
X147975000Y-38931250D01*
G75*
G02*
X147756250Y-39150000I-218750J0D01*
G01*
G37*
G36*
G01*
X147756250Y-40725000D02*
X147243750Y-40725000D01*
G75*
G02*
X147025000Y-40506250I0J218750D01*
G01*
X147025000Y-40068750D01*
G75*
G02*
X147243750Y-39850000I218750J0D01*
G01*
X147756250Y-39850000D01*
G75*
G02*
X147975000Y-40068750I0J-218750D01*
G01*
X147975000Y-40506250D01*
G75*
G02*
X147756250Y-40725000I-218750J0D01*
G01*
G37*
%TD*%
%TO.C,D5*%
G36*
G01*
X150756250Y-40825000D02*
X150243750Y-40825000D01*
G75*
G02*
X150025000Y-40606250I0J218750D01*
G01*
X150025000Y-40168750D01*
G75*
G02*
X150243750Y-39950000I218750J0D01*
G01*
X150756250Y-39950000D01*
G75*
G02*
X150975000Y-40168750I0J-218750D01*
G01*
X150975000Y-40606250D01*
G75*
G02*
X150756250Y-40825000I-218750J0D01*
G01*
G37*
G36*
G01*
X150756250Y-39250000D02*
X150243750Y-39250000D01*
G75*
G02*
X150025000Y-39031250I0J218750D01*
G01*
X150025000Y-38593750D01*
G75*
G02*
X150243750Y-38375000I218750J0D01*
G01*
X150756250Y-38375000D01*
G75*
G02*
X150975000Y-38593750I0J-218750D01*
G01*
X150975000Y-39031250D01*
G75*
G02*
X150756250Y-39250000I-218750J0D01*
G01*
G37*
%TD*%
%TO.C,D6*%
G36*
G01*
X153756250Y-39250000D02*
X153243750Y-39250000D01*
G75*
G02*
X153025000Y-39031250I0J218750D01*
G01*
X153025000Y-38593750D01*
G75*
G02*
X153243750Y-38375000I218750J0D01*
G01*
X153756250Y-38375000D01*
G75*
G02*
X153975000Y-38593750I0J-218750D01*
G01*
X153975000Y-39031250D01*
G75*
G02*
X153756250Y-39250000I-218750J0D01*
G01*
G37*
G36*
G01*
X153756250Y-40825000D02*
X153243750Y-40825000D01*
G75*
G02*
X153025000Y-40606250I0J218750D01*
G01*
X153025000Y-40168750D01*
G75*
G02*
X153243750Y-39950000I218750J0D01*
G01*
X153756250Y-39950000D01*
G75*
G02*
X153975000Y-40168750I0J-218750D01*
G01*
X153975000Y-40606250D01*
G75*
G02*
X153756250Y-40825000I-218750J0D01*
G01*
G37*
%TD*%
D20*
%TO.C,D7*%
X226500000Y-41100000D03*
X226500000Y-43900000D03*
%TD*%
%TO.C,D8*%
X223500000Y-43900000D03*
X223500000Y-41100000D03*
%TD*%
%TO.C,FB1*%
G36*
G01*
X163756250Y-52725000D02*
X163243750Y-52725000D01*
G75*
G02*
X163025000Y-52506250I0J218750D01*
G01*
X163025000Y-52068750D01*
G75*
G02*
X163243750Y-51850000I218750J0D01*
G01*
X163756250Y-51850000D01*
G75*
G02*
X163975000Y-52068750I0J-218750D01*
G01*
X163975000Y-52506250D01*
G75*
G02*
X163756250Y-52725000I-218750J0D01*
G01*
G37*
G36*
G01*
X163756250Y-51150000D02*
X163243750Y-51150000D01*
G75*
G02*
X163025000Y-50931250I0J218750D01*
G01*
X163025000Y-50493750D01*
G75*
G02*
X163243750Y-50275000I218750J0D01*
G01*
X163756250Y-50275000D01*
G75*
G02*
X163975000Y-50493750I0J-218750D01*
G01*
X163975000Y-50931250D01*
G75*
G02*
X163756250Y-51150000I-218750J0D01*
G01*
G37*
%TD*%
D21*
%TO.C,J1*%
X141660000Y-66960000D03*
X141660000Y-72040000D03*
X144835000Y-72040000D03*
X144835000Y-66960000D03*
D22*
X146740000Y-70516000D03*
X146740000Y-68484000D03*
X141660000Y-69500000D03*
D23*
X142930000Y-68865000D03*
X142930000Y-70135000D03*
X144200000Y-68865000D03*
X144200000Y-70135000D03*
X145470000Y-68865000D03*
X145470000Y-70135000D03*
%TD*%
%TO.C,J2*%
G36*
G01*
X231050000Y-50700000D02*
X234150000Y-50700000D01*
G75*
G02*
X234400000Y-50950000I0J-250000D01*
G01*
X234400000Y-52250000D01*
G75*
G02*
X234150000Y-52500000I-250000J0D01*
G01*
X231050000Y-52500000D01*
G75*
G02*
X230800000Y-52250000I0J250000D01*
G01*
X230800000Y-50950000D01*
G75*
G02*
X231050000Y-50700000I250000J0D01*
G01*
G37*
D24*
X232600000Y-55410000D03*
X232600000Y-59220000D03*
X232600000Y-63030000D03*
%TD*%
D25*
%TO.C,L1*%
X218475000Y-67900000D03*
X223925000Y-67900000D03*
%TD*%
D26*
%TO.C,Q1*%
X142450000Y-48300000D03*
X140550000Y-48300000D03*
X141500000Y-46300000D03*
%TD*%
%TO.C,Q2*%
X145950000Y-48300000D03*
X144050000Y-48300000D03*
X145000000Y-46300000D03*
%TD*%
%TO.C,Q3*%
X148500000Y-46300000D03*
X147550000Y-48300000D03*
X149450000Y-48300000D03*
%TD*%
%TO.C,Q4*%
X152950000Y-48300000D03*
X151050000Y-48300000D03*
X152000000Y-46300000D03*
%TD*%
%TO.C,Q5*%
X155500000Y-46300000D03*
X154550000Y-48300000D03*
X156450000Y-48300000D03*
%TD*%
D27*
%TO.C,Q6*%
X172250000Y-43810000D03*
X173200000Y-41190000D03*
X171300000Y-41190000D03*
%TD*%
%TO.C,Q7*%
X167800000Y-41190000D03*
X169700000Y-41190000D03*
X168750000Y-43810000D03*
%TD*%
%TO.C,Q8*%
X168550000Y-65690000D03*
X170450000Y-65690000D03*
X169500000Y-68310000D03*
%TD*%
%TO.C,R1*%
G36*
G01*
X165275000Y-66575000D02*
X164725000Y-66575000D01*
G75*
G02*
X164525000Y-66375000I0J200000D01*
G01*
X164525000Y-65975000D01*
G75*
G02*
X164725000Y-65775000I200000J0D01*
G01*
X165275000Y-65775000D01*
G75*
G02*
X165475000Y-65975000I0J-200000D01*
G01*
X165475000Y-66375000D01*
G75*
G02*
X165275000Y-66575000I-200000J0D01*
G01*
G37*
G36*
G01*
X165275000Y-68225000D02*
X164725000Y-68225000D01*
G75*
G02*
X164525000Y-68025000I0J200000D01*
G01*
X164525000Y-67625000D01*
G75*
G02*
X164725000Y-67425000I200000J0D01*
G01*
X165275000Y-67425000D01*
G75*
G02*
X165475000Y-67625000I0J-200000D01*
G01*
X165475000Y-68025000D01*
G75*
G02*
X165275000Y-68225000I-200000J0D01*
G01*
G37*
%TD*%
%TO.C,R2*%
G36*
G01*
X163275000Y-68225000D02*
X162725000Y-68225000D01*
G75*
G02*
X162525000Y-68025000I0J200000D01*
G01*
X162525000Y-67625000D01*
G75*
G02*
X162725000Y-67425000I200000J0D01*
G01*
X163275000Y-67425000D01*
G75*
G02*
X163475000Y-67625000I0J-200000D01*
G01*
X163475000Y-68025000D01*
G75*
G02*
X163275000Y-68225000I-200000J0D01*
G01*
G37*
G36*
G01*
X163275000Y-66575000D02*
X162725000Y-66575000D01*
G75*
G02*
X162525000Y-66375000I0J200000D01*
G01*
X162525000Y-65975000D01*
G75*
G02*
X162725000Y-65775000I200000J0D01*
G01*
X163275000Y-65775000D01*
G75*
G02*
X163475000Y-65975000I0J-200000D01*
G01*
X163475000Y-66375000D01*
G75*
G02*
X163275000Y-66575000I-200000J0D01*
G01*
G37*
%TD*%
%TO.C,R3*%
G36*
G01*
X156725000Y-65725000D02*
X156725000Y-66275000D01*
G75*
G02*
X156525000Y-66475000I-200000J0D01*
G01*
X156125000Y-66475000D01*
G75*
G02*
X155925000Y-66275000I0J200000D01*
G01*
X155925000Y-65725000D01*
G75*
G02*
X156125000Y-65525000I200000J0D01*
G01*
X156525000Y-65525000D01*
G75*
G02*
X156725000Y-65725000I0J-200000D01*
G01*
G37*
G36*
G01*
X155075000Y-65725000D02*
X155075000Y-66275000D01*
G75*
G02*
X154875000Y-66475000I-200000J0D01*
G01*
X154475000Y-66475000D01*
G75*
G02*
X154275000Y-66275000I0J200000D01*
G01*
X154275000Y-65725000D01*
G75*
G02*
X154475000Y-65525000I200000J0D01*
G01*
X154875000Y-65525000D01*
G75*
G02*
X155075000Y-65725000I0J-200000D01*
G01*
G37*
%TD*%
%TO.C,R4*%
G36*
G01*
X141225000Y-43425000D02*
X141775000Y-43425000D01*
G75*
G02*
X141975000Y-43625000I0J-200000D01*
G01*
X141975000Y-44025000D01*
G75*
G02*
X141775000Y-44225000I-200000J0D01*
G01*
X141225000Y-44225000D01*
G75*
G02*
X141025000Y-44025000I0J200000D01*
G01*
X141025000Y-43625000D01*
G75*
G02*
X141225000Y-43425000I200000J0D01*
G01*
G37*
G36*
G01*
X141225000Y-41775000D02*
X141775000Y-41775000D01*
G75*
G02*
X141975000Y-41975000I0J-200000D01*
G01*
X141975000Y-42375000D01*
G75*
G02*
X141775000Y-42575000I-200000J0D01*
G01*
X141225000Y-42575000D01*
G75*
G02*
X141025000Y-42375000I0J200000D01*
G01*
X141025000Y-41975000D01*
G75*
G02*
X141225000Y-41775000I200000J0D01*
G01*
G37*
%TD*%
%TO.C,R5*%
G36*
G01*
X144225000Y-43425000D02*
X144775000Y-43425000D01*
G75*
G02*
X144975000Y-43625000I0J-200000D01*
G01*
X144975000Y-44025000D01*
G75*
G02*
X144775000Y-44225000I-200000J0D01*
G01*
X144225000Y-44225000D01*
G75*
G02*
X144025000Y-44025000I0J200000D01*
G01*
X144025000Y-43625000D01*
G75*
G02*
X144225000Y-43425000I200000J0D01*
G01*
G37*
G36*
G01*
X144225000Y-41775000D02*
X144775000Y-41775000D01*
G75*
G02*
X144975000Y-41975000I0J-200000D01*
G01*
X144975000Y-42375000D01*
G75*
G02*
X144775000Y-42575000I-200000J0D01*
G01*
X144225000Y-42575000D01*
G75*
G02*
X144025000Y-42375000I0J200000D01*
G01*
X144025000Y-41975000D01*
G75*
G02*
X144225000Y-41775000I200000J0D01*
G01*
G37*
%TD*%
%TO.C,R6*%
G36*
G01*
X154275000Y-64275000D02*
X154275000Y-63725000D01*
G75*
G02*
X154475000Y-63525000I200000J0D01*
G01*
X154875000Y-63525000D01*
G75*
G02*
X155075000Y-63725000I0J-200000D01*
G01*
X155075000Y-64275000D01*
G75*
G02*
X154875000Y-64475000I-200000J0D01*
G01*
X154475000Y-64475000D01*
G75*
G02*
X154275000Y-64275000I0J200000D01*
G01*
G37*
G36*
G01*
X155925000Y-64275000D02*
X155925000Y-63725000D01*
G75*
G02*
X156125000Y-63525000I200000J0D01*
G01*
X156525000Y-63525000D01*
G75*
G02*
X156725000Y-63725000I0J-200000D01*
G01*
X156725000Y-64275000D01*
G75*
G02*
X156525000Y-64475000I-200000J0D01*
G01*
X156125000Y-64475000D01*
G75*
G02*
X155925000Y-64275000I0J200000D01*
G01*
G37*
%TD*%
%TO.C,R7*%
G36*
G01*
X155925000Y-62275000D02*
X155925000Y-61725000D01*
G75*
G02*
X156125000Y-61525000I200000J0D01*
G01*
X156525000Y-61525000D01*
G75*
G02*
X156725000Y-61725000I0J-200000D01*
G01*
X156725000Y-62275000D01*
G75*
G02*
X156525000Y-62475000I-200000J0D01*
G01*
X156125000Y-62475000D01*
G75*
G02*
X155925000Y-62275000I0J200000D01*
G01*
G37*
G36*
G01*
X154275000Y-62275000D02*
X154275000Y-61725000D01*
G75*
G02*
X154475000Y-61525000I200000J0D01*
G01*
X154875000Y-61525000D01*
G75*
G02*
X155075000Y-61725000I0J-200000D01*
G01*
X155075000Y-62275000D01*
G75*
G02*
X154875000Y-62475000I-200000J0D01*
G01*
X154475000Y-62475000D01*
G75*
G02*
X154275000Y-62275000I0J200000D01*
G01*
G37*
%TD*%
%TO.C,R8*%
G36*
G01*
X147225000Y-41775000D02*
X147775000Y-41775000D01*
G75*
G02*
X147975000Y-41975000I0J-200000D01*
G01*
X147975000Y-42375000D01*
G75*
G02*
X147775000Y-42575000I-200000J0D01*
G01*
X147225000Y-42575000D01*
G75*
G02*
X147025000Y-42375000I0J200000D01*
G01*
X147025000Y-41975000D01*
G75*
G02*
X147225000Y-41775000I200000J0D01*
G01*
G37*
G36*
G01*
X147225000Y-43425000D02*
X147775000Y-43425000D01*
G75*
G02*
X147975000Y-43625000I0J-200000D01*
G01*
X147975000Y-44025000D01*
G75*
G02*
X147775000Y-44225000I-200000J0D01*
G01*
X147225000Y-44225000D01*
G75*
G02*
X147025000Y-44025000I0J200000D01*
G01*
X147025000Y-43625000D01*
G75*
G02*
X147225000Y-43425000I200000J0D01*
G01*
G37*
%TD*%
%TO.C,R9*%
G36*
G01*
X150225000Y-43425000D02*
X150775000Y-43425000D01*
G75*
G02*
X150975000Y-43625000I0J-200000D01*
G01*
X150975000Y-44025000D01*
G75*
G02*
X150775000Y-44225000I-200000J0D01*
G01*
X150225000Y-44225000D01*
G75*
G02*
X150025000Y-44025000I0J200000D01*
G01*
X150025000Y-43625000D01*
G75*
G02*
X150225000Y-43425000I200000J0D01*
G01*
G37*
G36*
G01*
X150225000Y-41775000D02*
X150775000Y-41775000D01*
G75*
G02*
X150975000Y-41975000I0J-200000D01*
G01*
X150975000Y-42375000D01*
G75*
G02*
X150775000Y-42575000I-200000J0D01*
G01*
X150225000Y-42575000D01*
G75*
G02*
X150025000Y-42375000I0J200000D01*
G01*
X150025000Y-41975000D01*
G75*
G02*
X150225000Y-41775000I200000J0D01*
G01*
G37*
%TD*%
%TO.C,R10*%
G36*
G01*
X153225000Y-41775000D02*
X153775000Y-41775000D01*
G75*
G02*
X153975000Y-41975000I0J-200000D01*
G01*
X153975000Y-42375000D01*
G75*
G02*
X153775000Y-42575000I-200000J0D01*
G01*
X153225000Y-42575000D01*
G75*
G02*
X153025000Y-42375000I0J200000D01*
G01*
X153025000Y-41975000D01*
G75*
G02*
X153225000Y-41775000I200000J0D01*
G01*
G37*
G36*
G01*
X153225000Y-43425000D02*
X153775000Y-43425000D01*
G75*
G02*
X153975000Y-43625000I0J-200000D01*
G01*
X153975000Y-44025000D01*
G75*
G02*
X153775000Y-44225000I-200000J0D01*
G01*
X153225000Y-44225000D01*
G75*
G02*
X153025000Y-44025000I0J200000D01*
G01*
X153025000Y-43625000D01*
G75*
G02*
X153225000Y-43425000I200000J0D01*
G01*
G37*
%TD*%
%TO.C,R11*%
G36*
G01*
X161225000Y-51925000D02*
X161775000Y-51925000D01*
G75*
G02*
X161975000Y-52125000I0J-200000D01*
G01*
X161975000Y-52525000D01*
G75*
G02*
X161775000Y-52725000I-200000J0D01*
G01*
X161225000Y-52725000D01*
G75*
G02*
X161025000Y-52525000I0J200000D01*
G01*
X161025000Y-52125000D01*
G75*
G02*
X161225000Y-51925000I200000J0D01*
G01*
G37*
G36*
G01*
X161225000Y-50275000D02*
X161775000Y-50275000D01*
G75*
G02*
X161975000Y-50475000I0J-200000D01*
G01*
X161975000Y-50875000D01*
G75*
G02*
X161775000Y-51075000I-200000J0D01*
G01*
X161225000Y-51075000D01*
G75*
G02*
X161025000Y-50875000I0J200000D01*
G01*
X161025000Y-50475000D01*
G75*
G02*
X161225000Y-50275000I200000J0D01*
G01*
G37*
%TD*%
%TO.C,R12*%
G36*
G01*
X165225000Y-50275000D02*
X165775000Y-50275000D01*
G75*
G02*
X165975000Y-50475000I0J-200000D01*
G01*
X165975000Y-50875000D01*
G75*
G02*
X165775000Y-51075000I-200000J0D01*
G01*
X165225000Y-51075000D01*
G75*
G02*
X165025000Y-50875000I0J200000D01*
G01*
X165025000Y-50475000D01*
G75*
G02*
X165225000Y-50275000I200000J0D01*
G01*
G37*
G36*
G01*
X165225000Y-51925000D02*
X165775000Y-51925000D01*
G75*
G02*
X165975000Y-52125000I0J-200000D01*
G01*
X165975000Y-52525000D01*
G75*
G02*
X165775000Y-52725000I-200000J0D01*
G01*
X165225000Y-52725000D01*
G75*
G02*
X165025000Y-52525000I0J200000D01*
G01*
X165025000Y-52125000D01*
G75*
G02*
X165225000Y-51925000I200000J0D01*
G01*
G37*
%TD*%
%TO.C,R13*%
G36*
G01*
X171775000Y-50225000D02*
X171225000Y-50225000D01*
G75*
G02*
X171025000Y-50025000I0J200000D01*
G01*
X171025000Y-49625000D01*
G75*
G02*
X171225000Y-49425000I200000J0D01*
G01*
X171775000Y-49425000D01*
G75*
G02*
X171975000Y-49625000I0J-200000D01*
G01*
X171975000Y-50025000D01*
G75*
G02*
X171775000Y-50225000I-200000J0D01*
G01*
G37*
G36*
G01*
X171775000Y-48575000D02*
X171225000Y-48575000D01*
G75*
G02*
X171025000Y-48375000I0J200000D01*
G01*
X171025000Y-47975000D01*
G75*
G02*
X171225000Y-47775000I200000J0D01*
G01*
X171775000Y-47775000D01*
G75*
G02*
X171975000Y-47975000I0J-200000D01*
G01*
X171975000Y-48375000D01*
G75*
G02*
X171775000Y-48575000I-200000J0D01*
G01*
G37*
%TD*%
%TO.C,R14*%
G36*
G01*
X169775000Y-48575000D02*
X169225000Y-48575000D01*
G75*
G02*
X169025000Y-48375000I0J200000D01*
G01*
X169025000Y-47975000D01*
G75*
G02*
X169225000Y-47775000I200000J0D01*
G01*
X169775000Y-47775000D01*
G75*
G02*
X169975000Y-47975000I0J-200000D01*
G01*
X169975000Y-48375000D01*
G75*
G02*
X169775000Y-48575000I-200000J0D01*
G01*
G37*
G36*
G01*
X169775000Y-50225000D02*
X169225000Y-50225000D01*
G75*
G02*
X169025000Y-50025000I0J200000D01*
G01*
X169025000Y-49625000D01*
G75*
G02*
X169225000Y-49425000I200000J0D01*
G01*
X169775000Y-49425000D01*
G75*
G02*
X169975000Y-49625000I0J-200000D01*
G01*
X169975000Y-50025000D01*
G75*
G02*
X169775000Y-50225000I-200000J0D01*
G01*
G37*
%TD*%
%TO.C,R15*%
G36*
G01*
X167775000Y-50225000D02*
X167225000Y-50225000D01*
G75*
G02*
X167025000Y-50025000I0J200000D01*
G01*
X167025000Y-49625000D01*
G75*
G02*
X167225000Y-49425000I200000J0D01*
G01*
X167775000Y-49425000D01*
G75*
G02*
X167975000Y-49625000I0J-200000D01*
G01*
X167975000Y-50025000D01*
G75*
G02*
X167775000Y-50225000I-200000J0D01*
G01*
G37*
G36*
G01*
X167775000Y-48575000D02*
X167225000Y-48575000D01*
G75*
G02*
X167025000Y-48375000I0J200000D01*
G01*
X167025000Y-47975000D01*
G75*
G02*
X167225000Y-47775000I200000J0D01*
G01*
X167775000Y-47775000D01*
G75*
G02*
X167975000Y-47975000I0J-200000D01*
G01*
X167975000Y-48375000D01*
G75*
G02*
X167775000Y-48575000I-200000J0D01*
G01*
G37*
%TD*%
%TO.C,R16*%
G36*
G01*
X147775000Y-59775000D02*
X147775000Y-59225000D01*
G75*
G02*
X147975000Y-59025000I200000J0D01*
G01*
X148375000Y-59025000D01*
G75*
G02*
X148575000Y-59225000I0J-200000D01*
G01*
X148575000Y-59775000D01*
G75*
G02*
X148375000Y-59975000I-200000J0D01*
G01*
X147975000Y-59975000D01*
G75*
G02*
X147775000Y-59775000I0J200000D01*
G01*
G37*
G36*
G01*
X149425000Y-59775000D02*
X149425000Y-59225000D01*
G75*
G02*
X149625000Y-59025000I200000J0D01*
G01*
X150025000Y-59025000D01*
G75*
G02*
X150225000Y-59225000I0J-200000D01*
G01*
X150225000Y-59775000D01*
G75*
G02*
X150025000Y-59975000I-200000J0D01*
G01*
X149625000Y-59975000D01*
G75*
G02*
X149425000Y-59775000I0J200000D01*
G01*
G37*
%TD*%
%TO.C,R17*%
G36*
G01*
X148925000Y-53775000D02*
X148925000Y-53225000D01*
G75*
G02*
X149125000Y-53025000I200000J0D01*
G01*
X149525000Y-53025000D01*
G75*
G02*
X149725000Y-53225000I0J-200000D01*
G01*
X149725000Y-53775000D01*
G75*
G02*
X149525000Y-53975000I-200000J0D01*
G01*
X149125000Y-53975000D01*
G75*
G02*
X148925000Y-53775000I0J200000D01*
G01*
G37*
G36*
G01*
X147275000Y-53775000D02*
X147275000Y-53225000D01*
G75*
G02*
X147475000Y-53025000I200000J0D01*
G01*
X147875000Y-53025000D01*
G75*
G02*
X148075000Y-53225000I0J-200000D01*
G01*
X148075000Y-53775000D01*
G75*
G02*
X147875000Y-53975000I-200000J0D01*
G01*
X147475000Y-53975000D01*
G75*
G02*
X147275000Y-53775000I0J200000D01*
G01*
G37*
%TD*%
%TO.C,R18*%
G36*
G01*
X148925000Y-55775000D02*
X148925000Y-55225000D01*
G75*
G02*
X149125000Y-55025000I200000J0D01*
G01*
X149525000Y-55025000D01*
G75*
G02*
X149725000Y-55225000I0J-200000D01*
G01*
X149725000Y-55775000D01*
G75*
G02*
X149525000Y-55975000I-200000J0D01*
G01*
X149125000Y-55975000D01*
G75*
G02*
X148925000Y-55775000I0J200000D01*
G01*
G37*
G36*
G01*
X147275000Y-55775000D02*
X147275000Y-55225000D01*
G75*
G02*
X147475000Y-55025000I200000J0D01*
G01*
X147875000Y-55025000D01*
G75*
G02*
X148075000Y-55225000I0J-200000D01*
G01*
X148075000Y-55775000D01*
G75*
G02*
X147875000Y-55975000I-200000J0D01*
G01*
X147475000Y-55975000D01*
G75*
G02*
X147275000Y-55775000I0J200000D01*
G01*
G37*
%TD*%
%TO.C,R19*%
G36*
G01*
X147775000Y-57775000D02*
X147775000Y-57225000D01*
G75*
G02*
X147975000Y-57025000I200000J0D01*
G01*
X148375000Y-57025000D01*
G75*
G02*
X148575000Y-57225000I0J-200000D01*
G01*
X148575000Y-57775000D01*
G75*
G02*
X148375000Y-57975000I-200000J0D01*
G01*
X147975000Y-57975000D01*
G75*
G02*
X147775000Y-57775000I0J200000D01*
G01*
G37*
G36*
G01*
X149425000Y-57775000D02*
X149425000Y-57225000D01*
G75*
G02*
X149625000Y-57025000I200000J0D01*
G01*
X150025000Y-57025000D01*
G75*
G02*
X150225000Y-57225000I0J-200000D01*
G01*
X150225000Y-57775000D01*
G75*
G02*
X150025000Y-57975000I-200000J0D01*
G01*
X149625000Y-57975000D01*
G75*
G02*
X149425000Y-57775000I0J200000D01*
G01*
G37*
%TD*%
%TO.C,SW1*%
G36*
G01*
X150500000Y-63100000D02*
X148900000Y-63100000D01*
G75*
G02*
X148700000Y-62900000I0J200000D01*
G01*
X148700000Y-62500000D01*
G75*
G02*
X148900000Y-62300000I200000J0D01*
G01*
X150500000Y-62300000D01*
G75*
G02*
X150700000Y-62500000I0J-200000D01*
G01*
X150700000Y-62900000D01*
G75*
G02*
X150500000Y-63100000I-200000J0D01*
G01*
G37*
G36*
G01*
X150500000Y-67300000D02*
X148900000Y-67300000D01*
G75*
G02*
X148700000Y-67100000I0J200000D01*
G01*
X148700000Y-66700000D01*
G75*
G02*
X148900000Y-66500000I200000J0D01*
G01*
X150500000Y-66500000D01*
G75*
G02*
X150700000Y-66700000I0J-200000D01*
G01*
X150700000Y-67100000D01*
G75*
G02*
X150500000Y-67300000I-200000J0D01*
G01*
G37*
%TD*%
D28*
%TO.C,SW2*%
X213000000Y-39670000D03*
X216000000Y-39670000D03*
D29*
X212250000Y-41430000D03*
X215250000Y-41430000D03*
X216750000Y-41430000D03*
D30*
X210850000Y-38570000D03*
X218150000Y-38570000D03*
X218150000Y-40780000D03*
X210850000Y-40780000D03*
%TD*%
%TO.C,U1*%
G36*
G01*
X220450000Y-57945000D02*
X220450000Y-58245000D01*
G75*
G02*
X220300000Y-58395000I-150000J0D01*
G01*
X218650000Y-58395000D01*
G75*
G02*
X218500000Y-58245000I0J150000D01*
G01*
X218500000Y-57945000D01*
G75*
G02*
X218650000Y-57795000I150000J0D01*
G01*
X220300000Y-57795000D01*
G75*
G02*
X220450000Y-57945000I0J-150000D01*
G01*
G37*
G36*
G01*
X220450000Y-59215000D02*
X220450000Y-59515000D01*
G75*
G02*
X220300000Y-59665000I-150000J0D01*
G01*
X218650000Y-59665000D01*
G75*
G02*
X218500000Y-59515000I0J150000D01*
G01*
X218500000Y-59215000D01*
G75*
G02*
X218650000Y-59065000I150000J0D01*
G01*
X220300000Y-59065000D01*
G75*
G02*
X220450000Y-59215000I0J-150000D01*
G01*
G37*
G36*
G01*
X220450000Y-60485000D02*
X220450000Y-60785000D01*
G75*
G02*
X220300000Y-60935000I-150000J0D01*
G01*
X218650000Y-60935000D01*
G75*
G02*
X218500000Y-60785000I0J150000D01*
G01*
X218500000Y-60485000D01*
G75*
G02*
X218650000Y-60335000I150000J0D01*
G01*
X220300000Y-60335000D01*
G75*
G02*
X220450000Y-60485000I0J-150000D01*
G01*
G37*
G36*
G01*
X220450000Y-61755000D02*
X220450000Y-62055000D01*
G75*
G02*
X220300000Y-62205000I-150000J0D01*
G01*
X218650000Y-62205000D01*
G75*
G02*
X218500000Y-62055000I0J150000D01*
G01*
X218500000Y-61755000D01*
G75*
G02*
X218650000Y-61605000I150000J0D01*
G01*
X220300000Y-61605000D01*
G75*
G02*
X220450000Y-61755000I0J-150000D01*
G01*
G37*
G36*
G01*
X215500000Y-61755000D02*
X215500000Y-62055000D01*
G75*
G02*
X215350000Y-62205000I-150000J0D01*
G01*
X213700000Y-62205000D01*
G75*
G02*
X213550000Y-62055000I0J150000D01*
G01*
X213550000Y-61755000D01*
G75*
G02*
X213700000Y-61605000I150000J0D01*
G01*
X215350000Y-61605000D01*
G75*
G02*
X215500000Y-61755000I0J-150000D01*
G01*
G37*
G36*
G01*
X215500000Y-60485000D02*
X215500000Y-60785000D01*
G75*
G02*
X215350000Y-60935000I-150000J0D01*
G01*
X213700000Y-60935000D01*
G75*
G02*
X213550000Y-60785000I0J150000D01*
G01*
X213550000Y-60485000D01*
G75*
G02*
X213700000Y-60335000I150000J0D01*
G01*
X215350000Y-60335000D01*
G75*
G02*
X215500000Y-60485000I0J-150000D01*
G01*
G37*
G36*
G01*
X215500000Y-59215000D02*
X215500000Y-59515000D01*
G75*
G02*
X215350000Y-59665000I-150000J0D01*
G01*
X213700000Y-59665000D01*
G75*
G02*
X213550000Y-59515000I0J150000D01*
G01*
X213550000Y-59215000D01*
G75*
G02*
X213700000Y-59065000I150000J0D01*
G01*
X215350000Y-59065000D01*
G75*
G02*
X215500000Y-59215000I0J-150000D01*
G01*
G37*
G36*
G01*
X215500000Y-57945000D02*
X215500000Y-58245000D01*
G75*
G02*
X215350000Y-58395000I-150000J0D01*
G01*
X213700000Y-58395000D01*
G75*
G02*
X213550000Y-58245000I0J150000D01*
G01*
X213550000Y-57945000D01*
G75*
G02*
X213700000Y-57795000I150000J0D01*
G01*
X215350000Y-57795000D01*
G75*
G02*
X215500000Y-57945000I0J-150000D01*
G01*
G37*
%TD*%
D31*
%TO.C,U2*%
X160750000Y-54850000D03*
X161250000Y-54850000D03*
X161750000Y-54850000D03*
X162250000Y-54850000D03*
X162750000Y-54850000D03*
X163250000Y-54850000D03*
X163750000Y-54850000D03*
X164250000Y-54850000D03*
X164750000Y-54850000D03*
X165250000Y-54850000D03*
X165750000Y-54850000D03*
X166250000Y-54850000D03*
D32*
X167850000Y-56450000D03*
X167850000Y-56950000D03*
X167850000Y-57450000D03*
X167850000Y-57950000D03*
X167850000Y-58450000D03*
X167850000Y-58950000D03*
X167850000Y-59450000D03*
X167850000Y-59950000D03*
X167850000Y-60450000D03*
X167850000Y-60950000D03*
X167850000Y-61450000D03*
X167850000Y-61950000D03*
D31*
X166250000Y-63550000D03*
X165750000Y-63550000D03*
X165250000Y-63550000D03*
X164750000Y-63550000D03*
X164250000Y-63550000D03*
X163750000Y-63550000D03*
X163250000Y-63550000D03*
X162750000Y-63550000D03*
X162250000Y-63550000D03*
X161750000Y-63550000D03*
X161250000Y-63550000D03*
X160750000Y-63550000D03*
D32*
X159150000Y-61950000D03*
X159150000Y-61450000D03*
X159150000Y-60950000D03*
X159150000Y-60450000D03*
X159150000Y-59950000D03*
X159150000Y-59450000D03*
X159150000Y-58950000D03*
X159150000Y-58450000D03*
X159150000Y-57950000D03*
X159150000Y-57450000D03*
X159150000Y-56950000D03*
X159150000Y-56450000D03*
%TD*%
%TO.C,U3*%
G36*
G01*
X200325000Y-62730000D02*
X200325000Y-62430000D01*
G75*
G02*
X200475000Y-62280000I150000J0D01*
G01*
X202225000Y-62280000D01*
G75*
G02*
X202375000Y-62430000I0J-150000D01*
G01*
X202375000Y-62730000D01*
G75*
G02*
X202225000Y-62880000I-150000J0D01*
G01*
X200475000Y-62880000D01*
G75*
G02*
X200325000Y-62730000I0J150000D01*
G01*
G37*
G36*
G01*
X200325000Y-61460000D02*
X200325000Y-61160000D01*
G75*
G02*
X200475000Y-61010000I150000J0D01*
G01*
X202225000Y-61010000D01*
G75*
G02*
X202375000Y-61160000I0J-150000D01*
G01*
X202375000Y-61460000D01*
G75*
G02*
X202225000Y-61610000I-150000J0D01*
G01*
X200475000Y-61610000D01*
G75*
G02*
X200325000Y-61460000I0J150000D01*
G01*
G37*
G36*
G01*
X200325000Y-60190000D02*
X200325000Y-59890000D01*
G75*
G02*
X200475000Y-59740000I150000J0D01*
G01*
X202225000Y-59740000D01*
G75*
G02*
X202375000Y-59890000I0J-150000D01*
G01*
X202375000Y-60190000D01*
G75*
G02*
X202225000Y-60340000I-150000J0D01*
G01*
X200475000Y-60340000D01*
G75*
G02*
X200325000Y-60190000I0J150000D01*
G01*
G37*
G36*
G01*
X200325000Y-58920000D02*
X200325000Y-58620000D01*
G75*
G02*
X200475000Y-58470000I150000J0D01*
G01*
X202225000Y-58470000D01*
G75*
G02*
X202375000Y-58620000I0J-150000D01*
G01*
X202375000Y-58920000D01*
G75*
G02*
X202225000Y-59070000I-150000J0D01*
G01*
X200475000Y-59070000D01*
G75*
G02*
X200325000Y-58920000I0J150000D01*
G01*
G37*
G36*
G01*
X200325000Y-57650000D02*
X200325000Y-57350000D01*
G75*
G02*
X200475000Y-57200000I150000J0D01*
G01*
X202225000Y-57200000D01*
G75*
G02*
X202375000Y-57350000I0J-150000D01*
G01*
X202375000Y-57650000D01*
G75*
G02*
X202225000Y-57800000I-150000J0D01*
G01*
X200475000Y-57800000D01*
G75*
G02*
X200325000Y-57650000I0J150000D01*
G01*
G37*
G36*
G01*
X200325000Y-56380000D02*
X200325000Y-56080000D01*
G75*
G02*
X200475000Y-55930000I150000J0D01*
G01*
X202225000Y-55930000D01*
G75*
G02*
X202375000Y-56080000I0J-150000D01*
G01*
X202375000Y-56380000D01*
G75*
G02*
X202225000Y-56530000I-150000J0D01*
G01*
X200475000Y-56530000D01*
G75*
G02*
X200325000Y-56380000I0J150000D01*
G01*
G37*
G36*
G01*
X200325000Y-55110000D02*
X200325000Y-54810000D01*
G75*
G02*
X200475000Y-54660000I150000J0D01*
G01*
X202225000Y-54660000D01*
G75*
G02*
X202375000Y-54810000I0J-150000D01*
G01*
X202375000Y-55110000D01*
G75*
G02*
X202225000Y-55260000I-150000J0D01*
G01*
X200475000Y-55260000D01*
G75*
G02*
X200325000Y-55110000I0J150000D01*
G01*
G37*
G36*
G01*
X200325000Y-53840000D02*
X200325000Y-53540000D01*
G75*
G02*
X200475000Y-53390000I150000J0D01*
G01*
X202225000Y-53390000D01*
G75*
G02*
X202375000Y-53540000I0J-150000D01*
G01*
X202375000Y-53840000D01*
G75*
G02*
X202225000Y-53990000I-150000J0D01*
G01*
X200475000Y-53990000D01*
G75*
G02*
X200325000Y-53840000I0J150000D01*
G01*
G37*
G36*
G01*
X200325000Y-52570000D02*
X200325000Y-52270000D01*
G75*
G02*
X200475000Y-52120000I150000J0D01*
G01*
X202225000Y-52120000D01*
G75*
G02*
X202375000Y-52270000I0J-150000D01*
G01*
X202375000Y-52570000D01*
G75*
G02*
X202225000Y-52720000I-150000J0D01*
G01*
X200475000Y-52720000D01*
G75*
G02*
X200325000Y-52570000I0J150000D01*
G01*
G37*
G36*
G01*
X209625000Y-52570000D02*
X209625000Y-52270000D01*
G75*
G02*
X209775000Y-52120000I150000J0D01*
G01*
X211525000Y-52120000D01*
G75*
G02*
X211675000Y-52270000I0J-150000D01*
G01*
X211675000Y-52570000D01*
G75*
G02*
X211525000Y-52720000I-150000J0D01*
G01*
X209775000Y-52720000D01*
G75*
G02*
X209625000Y-52570000I0J150000D01*
G01*
G37*
G36*
G01*
X209625000Y-53840000D02*
X209625000Y-53540000D01*
G75*
G02*
X209775000Y-53390000I150000J0D01*
G01*
X211525000Y-53390000D01*
G75*
G02*
X211675000Y-53540000I0J-150000D01*
G01*
X211675000Y-53840000D01*
G75*
G02*
X211525000Y-53990000I-150000J0D01*
G01*
X209775000Y-53990000D01*
G75*
G02*
X209625000Y-53840000I0J150000D01*
G01*
G37*
G36*
G01*
X209625000Y-55110000D02*
X209625000Y-54810000D01*
G75*
G02*
X209775000Y-54660000I150000J0D01*
G01*
X211525000Y-54660000D01*
G75*
G02*
X211675000Y-54810000I0J-150000D01*
G01*
X211675000Y-55110000D01*
G75*
G02*
X211525000Y-55260000I-150000J0D01*
G01*
X209775000Y-55260000D01*
G75*
G02*
X209625000Y-55110000I0J150000D01*
G01*
G37*
G36*
G01*
X209625000Y-56380000D02*
X209625000Y-56080000D01*
G75*
G02*
X209775000Y-55930000I150000J0D01*
G01*
X211525000Y-55930000D01*
G75*
G02*
X211675000Y-56080000I0J-150000D01*
G01*
X211675000Y-56380000D01*
G75*
G02*
X211525000Y-56530000I-150000J0D01*
G01*
X209775000Y-56530000D01*
G75*
G02*
X209625000Y-56380000I0J150000D01*
G01*
G37*
G36*
G01*
X209625000Y-57650000D02*
X209625000Y-57350000D01*
G75*
G02*
X209775000Y-57200000I150000J0D01*
G01*
X211525000Y-57200000D01*
G75*
G02*
X211675000Y-57350000I0J-150000D01*
G01*
X211675000Y-57650000D01*
G75*
G02*
X211525000Y-57800000I-150000J0D01*
G01*
X209775000Y-57800000D01*
G75*
G02*
X209625000Y-57650000I0J150000D01*
G01*
G37*
G36*
G01*
X209625000Y-58920000D02*
X209625000Y-58620000D01*
G75*
G02*
X209775000Y-58470000I150000J0D01*
G01*
X211525000Y-58470000D01*
G75*
G02*
X211675000Y-58620000I0J-150000D01*
G01*
X211675000Y-58920000D01*
G75*
G02*
X211525000Y-59070000I-150000J0D01*
G01*
X209775000Y-59070000D01*
G75*
G02*
X209625000Y-58920000I0J150000D01*
G01*
G37*
G36*
G01*
X209625000Y-60190000D02*
X209625000Y-59890000D01*
G75*
G02*
X209775000Y-59740000I150000J0D01*
G01*
X211525000Y-59740000D01*
G75*
G02*
X211675000Y-59890000I0J-150000D01*
G01*
X211675000Y-60190000D01*
G75*
G02*
X211525000Y-60340000I-150000J0D01*
G01*
X209775000Y-60340000D01*
G75*
G02*
X209625000Y-60190000I0J150000D01*
G01*
G37*
G36*
G01*
X209625000Y-61460000D02*
X209625000Y-61160000D01*
G75*
G02*
X209775000Y-61010000I150000J0D01*
G01*
X211525000Y-61010000D01*
G75*
G02*
X211675000Y-61160000I0J-150000D01*
G01*
X211675000Y-61460000D01*
G75*
G02*
X211525000Y-61610000I-150000J0D01*
G01*
X209775000Y-61610000D01*
G75*
G02*
X209625000Y-61460000I0J150000D01*
G01*
G37*
G36*
G01*
X209625000Y-62730000D02*
X209625000Y-62430000D01*
G75*
G02*
X209775000Y-62280000I150000J0D01*
G01*
X211525000Y-62280000D01*
G75*
G02*
X211675000Y-62430000I0J-150000D01*
G01*
X211675000Y-62730000D01*
G75*
G02*
X211525000Y-62880000I-150000J0D01*
G01*
X209775000Y-62880000D01*
G75*
G02*
X209625000Y-62730000I0J150000D01*
G01*
G37*
%TD*%
%TO.C,U6*%
G36*
G01*
X204500000Y-70055000D02*
X204500000Y-69755000D01*
G75*
G02*
X204650000Y-69605000I150000J0D01*
G01*
X206300000Y-69605000D01*
G75*
G02*
X206450000Y-69755000I0J-150000D01*
G01*
X206450000Y-70055000D01*
G75*
G02*
X206300000Y-70205000I-150000J0D01*
G01*
X204650000Y-70205000D01*
G75*
G02*
X204500000Y-70055000I0J150000D01*
G01*
G37*
G36*
G01*
X204500000Y-68785000D02*
X204500000Y-68485000D01*
G75*
G02*
X204650000Y-68335000I150000J0D01*
G01*
X206300000Y-68335000D01*
G75*
G02*
X206450000Y-68485000I0J-150000D01*
G01*
X206450000Y-68785000D01*
G75*
G02*
X206300000Y-68935000I-150000J0D01*
G01*
X204650000Y-68935000D01*
G75*
G02*
X204500000Y-68785000I0J150000D01*
G01*
G37*
G36*
G01*
X204500000Y-67515000D02*
X204500000Y-67215000D01*
G75*
G02*
X204650000Y-67065000I150000J0D01*
G01*
X206300000Y-67065000D01*
G75*
G02*
X206450000Y-67215000I0J-150000D01*
G01*
X206450000Y-67515000D01*
G75*
G02*
X206300000Y-67665000I-150000J0D01*
G01*
X204650000Y-67665000D01*
G75*
G02*
X204500000Y-67515000I0J150000D01*
G01*
G37*
G36*
G01*
X204500000Y-66245000D02*
X204500000Y-65945000D01*
G75*
G02*
X204650000Y-65795000I150000J0D01*
G01*
X206300000Y-65795000D01*
G75*
G02*
X206450000Y-65945000I0J-150000D01*
G01*
X206450000Y-66245000D01*
G75*
G02*
X206300000Y-66395000I-150000J0D01*
G01*
X204650000Y-66395000D01*
G75*
G02*
X204500000Y-66245000I0J150000D01*
G01*
G37*
G36*
G01*
X199550000Y-66245000D02*
X199550000Y-65945000D01*
G75*
G02*
X199700000Y-65795000I150000J0D01*
G01*
X201350000Y-65795000D01*
G75*
G02*
X201500000Y-65945000I0J-150000D01*
G01*
X201500000Y-66245000D01*
G75*
G02*
X201350000Y-66395000I-150000J0D01*
G01*
X199700000Y-66395000D01*
G75*
G02*
X199550000Y-66245000I0J150000D01*
G01*
G37*
G36*
G01*
X199550000Y-67515000D02*
X199550000Y-67215000D01*
G75*
G02*
X199700000Y-67065000I150000J0D01*
G01*
X201350000Y-67065000D01*
G75*
G02*
X201500000Y-67215000I0J-150000D01*
G01*
X201500000Y-67515000D01*
G75*
G02*
X201350000Y-67665000I-150000J0D01*
G01*
X199700000Y-67665000D01*
G75*
G02*
X199550000Y-67515000I0J150000D01*
G01*
G37*
G36*
G01*
X199550000Y-68785000D02*
X199550000Y-68485000D01*
G75*
G02*
X199700000Y-68335000I150000J0D01*
G01*
X201350000Y-68335000D01*
G75*
G02*
X201500000Y-68485000I0J-150000D01*
G01*
X201500000Y-68785000D01*
G75*
G02*
X201350000Y-68935000I-150000J0D01*
G01*
X199700000Y-68935000D01*
G75*
G02*
X199550000Y-68785000I0J150000D01*
G01*
G37*
G36*
G01*
X199550000Y-70055000D02*
X199550000Y-69755000D01*
G75*
G02*
X199700000Y-69605000I150000J0D01*
G01*
X201350000Y-69605000D01*
G75*
G02*
X201500000Y-69755000I0J-150000D01*
G01*
X201500000Y-70055000D01*
G75*
G02*
X201350000Y-70205000I-150000J0D01*
G01*
X199700000Y-70205000D01*
G75*
G02*
X199550000Y-70055000I0J150000D01*
G01*
G37*
%TD*%
D33*
%TO.C,U7*%
X160987500Y-41500000D03*
X160987500Y-41000000D03*
X162512500Y-41500000D03*
X162512500Y-41000000D03*
X160987500Y-40500000D03*
X162512500Y-40500000D03*
X160987500Y-42000000D03*
X162512500Y-42000000D03*
D34*
X161500000Y-40487500D03*
X162000000Y-40487500D03*
X162000000Y-42012500D03*
X161500000Y-42012500D03*
%TD*%
D35*
%TO.C,Y1*%
X156000000Y-53450000D03*
X156000000Y-55950000D03*
%TD*%
D36*
%TO.C,Y2*%
X201150000Y-48850000D03*
X201150000Y-46650000D03*
X202850000Y-46650000D03*
X202850000Y-48850000D03*
%TD*%
%TO.C,D9*%
G36*
G01*
X156656250Y-40825000D02*
X156143750Y-40825000D01*
G75*
G02*
X155925000Y-40606250I0J218750D01*
G01*
X155925000Y-40168750D01*
G75*
G02*
X156143750Y-39950000I218750J0D01*
G01*
X156656250Y-39950000D01*
G75*
G02*
X156875000Y-40168750I0J-218750D01*
G01*
X156875000Y-40606250D01*
G75*
G02*
X156656250Y-40825000I-218750J0D01*
G01*
G37*
G36*
G01*
X156656250Y-39250000D02*
X156143750Y-39250000D01*
G75*
G02*
X155925000Y-39031250I0J218750D01*
G01*
X155925000Y-38593750D01*
G75*
G02*
X156143750Y-38375000I218750J0D01*
G01*
X156656250Y-38375000D01*
G75*
G02*
X156875000Y-38593750I0J-218750D01*
G01*
X156875000Y-39031250D01*
G75*
G02*
X156656250Y-39250000I-218750J0D01*
G01*
G37*
%TD*%
D26*
%TO.C,Q9*%
X159950000Y-48300000D03*
X158050000Y-48300000D03*
X159000000Y-46300000D03*
%TD*%
%TO.C,R20*%
G36*
G01*
X156125000Y-41775000D02*
X156675000Y-41775000D01*
G75*
G02*
X156875000Y-41975000I0J-200000D01*
G01*
X156875000Y-42375000D01*
G75*
G02*
X156675000Y-42575000I-200000J0D01*
G01*
X156125000Y-42575000D01*
G75*
G02*
X155925000Y-42375000I0J200000D01*
G01*
X155925000Y-41975000D01*
G75*
G02*
X156125000Y-41775000I200000J0D01*
G01*
G37*
G36*
G01*
X156125000Y-43425000D02*
X156675000Y-43425000D01*
G75*
G02*
X156875000Y-43625000I0J-200000D01*
G01*
X156875000Y-44025000D01*
G75*
G02*
X156675000Y-44225000I-200000J0D01*
G01*
X156125000Y-44225000D01*
G75*
G02*
X155925000Y-44025000I0J200000D01*
G01*
X155925000Y-43625000D01*
G75*
G02*
X156125000Y-43425000I200000J0D01*
G01*
G37*
%TD*%
%TO.C,C31*%
G36*
G01*
X170250000Y-58425000D02*
X169750000Y-58425000D01*
G75*
G02*
X169525000Y-58200000I0J225000D01*
G01*
X169525000Y-57750000D01*
G75*
G02*
X169750000Y-57525000I225000J0D01*
G01*
X170250000Y-57525000D01*
G75*
G02*
X170475000Y-57750000I0J-225000D01*
G01*
X170475000Y-58200000D01*
G75*
G02*
X170250000Y-58425000I-225000J0D01*
G01*
G37*
G36*
G01*
X170250000Y-56875000D02*
X169750000Y-56875000D01*
G75*
G02*
X169525000Y-56650000I0J225000D01*
G01*
X169525000Y-56200000D01*
G75*
G02*
X169750000Y-55975000I225000J0D01*
G01*
X170250000Y-55975000D01*
G75*
G02*
X170475000Y-56200000I0J-225000D01*
G01*
X170475000Y-56650000D01*
G75*
G02*
X170250000Y-56875000I-225000J0D01*
G01*
G37*
%TD*%
%TO.C,R21*%
G36*
G01*
X228125000Y-46275000D02*
X228125000Y-45725000D01*
G75*
G02*
X228325000Y-45525000I200000J0D01*
G01*
X228725000Y-45525000D01*
G75*
G02*
X228925000Y-45725000I0J-200000D01*
G01*
X228925000Y-46275000D01*
G75*
G02*
X228725000Y-46475000I-200000J0D01*
G01*
X228325000Y-46475000D01*
G75*
G02*
X228125000Y-46275000I0J200000D01*
G01*
G37*
G36*
G01*
X226475000Y-46275000D02*
X226475000Y-45725000D01*
G75*
G02*
X226675000Y-45525000I200000J0D01*
G01*
X227075000Y-45525000D01*
G75*
G02*
X227275000Y-45725000I0J-200000D01*
G01*
X227275000Y-46275000D01*
G75*
G02*
X227075000Y-46475000I-200000J0D01*
G01*
X226675000Y-46475000D01*
G75*
G02*
X226475000Y-46275000I0J200000D01*
G01*
G37*
%TD*%
%TO.C,R22*%
G36*
G01*
X229875000Y-46275000D02*
X229875000Y-45725000D01*
G75*
G02*
X230075000Y-45525000I200000J0D01*
G01*
X230475000Y-45525000D01*
G75*
G02*
X230675000Y-45725000I0J-200000D01*
G01*
X230675000Y-46275000D01*
G75*
G02*
X230475000Y-46475000I-200000J0D01*
G01*
X230075000Y-46475000D01*
G75*
G02*
X229875000Y-46275000I0J200000D01*
G01*
G37*
G36*
G01*
X231525000Y-46275000D02*
X231525000Y-45725000D01*
G75*
G02*
X231725000Y-45525000I200000J0D01*
G01*
X232125000Y-45525000D01*
G75*
G02*
X232325000Y-45725000I0J-200000D01*
G01*
X232325000Y-46275000D01*
G75*
G02*
X232125000Y-46475000I-200000J0D01*
G01*
X231725000Y-46475000D01*
G75*
G02*
X231525000Y-46275000I0J200000D01*
G01*
G37*
%TD*%
%TO.C,C32*%
G36*
G01*
X157875000Y-50750000D02*
X157875000Y-50250000D01*
G75*
G02*
X158100000Y-50025000I225000J0D01*
G01*
X158550000Y-50025000D01*
G75*
G02*
X158775000Y-50250000I0J-225000D01*
G01*
X158775000Y-50750000D01*
G75*
G02*
X158550000Y-50975000I-225000J0D01*
G01*
X158100000Y-50975000D01*
G75*
G02*
X157875000Y-50750000I0J225000D01*
G01*
G37*
G36*
G01*
X159425000Y-50750000D02*
X159425000Y-50250000D01*
G75*
G02*
X159650000Y-50025000I225000J0D01*
G01*
X160100000Y-50025000D01*
G75*
G02*
X160325000Y-50250000I0J-225000D01*
G01*
X160325000Y-50750000D01*
G75*
G02*
X160100000Y-50975000I-225000J0D01*
G01*
X159650000Y-50975000D01*
G75*
G02*
X159425000Y-50750000I0J225000D01*
G01*
G37*
%TD*%
%TO.C,C33*%
G36*
G01*
X153125000Y-51050000D02*
X153125000Y-50550000D01*
G75*
G02*
X153350000Y-50325000I225000J0D01*
G01*
X153800000Y-50325000D01*
G75*
G02*
X154025000Y-50550000I0J-225000D01*
G01*
X154025000Y-51050000D01*
G75*
G02*
X153800000Y-51275000I-225000J0D01*
G01*
X153350000Y-51275000D01*
G75*
G02*
X153125000Y-51050000I0J225000D01*
G01*
G37*
G36*
G01*
X151575000Y-51050000D02*
X151575000Y-50550000D01*
G75*
G02*
X151800000Y-50325000I225000J0D01*
G01*
X152250000Y-50325000D01*
G75*
G02*
X152475000Y-50550000I0J-225000D01*
G01*
X152475000Y-51050000D01*
G75*
G02*
X152250000Y-51275000I-225000J0D01*
G01*
X151800000Y-51275000D01*
G75*
G02*
X151575000Y-51050000I0J225000D01*
G01*
G37*
%TD*%
%TO.C,U9*%
X156950000Y-51800000D03*
X155050000Y-51800000D03*
X156000000Y-49800000D03*
%TD*%
M02*
