M48
; DRILL file {KiCad (5.1.10-1-10_14)} date Monday, July 19, 2021 at 10:49:50 PM
; FORMAT={-:-/ absolute / metric / decimal}
; #@! TF.CreationDate,2021-07-19T22:49:50+10:00
; #@! TF.GenerationSoftware,Kicad,Pcbnew,(5.1.10-1-10_14)
; #@! TF.FileFunction,Plated,1,4,PTH
FMAT,2
METRIC
T1C0.400
T2C0.600
T3C1.200
%
G90
G05
T1
X140.0Y-45.0
X140.5Y-49.3
X140.835Y-68.75
X141.0Y-54.0
X141.0Y-56.0
X141.0Y-58.0
X142.5Y-62.0
X142.7Y-38.8
X143.0Y-45.0
X144.0Y-49.3
X145.8Y-38.8
X146.383Y-60.75
X146.5Y-45.0
X146.5Y-52.25
X146.75Y-67.0
X147.5Y-49.3
X148.0Y-73.0
X148.8Y-38.8
X149.1Y-54.4
X149.25Y-58.75
X149.4Y-68.6
X149.4Y-70.2
X149.6Y-49.5
X149.75Y-64.0
X149.761Y-60.569
X149.8Y-45.0
X150.1Y-50.7
X150.8Y-55.0
X151.0Y-60.25
X151.0Y-68.4
X151.158Y-70.092
X151.2Y-72.0
X151.433Y-66.833
X151.6Y-38.761
X152.0Y-58.5
X152.2Y-52.0
X152.2Y-56.9
X152.3Y-62.0
X152.4Y-72.0
X152.6Y-68.0
X152.7Y-49.8
X152.7Y-60.6
X152.75Y-59.25
X153.0Y-65.1
X153.25Y-45.0
X153.6Y-64.0
X153.6Y-66.8
X153.75Y-60.25
X153.75Y-61.911
X153.789Y-58.539
X154.0Y-72.0
X154.5Y-49.3
X154.6Y-38.8
X154.7Y-50.7
X155.6Y-68.0
X155.8Y-72.0
X156.2Y-45.0
X156.75Y-70.0
X157.1Y-50.449
X157.5Y-38.8
X157.6Y-72.0
X157.7Y-41.3
X157.7Y-43.1
X157.8Y-52.1
X158.086Y-53.591
X158.1Y-49.3
X158.182Y-68.677
X158.4Y-70.6
X158.5Y-65.3
X158.5Y-64.3
X158.6Y-63.31
X158.8Y-55.7
X159.0Y-53.939
X159.0Y-74.25
X159.7Y-66.3
X159.7Y-52.1
X159.75Y-41.5
X159.9Y-68.6
X160.533Y-47.0
X160.728Y-59.033
X160.75Y-39.25
X160.75Y-60.0
X160.772Y-61.415
X160.779Y-56.7
X160.843Y-45.803
X161.0Y-71.75
X161.0Y-74.25
X161.183Y-48.768
X161.596Y-56.098
X161.75Y-39.25
X161.847Y-64.767
X162.0Y-43.8
X162.1Y-57.1
X162.1Y-60.3
X162.5Y-46.815
X162.5Y-49.9
X162.6Y-48.7
X162.75Y-39.25
X162.8Y-43.1
X162.8Y-71.7
X163.027Y-60.936
X163.1Y-61.9
X163.221Y-57.312
X163.25Y-74.0
X163.5Y-40.25
X164.0Y-67.0
X164.052Y-56.818
X164.25Y-44.5
X164.6Y-40.3
X164.7Y-45.5
X165.0Y-58.7
X165.016Y-56.901
X165.067Y-65.046
X165.1Y-46.6
X165.5Y-49.0
X165.5Y-60.4
X165.623Y-68.58
X165.75Y-44.5
X165.8Y-40.3
X165.924Y-56.569
X166.0Y-58.0
X166.2Y-62.1
X166.3Y-65.2
X166.4Y-38.9
X166.542Y-68.882
X166.678Y-55.964
X166.927Y-63.873
X166.951Y-45.28
X167.25Y-74.0
X167.304Y-64.928
X167.4Y-46.6
X167.5Y-54.181
X167.6Y-42.6
X168.5Y-49.0
X168.5Y-50.7
X169.2Y-57.0
X169.211Y-45.549
X169.25Y-59.0
X169.5Y-46.9
X169.5Y-54.181
X169.5Y-63.6
X169.701Y-38.412
X169.701Y-42.199
X169.8Y-43.9
X170.0Y-62.5
X170.4Y-50.9
X170.5Y-47.651
X170.5Y-52.5
X170.5Y-69.7
X170.6Y-49.0
X170.7Y-61.7
X171.028Y-60.228
X171.25Y-74.0
X171.3Y-63.6
X171.342Y-65.624
X171.486Y-56.484
X172.3Y-45.549
X172.505Y-50.318
X173.1Y-43.6
X174.4Y-66.3
X174.4Y-68.2
X174.586Y-62.16
X174.593Y-60.136
X174.75Y-42.0
X174.75Y-43.5
X174.8Y-51.5
X177.437Y-45.264
X177.6Y-46.5
X178.0Y-47.6
X178.0Y-73.8
X178.249Y-48.602
X178.249Y-61.9
X178.249Y-64.138
X178.249Y-65.337
X178.4Y-38.6
X178.4Y-39.7
X178.9Y-68.1
X179.608Y-61.093
X179.922Y-60.178
X180.0Y-69.5
X180.25Y-71.5
X181.4Y-72.8
X181.8Y-52.6
X182.5Y-67.3
X182.6Y-46.3
X182.6Y-47.5
X183.9Y-72.8
X184.0Y-64.0
X185.0Y-70.5
X187.0Y-53.25
X188.0Y-70.5
X188.2Y-43.0
X188.3Y-45.7
X188.3Y-48.6
X189.0Y-59.0
X189.0Y-64.0
X189.1Y-72.8
X189.25Y-70.5
X190.684Y-73.79
X191.341Y-71.741
X191.5Y-46.75
X191.5Y-47.75
X191.75Y-42.0
X192.0Y-73.645
X192.5Y-39.75
X192.962Y-71.587
X193.25Y-42.0
X195.25Y-42.0
X195.25Y-43.5
X195.25Y-52.5
X195.25Y-56.25
X195.7Y-65.9
X196.1Y-68.5
X197.5Y-54.5
X197.683Y-70.116
X197.75Y-38.761
X197.75Y-40.75
X198.5Y-46.0
X199.582Y-68.905
X199.75Y-52.5
X199.97Y-41.65
X199.97Y-43.55
X201.25Y-45.5
X203.0Y-50.0
X203.0Y-73.5
X204.5Y-71.75
X204.75Y-56.25
X205.5Y-49.5
X205.5Y-73.5
X206.0Y-43.0
X206.5Y-64.25
X206.5Y-71.75
X207.75Y-63.25
X208.0Y-73.5
X208.5Y-65.5
X209.5Y-68.0
X210.0Y-45.0
X210.0Y-49.0
X212.0Y-68.0
X212.25Y-65.5
X213.0Y-58.0
X213.0Y-59.25
X213.0Y-60.5
X213.0Y-61.75
X214.5Y-47.75
X214.5Y-52.0
X214.5Y-55.5
X214.5Y-72.0
X214.75Y-65.0
X214.75Y-68.0
X215.666Y-63.0
X217.0Y-43.0
X217.0Y-55.75
X217.12Y-46.34
X217.12Y-51.29
X219.0Y-72.0
X219.5Y-62.75
X219.71Y-43.49
X219.71Y-46.34
X219.74Y-48.75
X219.75Y-51.25
X222.5Y-63.5
X222.7Y-65.5
X222.84Y-49.26
X222.99Y-46.34
X223.0Y-72.0
X223.79Y-57.93
X224.0Y-56.5
X224.2Y-61.9
X225.1Y-43.9
X225.25Y-64.75
X225.3Y-59.75
X226.25Y-67.75
X226.6Y-61.9
X226.75Y-56.5
X226.94Y-57.93
X227.7Y-63.8
X228.0Y-67.75
X228.0Y-71.75
X228.4Y-59.2
X229.25Y-70.0
X229.4Y-43.3
X229.6Y-61.0
X229.8Y-47.7
X230.8Y-65.6
X230.8Y-68.0
X232.0Y-40.0
X232.2Y-48.7
X232.7Y-74.1
X233.7Y-65.9
X235.0Y-42.0
X235.9Y-74.1
X236.0Y-71.0
T3
X232.6Y-51.6
X232.6Y-55.41
X232.6Y-59.22
X232.6Y-63.03
T2
G00X140.15Y-52.18
M15
G01X140.75Y-52.18
M16
G05
G00X140.15Y-60.82
M15
G01X140.75Y-60.82
M16
G05
G00X144.08Y-52.18
M15
G01X145.18Y-52.18
M16
G05
G00X144.08Y-60.82
M15
G01X145.18Y-60.82
M16
G05
T0
M30
